<?xml version="1.0" standalone="no"?>
<!DOCTYPE svg PUBLIC "-//W3C//DTD SVG 20010904//EN"
 "http://www.w3.org/TR/2001/REC-SVG-20010904/DTD/svg10.dtd">
<svg version="1.0" xmlns="http://www.w3.org/2000/svg"
 width="128.000000pt" height="128.000000pt" viewBox="0 0 85.000000 128.000000"
 preserveAspectRatio="xMidYMid meet">
<metadata>
Created by potrace 1.11, written by Peter Selinger 2001-2013
</metadata>
<g transform="translate(0.000000,128.000000) scale(0.100000,-0.100000)"
fill="#1f4e78" stroke="none">
<path d="M146 1147 c-48 -27 -75 -62 -86 -113 -13 -54 -12 -570 0 -616 13 -45
52 -93 92 -114 21 -11 27 -19 20 -27 -5 -7 -46 -72 -91 -144 l-81 -133 63 0
62 1 60 99 60 100 180 0 180 0 60 -100 60 -99 62 -1 63 0 -81 133 c-45 72 -85
137 -90 143 -6 7 4 19 28 35 47 31 72 66 83 115 12 51 12 557 0 608 -11 51
-38 86 -86 113 -37 22 -49 23 -279 23 -230 0 -242 -1 -279 -23z m362 -3 c20
-6 23 -12 20 -53 l-3 -46 -100 0 -100 0 -3 47 c-2 38 0 47 15 51 27 7 145 8
171 1z m167 -159 c23 -22 25 -32 25 -110 0 -78 -2 -88 -25 -110 l-24 -25 -226
0 -226 0 -24 25 c-23 22 -25 32 -25 110 0 78 2 88 25 110 l24 25 226 0 226 0
24 -25z m-397 -501 c22 -15 30 -66 14 -90 -25 -38 -93 -37 -119 3 -21 31 -8
72 27 90 33 17 51 16 78 -3z m395 -15 c21 -26 22 -48 2 -76 -25 -36 -93 -36
-117 1 -4 6 -8 25 -8 43 0 61 81 82 123 32z"/>
</g>
</svg>
