<?xml version="1.0" encoding="UTF-8" ?>
<!DOCTYPE svg PUBLIC "-//W3C//DTD SVG 1.1//EN" "http://www.w3.org/Graphics/SVG/1.1/DTD/svg11.dtd">
<svg width="505pt" height="595pt" viewBox="0 0 505 595" version="1.1" xmlns="http://www.w3.org/2000/svg">
<path fill="#ffffff" d=" M 0.00 0.00 L 505.00 0.00 L 505.00 595.00 L 0.00 595.00 L 0.00 0.00 Z" />
<path fill="#000000" d=" M 213.98 17.11 C 217.55 15.39 221.76 14.65 225.73 14.24 C 226.13 14.61 226.93 15.36 227.33 15.73 C 227.30 18.47 227.30 21.21 227.15 23.94 C 230.74 26.00 232.55 29.84 235.07 32.93 C 237.89 35.16 240.92 37.35 244.41 38.38 C 256.03 40.59 267.53 43.49 279.26 45.06 C 281.30 45.28 283.13 46.21 284.87 47.26 C 286.44 53.89 279.28 56.34 275.85 60.42 C 276.03 60.94 276.41 62.00 276.59 62.53 C 278.27 63.97 280.09 65.46 280.90 67.59 C 281.00 69.99 280.61 72.37 280.30 74.75 C 281.95 76.54 283.27 78.60 284.80 80.49 C 284.66 82.30 284.23 84.09 284.25 85.91 C 287.21 90.05 292.65 91.93 294.90 96.60 C 293.68 99.04 294.25 101.90 292.98 104.32 C 292.01 104.48 291.04 104.64 290.07 104.81 C 288.99 104.54 287.90 104.64 286.86 105.00 C 285.08 103.23 285.19 100.62 284.50 98.37 C 283.87 96.96 282.62 95.97 281.66 94.81 C 280.78 94.50 279.91 94.18 279.04 93.87 C 277.21 95.46 275.60 98.23 272.79 97.80 C 270.41 96.82 268.22 95.45 265.92 94.31 C 263.69 95.24 262.74 97.70 260.64 98.80 C 259.14 99.56 257.29 99.36 255.93 100.41 C 254.48 102.52 253.93 105.43 251.55 106.75 C 247.52 108.15 243.55 110.53 239.11 109.85 C 237.17 109.57 238.05 106.95 237.61 105.67 C 233.70 108.38 230.77 112.28 229.41 116.85 C 231.27 120.57 231.94 125.03 235.06 127.99 C 236.91 129.81 237.69 132.32 238.27 134.78 C 237.86 137.08 237.81 139.44 237.09 141.67 C 235.29 142.31 233.03 142.27 231.76 143.89 C 231.33 150.11 234.03 156.00 234.05 162.25 C 234.67 164.64 235.04 167.09 235.40 169.53 C 235.47 170.92 235.21 172.55 236.46 173.53 C 239.84 177.17 244.41 179.82 246.63 184.43 C 247.49 186.27 248.89 187.74 250.35 189.12 C 253.50 189.77 255.34 192.41 257.06 194.88 C 262.09 199.31 265.86 205.54 272.56 207.70 C 274.84 209.63 277.87 210.35 280.11 212.28 L 278.70 212.49 C 275.78 212.76 273.42 210.62 270.90 209.51 L 270.65 209.36 L 270.38 209.22 C 269.20 208.62 268.02 208.05 266.83 207.51 L 266.55 207.34 L 266.27 207.15 C 265.11 206.20 263.97 205.25 262.79 204.34 L 262.71 204.27 L 262.62 204.19 C 262.28 203.87 261.59 203.22 261.25 202.89 C 260.38 201.68 259.33 200.62 258.13 199.74 C 255.74 196.99 253.47 194.02 250.16 192.30 C 248.84 194.22 247.56 196.17 246.38 198.18 C 244.37 197.97 242.39 197.53 240.66 196.45 L 240.50 196.36 L 240.43 196.35 C 239.17 196.17 237.91 196.00 236.65 195.84 C 235.15 193.95 233.41 192.28 231.48 190.84 C 230.02 192.33 228.44 193.73 227.24 195.46 C 227.48 198.26 227.96 201.05 228.07 203.87 C 221.20 203.01 213.95 201.03 209.23 195.62 C 206.29 192.12 207.98 187.48 207.62 183.42 C 207.01 180.74 204.04 180.18 201.85 179.41 L 201.62 179.32 L 201.38 179.17 C 199.50 177.78 197.39 176.81 195.23 175.97 C 193.99 176.92 192.75 177.86 191.52 178.80 C 186.63 178.50 181.90 179.62 177.50 181.69 C 177.06 181.41 176.17 180.86 175.73 180.59 C 175.63 180.53 175.43 180.41 175.33 180.35 C 173.30 179.06 171.03 178.24 168.76 177.49 L 168.57 177.43 L 168.35 177.35 C 164.91 176.03 160.88 175.37 158.40 172.39 C 155.57 171.69 153.14 170.07 150.74 168.50 C 150.66 168.44 150.51 168.34 150.43 168.28 C 149.93 167.91 148.94 167.16 148.44 166.78 C 147.63 165.56 146.31 164.88 144.87 164.79 C 142.76 163.18 141.13 161.09 139.47 159.06 C 137.24 158.98 135.21 160.14 133.17 160.90 C 132.58 161.29 131.38 162.08 130.78 162.47 L 131.10 163.16 C 131.60 164.23 132.13 165.30 132.66 166.36 C 132.54 166.63 132.30 167.16 132.18 167.43 C 132.88 168.40 133.55 169.40 134.18 170.42 L 134.30 170.62 L 134.43 170.78 C 135.53 172.22 136.79 173.53 137.76 175.07 C 138.09 176.91 138.01 178.79 138.07 180.65 C 139.02 181.48 139.98 182.32 140.93 183.17 C 144.15 187.47 146.13 192.64 149.89 196.51 C 150.03 200.54 149.16 204.50 148.88 208.50 C 151.38 211.27 153.92 214.02 156.87 216.32 C 156.97 216.84 157.17 217.87 157.26 218.39 C 160.20 224.71 160.23 231.75 160.00 238.57 C 163.69 239.53 167.35 241.73 168.20 245.73 C 168.94 246.25 169.69 246.77 170.43 247.30 C 172.58 251.16 177.06 252.88 179.10 256.79 C 180.69 259.74 183.61 261.96 184.26 265.38 C 183.36 266.24 182.47 267.10 181.58 267.97 C 182.02 268.47 182.91 269.45 183.35 269.94 C 188.68 269.38 193.57 271.57 198.47 273.26 C 201.09 276.77 203.97 280.07 206.75 283.46 C 206.81 284.06 206.95 285.25 207.01 285.84 C 210.15 288.42 213.99 290.09 216.73 293.17 C 220.70 297.48 225.52 301.13 228.38 306.36 C 228.42 306.44 228.51 306.59 228.55 306.66 C 229.04 307.67 229.55 308.67 230.05 309.69 C 233.11 309.85 234.39 312.76 236.24 314.72 C 238.98 317.68 241.62 320.96 245.34 322.74 C 249.02 324.46 252.02 327.24 255.55 329.22 C 256.14 330.36 257.07 330.99 258.34 331.09 L 258.79 331.31 C 260.05 332.60 262.16 332.59 263.25 331.08 C 267.69 330.39 271.54 332.80 275.44 334.47 C 277.88 335.29 280.45 335.79 283.01 335.18 C 285.63 335.86 288.23 336.64 290.86 337.33 C 291.82 334.73 292.09 331.96 292.11 329.21 C 292.58 329.13 293.53 328.97 294.00 328.90 L 293.57 330.11 C 293.82 334.14 291.25 338.49 293.76 342.15 C 296.32 346.76 299.36 351.15 300.85 356.27 C 306.28 358.85 313.16 356.78 317.82 361.16 C 320.24 362.60 319.42 365.76 319.63 368.09 C 322.45 368.67 324.96 367.44 326.94 365.54 C 330.64 366.37 334.76 367.63 336.93 370.99 C 338.49 373.97 339.40 377.24 340.42 380.44 C 341.71 384.10 340.57 387.99 340.60 391.74 C 343.93 393.43 347.64 394.88 349.94 398.00 C 351.74 400.32 353.80 403.10 356.98 403.38 C 360.37 402.83 363.42 400.87 366.95 400.96 C 367.71 396.13 372.49 392.00 370.31 386.92 C 368.47 385.80 366.98 384.22 366.38 382.11 C 365.58 379.32 362.98 377.86 360.83 376.21 C 361.08 374.18 361.53 372.16 361.56 370.12 C 360.68 367.78 358.32 366.59 356.57 365.00 C 356.75 361.97 355.89 358.53 357.95 355.95 C 358.91 354.46 360.64 353.82 362.12 352.99 C 363.64 350.66 364.06 347.95 363.82 345.23 C 359.86 343.44 355.57 342.33 351.88 340.01 C 350.63 335.29 347.15 331.53 342.49 330.03 C 343.09 328.00 341.59 326.67 339.97 325.85 C 335.27 328.76 330.00 325.04 325.07 326.62 C 322.03 327.59 319.04 326.26 316.03 325.94 C 312.29 325.53 308.87 327.52 305.20 327.78 C 302.09 328.18 298.84 327.03 295.85 328.30 C 295.89 327.72 295.97 326.56 296.01 325.98 C 297.28 325.82 298.09 325.18 298.46 324.07 C 300.08 318.99 297.86 312.75 292.85 310.48 L 292.55 310.26 L 292.15 310.22 C 289.26 309.86 286.32 310.03 283.44 309.55 C 278.20 307.65 274.05 303.61 270.80 299.19 C 266.79 298.56 263.70 295.85 261.59 292.51 L 261.52 292.41 L 261.50 292.28 C 261.15 290.10 260.97 287.90 260.82 285.71 C 262.56 285.43 264.30 285.18 266.06 284.99 C 266.53 284.89 267.47 284.70 267.94 284.61 L 268.01 283.79 C 267.02 279.91 262.11 277.47 262.25 273.02 C 262.76 269.38 263.65 265.73 265.26 262.42 C 267.61 261.98 270.03 261.86 272.33 261.13 L 272.80 261.01 C 273.22 259.66 273.46 257.86 272.22 256.87 L 272.52 256.11 C 274.56 256.00 276.61 256.08 278.65 255.86 C 279.35 254.94 279.96 253.96 280.46 252.91 C 280.58 252.77 280.81 252.50 280.93 252.37 C 282.88 250.86 285.22 250.03 287.53 249.23 C 288.47 249.11 289.42 248.99 290.37 248.87 C 291.56 248.04 292.77 247.24 293.99 246.45 C 294.01 245.87 294.04 244.71 294.06 244.14 C 293.76 243.60 293.17 242.53 292.88 241.99 C 292.95 240.65 293.05 239.31 293.19 237.98 L 293.51 236.56 C 296.31 243.98 299.28 251.35 302.52 258.59 C 304.12 261.28 306.57 263.35 308.23 266.02 C 311.52 269.57 315.81 272.10 318.80 275.96 C 321.51 279.62 325.42 282.18 328.03 285.92 C 330.46 288.81 333.23 291.64 336.81 293.06 C 340.67 294.64 344.15 297.10 348.20 298.22 C 354.01 299.08 359.64 295.99 365.47 297.60 C 371.86 299.00 378.47 295.20 384.60 297.96 C 386.78 299.82 388.93 301.74 390.55 304.14 C 390.41 305.36 390.28 306.59 390.17 307.83 C 386.44 310.68 381.95 312.55 378.74 316.06 C 378.49 317.48 378.49 319.23 379.95 320.02 C 385.48 324.23 391.45 328.07 398.27 329.84 C 404.60 332.92 411.15 335.56 417.64 338.29 C 420.21 340.44 423.43 340.39 426.60 340.51 C 430.95 342.45 434.07 346.21 437.84 349.00 C 440.61 350.85 442.41 353.93 445.56 355.29 C 450.73 357.56 456.04 359.55 461.54 360.92 C 464.57 361.70 466.65 364.15 468.39 366.59 C 470.32 369.60 473.62 371.37 475.23 374.62 C 481.42 381.06 489.66 387.94 488.59 397.87 C 486.28 402.45 487.15 407.97 484.17 412.29 C 479.97 412.71 477.29 409.02 473.81 407.46 C 469.07 405.92 465.16 402.05 463.44 397.39 C 461.63 394.24 458.71 391.81 457.36 388.37 C 454.25 386.31 450.20 388.34 447.17 386.22 C 445.67 385.16 444.01 384.33 442.21 383.96 C 442.95 383.18 443.67 382.39 444.40 381.59 C 447.03 383.23 449.96 385.71 453.29 384.67 C 455.28 385.12 457.65 385.21 458.94 387.07 C 461.61 390.74 464.71 394.15 466.51 398.39 C 468.91 401.81 472.42 405.02 476.69 405.69 C 478.68 406.92 480.56 408.32 482.38 409.80 C 483.13 407.29 482.87 404.52 484.27 402.22 C 486.54 397.96 486.19 392.66 483.66 388.60 C 481.41 384.30 477.84 380.92 474.09 377.94 C 470.22 373.76 466.65 369.29 463.50 364.58 C 456.50 362.25 449.52 359.81 442.56 357.37 C 437.97 352.32 432.75 347.83 427.11 343.94 C 423.47 343.39 419.41 343.27 416.57 340.58 C 408.07 337.66 400.06 333.55 391.55 330.69 C 386.90 328.43 382.78 325.24 378.34 322.62 C 376.77 320.39 376.24 317.79 375.93 315.13 C 378.71 310.79 384.07 309.18 387.56 305.61 C 387.45 302.07 382.75 300.68 379.93 299.57 C 375.00 299.94 370.04 300.08 365.13 300.33 C 358.96 298.83 352.95 301.60 346.78 301.13 C 345.11 303.91 345.67 307.06 346.13 310.07 C 346.36 314.57 339.11 314.46 340.00 319.22 C 340.97 323.73 344.32 327.39 347.44 330.62 C 350.69 332.14 352.08 335.46 353.42 338.58 C 357.98 340.93 363.44 343.78 368.60 341.66 C 372.67 341.06 376.98 341.29 380.77 343.02 C 382.14 344.66 383.03 346.68 384.44 348.31 C 385.36 351.35 388.53 352.26 390.74 354.13 C 393.56 356.27 395.84 359.26 399.22 360.58 C 402.69 362.33 406.90 361.52 410.09 363.97 C 411.84 366.98 412.94 370.31 413.12 373.79 C 414.52 375.63 416.80 377.04 419.08 377.37 C 421.11 375.54 423.15 373.73 425.53 372.36 C 427.35 372.48 429.43 371.91 431.01 373.12 C 432.38 374.55 433.35 376.32 434.36 378.02 C 435.07 378.48 435.79 378.94 436.51 379.41 C 439.03 379.74 441.45 380.55 443.94 381.08 C 442.90 381.94 441.87 382.81 440.71 383.51 C 437.54 382.40 434.57 380.83 431.63 379.24 C 431.38 378.80 430.88 377.93 430.64 377.50 C 426.93 374.35 422.35 377.88 420.23 381.15 C 416.41 387.99 412.27 394.74 409.66 402.15 C 409.41 407.48 407.15 412.47 407.31 417.82 C 408.60 420.38 411.09 421.23 413.82 421.23 C 416.18 422.70 418.51 424.25 420.92 425.66 C 425.40 426.76 429.96 429.24 432.28 433.38 C 433.89 438.25 431.35 443.89 434.29 448.46 C 436.63 452.18 437.96 457.03 435.05 460.87 C 432.60 460.90 430.27 460.13 427.90 459.70 C 423.88 460.27 419.87 461.36 416.33 463.38 C 413.66 465.31 411.72 468.04 410.02 470.82 C 410.16 471.53 410.44 472.97 410.59 473.68 C 410.32 477.04 411.16 480.35 411.69 483.64 C 410.71 485.89 410.39 488.67 408.11 490.06 C 404.10 492.62 400.77 496.01 397.85 499.75 C 394.52 502.85 393.12 507.44 392.38 511.81 C 391.07 514.10 389.01 516.01 386.20 515.93 C 380.84 515.92 375.27 515.75 370.18 513.97 C 368.20 511.32 367.93 507.42 368.64 504.25 C 368.67 503.40 368.73 501.68 368.76 500.83 C 370.76 498.65 372.91 496.61 375.42 495.03 C 376.51 493.22 377.35 491.23 378.12 489.26 C 377.75 486.37 377.50 483.46 377.52 480.54 C 375.96 478.73 375.01 475.90 376.88 473.94 C 380.12 470.44 385.32 470.28 389.52 468.53 C 391.34 465.54 391.93 461.56 390.62 458.27 C 388.27 452.58 386.29 446.75 384.07 441.01 C 382.71 435.35 382.54 427.48 376.20 424.99 C 373.60 419.54 372.75 413.38 372.62 407.40 C 370.96 405.32 368.58 404.31 366.05 403.79 C 362.38 404.34 358.82 406.29 355.05 405.45 C 349.37 403.79 347.57 396.83 341.82 395.28 C 339.96 394.99 338.86 393.68 338.19 392.04 C 338.88 390.08 338.78 388.00 338.84 385.96 C 339.33 381.23 336.25 377.19 334.47 373.03 C 333.31 370.48 330.10 370.18 327.91 368.87 C 324.19 371.82 319.42 371.47 314.95 371.17 C 310.70 369.20 316.93 366.51 316.28 363.79 C 314.10 361.62 310.88 360.78 307.89 360.72 C 304.92 360.55 302.14 359.35 299.30 358.56 C 297.47 352.88 294.37 347.83 291.29 342.77 C 288.64 338.65 283.15 337.99 278.67 338.05 C 274.51 336.55 270.57 334.05 266.05 333.75 C 263.45 334.09 260.85 334.34 258.22 334.29 C 255.70 332.70 253.35 330.87 251.29 328.72 C 248.50 325.79 244.11 325.70 240.97 323.38 C 238.18 320.72 235.48 317.94 233.17 314.85 C 230.47 311.49 226.13 309.42 224.55 305.24 C 222.68 301.44 219.12 298.90 216.36 295.80 C 214.41 293.57 211.59 292.56 209.17 291.01 C 205.56 286.49 202.18 281.79 198.57 277.28 C 195.73 274.85 191.91 274.24 188.69 272.48 C 185.71 273.71 182.26 272.93 179.93 270.75 C 179.41 269.41 179.66 267.98 179.89 266.63 C 181.40 265.14 181.21 262.70 179.86 261.20 C 176.08 256.32 172.17 251.36 167.03 247.85 C 165.11 246.80 165.63 244.19 164.26 242.73 C 163.20 240.89 160.92 241.56 159.18 241.34 C 158.61 240.90 157.46 240.03 156.88 239.59 C 157.31 238.30 157.78 237.03 158.11 235.71 C 156.42 234.77 157.00 232.85 157.49 231.46 C 158.88 225.89 155.85 221.01 154.07 216.00 C 149.49 213.86 147.15 209.09 146.90 204.21 C 148.05 202.16 147.67 199.62 147.55 197.37 C 145.72 194.16 143.05 191.49 141.54 188.08 C 139.58 184.15 135.50 181.43 130.99 182.27 C 127.69 180.20 125.01 177.36 122.16 174.75 C 119.33 172.14 115.76 170.58 112.49 168.62 C 111.12 168.32 109.75 168.01 108.39 167.70 C 106.78 165.82 105.37 163.40 102.61 163.25 C 100.64 161.40 97.95 160.94 95.43 160.33 C 91.66 162.07 87.37 162.57 83.86 164.89 C 81.25 166.58 79.70 169.46 77.03 171.09 C 75.09 172.46 72.54 173.23 71.30 175.41 C 69.54 178.34 68.00 181.46 65.69 184.02 C 61.56 186.47 56.24 185.59 52.11 188.01 C 49.55 190.50 46.93 193.17 43.15 193.52 C 40.31 191.40 38.62 188.00 39.52 184.44 C 41.01 181.88 42.78 179.51 44.49 177.10 C 44.43 175.46 43.74 173.94 43.30 172.39 C 38.58 172.92 33.84 172.42 29.18 171.60 C 24.96 170.41 23.34 166.05 21.39 162.61 C 20.21 160.23 18.02 158.63 16.39 156.59 C 15.08 154.44 14.43 151.98 13.75 149.58 C 14.58 146.55 16.32 143.79 17.04 140.68 C 17.58 138.35 20.81 137.34 20.18 134.62 C 17.74 131.77 15.66 128.54 12.51 126.40 C 11.40 125.63 11.17 124.20 10.60 123.08 C 11.49 121.09 11.50 118.81 10.64 116.81 C 12.02 114.45 14.20 112.80 16.88 112.19 C 22.95 110.45 27.41 105.16 28.49 98.98 C 27.34 96.17 24.29 94.89 22.41 92.64 C 21.19 86.94 18.36 81.53 18.09 75.57 C 18.21 75.09 18.46 74.12 18.59 73.64 C 20.14 72.90 21.65 72.07 23.25 71.45 C 26.52 70.60 29.79 71.87 33.07 71.83 C 38.35 71.01 43.68 69.94 49.04 70.27 C 52.73 70.88 56.52 71.00 60.21 70.43 C 63.30 67.78 65.97 64.69 68.28 61.34 C 69.90 58.10 70.66 54.51 72.14 51.21 C 73.99 48.21 77.74 47.46 80.27 45.20 C 82.12 43.39 84.71 44.48 86.84 45.05 C 87.04 50.30 87.35 55.54 88.26 60.72 C 89.09 61.91 90.73 61.76 91.96 62.27 C 93.59 62.45 93.71 64.33 94.37 65.48 C 95.33 68.05 98.00 69.31 99.55 71.44 C 100.38 72.91 100.89 74.52 101.55 76.06 C 106.12 73.81 101.90 68.33 104.90 65.05 C 107.07 63.35 107.88 60.61 109.18 58.28 C 111.13 54.00 115.20 50.28 114.66 45.19 C 114.98 44.60 115.61 43.42 115.93 42.82 C 117.97 42.39 119.99 41.88 122.01 41.35 C 122.45 41.89 123.32 42.97 123.76 43.51 C 124.69 46.26 125.44 49.07 125.09 52.01 C 127.30 53.61 129.99 53.79 132.61 53.62 C 133.27 52.87 133.92 52.13 134.58 51.38 C 136.26 51.46 138.27 51.05 139.58 52.40 C 141.13 54.19 142.40 56.19 144.01 57.93 C 144.29 57.21 144.87 55.78 145.16 55.06 C 143.04 51.54 145.09 47.00 142.50 43.81 C 143.51 42.15 144.82 40.69 146.23 39.36 C 149.17 38.04 152.54 36.84 155.25 39.40 C 155.71 39.05 156.62 38.34 157.07 37.99 C 157.62 34.70 158.18 31.40 158.29 28.06 C 158.89 27.36 159.50 26.66 160.10 25.96 C 163.43 26.07 166.73 25.79 170.03 25.42 C 172.52 25.89 174.28 28.62 177.01 28.16 C 185.53 27.68 191.21 19.22 199.78 18.93 C 204.49 18.16 210.18 21.26 213.98 17.11 Z" />
<path fill="#ffffff" d=" M 209.22 22.75 C 212.90 21.57 216.01 19.11 219.81 18.25 C 221.17 18.11 222.52 17.96 223.88 17.80 C 224.13 20.45 223.25 23.54 225.12 25.76 C 226.11 27.42 227.83 28.35 229.23 29.59 C 231.16 32.22 232.52 35.36 235.32 37.23 C 233.29 41.16 227.69 43.38 223.79 40.80 C 221.81 39.48 219.90 41.28 218.02 41.89 C 218.03 43.62 217.49 45.22 216.49 46.63 C 213.97 46.66 212.64 48.68 211.67 50.72 C 212.33 56.46 214.26 62.04 213.89 67.86 C 210.55 70.58 205.03 71.56 204.53 76.72 C 202.47 77.82 200.09 78.15 198.12 76.67 C 196.10 77.68 193.81 78.79 193.23 81.19 C 191.19 81.97 188.93 82.48 187.27 83.97 C 186.23 85.64 185.96 87.66 184.95 89.34 C 183.66 89.47 182.37 89.54 181.08 89.57 C 180.58 87.61 179.51 85.96 177.77 84.90 C 177.33 85.15 176.46 85.66 176.03 85.92 C 173.66 82.63 169.49 82.61 165.90 81.85 C 164.94 82.26 163.98 82.67 163.01 83.08 C 162.53 82.12 162.06 81.16 161.58 80.20 C 161.93 77.70 161.98 74.82 164.17 73.12 C 164.77 69.17 165.33 65.09 164.28 61.16 C 162.89 56.96 166.21 52.72 164.15 48.53 C 162.47 46.47 161.19 44.13 159.43 42.13 C 159.42 38.41 160.97 34.72 160.16 30.96 C 162.27 28.31 166.12 28.83 169.14 28.70 C 170.55 28.33 171.37 29.63 172.38 30.29 C 177.03 31.68 182.24 30.86 185.96 27.65 C 189.24 26.21 192.58 24.82 195.50 22.72 C 200.03 21.90 204.69 21.89 209.22 22.75 Z" />
<path fill="#ffffff" d=" M 227.33 44.55 C 231.34 43.19 235.01 41.07 238.54 38.76 C 241.08 40.02 243.77 40.94 246.28 42.26 C 246.59 47.92 242.60 53.33 236.78 53.84 C 235.24 57.85 233.87 61.92 232.60 66.03 C 233.48 67.83 234.56 69.53 235.41 71.35 C 235.94 74.19 233.86 77.48 235.94 79.96 C 238.38 83.33 240.67 86.86 243.74 89.70 C 247.03 88.97 250.32 88.14 253.72 88.31 C 255.41 90.57 256.40 93.28 258.67 95.07 C 258.76 95.46 258.93 96.26 259.01 96.66 C 258.18 96.65 256.53 96.64 255.70 96.64 C 252.85 98.66 252.60 103.18 249.01 104.20 C 246.61 105.15 244.31 106.41 241.73 106.84 C 241.46 104.85 242.48 101.98 240.03 101.04 C 234.87 101.98 231.34 106.66 228.86 110.96 C 227.11 113.36 226.46 116.31 226.71 119.24 C 229.23 122.94 229.74 127.97 233.65 130.63 C 235.63 133.12 235.09 136.51 234.16 139.33 C 230.61 140.04 231.26 135.63 228.75 134.32 C 224.38 133.61 220.00 133.02 215.65 132.24 C 211.01 131.84 206.62 134.09 201.97 133.74 C 198.83 133.55 194.70 134.47 192.61 131.45 C 190.60 128.50 186.71 128.15 184.48 125.47 C 182.51 123.35 179.66 122.10 178.24 119.49 C 176.57 116.73 174.29 114.47 171.60 112.72 C 171.32 110.96 171.02 109.20 170.74 107.45 C 168.70 104.91 167.24 100.95 169.17 97.97 C 170.51 94.81 173.20 92.44 174.32 89.17 C 174.74 87.55 176.83 88.08 178.05 87.66 C 178.62 89.03 179.20 90.40 179.82 91.76 C 181.76 91.70 183.72 91.79 185.66 91.59 C 187.93 90.70 187.97 87.78 188.31 85.75 C 189.92 84.42 191.85 83.61 193.83 82.99 C 194.82 81.24 196.32 79.94 198.02 78.91 C 200.87 80.16 203.77 79.42 206.16 77.60 C 206.24 74.50 208.78 72.83 211.10 71.32 C 211.58 71.29 212.55 71.25 213.04 71.22 C 213.88 70.67 214.72 70.13 215.58 69.60 C 217.54 63.40 213.87 57.17 213.78 51.01 C 214.18 49.13 216.38 48.74 217.96 48.40 C 219.03 46.68 219.78 44.79 219.74 42.72 C 222.50 41.92 224.98 43.29 227.33 44.55 Z" />
<path fill="#ffffff" d=" M 148.26 40.90 C 149.51 41.51 150.63 41.27 151.58 40.31 C 153.01 42.08 155.40 42.25 157.38 43.03 C 157.81 45.56 159.20 47.77 161.81 48.43 C 163.52 51.32 162.91 54.75 161.51 57.64 C 163.00 63.91 163.94 71.24 159.91 76.79 C 159.58 79.60 159.96 82.37 161.46 84.80 C 165.45 85.95 169.75 83.21 173.44 85.68 C 172.27 91.15 167.65 94.99 165.84 100.26 C 167.34 105.48 168.98 110.69 171.03 115.72 C 173.69 117.08 176.19 119.18 176.82 122.25 C 179.31 124.04 181.92 125.70 184.04 127.96 C 185.67 129.71 188.35 130.20 189.46 132.46 C 184.63 132.94 179.81 133.58 174.97 133.73 C 173.17 134.01 171.94 132.59 170.62 131.65 C 169.71 131.45 168.79 131.26 167.88 131.07 C 166.02 131.55 164.11 131.69 162.21 131.72 C 161.81 131.49 161.02 131.02 160.63 130.79 C 157.24 130.74 154.63 128.16 151.30 127.73 C 148.03 127.20 145.62 124.97 143.49 122.60 C 141.09 122.65 138.70 122.66 136.30 122.84 C 130.11 123.74 123.76 122.38 117.65 123.79 C 115.68 126.53 114.05 129.48 112.49 132.46 C 111.79 134.53 113.62 136.33 114.34 138.14 C 112.94 139.62 111.39 140.94 109.44 141.62 C 108.66 139.20 106.66 137.69 105.06 135.88 C 102.92 129.95 98.61 123.43 91.57 123.37 C 88.80 118.78 87.99 113.22 86.28 108.16 C 88.18 106.47 90.54 108.12 92.70 107.71 C 94.65 106.48 95.28 104.12 95.86 102.04 C 95.86 100.31 94.03 99.36 93.13 98.05 C 92.75 90.99 89.90 84.37 89.51 77.38 C 91.03 74.96 92.35 72.42 93.76 69.94 C 96.92 72.34 98.07 76.20 100.64 79.06 C 101.80 78.82 102.97 78.66 104.15 78.58 C 106.89 75.97 107.15 72.21 106.84 68.66 C 109.87 63.95 111.62 58.51 115.10 54.08 C 116.21 52.28 116.81 50.22 117.80 48.36 C 117.24 47.25 116.65 46.15 115.81 45.22 L 118.05 46.91 L 117.53 43.53 C 117.98 44.31 118.44 45.08 118.91 45.85 L 119.95 44.41 C 122.53 46.71 122.59 50.02 122.23 53.20 C 124.65 57.25 129.91 56.60 133.95 56.88 C 134.95 55.92 135.66 54.48 137.17 54.24 C 139.80 56.70 141.29 60.60 145.13 61.56 C 149.90 57.70 146.22 51.45 147.20 46.39 C 146.84 45.93 146.13 45.02 145.77 44.56 C 146.57 43.32 147.40 42.10 148.26 40.90 Z" />
<path fill="#ffffff" d=" M 246.76 48.14 C 247.69 46.17 247.64 43.50 249.83 42.40 C 255.24 43.54 260.65 44.69 266.00 46.13 C 271.59 46.64 277.10 47.87 282.63 48.88 C 281.66 54.89 272.18 55.42 273.12 62.12 C 273.17 65.20 276.54 66.39 278.34 68.41 C 278.19 70.32 278.07 72.26 277.45 74.10 C 278.08 76.78 279.75 78.97 281.45 81.07 C 281.44 83.21 281.44 85.36 281.44 87.51 C 284.28 91.06 288.01 93.68 291.42 96.64 C 291.40 98.18 291.40 99.72 291.40 101.27 C 290.31 101.47 289.22 101.66 288.13 101.84 C 287.56 99.92 287.74 97.82 286.94 95.98 C 285.43 94.13 283.48 92.71 281.67 91.19 C 280.09 91.16 278.52 91.11 276.96 91.06 C 276.04 92.61 275.00 94.08 273.75 95.39 C 271.10 93.34 268.19 91.74 264.91 90.97 C 263.53 91.66 262.18 92.40 260.85 93.15 C 258.02 91.63 256.46 88.78 254.77 86.20 C 250.60 85.43 246.64 88.09 242.57 86.77 C 241.24 83.97 239.29 81.55 237.24 79.25 C 236.22 76.12 237.64 72.82 237.28 69.60 C 236.22 68.21 234.74 66.86 234.96 64.94 C 235.72 61.87 237.01 58.96 238.02 55.96 C 239.80 55.07 241.57 54.16 243.35 53.26 C 244.53 51.59 246.08 50.11 246.76 48.14 Z" />
<path fill="#ffffff" d=" M 77.52 50.41 C 79.79 49.43 81.52 47.28 84.16 47.33 C 84.28 49.35 83.89 51.48 84.69 53.40 C 85.85 56.41 84.95 59.70 85.29 62.83 C 87.24 63.88 89.83 64.20 91.18 66.09 C 91.97 68.72 90.41 71.21 89.38 73.54 C 87.96 76.09 87.90 79.08 86.91 81.79 C 87.60 82.70 88.30 83.61 89.00 84.51 C 89.74 88.70 90.53 92.87 90.87 97.12 C 90.93 99.24 93.02 100.38 93.79 102.19 C 93.34 103.51 92.72 105.01 91.31 105.55 C 89.73 104.88 88.07 104.75 86.39 105.09 C 85.96 105.57 85.10 106.52 84.67 106.99 C 84.38 110.81 86.35 114.18 87.28 117.77 C 88.00 120.21 88.15 123.07 90.35 124.73 C 91.57 126.28 93.79 125.70 95.32 126.70 C 99.46 129.33 102.17 133.65 103.94 138.14 C 104.99 139.12 106.00 140.14 106.95 141.22 C 106.88 142.82 106.86 144.42 106.69 146.02 C 104.81 146.94 103.04 144.45 101.00 145.22 C 97.85 145.14 96.05 148.19 93.36 149.25 C 90.91 149.12 88.52 148.49 86.07 148.41 C 83.58 148.96 82.53 151.72 80.12 152.35 C 77.73 153.16 74.68 153.84 72.89 151.54 C 67.69 151.77 66.78 157.57 63.61 160.60 C 61.31 162.71 60.90 165.90 59.60 168.58 C 58.23 169.34 56.76 170.55 55.08 170.11 C 52.01 169.47 48.92 170.10 45.89 170.59 C 42.77 167.33 38.81 171.60 35.19 170.35 C 32.62 169.77 29.46 169.53 27.89 167.10 C 25.80 163.61 23.37 160.33 21.02 157.00 C 19.03 155.05 17.21 152.78 16.68 149.96 C 17.49 148.22 18.48 146.58 19.41 144.90 C 19.28 142.26 21.18 140.39 22.94 138.71 C 24.79 136.94 23.85 134.18 23.21 132.07 C 19.44 129.77 17.35 125.74 13.97 122.99 C 14.67 120.69 14.63 118.27 14.61 115.89 C 17.43 115.21 20.45 114.69 22.81 112.92 C 24.69 111.03 26.56 109.14 28.68 107.52 C 29.97 104.68 30.22 101.00 32.77 98.86 C 35.54 98.69 38.24 99.54 41.00 99.47 C 44.04 99.52 46.89 98.00 49.96 98.31 C 53.78 98.28 58.56 99.07 61.24 95.62 C 63.71 91.16 60.53 86.55 60.38 82.05 C 61.49 78.77 62.75 75.52 62.87 72.00 C 64.38 70.80 66.05 69.62 66.83 67.77 C 67.90 65.04 70.58 63.39 71.60 60.63 C 73.26 57.09 73.74 52.47 77.52 50.41 Z" />
<path fill="#ffffff" d=" M 37.65 73.64 C 42.16 73.15 46.69 72.23 51.19 73.32 C 54.30 74.05 57.54 72.56 60.55 73.66 C 60.19 78.52 56.87 83.81 60.19 88.44 C 59.97 90.65 60.76 93.65 58.86 95.28 C 55.26 96.78 51.29 96.92 47.48 96.37 C 42.43 98.12 37.23 96.83 32.06 96.66 C 29.44 94.94 27.20 92.75 24.79 90.76 C 23.26 86.62 23.16 82.10 21.21 78.12 C 20.46 75.17 23.90 74.74 25.89 74.11 C 29.76 74.72 34.05 75.91 37.65 73.64 Z" />
<path fill="#000000" d=" M 231.74 117.25 C 231.76 114.13 233.76 109.45 237.53 109.79 C 237.14 111.71 235.90 113.26 234.03 113.89 C 234.06 115.62 233.95 117.34 231.74 117.25 Z" />
<path fill="#ffffff" d=" M 116.86 127.79 C 118.53 126.08 120.83 124.34 123.39 125.17 C 129.14 124.20 135.05 126.17 140.66 124.32 C 143.73 125.25 145.87 127.89 148.94 128.83 C 153.65 130.55 157.96 133.53 163.05 134.05 C 164.98 134.28 166.90 133.41 168.82 133.82 C 171.18 135.05 173.46 136.63 176.24 136.65 C 176.67 136.32 177.52 135.65 177.95 135.31 C 181.75 135.81 185.51 135.15 189.22 134.35 C 192.12 135.43 195.15 136.38 198.29 136.22 C 200.92 136.39 203.58 136.58 206.22 136.32 C 208.71 135.35 211.27 134.38 214.01 134.78 C 218.88 135.47 224.23 134.71 228.50 137.68 C 228.57 141.81 227.96 146.02 229.02 150.08 C 229.46 151.32 230.07 152.54 230.10 153.89 C 230.28 159.29 231.78 164.52 232.19 169.89 C 232.35 171.39 232.30 173.00 233.05 174.36 C 235.62 176.98 238.38 179.41 241.04 181.94 C 244.19 184.68 244.77 189.09 247.36 192.25 C 246.70 193.56 245.97 194.84 245.08 196.01 C 243.97 195.39 242.90 194.73 241.87 194.01 C 241.57 191.67 242.01 188.80 239.74 187.28 C 238.13 185.69 236.05 187.38 234.66 188.38 C 230.28 188.69 224.93 191.98 225.65 196.96 C 225.41 198.39 226.39 201.02 224.19 201.25 C 220.16 200.67 217.00 197.63 212.98 197.07 C 211.54 195.31 209.42 193.53 209.60 191.03 C 209.58 186.95 210.09 182.72 208.06 178.98 C 203.54 177.70 199.61 174.82 194.95 174.02 C 193.49 173.91 192.72 175.33 191.76 176.16 C 187.79 176.98 183.66 176.83 179.83 178.35 C 176.12 179.67 173.47 175.86 170.09 175.24 C 164.34 174.52 159.29 171.47 154.33 168.68 C 152.26 167.75 151.38 165.50 149.58 164.25 C 147.62 163.30 145.44 162.69 143.71 161.32 C 142.17 159.63 140.88 157.67 139.01 156.32 C 135.62 156.87 132.82 159.36 129.81 160.95 C 127.68 158.12 124.20 158.32 121.11 157.73 C 119.86 155.58 120.67 152.35 118.59 150.68 C 115.42 149.45 112.35 147.98 109.25 146.58 C 110.62 144.77 112.25 143.16 114.41 142.33 C 116.01 140.48 116.53 138.17 116.33 135.76 C 115.95 135.33 115.20 134.47 114.83 134.03 C 115.71 132.03 116.92 130.07 116.86 127.79 Z" />
<path fill="#ffffff" d=" M 94.71 150.86 C 96.73 150.20 98.19 148.60 99.99 147.57 C 102.76 147.50 105.20 149.59 108.08 149.21 C 111.42 149.02 114.00 151.34 116.90 152.56 C 119.85 154.02 117.01 158.58 120.02 160.00 C 122.32 160.62 124.71 160.82 127.02 161.42 C 131.17 165.74 131.74 172.35 136.59 176.11 C 136.29 177.23 136.06 178.37 135.87 179.52 C 134.30 179.19 132.70 179.18 131.11 178.99 C 128.02 176.80 125.52 173.83 122.16 172.00 C 120.80 171.26 119.85 170.02 118.82 168.91 C 118.32 168.76 117.33 168.44 116.83 168.28 C 115.59 166.88 114.89 164.53 112.78 164.28 C 110.38 163.91 108.44 162.48 106.56 161.05 C 103.76 160.45 101.68 158.03 98.73 157.99 C 93.62 155.99 88.78 159.18 84.15 160.93 C 82.01 161.96 79.42 162.77 78.32 165.08 C 76.47 168.57 72.87 170.58 69.77 172.80 C 67.39 175.44 66.17 178.89 63.81 181.54 C 57.19 183.83 48.76 183.67 44.78 190.53 C 43.61 189.11 42.71 187.51 41.96 185.84 C 44.12 183.27 45.91 180.42 47.58 177.52 C 48.21 176.07 47.33 174.58 46.97 173.21 C 51.24 171.19 56.55 173.60 60.72 170.74 C 61.60 169.03 62.43 167.28 62.89 165.41 C 65.25 161.34 68.31 157.74 71.15 154.01 C 74.33 156.29 78.20 154.78 81.63 154.06 C 83.51 152.85 85.02 150.98 87.17 150.26 C 89.67 150.50 92.26 152.20 94.71 150.86 Z" />
<path fill="#317abd" d=" M 133.17 160.90 C 135.21 160.14 137.24 158.98 139.47 159.06 C 141.13 161.09 142.76 163.18 144.87 164.79 C 145.16 166.50 146.83 167.36 148.44 166.78 C 148.94 167.16 149.93 167.91 150.43 168.28 C 150.51 168.34 150.66 168.44 150.74 168.50 C 153.14 170.07 155.57 171.69 158.40 172.39 C 160.88 175.37 164.91 176.03 168.35 177.35 C 168.45 177.39 168.65 177.46 168.76 177.49 C 171.03 178.24 173.30 179.06 175.33 180.35 C 175.43 180.41 175.63 180.53 175.73 180.59 C 176.17 180.86 177.06 181.41 177.50 181.69 C 181.90 179.62 186.63 178.50 191.52 178.80 C 192.75 177.86 193.99 176.92 195.23 175.97 C 197.39 176.81 199.50 177.78 201.38 179.17 L 201.58 179.32 L 201.85 179.41 C 204.04 180.18 207.01 180.74 207.62 183.42 C 207.98 187.48 206.29 192.12 209.23 195.62 C 213.95 201.03 221.20 203.01 228.07 203.87 C 227.96 201.05 227.48 198.26 227.24 195.46 C 228.44 193.73 230.02 192.33 231.48 190.84 C 233.41 192.28 235.15 193.95 236.65 195.84 C 237.91 196.00 239.17 196.17 240.43 196.35 C 240.49 196.37 240.60 196.42 240.66 196.45 C 242.39 197.53 244.37 197.97 246.38 198.18 C 247.56 196.17 248.84 194.22 250.16 192.30 C 253.47 194.02 255.74 196.99 258.13 199.74 C 257.34 201.70 259.28 203.63 261.25 202.89 C 261.59 203.22 262.28 203.87 262.62 204.19 L 262.70 204.27 L 262.79 204.34 C 263.97 205.25 265.11 206.20 266.27 207.15 L 266.51 207.37 L 266.83 207.51 C 268.02 208.05 269.20 208.62 270.38 209.22 L 270.62 209.36 L 270.90 209.51 C 273.42 210.62 275.78 212.76 278.70 212.49 C 280.30 213.82 282.14 214.98 283.33 216.72 C 284.24 219.12 284.65 221.70 285.77 224.03 C 286.05 224.64 286.59 225.86 286.87 226.46 L 287.32 227.19 C 287.41 227.37 287.60 227.75 287.69 227.93 C 287.87 228.45 288.24 229.47 288.42 229.99 L 288.56 230.40 L 288.77 230.68 C 290.00 233.20 291.24 235.76 293.20 237.81 L 293.19 237.98 C 293.05 239.31 292.95 240.65 292.88 241.99 C 293.17 242.53 293.76 243.60 294.06 244.14 C 294.04 244.71 294.01 245.87 293.99 246.45 C 292.77 247.24 291.56 248.04 290.37 248.87 C 289.42 248.99 288.47 249.11 287.53 249.23 C 285.22 250.03 282.88 250.86 280.93 252.37 L 280.63 252.57 L 280.46 252.91 C 279.96 253.96 279.35 254.94 278.65 255.86 C 276.61 256.08 274.56 256.00 272.52 256.11 L 272.22 256.87 C 271.65 258.29 271.69 259.71 272.33 261.13 C 270.03 261.86 267.61 261.98 265.26 262.42 C 263.65 265.73 262.76 269.38 262.25 273.02 C 262.11 277.47 267.02 279.91 268.01 283.79 C 267.52 284.09 266.55 284.69 266.06 284.99 C 264.30 285.18 262.56 285.43 260.82 285.71 C 260.97 287.90 261.15 290.10 261.50 292.28 L 261.52 292.41 L 261.59 292.51 C 263.70 295.85 266.79 298.56 270.80 299.19 C 274.05 303.61 278.20 307.65 283.44 309.55 C 286.32 310.03 289.26 309.86 292.15 310.22 C 292.33 310.29 292.67 310.41 292.85 310.48 C 297.86 312.75 300.08 318.99 298.46 324.07 C 296.89 323.73 296.08 324.37 296.01 325.98 C 295.97 326.56 295.89 327.72 295.85 328.30 C 295.39 328.45 294.47 328.75 294.00 328.90 C 293.53 328.97 292.58 329.13 292.11 329.21 C 292.09 331.96 291.82 334.73 290.86 337.33 C 288.23 336.64 285.63 335.86 283.01 335.18 C 280.45 335.79 277.88 335.29 275.44 334.47 C 271.54 332.80 267.69 330.39 263.25 331.08 C 261.74 330.76 260.25 330.84 258.79 331.31 L 258.34 331.09 C 258.05 329.53 257.12 328.91 255.55 329.22 C 252.02 327.24 249.02 324.46 245.34 322.74 C 241.62 320.96 238.98 317.68 236.24 314.72 C 234.39 312.76 233.11 309.85 230.05 309.69 C 229.55 308.67 229.04 307.67 228.55 306.66 L 228.47 306.49 L 228.38 306.36 C 225.52 301.13 220.70 297.48 216.73 293.17 C 213.99 290.09 210.15 288.42 207.01 285.84 C 206.95 285.25 206.81 284.06 206.75 283.46 C 203.97 280.07 201.09 276.77 198.47 273.26 C 193.57 271.57 188.68 269.38 183.35 269.94 C 182.91 269.45 182.02 268.47 181.58 267.97 C 182.47 267.10 183.36 266.24 184.26 265.38 C 183.61 261.96 180.69 259.74 179.10 256.79 C 177.06 252.88 172.58 251.16 170.43 247.30 C 169.69 246.77 168.94 246.25 168.20 245.73 C 167.35 241.73 163.69 239.53 160.00 238.57 C 160.23 231.75 160.20 224.71 157.26 218.39 C 157.17 217.87 156.97 216.84 156.87 216.32 C 153.92 214.02 151.38 211.27 148.88 208.50 C 149.16 204.50 150.03 200.54 149.89 196.51 C 146.13 192.64 144.15 187.47 140.93 183.17 C 139.98 182.32 139.02 181.48 138.07 180.65 C 138.01 178.79 138.09 176.91 137.76 175.07 C 136.79 173.53 135.53 172.22 134.43 170.78 C 134.37 170.69 134.24 170.51 134.18 170.42 C 133.55 169.40 132.88 168.40 132.18 167.43 C 132.30 167.16 132.54 166.63 132.66 166.36 C 132.13 165.30 131.60 164.23 131.10 163.16 C 132.40 163.07 133.09 162.31 133.17 160.90 Z" />
<path fill="#768fa5" d=" M 130.78 162.47 C 131.38 162.08 132.58 161.29 133.17 160.90 C 133.09 162.31 132.40 163.07 131.10 163.16 L 130.78 162.47 Z" />
<path fill="#687a8b" d=" M 144.87 164.79 C 146.31 164.88 147.63 165.56 148.44 166.78 C 146.83 167.36 145.16 166.50 144.87 164.79 Z" />
<path fill="#7d7d7d" d=" M 150.43 168.28 C 150.51 168.34 150.66 168.44 150.74 168.50 C 150.66 168.44 150.51 168.34 150.43 168.28 Z" />
<path fill="#898989" d=" M 134.18 170.42 C 134.24 170.51 134.37 170.69 134.43 170.78 L 134.30 170.62 L 134.18 170.42 Z" />
<path fill="#848484" d=" M 168.35 177.35 L 168.57 177.43 L 168.76 177.49 C 168.65 177.46 168.45 177.39 168.35 177.35 Z" />
<path fill="#999999" d=" M 201.38 179.17 L 201.62 179.32 L 201.85 179.41 L 201.58 179.32 L 201.38 179.17 Z" />
<path fill="#7a7a7a" d=" M 175.33 180.35 C 175.43 180.41 175.63 180.53 175.73 180.59 C 175.63 180.53 175.43 180.41 175.33 180.35 Z" />
<path fill="#ffffff" d=" M 236.55 191.58 C 237.33 191.16 238.11 190.74 238.90 190.32 C 238.87 191.37 238.83 192.43 238.80 193.49 C 238.28 193.44 237.25 193.34 236.74 193.29 C 236.69 192.86 236.59 192.01 236.55 191.58 Z" />
<path fill="#9d9d9d" d=" M 240.43 196.35 L 240.50 196.36 L 240.66 196.45 C 240.60 196.42 240.49 196.37 240.43 196.35 Z" />
<path fill="#5b7993" d=" M 258.13 199.74 C 259.33 200.62 260.38 201.68 261.25 202.89 C 259.28 203.63 257.34 201.70 258.13 199.74 Z" />
<path fill="#a3a3a3" d=" M 262.62 204.19 L 262.71 204.27 L 262.79 204.34 L 262.70 204.27 L 262.62 204.19 Z" />
<path fill="#8c8c8c" d=" M 266.27 207.15 L 266.55 207.34 L 266.83 207.51 L 266.51 207.37 L 266.27 207.15 Z" />
<path fill="#919191" d=" M 270.38 209.22 L 270.65 209.36 L 270.90 209.51 L 270.62 209.36 L 270.38 209.22 Z" />
<path fill="#030303" d=" M 280.11 212.28 C 280.50 212.22 281.28 212.10 281.68 212.05 C 288.27 217.24 287.85 226.69 292.93 232.94 C 293.50 234.55 293.59 236.17 293.20 237.81 C 291.24 235.76 290.00 233.20 288.77 230.68 C 288.68 230.51 288.51 230.16 288.42 229.99 C 288.24 229.47 287.87 228.45 287.69 227.93 C 287.60 227.75 287.41 227.37 287.32 227.19 L 286.87 226.46 C 286.59 225.86 286.05 224.64 285.77 224.03 C 284.65 221.70 284.24 219.12 283.33 216.72 C 282.14 214.98 280.30 213.82 278.70 212.49 L 280.11 212.28 Z" />
<path fill="#ffffff" d=" M 285.77 224.03 C 286.05 224.64 286.59 225.86 286.87 226.46 C 286.59 225.86 286.05 224.64 285.77 224.03 Z" />
<path fill="#777777" d=" M 287.32 227.19 C 287.41 227.37 287.60 227.75 287.69 227.93 C 287.60 227.75 287.41 227.37 287.32 227.19 Z" />
<path fill="#757575" d=" M 288.42 229.99 C 288.51 230.16 288.68 230.51 288.77 230.68 L 288.56 230.40 L 288.42 229.99 Z" />
<path fill="#000000" d=" M 129.35 232.34 C 129.81 232.45 130.72 232.66 131.17 232.76 C 131.18 233.19 131.21 234.05 131.22 234.48 C 130.88 234.80 130.22 235.45 129.89 235.78 C 128.25 235.02 128.65 233.67 129.35 232.34 Z" />
<path fill="#7e7e7e" d=" M 292.88 241.99 C 293.17 242.53 293.76 243.60 294.06 244.14 C 293.76 243.60 293.17 242.53 292.88 241.99 Z" />
<path fill="#000000" d=" M 139.23 245.27 C 143.99 245.75 148.61 244.91 153.18 243.68 C 153.30 246.88 153.64 251.59 150.11 253.05 C 146.73 251.26 142.78 252.02 139.12 251.88 C 138.21 250.95 136.12 250.57 136.66 248.84 C 136.11 247.02 138.32 246.41 139.23 245.27 Z" />
<path fill="#ffffff" d=" M 141.32 246.99 C 144.66 247.74 148.06 247.22 151.23 246.06 C 150.92 247.71 150.60 249.36 150.32 251.02 C 147.45 249.98 144.22 249.25 141.29 250.53 C 140.56 250.15 139.11 249.40 138.38 249.02 C 139.31 248.26 140.29 247.59 141.32 246.99 Z" />
<path fill="#ffffff" d=" M 285.45 251.36 C 288.55 250.14 291.80 249.40 294.89 248.15 C 296.76 252.03 298.94 255.76 300.09 259.94 C 302.79 264.74 306.40 269.17 311.21 271.98 C 314.90 276.21 318.79 280.27 322.80 284.20 C 324.52 285.79 325.26 288.34 327.64 289.17 C 328.12 290.89 329.76 292.78 328.56 294.57 C 326.46 298.08 323.50 300.97 320.78 304.00 C 318.55 302.78 317.21 299.15 314.20 300.23 C 310.88 300.98 305.68 301.57 305.53 305.94 C 303.15 307.03 302.44 309.53 302.20 311.94 C 298.99 313.92 296.37 310.81 294.05 309.01 C 291.47 306.51 287.80 308.48 284.71 308.25 C 279.13 307.00 275.23 302.37 271.63 298.26 C 269.38 296.82 266.47 296.42 264.70 294.26 C 262.71 292.57 262.95 289.78 262.45 287.45 C 264.64 286.96 266.87 286.67 269.13 286.71 C 269.82 285.67 271.84 284.57 270.79 283.17 C 268.40 280.59 266.03 277.95 264.41 274.80 C 263.88 271.13 265.33 267.55 266.41 264.10 C 268.94 263.97 271.54 264.54 274.03 264.01 C 274.81 262.39 274.80 260.57 274.86 258.83 C 276.07 258.31 277.29 257.81 278.49 257.26 C 282.27 257.50 282.28 252.44 285.45 251.36 Z" />
<path fill="#a1a1a1" d=" M 280.63 252.57 L 280.93 252.37 C 280.81 252.50 280.58 252.77 280.46 252.91 L 280.63 252.57 Z" />
<path fill="#040404" d=" M 138.77 260.17 C 137.11 259.80 135.52 257.35 137.89 256.66 C 138.93 257.59 139.22 258.76 138.77 260.17 Z" />
<path fill="#979797" d=" M 272.22 256.87 C 273.46 257.86 273.22 259.66 272.80 261.01 L 272.33 261.13 C 271.69 259.71 271.65 258.29 272.22 256.87 Z" />
<path fill="#040404" d=" M 168.68 270.70 C 169.74 270.30 170.90 268.82 172.02 269.89 C 173.54 270.89 172.05 272.56 171.75 273.80 C 170.71 273.27 169.68 272.73 168.65 272.19 C 168.66 271.82 168.68 271.07 168.68 270.70 Z" />
<path fill="#070707" d=" M 179.67 276.56 C 180.93 276.98 182.21 277.37 183.43 277.92 C 182.56 279.29 181.60 280.61 180.53 281.84 C 179.07 282.08 178.68 280.51 177.96 279.60 C 178.53 278.59 179.10 277.57 179.67 276.56 Z" />
<path fill="#777777" d=" M 266.06 284.99 C 266.55 284.69 267.52 284.09 268.01 283.79 L 267.94 284.61 C 267.47 284.70 266.53 284.89 266.06 284.99 Z" />
<path fill="#adadad" d=" M 261.50 292.28 L 261.52 292.41 L 261.59 292.51 L 261.52 292.41 L 261.50 292.28 Z" />
<path fill="#ffffff" d=" M 319.39 306.95 C 325.70 305.17 326.81 297.61 331.83 294.21 C 336.14 295.73 340.19 297.85 344.25 299.93 C 343.17 303.77 344.07 307.70 343.73 311.58 C 342.00 313.12 339.95 314.24 338.19 315.74 C 338.30 318.52 338.65 321.29 338.91 324.06 C 335.34 325.44 331.63 324.13 328.00 323.81 C 325.41 323.92 322.87 325.71 320.27 324.55 C 314.57 322.23 308.82 325.06 303.17 325.93 C 302.19 325.54 301.21 325.14 300.24 324.74 C 300.25 321.82 300.10 318.91 300.28 316.00 C 301.02 314.04 304.23 314.24 304.40 311.79 C 304.87 308.79 308.14 307.28 308.26 304.18 C 310.78 303.34 313.41 303.01 316.03 302.65 C 317.07 304.14 318.15 305.61 319.39 306.95 Z" />
<path fill="#747474" d=" M 228.38 306.36 L 228.47 306.49 L 228.55 306.66 C 228.51 306.59 228.42 306.44 228.38 306.36 Z" />
<path fill="#828282" d=" M 292.15 310.22 L 292.55 310.26 L 292.85 310.48 C 292.67 310.41 292.33 310.29 292.15 310.22 Z" />
<path fill="#5e768c" d=" M 296.01 325.98 C 296.08 324.37 296.89 323.73 298.46 324.07 C 298.09 325.18 297.28 325.82 296.01 325.98 Z" />
<path fill="#ffffff" d=" M 305.20 327.78 C 308.87 327.52 312.29 325.53 316.03 325.94 C 319.04 326.26 322.03 327.59 325.07 326.62 C 330.00 325.04 335.27 328.76 339.97 325.85 C 341.59 326.67 343.09 328.00 342.49 330.03 C 347.15 331.53 350.63 335.29 351.88 340.01 C 355.57 342.33 359.86 343.44 363.82 345.23 C 364.06 347.95 363.64 350.66 362.12 352.99 C 360.64 353.82 358.91 354.46 357.95 355.95 C 355.89 358.53 356.75 361.97 356.57 365.00 C 358.32 366.59 360.68 367.78 361.56 370.12 C 361.53 372.16 361.08 374.18 360.83 376.21 C 362.98 377.86 365.58 379.32 366.38 382.11 C 366.98 384.22 368.47 385.80 370.31 386.92 C 372.49 392.00 367.71 396.13 366.95 400.96 C 363.42 400.87 360.37 402.83 356.98 403.38 C 353.80 403.10 351.74 400.32 349.94 398.00 C 347.64 394.88 343.93 393.43 340.60 391.74 C 340.57 387.99 341.71 384.10 340.42 380.44 C 339.40 377.24 338.49 373.97 336.93 370.99 C 334.76 367.63 330.64 366.37 326.94 365.54 C 324.96 367.44 322.45 368.67 319.63 368.09 C 319.42 365.76 320.24 362.60 317.82 361.16 C 313.16 356.78 306.28 358.85 300.85 356.27 C 299.36 351.15 296.32 346.76 293.76 342.15 C 291.25 338.49 293.82 334.14 293.57 330.11 L 294.00 328.90 C 294.47 328.75 295.39 328.45 295.85 328.30 C 298.84 327.03 302.09 328.18 305.20 327.78 Z" />
<path fill="#000000" d=" M 96.24 333.09 C 98.26 330.29 101.01 327.65 104.80 328.13 C 105.83 329.00 106.88 329.84 107.95 330.67 C 108.59 329.77 109.24 328.87 109.90 327.98 C 111.09 328.72 112.30 329.46 113.54 330.14 C 113.40 331.00 113.25 331.86 113.10 332.73 C 111.78 332.32 110.45 331.93 109.12 331.56 C 109.76 333.71 111.85 334.69 113.89 334.96 C 117.29 337.81 119.02 343.01 117.20 347.14 C 117.73 347.97 118.59 348.67 118.67 349.72 C 119.79 357.42 123.72 364.39 124.97 372.05 C 124.45 374.36 124.16 376.71 123.74 379.05 C 122.41 382.01 120.48 384.66 118.53 387.24 C 119.13 389.51 119.95 391.71 120.75 393.92 C 119.73 400.10 120.10 406.60 117.58 412.50 C 116.72 418.85 117.29 425.73 114.30 431.60 C 111.94 435.69 111.00 440.35 109.48 444.78 C 107.18 444.79 104.87 444.69 102.61 444.19 C 102.05 442.24 101.46 440.30 101.02 438.33 C 96.84 436.98 92.12 438.01 88.74 440.78 C 87.93 444.04 88.25 447.40 87.90 450.70 C 84.06 453.84 79.50 457.85 74.10 456.77 C 71.55 455.97 70.52 453.12 68.27 451.81 C 65.75 450.28 65.32 447.10 63.76 444.80 C 63.13 447.04 62.12 449.31 59.36 448.72 C 58.37 446.87 57.46 444.95 57.50 442.81 C 58.57 441.91 59.63 441.02 60.70 440.14 C 59.75 435.39 61.53 430.20 59.59 425.72 C 59.76 422.40 61.92 419.72 62.54 416.52 C 63.24 414.08 63.21 411.00 65.75 409.67 C 67.27 408.99 67.04 407.28 67.25 405.91 C 65.79 405.46 64.33 405.03 62.86 404.63 C 62.32 401.10 61.20 397.14 63.44 393.96 C 65.08 392.87 66.50 391.51 67.85 390.10 C 67.10 387.48 66.66 384.78 65.72 382.23 C 62.28 377.40 62.42 371.22 60.36 365.85 C 57.69 365.06 54.95 364.12 53.00 362.03 C 53.04 359.28 53.60 356.58 55.00 354.20 C 57.04 350.80 55.44 346.68 57.03 343.13 C 57.30 341.85 59.50 341.27 60.23 342.49 C 61.76 344.44 63.03 346.63 64.89 348.31 C 67.79 349.01 71.24 350.81 74.02 348.89 C 77.76 346.72 81.31 344.21 84.35 341.12 C 88.70 339.02 91.99 335.36 96.24 333.09 Z" />
<path fill="#657d93" d=" M 255.55 329.22 C 257.12 328.91 258.05 329.53 258.34 331.09 C 257.07 330.99 256.14 330.36 255.55 329.22 Z" />
<path fill="#ffffff" d=" M 94.36 337.29 C 97.04 335.79 99.08 333.53 100.67 330.93 C 101.53 330.86 103.24 330.72 104.10 330.65 C 106.99 333.46 109.51 336.81 113.28 338.50 C 115.10 340.72 115.84 343.82 114.15 346.34 C 114.35 347.16 114.56 347.99 114.77 348.82 C 117.23 351.22 117.03 354.80 118.22 357.80 C 119.21 360.68 119.95 363.66 121.27 366.42 C 123.14 371.71 122.62 377.72 119.37 382.36 C 117.96 384.06 116.82 385.97 115.90 387.98 C 116.88 390.87 119.50 393.62 118.04 396.83 C 117.91 402.56 117.15 408.34 114.84 413.63 C 114.74 420.55 115.30 428.79 110.10 434.18 C 109.01 435.18 109.18 436.78 108.83 438.12 C 108.29 439.41 107.97 440.77 107.62 442.13 C 103.95 444.15 103.59 438.54 102.68 436.22 C 101.07 435.73 99.45 435.28 97.83 434.85 C 93.80 435.62 89.80 436.51 86.51 439.13 C 85.84 442.31 85.87 445.56 85.76 448.80 C 84.89 450.87 82.53 451.54 80.98 453.00 C 79.22 454.73 76.57 454.02 74.35 454.38 C 71.40 451.37 67.83 448.70 66.62 444.44 C 65.72 440.76 61.95 438.12 62.63 434.04 C 62.86 430.48 62.06 426.93 62.46 423.38 C 64.80 420.71 64.76 417.00 65.86 413.79 C 66.35 411.54 69.22 411.02 69.82 408.85 C 69.99 407.02 69.47 405.24 69.21 403.46 C 68.88 403.15 68.20 402.52 67.87 402.20 C 67.16 402.20 65.74 402.20 65.03 402.20 C 64.83 401.37 64.42 399.72 64.21 398.89 C 64.44 398.21 64.88 396.85 65.11 396.17 C 67.35 394.67 69.57 392.86 70.42 390.19 C 69.76 388.15 69.36 386.02 69.23 383.88 C 69.28 381.22 67.04 379.48 65.46 377.65 C 65.50 372.86 65.10 367.67 62.14 363.69 C 59.24 363.30 56.15 362.61 55.23 359.39 C 57.73 355.57 59.13 351.06 58.90 346.48 C 60.64 347.55 61.91 349.16 63.36 350.56 C 66.05 351.24 68.79 351.69 71.46 352.42 C 75.20 352.13 77.70 348.76 81.03 347.27 C 84.48 342.72 90.43 341.31 94.36 337.29 Z" />
<path fill="#7d7d7d" d=" M 258.79 331.31 C 260.25 330.84 261.74 330.76 263.25 331.08 C 262.16 332.59 260.05 332.60 258.79 331.31 Z" />
<path fill="#040404" d=" M 57.91 338.04 C 59.89 336.29 62.02 333.02 64.99 334.88 C 64.92 335.57 64.79 336.97 64.72 337.66 C 63.04 338.43 61.39 339.24 59.76 340.11 C 59.14 339.42 58.53 338.73 57.91 338.04 Z" />
<path fill="#ffffff" d=" M 366.19 345.03 C 370.29 343.05 375.31 342.49 379.47 344.57 C 381.38 346.11 382.18 348.58 383.55 350.56 C 384.84 353.31 388.26 353.65 390.16 355.82 C 393.39 359.20 396.97 363.26 402.00 363.49 C 404.71 363.53 408.27 363.92 409.41 366.85 C 410.54 369.71 410.59 372.88 411.46 375.84 C 413.09 377.05 414.86 378.10 416.44 379.40 C 417.72 381.13 416.02 382.92 415.33 384.52 C 413.02 388.47 410.89 392.52 409.05 396.72 C 406.67 396.70 404.29 396.70 401.92 396.66 C 400.30 398.92 399.37 401.55 398.13 404.02 C 396.25 406.50 392.85 406.53 390.08 407.18 C 388.06 405.08 386.24 402.63 383.40 401.59 C 380.62 402.45 377.83 403.28 375.01 403.98 C 373.16 403.42 371.29 402.94 369.48 402.33 C 368.04 398.32 371.19 395.21 372.54 391.75 C 373.40 388.33 371.55 384.99 368.50 383.43 C 367.16 379.96 365.39 376.65 362.58 374.14 C 362.85 372.64 363.12 371.16 363.31 369.66 C 362.78 368.24 362.29 366.82 361.75 365.41 C 360.55 364.92 359.36 364.42 358.17 363.95 C 358.02 361.67 358.32 359.42 359.53 357.45 C 363.60 356.15 364.16 351.84 365.86 348.53 C 365.97 347.35 366.08 346.19 366.19 345.03 Z" />
<path fill="#040404" d=" M 289.31 364.03 C 290.23 363.04 291.17 362.08 292.15 361.16 C 292.86 361.45 294.29 362.05 295.00 362.35 C 295.31 363.60 295.65 364.85 296.01 366.10 C 294.95 366.61 293.90 367.12 292.85 367.63 C 291.47 366.64 290.30 365.40 289.31 364.03 Z" />
<path fill="#070707" d=" M 305.44 372.58 C 306.74 372.11 308.76 370.94 309.26 373.14 C 310.60 375.05 308.97 376.83 307.80 378.28 C 306.74 377.26 304.31 376.86 304.62 375.02 C 304.85 374.19 305.12 373.37 305.44 372.58 Z" />
<path fill="#ffffff" d=" M 403.08 398.20 C 404.57 398.35 406.05 398.55 407.53 398.81 C 407.71 402.10 405.97 405.11 406.27 408.41 C 406.02 408.76 405.51 409.46 405.26 409.81 C 405.03 412.58 404.44 415.35 404.69 418.14 C 404.98 420.66 407.20 422.11 408.86 423.75 C 413.24 422.53 416.27 426.39 420.10 427.61 C 424.12 429.01 427.36 431.83 430.51 434.59 C 429.96 437.50 430.78 440.43 430.55 443.37 C 430.03 448.33 434.66 452.15 433.91 457.16 C 428.29 455.81 422.63 457.01 417.34 459.06 C 412.49 462.04 408.69 466.91 407.39 472.48 C 407.54 472.79 407.83 473.41 407.98 473.72 C 407.13 478.45 411.00 484.89 406.02 488.16 C 401.08 492.12 396.58 496.70 393.03 501.95 C 391.17 505.24 390.35 508.98 389.04 512.50 C 387.88 512.87 386.73 513.24 385.59 513.63 C 381.10 512.89 376.41 513.86 372.10 512.06 C 371.24 508.48 371.12 504.64 372.21 501.10 C 375.35 499.31 378.51 496.73 378.92 492.87 C 381.55 489.78 379.86 485.40 380.37 481.72 C 379.86 479.99 379.17 478.33 378.18 476.84 C 381.61 472.24 388.07 472.32 392.62 469.33 C 393.30 466.12 393.62 462.86 393.91 459.60 C 393.80 459.03 393.58 457.90 393.47 457.33 C 388.36 447.61 385.91 436.83 382.70 426.41 C 378.83 426.46 377.74 422.39 376.34 419.55 C 375.51 415.12 374.85 410.56 375.26 406.05 C 377.86 405.09 380.46 403.91 383.29 403.81 C 385.67 404.20 386.98 406.19 388.03 408.16 C 392.05 409.59 396.51 408.19 399.57 405.40 C 401.02 403.15 401.41 400.36 403.08 398.20 Z" />
<path fill="#030303" d=" M 51.48 439.36 C 52.25 437.98 53.19 436.71 54.26 435.56 C 55.51 436.52 57.13 437.30 57.39 439.06 C 56.42 440.56 55.14 441.81 53.95 443.14 C 53.11 441.89 52.29 440.63 51.48 439.36 Z" />
<path fill="#c1c1c1" d=" M 366.25 438.15 C 367.55 438.83 367.55 439.52 366.25 440.21 C 364.95 439.52 364.95 438.83 366.25 438.15 Z" />
<path fill="#ffffff" d=" M 59.74 443.68 C 61.32 443.30 61.93 443.92 61.57 445.53 C 59.97 445.87 59.36 445.25 59.74 443.68 Z" />
<path fill="#030303" d=" M 348.52 468.87 C 349.39 468.12 350.28 467.39 351.20 466.70 C 353.54 467.40 351.13 470.15 350.18 471.26 C 349.61 470.45 349.07 469.67 348.52 468.87 Z" />
<path fill="#000000" d=" M 333.97 482.55 C 333.35 481.23 331.48 479.21 334.01 478.75 C 336.77 479.40 335.25 481.30 333.97 482.55 Z" />
<path fill="#000000" d=" M 337.59 485.45 C 337.63 483.97 338.16 482.79 339.83 482.67 C 339.70 483.45 339.43 485.01 339.30 485.79 C 338.87 485.70 338.02 485.54 337.59 485.45 Z" />
<path fill="#000000" d=" M 339.80 489.96 C 339.82 488.42 341.04 488.65 342.12 488.79 C 342.18 489.25 342.31 490.17 342.37 490.62 C 341.34 490.80 340.48 490.58 339.80 489.96 Z" />
<path fill="#000000" d=" M 355.81 497.32 C 359.44 496.48 362.86 494.87 366.52 494.11 C 366.99 494.53 367.91 495.35 368.38 495.76 C 367.07 503.07 363.06 509.41 359.98 516.04 C 357.53 521.15 352.93 525.35 352.18 531.16 C 352.36 531.67 352.72 532.71 352.90 533.23 C 351.08 536.96 348.84 540.70 348.71 544.97 C 350.98 547.04 353.22 549.19 354.93 551.76 C 354.16 555.10 355.79 557.95 356.78 560.94 C 355.89 565.12 352.39 568.30 350.66 572.19 C 350.50 576.45 349.57 580.65 347.62 584.46 C 342.99 585.78 340.12 580.25 335.50 581.17 C 334.70 581.72 333.89 582.27 333.09 582.82 C 331.97 582.11 330.86 581.43 329.72 580.78 C 324.54 580.05 320.45 576.29 318.00 571.86 C 313.89 568.47 309.94 564.57 304.98 562.49 C 301.23 563.22 297.83 561.30 294.18 560.89 C 289.55 560.58 285.76 557.45 282.99 553.97 C 277.19 552.59 271.54 549.91 268.06 544.88 C 265.04 540.64 259.35 540.53 255.74 537.18 C 249.65 536.87 244.17 533.96 238.15 533.32 C 233.90 531.30 229.68 527.09 230.66 521.98 C 231.64 520.04 233.58 518.41 233.33 516.04 C 233.02 510.52 237.38 505.73 242.45 504.13 C 243.42 501.29 246.78 500.16 249.28 501.81 C 250.82 503.66 251.14 506.20 252.05 508.38 C 254.45 507.62 256.91 507.02 259.32 506.28 C 259.60 504.14 258.44 500.97 260.85 499.74 C 263.97 499.28 267.15 498.97 270.31 498.86 C 272.33 500.03 273.37 502.30 274.83 504.05 C 280.30 504.57 283.72 509.50 288.71 511.12 C 296.10 510.57 303.44 509.50 310.57 507.49 C 316.39 504.92 323.30 506.40 328.92 503.16 C 332.13 501.61 335.65 498.73 339.38 500.53 C 341.69 501.63 344.17 500.83 346.55 500.46 C 346.95 500.02 347.74 499.14 348.13 498.70 C 347.83 496.90 349.32 495.46 350.97 495.10 C 352.71 495.54 354.17 496.62 355.81 497.32 Z" />
<path fill="#ffffff" d=" M 351.07 498.28 C 355.43 500.94 360.37 499.31 364.56 497.21 C 363.97 500.19 363.64 503.35 362.01 505.99 C 360.17 508.96 359.34 512.44 357.33 515.32 C 353.97 521.27 348.36 526.82 349.30 534.23 C 347.83 537.29 346.38 540.52 346.50 544.00 C 346.71 547.82 350.69 549.67 352.16 552.93 C 352.07 554.36 351.85 555.78 351.51 557.19 C 352.53 558.80 354.19 560.81 352.83 562.75 C 350.54 566.45 348.05 570.15 347.33 574.55 C 347.67 576.99 346.82 579.29 345.04 580.99 C 341.86 579.45 338.62 577.97 335.08 577.49 C 334.45 577.86 333.20 578.60 332.57 578.97 C 330.84 578.07 329.00 577.39 327.07 577.07 C 323.71 574.86 320.94 571.95 319.11 568.36 C 314.00 565.68 309.93 559.19 303.60 560.06 C 299.68 559.25 295.74 558.45 291.86 557.45 C 288.77 556.87 287.51 553.43 284.63 552.41 C 279.12 549.89 272.75 548.01 269.27 542.63 C 266.87 538.94 262.19 538.57 258.93 536.02 C 255.63 533.33 251.04 534.40 247.34 532.81 C 244.41 531.42 240.94 531.81 238.14 530.09 C 235.94 529.05 234.28 527.04 233.38 524.83 C 232.83 522.76 234.31 521.10 235.22 519.43 C 236.85 517.03 235.44 513.78 237.30 511.45 C 239.08 506.99 244.91 507.47 247.34 503.51 C 248.69 505.26 249.16 507.43 249.59 509.56 C 252.52 511.40 255.97 509.96 259.14 509.83 C 260.13 508.86 261.12 507.88 262.11 506.91 C 262.29 505.48 261.68 503.79 262.48 502.56 C 264.64 502.11 266.84 501.83 268.99 501.29 C 271.81 503.73 273.68 507.89 277.94 507.92 C 282.54 509.69 286.16 513.88 291.53 513.66 C 297.56 511.96 303.86 511.48 309.99 510.15 C 315.43 508.77 321.04 508.24 326.53 507.11 C 330.92 505.52 335.24 501.27 340.14 503.58 C 344.14 503.79 350.36 503.31 351.07 498.28 Z" />
<path fill="#000000" d=" M 213.51 510.93 C 214.14 510.63 215.42 510.02 216.05 509.72 C 217.17 510.38 217.82 511.53 218.55 512.57 C 217.85 513.39 217.15 514.22 216.45 515.04 C 215.40 513.72 214.41 512.35 213.51 510.93 Z" />
<path fill="#030303" d=" M 226.51 511.61 C 227.29 510.35 228.19 509.15 229.74 510.30 C 231.11 511.96 229.35 513.29 227.81 513.55 C 227.48 513.07 226.83 512.09 226.51 511.61 Z" />
<path fill="#000000" d=" M 224.17 515.13 C 224.65 513.14 227.79 514.24 227.45 516.03 C 226.73 517.33 223.73 516.92 224.17 515.13 Z" />
</svg>
