<?xml version="1.0" encoding="UTF-8" ?>
<!DOCTYPE svg PUBLIC "-//W3C//DTD SVG 1.1//EN" "http://www.w3.org/Graphics/SVG/1.1/DTD/svg11.dtd">
<svg width="528pt" height="606pt" viewBox="0 0 528 606" version="1.1" xmlns="http://www.w3.org/2000/svg">
<path fill="#ffffff" d=" M 0.00 0.00 L 234.53 0.00 C 231.52 0.55 228.28 0.87 225.84 2.90 C 222.10 5.90 217.22 3.22 212.96 3.89 C 204.32 4.20 198.55 12.59 190.00 13.17 C 187.00 13.45 184.95 10.16 181.96 10.55 C 179.02 10.82 176.07 10.98 173.12 10.98 C 172.51 11.67 171.91 12.37 171.30 13.07 C 171.05 16.96 170.89 21.04 168.90 24.51 C 167.29 23.80 165.69 23.13 164.07 22.46 C 160.72 23.58 157.50 25.26 155.65 28.41 C 157.41 32.09 156.67 36.33 158.05 40.14 C 157.79 40.86 157.28 42.29 157.02 43.01 C 154.51 39.98 152.42 35.38 147.65 36.26 C 146.96 37.08 146.26 37.89 145.57 38.71 C 143.03 38.74 140.50 38.40 138.22 37.24 C 138.22 34.22 137.71 31.25 136.77 28.38 C 136.33 27.88 135.43 26.88 134.99 26.37 C 132.96 26.88 130.93 27.38 128.89 27.84 C 128.62 28.40 128.08 29.50 127.82 30.06 C 127.91 35.67 123.65 39.77 121.52 44.62 C 120.20 47.58 117.83 49.93 116.63 52.94 C 116.85 55.90 117.38 59.12 114.81 61.26 C 113.60 56.19 108.69 53.67 106.70 49.08 C 105.89 46.82 102.97 47.16 101.32 45.83 C 100.29 40.59 100.06 35.24 99.83 29.92 C 97.89 29.68 95.66 28.53 93.90 29.86 C 91.15 31.79 87.90 33.09 85.58 35.57 C 84.15 37.90 83.62 40.64 82.59 43.15 C 80.97 48.24 76.82 51.88 73.21 55.59 C 69.45 55.80 65.67 55.85 61.93 55.30 C 54.84 54.52 47.90 57.79 40.85 56.32 C 37.49 55.62 34.41 57.11 31.54 58.62 C 31.42 59.14 31.19 60.17 31.08 60.69 C 31.58 66.64 33.99 72.14 35.58 77.83 C 37.55 79.88 40.27 81.34 41.50 83.99 C 40.82 86.37 40.01 88.77 38.76 90.93 C 36.24 94.34 32.41 96.49 28.42 97.75 C 26.39 98.30 25.05 99.95 23.75 101.47 C 24.31 103.78 24.28 106.14 23.61 108.42 C 26.03 112.83 30.76 115.40 33.18 119.85 C 33.32 122.00 31.15 123.30 30.40 125.16 C 29.19 128.16 27.94 131.16 26.84 134.20 C 27.29 137.96 28.92 141.61 31.75 144.19 C 35.62 147.74 36.25 154.18 41.46 156.32 C 46.30 157.61 51.39 157.84 56.36 157.35 C 56.76 158.91 57.30 160.45 57.42 162.06 C 55.59 165.56 51.55 168.47 52.43 172.86 C 52.59 175.29 54.62 176.90 56.08 178.62 C 60.12 178.04 62.81 174.98 65.84 172.60 C 69.77 170.88 74.29 171.12 78.21 169.32 C 81.42 166.60 82.62 162.30 85.34 159.17 C 87.28 157.50 89.71 156.53 91.61 154.81 C 93.78 152.90 95.55 150.44 98.20 149.12 C 101.58 147.44 105.31 146.65 108.82 145.27 C 111.18 146.01 113.53 146.83 115.72 148.00 C 118.11 148.83 119.80 150.66 121.36 152.56 C 127.41 153.96 132.86 157.37 137.24 161.69 C 139.33 163.70 141.50 165.61 143.91 167.23 C 146.13 167.41 148.66 167.05 150.56 168.49 C 153.92 170.91 155.24 175.01 157.73 178.17 C 158.73 179.78 160.18 181.21 160.68 183.08 C 160.80 187.16 159.24 191.55 161.42 195.35 C 162.35 198.04 164.89 199.47 167.05 201.06 C 168.34 205.02 170.95 208.70 170.67 213.05 C 170.52 217.42 171.13 221.77 171.35 226.13 C 172.97 226.33 174.63 226.36 176.22 226.75 C 178.41 228.36 178.18 231.73 180.54 233.20 C 185.53 236.92 189.62 241.74 193.22 246.78 C 195.31 249.61 191.40 252.84 193.02 255.82 C 195.10 258.15 198.22 257.75 201.01 257.53 C 204.69 258.69 208.57 259.91 211.61 262.39 C 214.82 266.19 217.67 270.30 220.73 274.23 C 222.68 277.15 226.44 277.85 228.82 280.33 C 231.92 283.48 235.48 286.36 237.57 290.34 C 239.28 294.15 243.01 296.35 245.69 299.39 C 248.33 302.46 250.87 305.67 253.96 308.32 C 256.88 310.52 260.86 310.77 263.65 313.22 C 266.05 315.27 268.21 317.72 271.14 319.05 C 273.27 319.57 275.50 319.07 277.66 318.92 C 281.25 318.40 284.64 320.12 287.86 321.47 C 292.65 324.25 299.31 322.05 303.30 326.54 C 307.05 331.75 310.18 337.46 312.26 343.55 C 317.16 345.78 322.82 345.16 327.63 347.48 C 331.52 349.22 326.78 352.75 325.91 355.16 C 330.75 357.03 336.52 356.93 340.90 353.95 C 342.65 354.69 344.40 355.43 346.19 356.10 C 348.47 359.91 350.68 363.87 351.78 368.21 C 351.99 371.24 351.81 374.33 351.23 377.33 C 352.66 380.25 356.27 380.36 358.54 382.35 C 361.62 384.89 363.60 388.79 367.50 390.29 C 371.42 391.41 375.30 389.49 379.10 388.72 C 382.85 389.45 386.57 391.78 386.12 396.22 C 387.20 394.57 388.10 392.80 388.67 390.90 C 391.08 390.01 393.51 388.95 396.12 388.83 C 398.62 389.06 399.90 391.31 401.12 393.20 C 405.09 394.48 409.58 393.27 412.52 390.37 C 413.93 388.08 414.69 385.45 416.06 383.14 C 417.58 383.34 419.11 383.57 420.64 383.82 C 420.30 386.94 419.55 390.00 419.00 393.09 C 418.04 396.31 417.36 399.69 417.70 403.07 C 417.93 405.54 420.12 407.00 421.70 408.64 C 426.37 407.83 429.79 411.50 433.89 412.94 C 437.49 414.40 440.50 416.91 443.37 419.48 C 443.40 423.35 443.42 427.24 443.75 431.11 C 444.88 434.79 446.99 438.18 447.21 442.11 C 441.28 440.93 435.06 441.83 429.66 444.52 C 425.27 447.37 421.86 451.90 420.53 456.99 C 420.98 461.00 421.52 465.02 421.54 469.07 C 421.77 471.41 419.46 472.61 418.02 474.02 C 413.96 477.29 410.34 481.09 407.20 485.25 C 404.41 488.88 403.59 493.52 401.88 497.68 C 401.08 497.90 399.47 498.33 398.67 498.55 C 394.07 498.16 389.38 498.56 384.93 497.09 C 384.37 493.52 384.29 489.88 384.99 486.33 C 388.25 484.38 391.36 481.75 392.03 477.79 C 392.35 477.35 392.99 476.47 393.31 476.03 C 393.31 471.11 394.06 465.82 391.18 461.48 C 394.99 457.42 401.03 457.40 405.36 454.27 C 406.84 450.59 406.70 446.46 406.65 442.55 C 401.39 432.91 398.96 422.07 395.82 411.64 C 388.75 409.87 388.63 400.92 388.18 395.03 C 387.39 395.72 386.60 396.41 385.81 397.09 C 386.48 401.41 387.18 405.81 389.08 409.78 C 395.48 412.53 395.66 420.29 397.17 426.10 C 399.25 432.12 401.63 438.03 403.84 444.01 C 405.02 447.12 403.90 450.53 402.74 453.49 C 398.46 455.17 393.26 455.45 389.92 458.89 C 387.90 460.85 389.48 463.48 390.21 465.65 C 391.02 470.44 391.79 475.98 388.29 479.95 C 386.03 481.77 383.81 483.64 381.80 485.75 C 381.58 490.08 380.37 495.12 383.11 498.90 C 387.82 500.74 393.06 500.76 398.06 501.05 C 401.17 501.26 403.88 499.52 405.35 496.85 C 406.38 487.90 413.14 481.10 419.96 475.90 C 422.68 474.41 423.87 471.54 424.71 468.73 C 424.09 465.43 423.62 462.10 423.37 458.76 C 422.55 455.32 424.96 452.47 427.21 450.21 C 430.02 447.26 434.12 446.13 437.96 445.20 C 441.35 444.17 444.71 445.74 448.11 445.98 C 448.69 444.37 449.69 442.85 449.75 441.10 C 450.08 437.84 447.86 435.21 446.78 432.32 C 444.60 427.89 446.87 422.72 445.19 418.19 C 442.84 414.11 438.30 411.86 433.92 410.62 C 430.66 408.84 427.78 406.13 423.94 405.74 C 422.23 405.60 421.34 403.99 420.21 402.93 C 420.25 399.54 421.08 396.26 421.80 392.96 C 422.40 383.74 427.94 375.98 432.14 368.05 C 433.94 364.64 437.25 360.63 441.54 361.34 C 445.27 364.58 449.44 367.37 454.33 368.52 C 455.27 367.72 456.23 366.94 457.20 366.18 C 454.66 365.59 452.12 365.02 449.62 364.29 C 445.80 363.19 445.60 356.87 441.03 357.31 C 437.21 356.91 434.74 360.38 431.94 362.34 C 429.66 362.05 427.89 360.32 426.03 359.09 C 425.76 354.89 425.00 349.36 420.54 347.60 C 418.32 346.91 415.95 346.92 413.76 346.16 C 408.58 344.65 405.47 339.82 400.94 337.19 C 396.52 334.88 396.25 327.96 390.97 327.03 C 386.39 325.63 381.65 326.79 377.10 327.51 C 373.66 326.68 370.06 325.90 367.08 323.90 C 365.18 322.00 364.78 318.95 362.61 317.26 C 358.31 313.92 354.21 309.48 352.98 304.06 C 352.32 299.56 359.31 299.42 359.02 295.13 C 358.67 292.12 358.38 289.06 359.63 286.21 C 364.81 286.45 369.83 284.63 375.00 285.03 C 380.38 285.64 385.79 284.88 391.18 284.70 C 394.43 284.32 397.43 286.30 399.75 288.37 C 400.54 288.94 401.15 290.40 400.15 291.07 C 396.55 294.09 392.11 296.09 389.05 299.75 C 389.19 301.21 389.30 302.68 389.39 304.15 C 390.46 305.88 391.36 307.88 393.27 308.87 C 397.86 311.61 402.10 315.09 407.27 316.69 C 410.20 317.55 412.96 318.86 415.72 320.15 C 421.12 322.38 426.71 324.20 431.85 327.02 C 434.38 328.37 437.33 328.37 440.06 329.07 C 445.27 332.38 450.05 336.44 454.17 341.05 C 455.57 342.80 457.88 343.17 459.88 343.89 C 464.65 345.46 469.29 347.38 474.15 348.68 C 477.39 349.14 478.30 352.58 480.14 354.77 C 483.04 358.18 485.63 361.92 489.18 364.72 C 494.06 368.82 498.49 374.41 498.88 381.01 C 498.42 385.77 495.69 389.93 495.41 394.75 C 490.80 390.29 483.47 389.79 479.96 384.03 C 477.59 379.56 474.77 375.33 471.39 371.55 C 469.76 369.71 467.06 370.07 464.87 369.79 C 462.05 369.88 459.76 368.08 457.48 366.72 C 456.72 367.44 455.98 368.16 455.23 368.88 C 456.91 369.52 458.56 370.31 460.16 371.16 C 463.19 372.94 466.91 371.88 470.15 373.11 C 472.00 376.97 475.25 379.95 477.09 383.82 C 478.76 387.33 481.69 390.26 485.27 391.81 C 489.38 393.42 492.51 397.11 497.11 397.52 C 499.41 393.78 499.54 389.36 500.75 385.26 C 502.58 380.94 501.27 375.96 499.10 372.03 C 495.42 366.14 489.75 361.91 485.67 356.34 C 482.20 353.37 480.24 348.76 476.13 346.58 C 468.24 343.59 458.95 342.42 453.01 335.85 C 449.20 332.75 445.64 329.33 441.60 326.55 C 438.98 324.55 435.36 326.07 432.63 324.38 C 428.90 322.22 424.76 320.95 420.84 319.22 C 416.60 317.48 412.63 315.11 408.22 313.80 C 403.18 312.35 398.94 309.18 394.62 306.34 C 393.27 305.22 391.17 304.14 391.65 302.03 C 391.46 300.52 393.14 299.88 394.01 298.96 C 396.91 296.73 400.16 295.00 403.15 292.88 C 403.28 291.61 403.43 290.35 403.59 289.09 C 401.47 286.46 399.21 283.64 395.97 282.40 C 393.40 281.15 390.58 282.22 387.91 282.39 C 383.60 283.14 379.25 282.70 374.94 282.25 C 370.27 281.74 365.74 284.16 361.08 283.15 C 356.87 281.95 353.20 279.48 349.21 277.77 C 343.60 275.33 340.64 269.68 336.26 265.74 C 332.83 262.54 330.19 258.56 326.43 255.71 C 322.05 252.40 318.66 248.01 315.56 243.54 C 311.83 235.24 308.13 226.87 305.68 218.10 C 302.44 212.69 301.01 206.49 298.17 200.90 C 296.20 197.28 291.91 196.53 288.62 194.60 C 284.85 192.20 280.43 190.75 277.35 187.35 C 274.41 184.02 271.01 181.10 268.30 177.56 C 266.00 174.53 261.57 173.80 260.01 170.08 C 257.63 164.88 252.47 162.04 248.90 157.81 C 247.85 151.92 246.96 145.96 246.20 140.01 C 245.62 136.31 244.20 132.67 244.77 128.86 C 246.17 127.38 248.38 127.26 250.20 126.56 C 250.73 123.40 251.82 120.03 250.49 116.91 C 249.62 114.26 247.26 112.52 245.94 110.13 C 244.53 107.46 243.59 104.57 242.40 101.79 C 243.78 97.27 246.76 93.57 250.40 90.64 C 250.66 92.01 250.98 93.36 251.35 94.70 C 256.03 95.69 260.45 93.39 264.64 91.64 C 267.68 90.08 267.41 85.08 271.15 84.55 C 274.39 83.98 276.38 81.27 278.71 79.24 C 281.11 80.40 283.37 81.89 285.90 82.76 C 288.73 83.18 290.36 80.20 292.29 78.66 C 294.19 79.92 296.62 81.00 297.38 83.34 C 298.11 85.62 298.61 87.99 299.62 90.18 C 300.12 90.05 301.13 89.79 301.64 89.66 C 303.06 89.64 304.48 89.55 305.90 89.45 C 306.15 88.81 306.65 87.52 306.90 86.88 C 307.12 84.92 307.49 82.97 307.62 80.99 C 305.17 76.76 300.02 74.91 297.31 70.83 C 297.23 69.02 297.94 67.18 297.51 65.40 C 296.30 63.38 294.86 61.51 293.34 59.71 C 293.63 57.20 293.86 54.68 294.01 52.16 C 292.59 50.46 291.09 48.83 289.50 47.30 C 289.33 46.78 289.01 45.73 288.85 45.20 C 291.42 42.61 294.81 40.88 296.97 37.88 C 298.20 36.23 297.71 34.04 297.95 32.13 C 295.70 31.00 293.34 30.11 290.84 29.83 C 280.38 28.42 270.14 25.85 259.79 23.88 C 255.38 23.24 251.44 20.78 248.13 17.91 C 245.57 14.81 243.59 11.18 240.25 8.81 C 240.25 8.49 240.25 7.85 240.24 7.53 C 240.28 5.02 240.28 2.51 240.27 0.00 L 528.00 0.00 L 528.00 606.00 L 0.00 606.00 L 0.00 0.00 Z" />
<path fill="#000000" d=" M 234.53 0.00 L 240.27 0.00 C 240.28 2.51 240.28 5.02 240.24 7.53 C 239.18 5.95 238.23 4.25 236.82 2.94 C 230.74 1.67 226.01 7.34 220.01 7.01 C 215.03 7.56 209.21 5.44 205.02 8.99 C 201.38 11.64 196.55 11.46 192.81 13.90 C 191.18 14.72 189.45 16.50 187.55 15.31 C 183.53 13.45 179.00 13.01 174.65 13.67 C 171.54 16.42 171.94 21.17 171.96 24.96 C 171.96 29.48 176.20 32.24 177.65 36.21 C 177.58 39.11 176.51 41.92 176.77 44.84 C 176.99 48.07 177.95 51.28 177.55 54.53 C 177.06 58.72 172.21 61.97 174.41 66.47 C 174.82 68.92 177.53 67.36 179.16 67.41 C 181.42 67.70 183.69 67.94 185.97 68.10 C 186.41 69.42 187.42 70.54 188.80 70.89 C 186.81 74.47 184.88 78.10 182.36 81.36 C 179.30 85.14 181.97 89.93 183.19 93.88 C 184.40 98.36 187.48 101.95 190.33 105.47 C 194.50 108.39 198.21 111.95 202.67 114.46 C 204.94 115.82 206.51 118.02 208.24 119.97 C 206.61 119.98 204.98 119.99 203.36 120.02 L 203.06 119.45 C 201.65 118.87 200.11 119.35 198.82 119.97 C 196.01 119.13 193.10 119.09 190.43 120.37 C 186.45 122.47 183.12 118.11 179.10 118.66 C 171.50 118.90 165.15 114.38 158.51 111.46 C 156.84 110.37 155.21 108.87 153.07 109.00 C 147.70 108.77 142.31 108.88 136.95 109.05 C 133.14 109.06 129.57 111.66 128.17 115.14 C 127.42 118.31 129.16 121.47 128.74 124.62 C 126.74 127.00 124.15 128.80 122.06 131.10 L 122.43 131.57 C 122.98 132.55 123.54 133.53 124.11 134.50 C 120.62 134.30 117.21 133.67 113.88 132.63 C 111.77 132.77 110.30 134.75 108.39 135.52 C 105.82 137.32 102.85 135.49 100.09 135.36 C 97.52 136.40 95.70 138.84 92.91 139.44 C 90.00 140.57 86.84 140.39 83.99 139.17 C 81.05 143.31 77.28 146.99 75.51 151.84 C 74.70 153.40 74.32 155.53 72.53 156.26 C 68.65 158.08 64.26 157.07 60.14 157.60 C 60.27 159.21 60.99 160.87 60.55 162.47 C 59.03 165.51 56.97 168.24 54.94 170.95 C 55.80 172.49 56.67 174.03 57.59 175.54 C 59.99 172.51 63.14 169.88 66.98 169.02 C 70.25 168.29 73.64 167.87 76.70 166.39 C 78.76 164.71 79.62 162.04 81.18 159.94 C 82.72 157.23 85.77 156.01 87.99 153.96 C 90.91 151.86 91.88 147.71 95.60 146.63 C 100.35 144.83 105.06 141.55 110.38 142.58 C 116.13 143.41 120.56 147.59 125.95 149.40 C 127.70 149.96 128.62 151.71 129.85 152.96 C 134.10 156.09 138.42 159.12 142.38 162.62 C 144.28 164.59 147.21 164.07 149.66 164.54 C 149.71 162.85 149.76 160.99 148.32 159.81 C 144.34 156.10 144.02 149.93 139.71 146.50 C 137.26 145.29 134.00 146.04 131.93 144.11 C 131.37 142.20 131.55 140.14 130.81 138.29 C 128.71 136.82 126.34 135.76 124.11 134.50 C 126.89 134.29 130.30 134.44 132.17 136.83 C 132.97 138.83 133.18 141.03 134.03 143.01 C 136.88 144.37 140.10 144.93 143.13 145.80 C 146.19 144.63 149.00 142.90 152.05 141.70 C 153.20 142.84 154.33 144.01 155.53 145.10 C 157.18 146.77 159.21 147.98 161.28 149.05 C 162.26 149.59 163.26 150.09 164.28 150.56 C 164.00 151.96 164.61 152.85 166.10 153.22 C 168.46 154.55 170.80 155.89 173.08 157.36 L 173.17 157.42 C 172.91 157.71 172.38 158.27 172.11 158.55 C 166.82 156.66 162.83 152.62 157.99 149.95 C 155.51 148.49 153.51 146.38 151.86 144.04 C 149.24 145.20 146.56 146.19 143.98 147.42 C 145.60 150.40 146.75 153.60 148.01 156.74 C 149.34 158.05 150.62 159.41 151.80 160.86 C 151.02 167.04 157.26 170.39 159.11 175.71 C 159.87 176.89 160.62 178.09 161.36 179.29 C 164.23 182.05 163.17 186.38 162.28 189.77 C 162.67 191.42 163.02 193.07 163.31 194.74 C 165.14 196.86 167.24 198.71 169.26 200.65 C 171.07 202.92 171.84 205.79 172.70 208.52 C 174.14 213.24 172.97 218.24 173.62 223.05 C 176.80 224.43 180.29 225.99 181.10 229.75 C 182.59 231.31 184.12 232.84 185.48 234.53 C 189.69 237.96 193.40 242.04 196.26 246.67 C 198.11 249.09 196.22 251.92 195.85 254.51 C 200.90 254.15 205.74 255.68 210.32 257.67 C 212.48 254.82 212.97 251.26 214.04 247.95 C 214.45 245.49 217.05 244.65 218.80 243.31 C 219.90 239.41 220.48 235.10 223.90 232.42 C 224.65 232.48 226.15 232.59 226.90 232.65 C 227.71 231.50 228.74 230.46 229.22 229.11 C 229.29 225.75 227.70 222.39 228.67 219.06 C 229.29 216.80 230.65 214.84 231.80 212.82 C 232.93 212.28 234.10 211.79 235.18 211.12 C 236.99 207.35 234.36 203.41 233.14 199.87 C 236.85 196.04 242.14 193.65 244.31 188.49 C 236.63 189.88 228.89 186.88 223.09 181.94 C 221.16 180.09 220.35 177.51 220.05 174.93 C 220.26 172.37 221.04 169.54 219.84 167.12 C 217.32 165.30 214.17 164.45 211.64 162.58 C 210.45 162.17 209.27 161.75 208.09 161.34 C 207.04 162.16 206.00 162.98 204.97 163.82 C 200.11 164.22 195.16 164.64 190.74 166.87 C 185.32 162.84 178.16 162.53 172.80 158.40 C 175.10 157.74 177.26 158.81 179.37 159.57 C 183.11 160.52 186.37 162.68 189.99 163.94 C 194.67 163.57 199.18 161.93 203.91 161.74 C 208.80 158.07 214.64 161.32 219.22 163.83 C 224.81 168.05 219.50 176.80 224.73 181.27 C 229.18 183.48 233.71 186.13 238.81 186.34 C 238.89 184.84 238.97 183.34 239.05 181.84 C 238.98 181.38 238.84 180.47 238.76 180.01 C 239.58 178.67 240.39 177.33 241.22 176.00 C 243.69 175.98 246.17 175.97 248.64 176.00 C 249.38 178.46 251.25 179.17 253.61 178.55 C 254.74 179.15 255.88 179.76 257.02 180.36 L 257.14 181.14 C 257.62 180.92 258.57 180.48 259.05 180.26 C 259.60 178.99 260.61 177.60 259.81 176.18 C 258.44 172.36 256.40 168.72 253.38 165.96 C 252.93 164.76 252.09 164.02 250.85 163.76 C 250.28 163.20 249.72 162.65 249.15 162.10 C 248.58 160.80 247.63 160.21 246.33 160.34 C 244.83 152.64 244.76 144.71 242.80 137.08 C 241.45 132.77 243.06 128.36 243.21 124.00 C 243.59 124.04 244.34 124.11 244.71 124.15 C 245.56 124.29 246.42 124.37 247.29 124.38 C 247.77 123.33 248.01 122.24 248.01 121.11 C 247.93 119.84 247.82 118.58 247.67 117.33 C 247.69 115.86 247.03 114.98 245.69 114.70 C 245.42 114.65 244.90 114.55 244.64 114.49 C 244.90 113.07 244.34 112.25 242.95 112.03 C 243.17 108.76 240.99 106.14 240.13 103.14 C 240.10 101.02 240.50 98.92 240.65 96.81 C 242.32 97.02 242.89 95.15 243.17 93.88 C 245.71 90.22 249.54 87.88 253.66 86.36 C 254.06 88.18 254.30 90.05 254.89 91.82 C 256.20 91.97 257.51 92.09 258.82 92.16 C 259.18 91.63 259.89 90.57 260.25 90.04 C 260.94 90.02 262.32 89.97 263.01 89.95 C 264.58 88.18 266.11 86.38 267.54 84.49 C 269.73 83.40 271.78 82.05 273.73 80.57 C 273.86 79.89 274.13 78.53 274.26 77.85 C 277.85 76.41 281.80 76.90 284.93 79.17 C 285.31 79.46 286.06 80.05 286.43 80.34 L 287.17 79.96 C 289.06 79.14 290.27 77.39 291.63 75.93 C 295.29 76.51 297.77 79.37 300.25 81.84 C 299.29 83.19 299.90 84.91 300.84 86.07 L 301.24 87.05 C 302.44 86.98 303.64 86.91 304.84 86.84 C 304.94 84.49 305.03 82.14 305.13 79.79 C 303.60 78.97 302.06 78.18 300.51 77.41 C 300.25 76.94 299.73 76.01 299.47 75.54 C 299.00 75.30 298.08 74.80 297.61 74.55 C 296.70 73.32 295.77 72.10 294.83 70.89 C 295.44 69.25 295.51 67.29 294.34 65.89 C 292.93 63.74 291.48 61.42 291.74 58.73 C 292.49 53.36 287.87 49.40 287.47 44.20 C 290.25 41.51 293.19 38.90 295.30 35.61 C 296.54 34.58 295.38 32.77 293.93 33.09 C 290.48 32.85 287.09 32.14 283.70 31.50 L 283.53 31.44 L 283.30 31.41 C 280.28 31.00 277.28 30.45 274.31 29.79 C 273.97 29.37 273.28 28.52 272.93 28.09 C 269.28 28.03 265.44 28.34 262.09 26.58 C 257.82 24.55 253.11 23.89 248.56 22.79 C 246.67 20.48 244.42 18.14 244.62 14.92 C 243.02 13.01 240.57 11.48 240.25 8.81 C 243.59 11.18 245.57 14.81 248.13 17.91 C 251.44 20.78 255.38 23.24 259.79 23.88 C 270.14 25.85 280.38 28.42 290.84 29.83 C 293.34 30.11 295.70 31.00 297.95 32.13 C 297.71 34.04 298.20 36.23 296.97 37.88 C 294.81 40.88 291.42 42.61 288.85 45.20 C 289.01 45.73 289.33 46.78 289.50 47.30 C 291.09 48.83 292.59 50.46 294.01 52.16 C 293.86 54.68 293.63 57.20 293.34 59.71 C 294.86 61.51 296.30 63.38 297.51 65.40 C 297.94 67.18 297.23 69.02 297.31 70.83 C 300.02 74.91 305.17 76.76 307.62 80.99 C 307.49 82.97 307.12 84.92 306.90 86.88 C 306.65 87.52 306.15 88.81 305.90 89.45 C 304.48 89.55 303.06 89.64 301.64 89.66 C 301.13 89.79 300.12 90.05 299.62 90.18 C 298.61 87.99 298.11 85.62 297.38 83.34 C 296.62 81.00 294.19 79.92 292.29 78.66 C 290.36 80.20 288.73 83.18 285.90 82.76 C 283.37 81.89 281.11 80.40 278.71 79.24 C 276.38 81.27 274.39 83.98 271.15 84.55 C 267.41 85.08 267.68 90.08 264.64 91.64 C 260.45 93.39 256.03 95.69 251.35 94.70 C 250.98 93.36 250.66 92.01 250.40 90.64 C 246.76 93.57 243.78 97.27 242.40 101.79 C 243.59 104.57 244.53 107.46 245.94 110.13 C 247.26 112.52 249.62 114.26 250.49 116.91 C 251.82 120.03 250.73 123.40 250.20 126.56 C 248.38 127.26 246.17 127.38 244.77 128.86 C 244.20 132.67 245.62 136.31 246.20 140.01 C 246.96 145.96 247.85 151.92 248.90 157.81 C 252.47 162.04 257.63 164.88 260.01 170.08 C 261.57 173.80 266.00 174.53 268.30 177.56 C 271.01 181.10 274.41 184.02 277.35 187.35 C 280.43 190.75 284.85 192.20 288.62 194.60 C 291.91 196.53 296.20 197.28 298.17 200.90 C 301.01 206.49 302.44 212.69 305.68 218.10 C 308.13 226.87 311.83 235.24 315.56 243.54 C 318.66 248.01 322.05 252.40 326.43 255.71 C 330.19 258.56 332.83 262.54 336.26 265.74 C 340.64 269.68 343.60 275.33 349.21 277.77 C 353.20 279.48 356.87 281.95 361.08 283.15 C 365.74 284.16 370.27 281.74 374.94 282.25 C 379.25 282.70 383.60 283.14 387.91 282.39 C 390.58 282.22 393.40 281.15 395.97 282.40 C 399.21 283.64 401.47 286.46 403.59 289.09 C 403.43 290.35 403.28 291.61 403.15 292.88 C 400.16 295.00 396.91 296.73 394.01 298.96 C 393.14 299.88 391.46 300.52 391.65 302.03 C 391.17 304.14 393.27 305.22 394.62 306.34 C 398.94 309.18 403.18 312.35 408.22 313.80 C 412.63 315.11 416.60 317.48 420.84 319.22 C 424.76 320.95 428.90 322.22 432.63 324.38 C 435.36 326.07 438.98 324.55 441.60 326.55 C 445.64 329.33 449.20 332.75 453.01 335.85 C 458.95 342.42 468.24 343.59 476.13 346.58 C 480.24 348.76 482.20 353.37 485.67 356.34 C 489.75 361.91 495.42 366.14 499.10 372.03 C 501.27 375.96 502.58 380.94 500.75 385.26 C 499.54 389.36 499.41 393.78 497.11 397.52 C 492.51 397.11 489.38 393.42 485.27 391.81 C 481.69 390.26 478.76 387.33 477.09 383.82 C 475.25 379.95 472.00 376.97 470.15 373.11 C 466.91 371.88 463.19 372.94 460.16 371.16 C 458.56 370.31 456.91 369.52 455.23 368.88 C 455.98 368.16 456.72 367.44 457.48 366.72 C 459.76 368.08 462.05 369.88 464.87 369.79 C 467.06 370.07 469.76 369.71 471.39 371.55 C 474.77 375.33 477.59 379.56 479.96 384.03 C 483.47 389.79 490.80 390.29 495.41 394.75 C 495.69 389.93 498.42 385.77 498.88 381.01 C 498.49 374.41 494.06 368.82 489.18 364.72 C 485.63 361.92 483.04 358.18 480.14 354.77 C 478.30 352.58 477.39 349.14 474.15 348.68 C 469.29 347.38 464.65 345.46 459.88 343.89 C 457.88 343.17 455.57 342.80 454.17 341.05 C 450.05 336.44 445.27 332.38 440.06 329.07 C 437.33 328.37 434.38 328.37 431.85 327.02 C 426.71 324.20 421.12 322.38 415.72 320.15 C 412.96 318.86 410.20 317.55 407.27 316.69 C 402.10 315.09 397.86 311.61 393.27 308.87 C 391.36 307.88 390.46 305.88 389.39 304.15 C 389.30 302.68 389.19 301.21 389.05 299.75 C 392.11 296.09 396.55 294.09 400.15 291.07 C 401.15 290.40 400.54 288.94 399.75 288.37 C 397.43 286.30 394.43 284.32 391.18 284.70 C 385.79 284.88 380.38 285.64 375.00 285.03 C 369.83 284.63 364.81 286.45 359.63 286.21 C 358.38 289.06 358.67 292.12 359.02 295.13 C 359.31 299.42 352.32 299.56 352.98 304.06 C 354.21 309.48 358.31 313.92 362.61 317.26 C 364.78 318.95 365.18 322.00 367.08 323.90 C 370.06 325.90 373.66 326.68 377.10 327.51 C 381.65 326.79 386.39 325.63 390.97 327.03 C 396.25 327.96 396.52 334.88 400.94 337.19 C 405.47 339.82 408.58 344.65 413.76 346.16 C 415.95 346.92 418.32 346.91 420.54 347.60 C 425.00 349.36 425.76 354.89 426.03 359.09 C 427.89 360.32 429.66 362.05 431.94 362.34 C 434.74 360.38 437.21 356.91 441.03 357.31 C 445.60 356.87 445.80 363.19 449.62 364.29 C 452.12 365.02 454.66 365.59 457.20 366.18 C 456.23 366.94 455.27 367.72 454.33 368.52 C 449.44 367.37 445.27 364.58 441.54 361.34 C 437.25 360.63 433.94 364.64 432.14 368.05 C 427.94 375.98 422.40 383.74 421.80 392.96 C 421.08 396.26 420.25 399.54 420.21 402.93 C 421.34 403.99 422.23 405.60 423.94 405.74 C 427.78 406.13 430.66 408.84 433.92 410.62 C 438.30 411.86 442.84 414.11 445.19 418.19 C 446.87 422.72 444.60 427.89 446.78 432.32 C 447.86 435.21 450.08 437.84 449.75 441.10 C 449.69 442.85 448.69 444.37 448.11 445.98 C 444.71 445.74 441.35 444.17 437.96 445.20 C 434.12 446.13 430.02 447.26 427.21 450.21 C 424.96 452.47 422.55 455.32 423.37 458.76 C 423.62 462.10 424.09 465.43 424.71 468.73 C 423.87 471.54 422.68 474.41 419.96 475.90 C 413.14 481.10 406.38 487.90 405.35 496.85 C 403.88 499.52 401.17 501.26 398.06 501.05 C 393.06 500.76 387.82 500.74 383.11 498.90 C 380.37 495.12 381.58 490.08 381.80 485.75 C 383.81 483.64 386.03 481.77 388.29 479.95 C 391.79 475.98 391.02 470.44 390.21 465.65 C 389.48 463.48 387.90 460.85 389.92 458.89 C 393.26 455.45 398.46 455.17 402.74 453.49 C 403.90 450.53 405.02 447.12 403.84 444.01 C 401.63 438.03 399.25 432.12 397.17 426.10 C 395.66 420.29 395.48 412.53 389.08 409.78 C 387.18 405.81 386.48 401.41 385.81 397.09 C 386.60 396.41 387.39 395.72 388.18 395.03 C 388.63 400.92 388.75 409.87 395.82 411.64 C 398.96 422.07 401.39 432.91 406.65 442.55 C 406.70 446.46 406.84 450.59 405.36 454.27 C 401.03 457.40 394.99 457.42 391.18 461.48 C 394.06 465.82 393.31 471.11 393.31 476.03 C 392.99 476.47 392.35 477.35 392.03 477.79 C 391.36 481.75 388.25 484.38 384.99 486.33 C 384.29 489.88 384.37 493.52 384.93 497.09 C 389.38 498.56 394.07 498.16 398.67 498.55 C 399.47 498.33 401.08 497.90 401.88 497.68 C 403.59 493.52 404.41 488.88 407.20 485.25 C 410.34 481.09 413.96 477.29 418.02 474.02 C 419.46 472.61 421.77 471.41 421.54 469.07 C 421.52 465.02 420.98 461.00 420.53 456.99 C 421.86 451.90 425.27 447.37 429.66 444.52 C 435.06 441.83 441.28 440.93 447.21 442.11 C 446.99 438.18 444.88 434.79 443.75 431.11 C 443.42 427.24 443.40 423.35 443.37 419.48 C 440.50 416.91 437.49 414.40 433.89 412.94 C 429.79 411.50 426.37 407.83 421.70 408.64 C 420.12 407.00 417.93 405.54 417.70 403.07 C 417.36 399.69 418.04 396.31 419.00 393.09 C 419.55 390.00 420.30 386.94 420.64 383.82 C 419.11 383.57 417.58 383.34 416.06 383.14 C 414.69 385.45 413.93 388.08 412.52 390.37 C 409.58 393.27 405.09 394.48 401.12 393.20 C 399.90 391.31 398.62 389.06 396.12 388.83 C 393.51 388.95 391.08 390.01 388.67 390.90 C 388.10 392.80 387.20 394.57 386.12 396.22 C 386.57 391.78 382.85 389.45 379.10 388.72 C 375.30 389.49 371.42 391.41 367.50 390.29 C 363.60 388.79 361.62 384.89 358.54 382.35 C 356.27 380.36 352.66 380.25 351.23 377.33 C 351.81 374.33 351.99 371.24 351.78 368.21 C 350.68 363.87 348.47 359.91 346.19 356.10 C 344.40 355.43 342.65 354.69 340.90 353.95 C 336.52 356.93 330.75 357.03 325.91 355.16 C 326.78 352.75 331.52 349.22 327.63 347.48 C 322.82 345.16 317.16 345.78 312.26 343.55 C 310.18 337.46 307.05 331.75 303.30 326.54 C 299.31 322.05 292.65 324.25 287.86 321.47 C 284.64 320.12 281.25 318.40 277.66 318.92 C 275.50 319.07 273.27 319.57 271.14 319.05 C 268.21 317.72 266.05 315.27 263.65 313.22 C 260.86 310.77 256.88 310.52 253.96 308.32 C 250.87 305.67 248.33 302.46 245.69 299.39 C 243.01 296.35 239.28 294.15 237.57 290.34 C 235.48 286.36 231.92 283.48 228.82 280.33 C 226.44 277.85 222.68 277.15 220.73 274.23 C 217.67 270.30 214.82 266.19 211.61 262.39 C 208.57 259.91 204.69 258.69 201.01 257.53 C 198.22 257.75 195.10 258.15 193.02 255.82 C 191.40 252.84 195.31 249.61 193.22 246.78 C 189.62 241.74 185.53 236.92 180.54 233.20 C 178.18 231.73 178.41 228.36 176.22 226.75 C 174.63 226.36 172.97 226.33 171.35 226.13 C 171.13 221.77 170.52 217.42 170.67 213.05 C 170.95 208.70 168.34 205.02 167.05 201.06 C 164.89 199.47 162.35 198.04 161.42 195.35 C 159.24 191.55 160.80 187.16 160.68 183.08 C 160.18 181.21 158.73 179.78 157.73 178.17 C 155.24 175.01 153.92 170.91 150.56 168.49 C 148.66 167.05 146.13 167.41 143.91 167.23 C 141.50 165.61 139.33 163.70 137.24 161.69 C 132.86 157.37 127.41 153.96 121.36 152.56 C 119.80 150.66 118.11 148.83 115.72 148.00 C 113.53 146.83 111.18 146.01 108.82 145.27 C 105.31 146.65 101.58 147.44 98.20 149.12 C 95.55 150.44 93.78 152.90 91.61 154.81 C 89.71 156.53 87.28 157.50 85.34 159.17 C 82.62 162.30 81.42 166.60 78.21 169.32 C 74.29 171.12 69.77 170.88 65.84 172.60 C 62.81 174.98 60.12 178.04 56.08 178.62 C 54.62 176.90 52.59 175.29 52.43 172.86 C 51.55 168.47 55.59 165.56 57.42 162.06 C 57.30 160.45 56.76 158.91 56.36 157.35 C 51.39 157.84 46.30 157.61 41.46 156.32 C 36.25 154.18 35.62 147.74 31.75 144.19 C 28.92 141.61 27.29 137.96 26.84 134.20 C 27.94 131.16 29.19 128.16 30.40 125.16 C 31.15 123.30 33.32 122.00 33.18 119.85 C 30.76 115.40 26.03 112.83 23.61 108.42 C 24.28 106.14 24.31 103.78 23.75 101.47 C 25.05 99.95 26.39 98.30 28.42 97.75 C 32.41 96.49 36.24 94.34 38.76 90.93 C 40.01 88.77 40.82 86.37 41.50 83.99 C 40.27 81.34 37.55 79.88 35.58 77.83 C 33.99 72.14 31.58 66.64 31.08 60.69 C 31.19 60.17 31.42 59.14 31.54 58.62 C 34.41 57.11 37.49 55.62 40.85 56.32 C 47.90 57.79 54.84 54.52 61.93 55.30 C 65.67 55.85 69.45 55.80 73.21 55.59 C 76.82 51.88 80.97 48.24 82.59 43.15 C 83.62 40.64 84.15 37.90 85.58 35.57 C 87.90 33.09 91.15 31.79 93.90 29.86 C 95.66 28.53 97.89 29.68 99.83 29.92 C 100.06 35.24 100.29 40.59 101.32 45.83 C 102.97 47.16 105.89 46.82 106.70 49.08 C 108.69 53.67 113.60 56.19 114.81 61.26 C 117.38 59.12 116.85 55.90 116.63 52.94 C 117.83 49.93 120.20 47.58 121.52 44.62 C 123.65 39.77 127.91 35.67 127.82 30.06 C 128.08 29.50 128.62 28.40 128.89 27.84 C 130.93 27.38 132.96 26.88 134.99 26.37 C 135.43 26.88 136.33 27.88 136.77 28.38 C 137.71 31.25 138.22 34.22 138.22 37.24 C 140.50 38.40 143.03 38.74 145.57 38.71 C 146.26 37.89 146.96 37.08 147.65 36.26 C 152.42 35.38 154.51 39.98 157.02 43.01 C 157.28 42.29 157.79 40.86 158.05 40.14 C 156.67 36.33 157.41 32.09 155.65 28.41 C 157.50 25.26 160.72 23.58 164.07 22.46 C 165.69 23.13 167.29 23.80 168.90 24.51 C 170.89 21.04 171.05 16.96 171.30 13.07 C 171.91 12.37 172.51 11.67 173.12 10.98 C 176.07 10.98 179.02 10.82 181.96 10.55 C 184.95 10.16 187.00 13.45 190.00 13.17 C 198.55 12.59 204.32 4.20 212.96 3.89 C 217.22 3.22 222.10 5.90 225.84 2.90 C 228.28 0.87 231.52 0.55 234.53 0.00 Z" />
<path fill="#317abd" d=" M 220.01 7.01 C 226.01 7.34 230.74 1.67 236.82 2.94 C 238.23 4.25 239.18 5.95 240.24 7.53 C 240.25 7.85 240.25 8.49 240.25 8.81 C 240.57 11.48 243.02 13.01 244.62 14.92 C 244.42 18.14 246.67 20.48 248.56 22.79 C 253.11 23.89 257.82 24.55 262.09 26.58 C 265.44 28.34 269.28 28.03 272.93 28.09 C 273.28 28.52 273.97 29.37 274.31 29.79 C 277.28 30.45 280.28 31.00 283.30 31.41 C 283.40 31.43 283.60 31.48 283.70 31.50 C 287.09 32.14 290.48 32.85 293.93 33.09 C 294.27 33.72 294.96 34.98 295.30 35.61 C 293.19 38.90 290.25 41.51 287.47 44.20 C 287.87 49.40 292.49 53.36 291.74 58.73 C 291.48 61.42 292.93 63.74 294.34 65.89 C 293.50 67.47 293.44 69.58 294.83 70.89 C 295.77 72.10 296.70 73.32 297.61 74.55 C 298.08 74.80 299.00 75.30 299.47 75.54 C 299.73 76.01 300.25 76.94 300.51 77.41 C 302.06 78.18 303.60 78.97 305.13 79.79 C 305.03 82.14 304.94 84.49 304.84 86.84 C 303.64 86.91 302.44 86.98 301.24 87.05 L 300.84 86.07 C 301.31 84.69 301.63 82.84 300.25 81.84 C 297.77 79.37 295.29 76.51 291.63 75.93 C 290.27 77.39 289.06 79.14 287.17 79.96 C 286.61 79.77 285.49 79.37 284.93 79.17 C 281.80 76.90 277.85 76.41 274.26 77.85 C 274.13 78.53 273.86 79.89 273.73 80.57 C 271.78 82.05 269.73 83.40 267.54 84.49 C 266.11 86.38 264.58 88.18 263.01 89.95 C 262.32 89.97 260.94 90.02 260.25 90.04 C 259.89 90.57 259.18 91.63 258.82 92.16 C 257.51 92.09 256.20 91.97 254.89 91.82 C 254.30 90.05 254.06 88.18 253.66 86.36 C 249.54 87.88 245.71 90.22 243.17 93.88 C 241.76 94.16 240.44 95.24 240.65 96.81 C 240.50 98.92 240.10 101.02 240.13 103.14 C 240.99 106.14 243.17 108.76 242.95 112.03 C 242.80 113.42 243.36 114.24 244.64 114.49 C 244.90 114.55 245.42 114.65 245.69 114.70 C 245.58 116.05 246.24 116.92 247.67 117.33 C 247.82 118.58 247.93 119.84 248.01 121.11 C 246.47 121.54 245.57 122.92 244.71 124.15 C 244.34 124.11 243.59 124.04 243.21 124.00 C 243.06 128.36 241.45 132.77 242.80 137.08 C 244.76 144.71 244.83 152.64 246.33 160.34 C 246.67 161.69 247.61 162.28 249.15 162.10 C 249.72 162.65 250.28 163.20 250.85 163.76 C 250.94 165.35 251.78 166.09 253.38 165.96 C 256.40 168.72 258.44 172.36 259.81 176.18 C 260.61 177.60 259.60 178.99 259.05 180.26 C 258.54 180.29 257.53 180.33 257.02 180.36 C 255.88 179.76 254.74 179.15 253.61 178.55 C 251.25 179.17 249.38 178.46 248.64 176.00 C 246.17 175.97 243.69 175.98 241.22 176.00 C 240.39 177.33 239.58 178.67 238.76 180.01 C 237.46 181.08 237.56 181.68 239.05 181.84 C 238.97 183.34 238.89 184.84 238.81 186.34 C 233.71 186.13 229.18 183.48 224.73 181.27 C 219.50 176.80 224.81 168.05 219.22 163.83 C 214.64 161.32 208.80 158.07 203.91 161.74 C 199.18 161.93 194.67 163.57 189.99 163.94 C 186.37 162.68 183.11 160.52 179.37 159.57 C 178.58 158.84 177.81 158.12 177.05 157.37 C 175.75 157.36 174.46 157.38 173.17 157.42 L 173.08 157.36 C 170.80 155.89 168.46 154.55 166.10 153.22 C 166.15 151.86 165.54 150.97 164.28 150.56 C 163.26 150.09 162.26 149.59 161.28 149.05 C 159.42 147.66 157.49 146.35 155.53 145.10 C 154.33 144.01 153.20 142.84 152.05 141.70 C 149.00 142.90 146.19 144.63 143.13 145.80 C 140.10 144.93 136.88 144.37 134.03 143.01 C 133.18 141.03 132.97 138.83 132.17 136.83 C 130.30 134.44 126.89 134.29 124.11 134.50 L 124.11 134.50 C 123.54 133.53 122.98 132.55 122.43 131.57 L 122.06 131.10 C 124.15 128.80 126.74 127.00 128.74 124.62 C 129.16 121.47 127.42 118.31 128.17 115.14 C 129.57 111.66 133.14 109.06 136.95 109.05 C 142.31 108.88 147.70 108.77 153.07 109.00 C 155.21 108.87 156.84 110.37 158.51 111.46 C 165.15 114.38 171.50 118.90 179.10 118.66 C 183.12 118.11 186.45 122.47 190.43 120.37 C 193.10 119.09 196.01 119.13 198.82 119.97 C 200.33 120.62 201.85 120.64 203.36 120.02 C 204.98 119.99 206.61 119.98 208.24 119.97 C 206.51 118.02 204.94 115.82 202.67 114.46 C 198.21 111.95 194.50 108.39 190.33 105.47 C 187.48 101.95 184.40 98.36 183.19 93.88 C 181.97 89.93 179.30 85.14 182.36 81.36 C 184.88 78.10 186.81 74.47 188.80 70.89 C 190.04 69.09 187.52 67.78 185.97 68.10 C 183.69 67.94 181.42 67.70 179.16 67.41 C 177.53 67.36 174.82 68.92 174.41 66.47 C 172.21 61.97 177.06 58.72 177.55 54.53 C 177.95 51.28 176.99 48.07 176.77 44.84 C 176.51 41.92 177.58 39.11 177.65 36.21 C 176.20 32.24 171.96 29.48 171.96 24.96 C 171.94 21.17 171.54 16.42 174.65 13.67 C 179.00 13.01 183.53 13.45 187.55 15.31 C 189.45 16.50 191.18 14.72 192.81 13.90 C 196.55 11.46 201.38 11.64 205.02 8.99 C 209.21 5.44 215.03 7.56 220.01 7.01 Z" />
<path fill="#ffffff" d=" M 162.22 28.34 C 162.94 27.31 163.65 26.28 164.35 25.24 C 165.98 26.87 168.28 27.29 170.37 28.06 C 170.91 29.85 171.43 31.83 173.30 32.66 C 176.51 34.08 176.25 38.25 175.14 41.01 C 174.15 42.97 175.10 45.05 175.40 47.04 C 176.11 52.07 176.05 57.58 172.90 61.85 C 172.59 64.66 172.97 67.45 174.51 69.87 C 178.38 71.01 182.97 67.90 186.26 70.89 C 185.55 76.51 179.72 80.17 179.09 85.85 C 180.33 90.89 182.14 95.82 184.00 100.67 C 186.64 102.11 189.19 104.19 189.87 107.27 C 194.44 110.30 198.27 114.23 202.87 117.21 C 197.97 118.10 192.99 118.49 188.02 118.73 C 186.23 119.00 184.97 117.62 183.65 116.69 C 182.74 116.48 181.83 116.28 180.93 116.08 C 174.63 118.24 169.05 113.70 163.16 112.38 C 160.27 111.81 158.54 109.37 156.33 107.70 C 151.52 107.42 146.74 108.16 141.94 108.16 C 138.18 108.24 134.36 107.80 130.67 108.73 C 128.65 111.72 126.67 114.80 125.28 118.13 C 125.35 119.99 126.62 121.53 127.34 123.18 C 125.93 124.61 124.37 125.89 122.49 126.64 C 121.56 124.28 119.78 122.52 117.92 120.89 C 116.13 114.86 111.51 108.55 104.65 108.36 C 101.74 103.89 101.07 98.25 99.27 93.25 C 101.39 90.90 104.91 94.35 106.80 91.75 C 107.94 90.44 108.40 88.68 108.88 87.05 C 108.73 85.04 106.24 84.16 106.12 82.15 C 105.41 75.44 102.91 69.06 102.51 62.34 C 104.05 59.94 105.36 57.40 106.79 54.93 C 109.74 57.30 111.04 60.86 113.28 63.78 C 114.57 63.82 115.87 63.71 117.16 63.68 C 119.79 60.99 120.19 57.30 119.83 53.73 C 122.81 48.94 124.67 43.53 128.11 39.03 C 129.16 37.29 129.78 35.34 130.70 33.53 C 130.51 32.24 128.60 30.57 130.14 29.49 C 131.37 29.70 132.55 30.12 133.76 30.38 C 134.30 31.21 134.84 32.04 135.37 32.87 C 135.32 34.66 135.28 36.45 135.21 38.23 C 137.72 42.19 142.87 41.62 146.92 41.88 C 147.94 40.91 148.72 39.52 150.21 39.21 C 152.74 41.80 154.38 45.52 158.14 46.60 C 162.21 43.39 160.01 38.26 160.16 33.95 C 160.31 32.28 159.80 30.73 158.91 29.34 C 159.75 27.79 160.92 26.50 162.56 25.74 L 162.22 28.34 Z" />
<path fill="#848a91" d=" M 283.30 31.41 L 283.53 31.44 L 283.70 31.50 C 283.60 31.48 283.40 31.43 283.30 31.41 Z" />
<path fill="#ffffff" d=" M 86.51 40.56 C 88.00 35.96 92.86 33.60 97.12 32.23 C 97.08 37.50 98.89 42.50 98.28 47.82 C 100.25 48.85 102.73 49.24 104.17 51.03 C 105.01 53.66 103.43 56.17 102.40 58.50 C 101.00 61.05 100.83 64.01 99.99 66.76 C 105.06 72.53 101.25 81.67 106.81 87.11 C 106.45 88.30 105.87 89.44 104.97 90.31 C 103.12 90.49 101.28 89.65 99.40 90.05 C 98.96 90.54 98.09 91.52 97.66 92.01 C 97.49 96.56 99.99 100.57 100.85 104.94 C 101.19 108.10 103.64 111.04 106.95 111.20 C 112.38 113.12 114.72 118.90 117.44 123.47 C 119.87 125.22 120.37 128.11 119.69 130.90 C 118.31 132.14 116.68 129.91 115.06 130.17 C 111.40 129.61 109.26 133.07 106.23 134.25 C 103.82 134.09 101.46 133.49 99.05 133.43 C 96.94 134.01 95.74 136.01 93.92 137.06 C 91.30 138.08 87.93 138.96 85.79 136.55 C 80.68 136.87 79.74 142.59 76.61 145.60 C 73.29 148.35 74.35 154.61 69.20 155.19 C 65.75 154.63 62.27 154.88 58.86 155.60 C 57.97 155.05 57.08 154.51 56.18 153.98 C 51.61 156.08 46.00 155.99 41.80 153.14 C 38.45 148.83 35.94 143.83 32.09 139.89 C 30.89 138.49 30.29 136.70 29.51 135.06 C 30.50 133.36 31.45 131.64 32.38 129.91 C 32.33 127.28 34.17 125.43 35.91 123.71 C 37.79 121.99 36.78 119.27 36.28 117.16 C 32.56 114.79 30.37 110.84 27.02 108.05 C 27.59 105.70 27.62 103.27 27.65 100.87 C 31.17 100.09 35.08 99.31 37.44 96.32 C 39.12 94.18 42.36 93.09 42.57 90.04 C 43.09 87.96 44.00 85.96 45.24 84.21 C 47.37 83.28 49.78 84.36 52.01 84.39 C 55.77 85.01 59.29 83.05 63.04 83.31 C 66.86 83.27 71.79 84.09 74.32 80.45 C 76.71 75.76 73.23 71.04 73.38 66.28 C 74.99 63.45 75.59 60.23 75.87 57.02 C 79.14 55.15 80.15 51.39 82.61 48.78 C 84.67 46.46 85.46 43.40 86.51 40.56 Z" />
<path fill="#5b7083" d=" M 293.93 33.09 C 295.38 32.77 296.54 34.58 295.30 35.61 C 294.96 34.98 294.27 33.72 293.93 33.09 Z" />
<path fill="#ffffff" d=" M 50.69 58.67 C 55.18 58.10 59.71 57.27 64.21 58.32 C 67.29 59.06 70.63 57.50 73.54 58.74 C 73.09 63.62 70.02 68.80 73.12 73.51 C 73.04 75.71 73.71 78.54 71.95 80.23 C 68.48 81.59 64.55 82.22 60.90 81.22 C 59.18 81.61 57.46 82.00 55.76 82.46 C 52.16 82.30 48.60 81.70 45.00 81.64 C 42.44 79.89 40.19 77.75 37.80 75.78 C 36.31 71.61 36.10 67.08 34.20 63.04 C 34.32 62.13 34.48 61.23 34.71 60.33 C 39.86 57.62 45.63 61.88 50.69 58.67 Z" />
<path fill="#727272" d=" M 294.34 65.89 C 295.51 67.29 295.44 69.25 294.83 70.89 C 293.44 69.58 293.50 67.47 294.34 65.89 Z" />
<path fill="#6585a3" d=" M 185.97 68.10 C 187.52 67.78 190.04 69.09 188.80 70.89 C 187.42 70.54 186.41 69.42 185.97 68.10 Z" />
<path fill="#9cadbd" d=" M 284.93 79.17 C 285.49 79.37 286.61 79.77 287.17 79.96 L 286.43 80.34 C 286.06 80.05 285.31 79.46 284.93 79.17 Z" />
<path fill="#666e76" d=" M 300.25 81.84 C 301.63 82.84 301.31 84.69 300.84 86.07 C 299.90 84.91 299.29 83.19 300.25 81.84 Z" />
<path fill="#ffffff" d=" M 240.65 96.81 C 240.44 95.24 241.76 94.16 243.17 93.88 C 242.89 95.15 242.32 97.02 240.65 96.81 Z" />
<path fill="#000000" d=" M 247.58 95.22 C 248.35 95.13 249.87 94.97 250.64 94.88 C 249.92 96.48 249.14 98.22 247.26 98.70 C 248.00 100.64 246.70 102.10 244.70 102.40 C 244.34 99.59 246.48 97.57 247.58 95.22 Z" />
<path fill="#ffffff" d=" M 242.95 112.03 C 244.34 112.25 244.90 113.07 244.64 114.49 C 243.36 114.24 242.80 113.42 242.95 112.03 Z" />
<path fill="#ffffff" d=" M 245.69 114.70 C 247.03 114.98 247.69 115.86 247.67 117.33 C 246.24 116.92 245.58 116.05 245.69 114.70 Z" />
<path fill="#ffffff" d=" M 198.82 119.97 C 200.11 119.35 201.65 118.87 203.06 119.45 L 203.36 120.02 C 201.85 120.64 200.33 120.62 198.82 119.97 Z" />
<path fill="#ffffff" d=" M 244.71 124.15 C 245.57 122.92 246.47 121.54 248.01 121.11 C 248.01 122.24 247.77 123.33 247.29 124.38 C 246.42 124.37 245.56 124.29 244.71 124.15 Z" />
<path fill="#ffffff" d=" M 108.39 135.52 C 110.30 134.75 111.77 132.77 113.88 132.63 C 117.21 133.67 120.62 134.30 124.11 134.50 L 124.11 134.50 C 126.34 135.76 128.71 136.82 130.81 138.29 C 131.55 140.14 131.37 142.20 131.93 144.11 C 134.00 146.04 137.26 145.29 139.71 146.50 C 144.02 149.93 144.34 156.10 148.32 159.81 C 149.76 160.99 149.71 162.85 149.66 164.54 C 147.21 164.07 144.28 164.59 142.38 162.62 C 138.42 159.12 134.10 156.09 129.85 152.96 C 128.62 151.71 127.70 149.96 125.95 149.40 C 120.56 147.59 116.13 143.41 110.38 142.58 C 105.06 141.55 100.35 144.83 95.60 146.63 C 91.88 147.71 90.91 151.86 87.99 153.96 C 85.77 156.01 82.72 157.23 81.18 159.94 C 79.62 162.04 78.76 164.71 76.70 166.39 C 73.64 167.87 70.25 168.29 66.98 169.02 C 63.14 169.88 59.99 172.51 57.59 175.54 C 56.67 174.03 55.80 172.49 54.94 170.95 C 56.97 168.24 59.03 165.51 60.55 162.47 C 60.99 160.87 60.27 159.21 60.14 157.60 C 64.26 157.07 68.65 158.08 72.53 156.26 C 74.32 155.53 74.70 153.40 75.51 151.84 C 77.28 146.99 81.05 143.31 83.99 139.17 C 86.84 140.39 90.00 140.57 92.91 139.44 C 95.70 138.84 97.52 136.40 100.09 135.36 C 102.85 135.49 105.82 137.32 108.39 135.52 Z" />
<path fill="#ffffff" d=" M 143.98 147.42 C 146.56 146.19 149.24 145.20 151.86 144.04 C 153.51 146.38 155.51 148.49 157.99 149.95 C 162.83 152.62 166.82 156.66 172.11 158.55 C 172.38 158.27 172.91 157.71 173.17 157.42 C 174.46 157.38 175.75 157.36 177.05 157.37 C 177.81 158.12 178.58 158.84 179.37 159.57 C 177.26 158.81 175.10 157.74 172.80 158.40 C 178.16 162.53 185.32 162.84 190.74 166.87 C 195.16 164.64 200.11 164.22 204.97 163.82 C 206.00 162.98 207.04 162.16 208.09 161.34 C 209.27 161.75 210.45 162.17 211.64 162.58 C 214.17 164.45 217.32 165.30 219.84 167.12 C 221.04 169.54 220.26 172.37 220.05 174.93 C 220.35 177.51 221.16 180.09 223.09 181.94 C 228.89 186.88 236.63 189.88 244.31 188.49 C 242.14 193.65 236.85 196.04 233.14 199.87 C 234.36 203.41 236.99 207.35 235.18 211.12 C 234.10 211.79 232.93 212.28 231.80 212.82 C 230.65 214.84 229.29 216.80 228.67 219.06 C 227.70 222.39 229.29 225.75 229.22 229.11 C 228.74 230.46 227.71 231.50 226.90 232.65 C 226.15 232.59 224.65 232.48 223.90 232.42 C 220.48 235.10 219.90 239.41 218.80 243.31 C 217.05 244.65 214.45 245.49 214.04 247.95 C 212.97 251.26 212.48 254.82 210.32 257.67 C 205.74 255.68 200.90 254.15 195.85 254.51 C 196.22 251.92 198.11 249.09 196.26 246.67 C 193.40 242.04 189.69 237.96 185.48 234.53 C 184.12 232.84 182.59 231.31 181.10 229.75 C 180.29 225.99 176.80 224.43 173.62 223.05 C 172.97 218.24 174.14 213.24 172.70 208.52 C 171.84 205.79 171.07 202.92 169.26 200.65 C 167.24 198.71 165.14 196.86 163.31 194.74 C 163.02 193.07 162.67 191.42 162.28 189.77 C 163.17 186.38 164.23 182.05 161.36 179.29 C 160.62 178.09 159.87 176.89 159.11 175.71 C 157.26 170.39 151.02 167.04 151.80 160.86 C 150.62 159.41 149.34 158.05 148.01 156.74 C 146.75 153.60 145.60 150.40 143.98 147.42 Z" />
<path fill="#ffffff" d=" M 155.53 145.10 C 157.49 146.35 159.42 147.66 161.28 149.05 C 159.21 147.98 157.18 146.77 155.53 145.10 Z" />
<path fill="#57738e" d=" M 164.28 150.56 C 165.54 150.97 166.15 151.86 166.10 153.22 C 164.61 152.85 164.00 151.96 164.28 150.56 Z" />
<path fill="#ffffff" d=" M 246.33 160.34 C 247.63 160.21 248.58 160.80 249.15 162.10 C 247.61 162.28 246.67 161.69 246.33 160.34 Z" />
<path fill="#728ba4" d=" M 250.85 163.76 C 252.09 164.02 252.93 164.76 253.38 165.96 C 251.78 166.09 250.94 165.35 250.85 163.76 Z" />
<path fill="#ffffff" d=" M 243.41 177.35 C 245.79 175.37 247.58 179.22 248.71 180.86 C 250.16 181.01 251.62 181.14 253.09 181.25 C 255.39 182.92 258.68 184.55 261.02 182.00 C 261.51 180.37 262.34 178.88 263.18 177.40 C 269.03 182.39 273.74 188.71 280.23 193.01 C 284.33 194.04 287.32 197.78 291.70 197.98 C 296.94 199.69 296.08 205.78 299.04 209.40 C 302.03 216.43 305.37 223.41 307.00 230.91 C 306.19 231.39 305.39 231.88 304.60 232.38 C 302.20 233.63 299.50 234.04 296.99 234.96 C 293.59 236.26 292.19 241.39 288.02 240.74 C 285.73 239.57 283.18 238.56 281.50 236.54 C 280.20 235.14 281.04 232.79 279.61 231.49 C 277.89 229.92 275.44 229.62 273.42 228.59 C 270.15 225.93 268.96 221.66 269.55 217.54 C 265.09 213.13 265.77 206.34 262.19 201.51 C 261.04 199.75 258.75 200.64 257.10 200.90 C 251.74 199.96 246.65 197.48 242.72 193.70 C 245.43 192.29 247.04 189.94 246.41 186.79 C 244.93 186.24 243.39 185.91 241.80 186.04 C 240.25 183.18 240.24 179.10 243.41 177.35 Z" />
<path fill="#7f97af" d=" M 239.05 181.84 C 237.56 181.68 237.46 181.08 238.76 180.01 C 238.84 180.47 238.98 181.38 239.05 181.84 Z" />
<path fill="#767676" d=" M 257.02 180.36 C 257.53 180.33 258.54 180.29 259.05 180.26 C 258.57 180.48 257.62 180.92 257.14 181.14 L 257.02 180.36 Z" />
<path fill="#ffffff" d=" M 240.61 197.21 C 244.83 196.39 248.02 199.71 251.84 200.79 C 254.81 202.11 258.14 202.47 261.04 203.94 C 264.73 206.54 262.59 211.73 265.31 214.96 C 268.76 219.63 266.78 226.59 271.31 230.60 C 273.77 232.01 277.12 231.44 279.12 233.80 C 279.05 234.50 278.90 235.88 278.83 236.58 C 277.58 238.41 276.77 240.53 275.44 242.31 C 272.39 244.04 268.76 244.81 266.48 247.70 C 262.31 250.67 258.16 253.72 254.09 256.84 C 251.48 254.77 248.75 252.88 246.08 250.90 C 243.53 248.06 241.70 244.56 238.34 242.50 C 236.20 241.94 233.72 242.27 231.88 240.94 C 230.69 238.24 229.07 235.15 230.29 232.19 C 231.72 228.28 231.29 224.09 230.26 220.14 C 230.97 218.07 231.49 215.65 233.44 214.36 C 235.42 212.99 237.76 211.89 238.70 209.49 C 237.02 206.73 237.13 203.29 235.11 200.69 C 237.06 199.72 239.04 198.75 240.61 197.21 Z" />
<path fill="#000000" d=" M 142.86 216.99 C 143.51 217.76 144.95 218.81 143.88 219.86 C 143.33 221.03 142.05 219.84 141.25 219.67 C 141.65 219.00 142.46 217.66 142.86 216.99 Z" />
<path fill="#000000" d=" M 152.36 230.28 C 157.08 230.71 161.68 229.90 166.22 228.67 C 166.29 231.85 166.60 236.40 163.25 238.04 C 159.78 236.36 155.84 237.00 152.12 236.83 C 151.29 236.27 150.46 235.72 149.64 235.17 C 149.66 234.46 149.71 233.03 149.73 232.32 C 150.61 231.65 151.49 230.97 152.36 230.28 Z" />
<path fill="#ffffff" d=" M 156.05 232.23 C 158.85 232.61 161.60 231.92 164.25 231.07 C 163.93 232.71 163.60 234.35 163.32 235.99 C 160.39 234.85 157.28 234.49 154.23 235.44 C 153.46 235.07 151.91 234.34 151.14 233.98 C 152.64 233.07 154.14 231.68 156.05 232.23 Z" />
<path fill="#ffffff" d=" M 295.24 238.17 C 298.94 235.42 303.77 234.88 307.99 233.18 C 309.60 236.94 311.85 240.43 312.91 244.43 C 315.43 249.51 319.31 253.99 324.16 256.99 C 328.84 262.55 334.47 267.28 338.90 273.04 C 339.35 273.35 340.24 273.96 340.69 274.27 C 341.16 275.98 342.78 277.89 341.52 279.64 C 339.43 283.13 336.47 285.98 333.79 289.01 C 332.10 287.81 330.87 285.95 329.01 285.04 C 325.12 285.60 319.12 286.02 318.49 290.86 C 316.15 292.14 315.43 294.63 315.13 297.11 C 310.04 299.54 307.82 291.93 302.97 292.78 C 299.75 293.36 296.37 293.52 293.50 291.67 C 290.66 289.50 287.83 287.23 285.62 284.39 C 283.65 281.72 279.69 281.87 277.66 279.22 C 275.72 277.52 275.95 274.76 275.42 272.45 C 277.66 271.98 279.93 271.68 282.23 271.68 C 282.93 270.81 283.64 269.94 284.23 268.99 C 281.99 265.69 278.65 263.07 277.25 259.22 C 277.14 255.73 278.35 252.40 279.38 249.12 C 281.91 248.91 284.62 249.67 287.05 248.90 C 287.83 247.35 287.75 245.55 287.91 243.87 C 290.74 242.51 293.39 240.76 295.24 238.17 Z" />
<path fill="#ffffff" d=" M 223.61 235.44 C 224.87 235.08 226.13 234.75 227.41 234.44 C 228.41 236.94 228.86 239.61 229.78 242.14 C 232.85 243.87 236.88 243.13 239.58 245.50 C 242.10 248.88 244.49 252.55 248.14 254.85 C 250.26 256.18 252.15 257.83 254.05 259.46 C 258.19 257.30 260.80 253.14 264.98 251.06 C 267.38 249.71 269.19 247.46 271.88 246.59 C 275.40 245.14 278.27 242.54 279.95 239.10 C 281.81 239.88 283.81 240.49 285.40 241.80 C 285.67 243.12 285.62 244.49 285.71 245.84 C 283.40 247.12 280.71 246.62 278.24 247.23 C 276.26 250.80 275.20 255.09 275.11 259.20 C 276.16 263.06 279.24 265.94 281.39 269.21 C 278.86 269.99 275.39 269.24 273.52 271.37 C 272.68 277.38 277.40 283.62 283.51 284.31 C 286.30 288.60 290.49 291.89 294.98 294.25 C 297.76 295.98 300.98 293.65 303.89 294.62 C 306.20 295.80 308.18 297.52 310.12 299.23 C 310.96 302.46 311.09 305.81 311.14 309.13 C 309.18 310.55 307.19 311.94 305.09 313.14 C 304.10 316.09 304.83 319.37 303.31 322.17 C 300.90 321.30 298.48 320.49 295.99 319.89 C 291.39 321.40 287.57 317.10 282.99 316.81 C 279.51 314.75 275.74 316.83 272.09 316.40 C 268.81 314.74 266.61 311.63 263.53 309.72 C 259.53 308.35 255.67 306.36 252.76 303.24 C 250.69 300.95 248.84 298.48 246.72 296.24 C 244.68 294.32 242.19 292.76 240.80 290.25 C 237.90 285.00 233.27 281.05 229.12 276.83 C 227.53 274.94 224.91 274.47 223.25 272.72 C 219.97 268.02 215.97 263.86 213.09 258.87 C 214.66 255.91 215.59 252.63 215.49 249.26 C 218.99 246.53 222.18 243.13 222.25 238.40 C 222.71 237.41 223.16 236.42 223.61 235.44 Z" />
<path fill="#040404" d=" M 149.58 242.63 C 151.08 240.34 152.66 243.40 151.73 244.93 C 150.36 244.95 149.74 243.83 149.58 242.63 Z" />
<path fill="#040404" d=" M 181.28 256.98 C 182.16 255.80 183.31 253.62 185.03 254.86 C 186.49 255.91 185.04 257.57 184.74 258.82 C 183.58 258.22 182.42 257.59 181.28 256.98 Z" />
<path fill="#070707" d=" M 192.52 261.51 C 193.84 261.95 195.16 262.37 196.46 262.89 C 195.57 264.27 194.60 265.61 193.51 266.84 C 190.48 266.84 191.21 263.18 192.52 261.51 Z" />
<path fill="#ffffff" d=" M 335.56 290.62 C 339.12 287.15 340.79 282.17 344.84 279.20 C 349.13 280.75 353.18 282.84 357.24 284.91 C 356.35 288.60 356.86 292.33 356.82 296.07 C 355.65 298.18 352.95 299.03 351.21 300.68 C 351.28 303.49 351.64 306.27 351.94 309.06 C 347.17 311.02 342.17 307.56 337.43 309.58 C 334.56 310.68 331.85 308.63 328.98 308.73 C 324.54 308.34 320.45 310.45 316.10 310.93 C 315.15 310.54 314.20 310.14 313.25 309.75 C 313.24 306.83 313.09 303.91 313.30 301.00 C 313.53 299.79 315.06 299.62 315.87 298.91 C 317.68 298.01 317.36 295.52 318.59 294.13 C 319.84 292.63 321.06 291.08 321.38 289.09 C 323.87 288.49 326.41 287.70 329.00 287.83 C 330.18 289.12 331.18 290.56 332.31 291.90 C 333.39 291.48 334.47 291.05 335.56 290.62 Z" />
<path fill="#ffffff" d=" M 325.12 311.23 C 328.44 310.24 331.76 311.51 335.03 312.08 C 337.05 312.05 339.01 311.41 340.98 310.97 C 344.77 311.47 348.81 313.03 352.47 311.11 C 353.02 311.20 354.12 311.37 354.67 311.45 C 355.30 312.59 355.71 313.80 355.40 315.12 C 360.15 316.32 363.72 320.35 364.85 325.06 C 368.59 327.26 372.80 328.44 376.75 330.20 C 377.14 332.96 376.66 335.69 375.09 338.03 C 373.60 338.82 371.87 339.43 370.95 340.95 C 368.84 343.52 369.79 346.99 369.57 350.03 C 371.32 351.64 373.74 352.77 374.59 355.14 C 374.53 357.15 373.97 359.11 373.94 361.13 C 376.13 363.16 379.08 364.67 379.71 367.88 C 380.44 370.71 384.34 371.69 384.00 375.01 C 383.45 378.90 380.55 382.05 380.00 386.02 C 376.84 385.83 374.02 387.29 371.12 388.26 C 367.76 388.89 365.14 385.96 363.36 383.52 C 361.08 380.09 357.12 378.53 353.61 376.72 C 353.53 372.77 354.85 368.67 353.24 364.88 C 351.65 360.72 351.12 355.36 346.78 353.03 C 344.64 352.03 342.36 350.42 339.92 350.84 C 337.72 352.31 335.42 353.74 332.64 353.12 C 332.43 350.76 333.28 347.55 330.77 346.14 C 326.10 341.70 319.12 343.93 313.75 341.19 C 312.39 335.77 308.89 331.33 306.39 326.43 C 304.20 322.80 307.43 318.65 306.30 314.74 C 308.98 312.36 312.72 312.15 316.01 313.14 C 319.10 312.77 322.12 312.05 325.12 311.23 Z" />
<path fill="#000000" d=" M 107.96 318.93 C 110.56 317.54 111.61 314.05 114.73 313.47 C 117.15 312.18 119.10 314.29 120.92 315.54 C 121.64 314.66 122.37 313.79 123.12 312.95 C 124.78 314.19 127.50 315.20 126.18 317.73 C 124.79 317.33 123.40 316.95 122.00 316.59 C 123.29 320.10 128.15 319.41 129.44 322.91 C 130.70 325.84 131.72 329.25 130.13 332.26 C 130.46 332.58 131.13 333.20 131.46 333.51 C 132.43 341.66 136.60 349.00 137.96 357.05 C 137.47 359.35 137.17 361.69 136.73 364.01 C 135.45 367.00 133.46 369.64 131.53 372.24 C 132.14 374.50 132.94 376.70 133.73 378.91 C 132.78 385.13 133.04 391.62 130.58 397.56 C 130.21 402.40 129.75 407.25 129.02 412.06 C 128.24 416.25 124.80 419.51 124.62 423.85 C 123.52 425.67 122.97 427.71 122.50 429.78 C 120.23 429.77 117.95 429.65 115.70 429.34 C 115.09 427.32 114.47 425.33 113.98 423.29 C 109.84 422.01 105.23 423.01 101.86 425.69 C 101.62 426.74 101.38 427.79 101.12 428.84 C 100.70 431.62 102.30 435.57 99.26 437.25 C 95.97 439.02 93.05 442.24 89.00 441.91 C 85.34 442.42 83.85 438.46 81.21 436.77 C 78.81 435.15 78.23 432.12 76.75 429.80 C 76.11 432.09 75.11 434.26 72.34 433.75 C 71.40 431.89 70.58 429.95 70.45 427.85 C 71.53 426.94 72.60 426.04 73.68 425.16 C 72.83 420.38 74.44 415.27 72.62 410.71 C 73.63 405.69 76.14 401.12 76.95 396.01 C 78.90 394.88 80.66 393.39 80.22 390.87 C 78.77 390.44 77.31 390.03 75.85 389.65 C 75.44 387.05 74.91 384.44 75.15 381.81 C 75.87 378.78 78.93 377.31 80.85 375.11 C 79.88 371.87 79.60 368.35 77.69 365.47 C 75.25 360.93 75.17 355.63 73.38 350.87 C 70.71 350.05 68.00 349.09 65.99 347.07 C 66.08 344.29 66.62 341.56 68.02 339.14 C 70.11 335.54 68.30 331.06 70.37 327.44 C 71.00 327.26 72.24 326.90 72.86 326.72 C 74.33 329.04 75.82 331.41 77.87 333.27 C 80.33 334.05 82.97 335.03 85.58 334.63 C 89.95 332.44 93.89 329.48 97.42 326.12 C 101.27 324.21 104.24 321.03 107.96 318.93 Z" />
<path fill="#ffffff" d=" M 104.08 324.95 C 107.44 322.12 111.50 319.94 113.67 315.94 C 114.53 315.87 116.25 315.73 117.11 315.65 C 119.85 318.38 122.33 321.50 125.84 323.29 C 128.21 325.21 128.76 328.73 127.18 331.35 C 127.37 332.16 127.57 332.97 127.77 333.79 C 130.44 336.66 130.19 340.80 131.69 344.24 C 133.32 350.05 136.95 356.05 134.72 362.20 C 133.87 366.34 130.48 369.18 128.87 372.98 C 129.69 374.99 130.83 376.87 131.46 378.95 C 130.69 385.56 130.82 392.53 127.72 398.60 C 127.84 400.05 127.91 401.50 127.97 402.97 C 127.32 408.05 127.61 413.82 124.11 417.98 C 121.56 420.34 121.83 424.10 120.62 427.15 C 116.94 429.13 116.60 423.54 115.68 421.22 C 114.08 420.74 112.47 420.29 110.86 419.85 C 106.93 420.76 102.56 421.27 99.62 424.32 C 98.57 427.41 99.00 430.71 98.71 433.91 C 96.09 437.38 91.91 439.83 87.42 439.39 C 84.36 436.42 80.82 433.63 79.58 429.34 C 78.63 425.71 74.99 423.06 75.63 419.03 C 76.15 414.83 74.02 410.22 76.66 406.47 C 78.45 403.18 77.61 398.53 80.92 396.18 C 84.28 394.15 82.61 389.88 81.22 387.15 C 80.43 387.17 78.86 387.21 78.07 387.23 C 77.85 386.39 77.42 384.71 77.20 383.87 C 77.43 383.20 77.90 381.86 78.13 381.19 C 80.32 379.65 82.48 377.87 83.43 375.28 C 82.67 372.87 82.35 370.36 82.08 367.87 C 81.71 365.68 79.82 364.27 78.49 362.65 C 78.50 357.87 78.08 352.72 75.19 348.72 C 72.30 348.27 69.16 347.67 68.25 344.41 C 70.73 340.55 72.13 336.05 71.93 331.44 C 73.56 332.61 74.88 334.14 76.34 335.51 C 79.77 336.42 83.27 337.30 86.85 337.29 C 88.85 335.14 91.54 333.91 93.93 332.27 C 96.64 329.00 100.52 327.12 104.08 324.95 Z" />
<path fill="#040404" d=" M 70.91 323.02 C 72.97 321.13 75.16 318.06 78.26 319.90 C 78.43 323.25 75.04 323.81 72.75 325.11 C 72.13 324.41 71.52 323.72 70.91 323.02 Z" />
<path fill="#ffffff" d=" M 379.32 330.12 C 383.26 327.81 388.44 327.59 392.54 329.62 C 394.39 331.22 395.23 333.64 396.59 335.62 C 397.91 338.27 401.19 338.68 403.08 340.76 C 406.08 343.83 409.14 347.39 413.55 348.33 C 416.24 348.69 419.41 348.34 421.53 350.41 C 423.65 353.12 423.16 356.81 424.28 359.92 C 425.14 362.75 429.65 362.85 429.95 365.98 C 427.68 371.39 424.24 376.26 422.02 381.73 C 419.62 381.70 417.22 381.70 414.83 381.68 C 413.34 383.99 412.36 386.57 411.12 389.01 C 409.25 391.54 405.78 391.55 402.98 392.13 C 400.98 390.13 399.35 387.40 396.40 386.76 C 393.55 387.24 390.84 388.34 388.03 388.99 C 386.22 388.45 384.40 387.99 382.62 387.39 C 380.21 382.15 387.12 378.43 385.49 373.21 C 385.20 370.91 383.19 369.67 381.51 368.42 C 380.14 364.95 378.37 361.64 375.58 359.11 C 375.84 357.63 376.11 356.17 376.31 354.69 C 375.80 353.28 375.32 351.87 374.80 350.47 C 373.57 349.94 372.36 349.42 371.15 348.92 C 371.28 347.23 370.99 345.43 371.79 343.88 C 372.60 342.06 374.61 341.38 375.96 340.07 C 377.09 337.97 377.79 335.68 378.77 333.52 C 378.87 332.37 379.05 331.24 379.32 330.12 Z" />
<path fill="#040404" d=" M 302.26 349.01 C 303.66 347.05 305.63 345.59 307.99 347.14 C 308.29 348.47 308.63 349.80 308.99 351.13 C 307.92 351.63 306.86 352.14 305.80 352.65 C 304.47 351.58 303.30 350.34 302.26 349.01 Z" />
<path fill="#070707" d=" M 318.45 357.50 C 319.73 357.12 321.84 356.01 322.28 358.19 C 323.58 360.06 321.89 361.82 320.88 363.32 C 319.82 362.28 317.28 361.89 317.65 360.02 C 317.87 359.16 318.13 358.32 318.45 357.50 Z" />
<path fill="#030303" d=" M 64.51 424.67 C 65.15 423.08 66.07 421.66 67.46 420.63 C 68.35 421.33 69.25 422.04 70.15 422.75 C 70.13 423.46 70.12 424.17 70.11 424.90 C 68.92 425.73 68.18 427.58 66.58 427.61 C 65.83 426.67 65.19 425.65 64.51 424.67 Z" />
<path fill="#939393" d=" M 379.18 424.10 C 379.73 424.62 379.73 424.62 379.18 424.10 Z" />
<path fill="#ffffff" d=" M 72.82 428.77 C 74.39 428.30 74.98 428.88 74.57 430.52 C 72.96 430.93 72.37 430.35 72.82 428.77 Z" />
<path fill="#030303" d=" M 361.47 453.60 C 362.76 452.83 364.06 452.08 365.44 451.47 C 364.97 453.21 364.46 455.02 363.23 456.40 C 362.62 455.46 362.04 454.54 361.47 453.60 Z" />
<path fill="#000000" d=" M 346.18 467.14 C 346.11 465.90 344.96 464.01 347.01 463.74 C 347.97 464.07 348.61 464.71 348.91 465.66 C 348.04 466.22 347.13 466.72 346.18 467.14 Z" />
<path fill="#070707" d=" M 350.79 468.28 C 351.47 468.12 352.17 467.97 352.86 467.82 C 352.74 468.54 352.49 469.96 352.37 470.68 C 351.97 470.65 351.18 470.61 350.78 470.59 C 350.78 470.01 350.79 468.86 350.79 468.28 Z" />
<path fill="#000000" d=" M 353.22 474.01 C 353.80 472.38 355.23 474.94 355.85 475.51 C 354.89 475.52 351.56 475.92 353.22 474.01 Z" />
<path fill="#000000" d=" M 362.63 480.67 C 365.26 478.84 367.55 483.26 370.28 482.02 C 373.27 480.91 376.29 479.93 379.37 479.09 C 379.87 479.50 380.88 480.32 381.38 480.72 C 380.01 488.23 375.91 494.75 372.71 501.56 C 370.18 506.33 366.24 510.41 365.12 515.84 C 365.31 516.45 365.68 517.66 365.87 518.26 C 364.09 522.00 361.95 525.67 361.65 529.91 C 364.42 532.76 368.73 535.41 367.95 540.01 C 367.65 542.53 370.25 544.41 369.69 546.94 C 368.06 550.54 365.46 553.60 363.70 557.13 C 363.60 561.39 362.31 565.41 360.94 569.39 C 356.19 570.89 353.20 565.36 348.50 566.15 C 347.91 566.56 346.72 567.37 346.13 567.78 C 343.17 565.51 339.20 565.37 336.29 563.05 C 333.64 561.54 332.48 558.60 330.55 556.40 C 326.51 553.25 322.77 549.38 317.94 547.53 C 313.76 548.15 309.96 546.04 305.86 545.65 C 301.76 545.05 298.53 542.05 295.99 538.98 C 289.72 537.56 283.77 534.36 280.26 528.80 C 276.96 525.60 272.09 525.23 268.73 522.20 C 262.63 521.80 257.11 519.01 251.08 518.27 C 246.30 516.21 241.00 510.01 244.93 504.96 C 247.38 502.33 245.39 498.29 247.67 495.56 C 248.96 492.94 251.08 490.99 253.77 489.88 C 256.23 489.04 257.07 485.30 260.16 486.10 C 263.82 486.34 263.84 490.79 265.03 493.38 C 267.43 492.62 269.87 492.00 272.30 491.29 C 272.62 489.14 271.44 485.96 273.86 484.73 C 276.95 484.33 280.08 483.91 283.20 483.89 C 285.36 484.88 286.34 487.35 287.88 489.06 C 293.37 489.56 296.76 494.65 301.83 496.10 C 310.42 495.49 318.97 494.14 327.11 491.31 C 331.42 490.80 335.73 490.29 339.94 489.23 C 343.84 487.37 347.85 483.75 352.43 485.55 C 354.76 486.55 357.21 485.85 359.59 485.45 C 359.94 485.04 360.65 484.22 361.01 483.81 C 361.19 482.62 361.41 481.24 362.63 480.67 Z" />
<path fill="#ffffff" d=" M 364.08 483.31 C 368.48 485.93 373.39 484.29 377.59 482.21 C 377.14 488.14 373.74 493.06 371.46 498.38 C 368.08 505.13 361.41 510.96 362.29 519.16 C 360.68 522.83 358.62 526.90 359.90 530.99 C 361.31 533.56 363.86 535.30 365.16 537.95 C 365.05 539.35 364.84 540.75 364.53 542.14 C 365.48 543.82 367.25 545.89 365.76 547.84 C 363.51 551.54 361.00 555.23 360.33 559.62 C 360.67 562.06 359.73 564.26 358.06 566.00 C 354.90 564.47 351.69 562.98 348.17 562.55 C 345.63 564.98 342.82 562.43 340.04 562.04 C 336.67 559.86 333.96 556.92 332.09 553.37 C 327.34 550.67 323.79 545.60 318.07 544.85 C 313.58 544.82 309.25 543.47 304.91 542.46 C 302.02 541.95 300.75 538.91 298.24 537.73 C 293.85 535.50 288.93 534.18 285.13 530.93 C 282.61 528.34 280.69 524.84 277.02 523.71 C 274.42 522.87 272.30 521.10 269.92 519.86 C 266.36 518.58 262.42 518.98 258.97 517.32 C 254.71 516.36 249.67 515.75 247.26 511.55 C 245.47 509.48 246.55 506.74 247.99 504.84 C 249.70 502.54 248.57 499.41 249.99 497.00 C 251.83 492.23 257.68 492.11 260.82 488.53 C 262.12 490.87 261.51 495.18 264.95 495.49 C 267.37 495.56 269.76 495.04 272.16 494.82 C 273.12 493.88 274.07 492.94 275.03 492.00 C 275.13 490.52 275.06 489.02 275.34 487.57 C 277.56 487.10 279.82 486.80 282.04 486.30 C 284.08 488.15 285.59 490.71 287.97 492.12 C 294.14 492.84 298.08 498.93 304.56 498.64 C 306.95 497.81 309.45 497.46 311.94 497.11 C 319.98 495.82 327.93 493.98 335.99 492.77 C 340.77 492.45 344.62 489.31 348.97 487.65 C 353.45 489.19 358.55 488.99 362.67 486.53 C 363.20 485.48 363.67 484.40 364.08 483.31 Z" />
<path fill="#000000" d=" M 226.53 495.97 C 227.17 495.62 228.45 494.93 229.08 494.58 C 229.93 495.43 230.76 496.30 231.58 497.19 C 230.91 498.18 230.20 499.16 229.45 500.10 C 228.43 498.75 227.45 497.38 226.53 495.97 Z" />
<path fill="#030303" d=" M 239.44 496.57 C 240.12 495.22 242.36 493.88 242.96 495.96 C 244.17 497.51 241.80 497.96 240.91 498.64 C 240.54 498.12 239.81 497.09 239.44 496.57 Z" />
<path fill="#000000" d=" M 237.16 500.13 C 237.57 498.21 240.81 499.11 240.37 500.93 C 239.73 502.38 236.72 501.95 237.16 500.13 Z" />
</svg>
