<?xml version="1.0" standalone="no"?>
<!DOCTYPE svg PUBLIC "-//W3C//DTD SVG 20010904//EN"
 "http://www.w3.org/TR/2001/REC-SVG-20010904/DTD/svg10.dtd">
<svg version="1.0" xmlns="http://www.w3.org/2000/svg"
 width="128.000000pt" height="128.000000pt" viewBox="0 0 128.000000 128.000000"
 preserveAspectRatio="xMidYMid meet">
<metadata>
Created by potrace 1.11, written by Peter Selinger 2001-2013
</metadata>
<g transform="translate(0.000000,128.000000) scale(0.100000,-0.100000)"
fill="#1f4e78" stroke="none">
<path d="M380 1237 c-52 -22 -97 -42 -99 -44 -3 -2 3 -19 12 -38 15 -32 19
-34 38 -24 16 8 24 8 33 -1 8 -8 5 -16 -13 -29 l-24 -18 27 -68 c15 -37 26
-69 24 -70 -2 -1 -22 -12 -44 -23 -83 -42 -133 -115 -142 -205 -4 -38 3 -67
28 -136 l33 -89 45 24 c25 13 56 24 68 24 13 0 24 2 24 5 0 3 -11 33 -25 67
-29 72 -31 115 -7 144 19 24 82 59 82 46 0 -4 6 -16 13 -26 12 -16 20 -15 119
25 l106 41 -67 165 c-65 161 -66 164 -93 159 -35 -7 -47 12 -20 33 19 15 20
19 7 49 -8 17 -18 32 -22 31 -4 0 -51 -19 -103 -42z"/>
<path d="M593 722 c-50 -21 -94 -40 -98 -43 -13 -13 21 -62 56 -79 36 -19 37
-19 92 3 46 18 59 29 73 59 18 40 9 91 -17 95 -8 1 -55 -15 -106 -35z"/>
<path d="M715 519 l-201 -81 -38 26 c-64 43 -139 33 -196 -29 -21 -23 -25 -36
-25 -90 0 -57 3 -67 30 -95 17 -17 45 -38 63 -45 17 -8 32 -19 32 -24 0 -6 14
-26 31 -46 l31 -35 -77 0 c-98 0 -115 -9 -115 -60 l0 -40 390 0 390 0 0 40 c0
52 -17 60 -127 61 l-88 0 74 29 c91 36 111 53 111 96 0 33 -36 74 -67 74 -7 0
-78 -25 -157 -55 -78 -30 -158 -55 -178 -55 -42 0 -93 43 -82 69 4 9 12 32 19
51 12 33 20 37 206 113 174 70 229 101 229 128 0 11 -37 49 -47 49 -5 0 -98
-37 -208 -81z"/>
</g>
</svg>
