<?xml version="1.0" encoding="UTF-8" ?>
<!DOCTYPE svg PUBLIC "-//W3C//DTD SVG 1.1//EN" "http://www.w3.org/Graphics/SVG/1.1/DTD/svg11.dtd">
<svg width="113pt" height="50pt" viewBox="0 0 113 50" version="1.1" xmlns="http://www.w3.org/2000/svg">
<path fill="#ffffff" d=" M 0.00 0.00 L 113.00 0.00 L 113.00 50.00 L 0.00 50.00 L 0.00 0.00 Z" />
<path fill="#abcce9" d=" M 19.08 15.19 C 25.69 13.33 32.08 19.50 32.10 25.96 C 32.59 32.06 27.42 38.69 20.95 38.07 C 16.10 38.06 12.48 33.81 11.17 29.48 C 9.70 23.67 13.14 16.75 19.08 15.19 Z" />
<path fill="#abcce9" d=" M 54.37 15.44 C 60.74 13.80 66.79 19.79 66.79 25.99 C 67.22 31.52 62.90 37.64 57.08 37.76 C 51.18 38.37 46.26 32.59 46.21 27.01 C 45.85 21.96 49.35 16.62 54.37 15.44 Z" />
<path fill="#abcce9" d=" M 88.28 15.45 C 94.65 13.75 100.76 19.70 100.78 25.92 C 101.25 31.46 96.94 37.62 91.11 37.76 C 85.54 38.41 80.89 33.23 80.26 28.06 C 79.47 22.72 82.93 16.78 88.28 15.45 Z" />
</svg>
