<?xml version="1.0" encoding="UTF-8" ?>
<!DOCTYPE svg PUBLIC "-//W3C//DTD SVG 1.1//EN" "http://www.w3.org/Graphics/SVG/1.1/DTD/svg11.dtd">
<svg width="1366pt" height="732pt" viewBox="0 0 1366 732" version="1.1" xmlns="http://www.w3.org/2000/svg">
<path fill="#ffffff" d=" M 0.00 0.00 L 1366.00 0.00 L 1366.00 732.00 L 0.00 732.00 L 0.00 0.00 Z" />
<path fill="#060606" d=" M 181.89 16.12 C 185.87 13.45 190.71 12.01 195.52 12.38 C 195.68 14.98 195.68 17.58 195.62 20.19 C 198.39 22.19 200.13 25.16 202.23 27.78 C 203.92 29.53 206.14 30.65 208.11 32.05 C 215.96 34.10 223.99 35.35 231.89 37.22 C 236.14 38.03 240.88 37.73 244.64 40.15 C 246.36 44.80 241.86 47.79 238.53 49.90 C 238.10 50.81 237.69 51.72 237.29 52.65 C 238.77 54.01 240.28 55.39 241.35 57.12 C 241.78 59.36 241.33 61.65 241.23 63.91 C 243.69 66.49 245.80 69.62 244.30 73.31 C 247.00 76.41 250.78 78.38 253.33 81.62 C 253.34 84.28 252.52 86.91 251.57 89.38 C 249.67 89.41 247.77 89.41 245.88 89.38 C 245.28 85.57 244.28 81.40 240.17 79.99 C 238.51 81.18 237.26 83.52 235.02 83.55 C 232.78 82.70 230.72 81.48 228.58 80.42 C 227.04 81.74 225.61 83.18 224.14 84.58 C 223.54 84.61 222.34 84.69 221.75 84.73 C 221.32 85.02 220.46 85.62 220.04 85.91 C 219.13 87.69 218.10 89.39 217.01 91.06 C 213.09 92.25 209.26 94.35 205.02 93.69 C 204.86 92.78 204.54 90.96 204.38 90.05 C 201.32 92.66 198.75 95.81 197.60 99.73 C 199.06 103.06 200.02 106.75 202.59 109.47 C 205.59 112.25 204.95 116.74 204.39 120.38 C 202.83 121.30 201.08 121.85 199.43 122.58 C 199.95 130.80 202.31 138.82 202.76 147.07 C 205.01 149.58 207.76 151.57 210.03 154.06 C 212.23 156.50 213.15 160.13 216.31 161.61 C 218.78 162.73 220.31 164.99 221.91 167.07 C 225.94 170.42 228.84 175.26 234.05 177.00 C 235.31 177.81 236.57 178.62 237.84 179.42 C 239.65 180.16 241.44 180.94 243.26 181.67 C 244.88 183.58 246.07 185.79 247.00 188.11 C 248.21 191.97 249.93 195.61 251.73 199.22 C 252.68 202.48 253.66 205.73 255.03 208.85 C 256.53 212.50 257.98 216.18 259.64 219.77 C 263.50 227.22 271.02 231.48 276.08 237.93 C 278.09 239.96 280.24 241.86 281.95 244.15 C 285.40 248.80 290.89 250.63 295.77 253.28 C 301.61 256.43 307.86 252.21 313.95 253.84 C 318.63 254.85 323.31 252.76 328.00 253.49 C 331.33 254.42 333.51 257.38 335.57 259.97 C 334.26 264.81 328.77 265.98 325.38 268.99 C 325.31 270.11 325.25 271.23 325.20 272.35 C 327.71 274.31 330.39 276.03 333.06 277.76 C 336.33 279.90 340.26 280.61 343.75 282.30 C 347.16 283.97 350.65 285.50 354.21 286.84 C 358.04 288.41 361.55 290.90 365.89 290.57 C 370.23 292.36 373.21 296.34 377.07 298.94 C 382.13 305.03 390.57 305.84 397.49 308.65 C 400.95 310.89 402.65 315.01 406.15 317.26 C 406.30 317.68 406.61 318.52 406.76 318.94 C 410.46 322.46 413.98 326.18 416.99 330.32 C 418.43 333.90 419.85 338.20 417.82 341.84 C 417.54 343.64 417.31 345.47 417.15 347.30 C 416.50 348.75 415.82 350.18 415.16 351.62 C 414.10 351.56 413.04 351.51 412.00 351.45 C 407.83 347.78 401.70 346.71 398.71 341.71 C 396.99 337.94 394.06 334.95 392.09 331.34 C 388.39 329.90 384.05 330.95 380.92 327.99 C 376.65 326.65 372.17 325.37 368.92 322.12 C 366.46 319.73 362.90 322.02 361.24 324.25 C 358.46 328.28 356.28 332.70 354.01 337.03 C 350.78 342.97 350.37 349.88 349.37 356.43 C 350.41 357.53 351.35 358.95 353.03 359.02 C 356.11 359.49 358.45 361.69 361.14 363.08 C 365.36 364.23 369.30 366.68 371.39 370.65 C 371.53 374.89 370.42 379.53 372.86 383.34 C 374.78 386.33 375.40 390.36 373.00 393.30 C 365.06 390.79 355.42 393.92 351.78 401.75 C 352.54 405.23 352.25 408.87 353.25 412.32 C 352.50 414.37 352.11 416.80 350.12 418.08 C 343.65 422.65 337.78 428.95 336.43 437.03 C 336.07 437.54 335.34 438.57 334.98 439.08 C 334.01 439.49 333.05 439.91 332.10 440.34 C 330.03 440.31 327.96 440.26 325.90 440.09 C 322.85 439.62 319.75 439.33 316.86 438.19 C 316.59 436.15 316.34 434.10 316.11 432.06 C 316.35 430.36 316.53 428.65 316.69 426.95 C 319.65 424.26 323.06 421.92 324.52 418.02 C 324.37 415.54 324.22 413.07 324.26 410.59 C 323.67 409.70 323.07 408.82 322.46 407.96 C 322.13 402.39 328.66 401.62 332.59 400.23 C 336.65 399.21 335.50 394.11 335.40 390.99 C 332.80 385.26 330.45 379.32 328.91 373.21 C 328.46 369.87 327.47 366.55 325.29 363.92 C 320.04 361.41 320.90 354.55 319.92 349.75 C 320.14 345.75 315.41 344.09 312.13 344.76 C 310.09 345.40 308.06 346.34 305.89 346.29 C 301.88 345.39 299.67 341.73 296.90 339.09 C 295.10 337.30 291.84 337.48 290.67 335.08 C 290.84 330.64 291.46 326.03 289.19 321.97 C 288.18 320.24 287.27 318.47 286.27 316.75 C 284.76 316.11 283.27 315.45 281.79 314.78 C 278.08 317.44 273.42 316.73 269.17 316.37 C 269.37 314.61 270.23 313.11 271.50 311.88 C 271.52 311.17 271.54 310.46 271.57 309.76 C 267.17 307.48 262.09 307.76 257.47 306.17 C 255.33 300.67 252.42 295.53 249.14 290.63 C 245.95 289.04 242.53 288.08 238.94 288.37 C 236.12 286.83 233.16 285.50 230.00 284.85 C 227.56 284.58 225.15 285.43 222.71 285.22 C 220.18 284.36 218.30 282.37 216.39 280.60 C 213.35 277.61 208.42 277.68 205.70 274.25 C 202.24 270.37 198.79 266.51 194.99 262.97 C 191.55 256.95 186.65 251.57 180.45 248.35 C 177.11 244.71 174.57 240.38 171.23 236.73 C 168.97 234.53 165.76 233.90 162.95 232.66 C 160.24 233.24 157.56 232.72 155.21 231.27 C 155.14 229.06 155.48 226.87 156.34 224.82 C 155.86 223.94 155.38 223.06 154.89 222.19 C 151.77 218.60 148.80 214.82 144.98 211.93 C 143.16 210.67 142.79 208.32 141.46 206.67 C 139.48 205.97 137.43 205.51 135.53 204.62 C 136.64 202.84 136.63 200.90 135.79 199.05 C 136.57 196.54 136.49 193.90 136.18 191.32 C 135.33 189.52 134.57 187.69 133.76 185.88 C 132.83 183.14 129.42 182.41 128.49 179.65 C 126.24 176.10 128.36 171.85 127.48 168.08 C 125.75 165.29 123.49 162.82 122.23 159.75 C 120.29 156.42 116.65 155.07 112.93 155.35 C 107.34 150.53 102.07 144.50 94.43 143.12 C 91.08 139.24 85.43 135.85 80.21 137.86 C 76.82 138.89 73.23 140.06 70.91 142.92 C 68.89 145.39 65.94 146.69 63.47 148.59 C 61.37 151.24 60.11 154.49 57.82 157.01 C 55.74 158.25 53.19 158.46 50.85 158.90 C 46.91 159.13 44.51 162.35 41.44 164.34 C 39.12 165.51 37.11 164.04 35.62 162.37 C 35.49 160.64 35.40 158.91 35.35 157.18 C 37.38 154.24 40.67 151.36 39.21 147.41 C 36.44 147.30 33.67 147.39 30.90 147.19 C 28.74 146.62 26.36 146.65 24.45 145.35 C 22.47 143.90 21.61 141.50 20.36 139.48 C 18.90 136.81 16.61 134.75 14.85 132.29 C 14.45 131.14 14.01 130.00 13.54 128.88 C 13.45 126.82 14.42 124.98 15.15 123.12 C 15.88 120.47 17.40 118.20 18.86 115.91 C 18.92 114.35 17.58 113.34 16.74 112.21 C 16.19 111.45 15.64 110.69 15.09 109.93 C 13.84 109.01 12.60 108.09 11.36 107.16 C 11.23 104.62 11.35 102.06 10.97 99.54 C 12.02 97.70 13.67 96.38 15.69 95.76 C 16.95 95.34 18.19 94.88 19.42 94.42 C 22.72 91.96 25.67 88.46 25.72 84.16 C 24.87 81.99 22.44 80.85 20.93 79.12 C 19.72 74.17 17.22 69.46 17.25 64.26 C 17.43 61.99 20.27 61.78 21.79 60.63 C 23.18 60.65 24.56 60.67 25.95 60.70 C 27.57 61.21 29.27 61.33 30.95 61.36 C 35.16 60.13 39.61 59.93 43.97 59.76 C 46.84 60.84 49.92 60.36 52.91 60.29 C 55.57 57.75 58.10 55.07 60.23 52.06 C 61.88 48.33 62.11 43.29 66.08 41.15 C 68.64 39.79 70.90 37.58 73.94 37.43 C 74.42 37.76 75.37 38.42 75.85 38.76 C 76.17 43.18 76.20 47.67 77.22 52.01 C 78.50 52.66 79.91 52.99 81.17 53.69 C 82.98 58.08 87.35 60.63 88.95 65.18 C 91.07 62.57 90.10 59.30 90.66 56.27 C 93.63 53.40 94.78 49.30 97.10 45.97 C 98.68 43.76 99.47 41.14 99.82 38.47 C 100.23 35.51 104.06 36.15 106.14 35.23 C 106.95 36.74 107.69 38.29 108.46 39.83 C 108.48 41.40 108.50 42.97 108.52 44.54 C 110.57 45.54 112.81 45.80 115.06 45.75 C 115.50 45.24 116.38 44.23 116.82 43.72 C 117.77 43.69 118.72 43.65 119.67 43.62 C 121.43 45.30 122.93 47.23 124.36 49.21 C 126.67 46.22 123.64 42.43 124.43 38.98 C 124.06 38.24 123.68 37.49 123.31 36.75 C 126.08 33.04 130.82 31.14 135.14 33.39 C 137.25 30.07 135.51 25.60 137.94 22.56 C 140.94 22.09 144.01 21.81 147.05 21.71 C 148.70 22.34 150.13 23.55 151.89 23.84 C 159.56 24.50 164.47 16.40 171.96 16.26 C 175.25 15.78 178.69 17.07 181.89 16.12 Z" />
<path fill="#ffffff" d=" M 188.82 15.62 C 190.13 15.51 191.44 15.39 192.75 15.27 C 192.67 18.11 192.85 21.01 194.69 23.33 C 195.53 23.82 196.36 24.31 197.20 24.81 C 198.64 27.34 200.34 29.73 202.40 31.80 C 202.35 32.15 202.25 32.84 202.19 33.19 C 199.64 34.59 196.73 36.84 193.73 35.17 C 191.83 34.05 189.84 34.61 188.02 35.61 C 187.94 38.25 186.49 40.13 183.94 40.78 C 183.58 41.28 182.85 42.29 182.49 42.79 C 182.61 44.24 182.73 45.68 182.84 47.13 C 183.31 49.10 183.73 51.08 184.33 53.02 C 184.35 54.70 184.37 56.37 184.42 58.05 C 181.12 59.82 177.06 61.37 176.19 65.48 C 173.53 66.91 170.53 64.92 167.93 66.77 C 167.49 67.60 167.05 68.43 166.61 69.26 C 164.51 70.09 161.71 70.56 160.95 73.04 C 160.06 74.24 159.96 76.96 157.86 76.41 C 156.10 77.01 155.96 74.63 155.10 73.71 C 154.70 73.51 153.92 73.11 153.52 72.91 C 150.14 71.86 147.04 70.03 143.39 69.85 C 142.67 70.10 141.24 70.60 140.52 70.85 C 140.16 68.38 139.52 65.60 141.07 63.38 C 142.95 60.18 142.74 56.21 142.09 52.69 C 140.68 49.15 143.27 45.64 142.27 42.02 C 140.62 39.84 139.14 37.53 137.56 35.29 C 138.66 32.20 138.55 28.88 138.66 25.65 C 141.35 24.61 144.24 24.38 147.10 24.55 C 149.39 26.49 152.36 26.58 155.21 26.46 C 160.76 23.87 165.93 20.36 171.86 18.67 C 175.60 18.48 179.66 20.43 183.11 18.29 C 184.99 17.35 186.88 16.43 188.82 15.62 Z" />
<path fill="#ffffff" d=" M 126.55 36.99 C 127.44 35.35 129.32 35.11 130.93 34.57 C 132.57 35.43 134.28 36.14 135.99 36.86 C 136.47 39.22 138.52 40.51 140.16 42.03 C 141.55 44.54 140.04 47.30 139.80 49.89 C 140.66 54.53 141.46 59.67 139.09 64.01 C 137.55 66.71 138.20 70.00 139.64 72.59 C 143.00 72.58 146.35 72.17 149.70 72.58 C 149.08 77.40 145.15 80.84 143.27 85.18 C 144.04 88.67 145.36 92.00 146.38 95.42 C 146.98 99.47 151.91 100.36 152.80 104.33 C 156.52 107.13 160.13 110.07 163.68 113.08 C 159.80 113.55 155.87 113.49 152.01 114.15 C 150.44 114.64 149.17 113.34 147.83 112.78 C 146.96 112.40 146.09 112.03 145.21 111.67 C 142.44 112.93 139.51 112.18 136.82 111.14 C 132.47 109.21 127.32 108.63 124.24 104.60 C 120.14 104.52 116.07 104.95 111.98 105.14 C 108.79 105.32 105.44 104.32 102.39 105.65 C 100.41 107.37 99.46 109.94 98.19 112.17 C 96.61 114.16 98.68 116.19 99.27 118.12 C 98.03 119.04 96.76 119.94 95.47 120.79 C 93.11 117.94 90.90 114.99 89.33 111.61 C 87.37 108.05 83.94 105.14 79.67 105.23 C 77.84 100.81 76.31 96.26 75.43 91.55 C 77.15 91.56 78.86 91.83 80.52 92.31 C 82.36 90.90 83.06 88.67 83.69 86.53 C 79.36 82.53 81.08 75.83 78.57 70.86 C 77.37 66.65 79.66 63.05 81.84 59.68 C 83.33 61.30 84.75 63.00 85.80 64.94 C 86.44 65.88 87.07 66.81 87.70 67.76 C 88.89 67.36 90.05 66.89 91.18 66.35 C 93.93 63.60 92.08 59.25 94.26 56.21 C 96.96 50.05 101.74 44.91 102.84 38.10 C 106.91 38.59 105.79 43.37 106.54 46.21 C 107.53 46.98 108.61 47.62 109.69 48.27 C 111.75 48.35 113.80 48.50 115.86 48.57 C 116.86 47.72 117.89 46.89 118.93 46.08 C 120.23 47.82 121.55 49.53 122.87 51.25 C 123.42 51.53 124.52 52.10 125.07 52.38 C 125.65 52.06 126.81 51.42 127.39 51.10 C 128.06 46.40 127.34 41.63 126.55 36.99 Z" />
<path fill="#ffffff" d=" M 198.16 37.41 C 200.45 35.99 202.76 34.58 205.14 33.31 C 207.47 33.91 209.66 34.96 211.86 35.93 C 212.21 40.03 209.93 43.75 206.24 45.48 C 205.64 45.56 204.45 45.71 203.85 45.78 C 202.88 48.55 201.99 51.35 200.73 54.00 C 200.14 56.28 200.83 58.41 202.53 60.00 C 202.63 62.32 202.34 64.63 202.43 66.95 C 203.88 69.70 206.00 72.03 207.76 74.60 C 208.46 75.24 209.17 75.88 209.89 76.52 C 212.81 75.78 215.79 75.13 218.82 75.60 C 219.87 78.05 221.40 80.24 223.14 82.26 C 222.25 82.34 220.48 82.51 219.59 82.60 C 218.31 84.41 217.13 86.29 215.97 88.18 C 214.36 88.83 212.75 89.51 211.19 90.26 C 210.31 90.52 209.43 90.77 208.55 91.02 C 208.25 89.40 208.09 87.69 207.18 86.26 C 202.20 86.46 199.24 91.27 196.74 95.00 C 192.85 101.68 198.55 108.60 202.58 113.69 C 202.35 115.37 202.02 117.02 201.59 118.65 C 201.12 118.66 200.20 118.68 199.73 118.69 C 199.03 117.33 198.28 116.01 197.45 114.73 C 195.93 114.48 194.41 114.19 192.91 113.84 C 190.92 113.62 188.93 113.43 186.98 113.00 C 183.65 112.13 180.28 113.37 177.06 114.17 C 174.66 114.23 172.26 114.23 169.86 114.24 C 168.96 113.87 168.07 113.50 167.17 113.14 C 165.88 111.76 164.51 110.41 162.81 109.52 C 159.74 107.95 157.45 105.32 154.76 103.23 C 153.12 100.76 151.51 98.10 148.75 96.75 C 147.96 93.07 146.00 89.76 145.27 86.08 C 146.02 82.70 148.33 79.98 150.34 77.26 C 150.43 76.70 150.61 75.58 150.70 75.02 C 153.32 74.50 154.53 76.41 155.76 78.30 C 158.48 78.85 161.17 78.41 162.25 75.59 C 161.78 72.54 164.79 71.72 166.97 70.80 C 168.11 69.66 169.26 68.54 170.45 67.45 C 172.81 67.87 175.26 67.86 177.38 66.60 C 177.84 65.40 178.32 64.22 178.80 63.04 C 179.90 62.33 180.99 61.60 182.08 60.87 C 183.17 60.63 184.26 60.38 185.35 60.14 C 187.38 56.19 185.63 51.88 184.84 47.87 C 184.56 46.19 184.25 44.50 184.33 42.80 C 185.55 42.07 186.86 41.51 188.17 40.96 C 188.73 39.35 189.26 37.73 189.78 36.11 C 192.60 36.47 195.25 38.06 198.16 37.41 Z" />
<path fill="#ffffff" d=" M 213.70 36.44 C 219.98 36.44 225.79 39.21 231.99 39.73 C 235.55 40.30 239.09 40.99 242.64 41.61 C 242.61 42.12 242.53 43.13 242.50 43.64 C 240.15 46.29 236.27 47.61 234.88 51.02 C 233.78 53.96 236.57 55.85 238.37 57.59 C 240.25 58.99 238.71 61.52 238.59 63.41 C 240.35 66.89 242.72 70.19 241.76 74.36 C 244.23 77.50 247.38 79.97 250.51 82.41 C 250.47 83.80 250.44 85.18 250.41 86.57 C 249.47 86.61 248.54 86.65 247.62 86.70 C 248.03 82.64 245.17 79.84 242.17 77.67 C 240.84 77.65 239.51 77.64 238.19 77.62 C 237.45 78.75 236.76 79.91 235.90 80.94 C 234.14 80.92 232.86 79.62 231.48 78.72 C 230.32 78.40 229.16 78.07 228.01 77.73 C 226.39 78.44 224.67 78.86 222.90 78.84 C 221.65 77.02 220.35 75.24 219.10 73.43 C 215.71 73.20 212.49 74.53 209.11 74.36 C 207.81 71.97 206.20 69.75 204.25 67.86 C 204.13 64.97 204.27 62.09 204.30 59.20 C 203.78 58.65 202.74 57.54 202.22 56.99 C 202.50 53.76 203.88 50.81 204.89 47.77 C 209.05 46.51 211.78 43.16 213.32 39.23 C 213.42 38.53 213.61 37.14 213.70 36.44 Z" />
<path fill="#ffffff" d=" M 71.61 40.63 C 72.07 40.59 73.00 40.51 73.46 40.47 C 73.52 41.94 73.57 43.42 73.66 44.90 C 75.06 47.57 74.27 50.64 74.43 53.52 C 75.38 53.92 76.33 54.30 77.28 54.67 C 79.82 55.45 79.80 57.97 79.36 60.12 C 77.53 63.01 76.64 66.32 76.08 69.67 C 77.06 71.30 77.77 73.06 78.40 74.86 C 78.52 76.62 78.66 78.37 78.76 80.14 C 79.13 82.77 79.88 85.32 81.91 87.18 C 81.11 90.82 77.32 89.31 74.70 89.63 C 73.17 94.27 75.89 98.59 76.91 103.01 C 77.26 104.80 78.61 106.09 79.67 107.49 C 80.33 107.48 81.65 107.46 82.32 107.46 C 87.22 110.44 89.20 115.90 92.54 120.26 C 93.14 121.69 92.73 123.32 92.83 124.84 C 91.17 124.44 89.54 123.90 87.84 123.65 C 85.36 124.36 83.51 126.26 81.21 127.34 C 79.10 127.22 77.03 126.77 74.94 126.49 C 73.07 127.90 71.20 129.33 69.21 130.58 C 67.36 130.49 65.37 130.72 63.87 129.37 C 62.57 129.69 60.90 129.63 60.23 131.06 C 57.39 135.39 53.70 139.25 52.33 144.38 C 47.68 145.44 42.74 145.63 38.09 144.49 C 34.14 145.75 29.29 145.93 25.99 143.08 C 23.49 139.54 21.28 135.77 18.38 132.53 C 17.31 131.25 16.19 129.77 16.22 128.02 C 17.55 124.66 18.59 121.04 21.16 118.38 C 22.97 116.89 22.01 114.62 21.59 112.75 C 18.49 110.63 16.45 107.43 13.74 104.89 C 14.19 102.92 14.33 100.90 14.44 98.88 C 19.44 98.50 22.72 94.81 26.26 91.77 C 26.98 89.20 28.00 86.73 29.24 84.37 C 33.48 84.41 37.89 85.41 41.99 83.84 C 46.22 83.45 51.17 84.84 54.48 81.40 C 54.77 78.62 54.80 75.77 53.78 73.12 C 52.47 70.11 54.39 67.17 55.04 64.27 C 55.66 60.24 59.29 57.59 61.40 54.27 C 62.85 51.93 63.81 49.36 64.76 46.79 C 65.90 43.69 69.16 42.46 71.61 40.63 Z" />
<path fill="#ffffff" d=" M 34.09 62.89 C 40.53 61.54 47.06 63.01 53.56 62.55 C 53.06 65.98 51.31 69.39 52.22 72.91 C 52.86 75.64 52.97 78.45 52.61 81.23 C 50.72 81.67 48.86 82.23 46.92 82.41 C 40.92 82.33 34.94 83.17 28.94 82.42 C 26.82 80.79 24.58 79.21 22.95 77.06 C 21.79 74.78 21.38 72.22 21.19 69.69 C 20.70 68.74 20.22 67.79 19.73 66.84 C 19.73 66.30 19.74 65.23 19.74 64.69 C 24.23 61.87 29.48 65.31 34.09 62.89 Z" />
<path fill="#030303" d=" M 199.06 99.34 C 200.57 97.06 201.24 93.04 204.88 93.59 C 204.05 95.03 202.99 96.33 201.60 97.25 C 201.54 97.88 201.41 99.14 201.34 99.77 C 200.77 99.66 199.63 99.45 199.06 99.34 Z" />
<path fill="#ffffff" d=" M 101.10 111.00 C 101.39 108.91 103.07 107.71 104.64 106.56 C 110.96 106.74 117.29 106.51 123.61 106.58 C 127.94 110.46 133.86 111.69 138.94 114.31 C 141.27 114.44 143.62 114.17 145.95 114.42 C 147.96 115.10 149.85 116.96 152.12 116.17 C 155.72 115.25 159.49 115.61 163.12 114.85 C 168.90 116.35 175.16 117.30 180.94 115.35 C 186.16 115.01 191.62 115.07 196.56 117.00 C 196.70 120.27 196.50 123.56 196.85 126.82 C 199.19 133.94 198.90 141.63 200.62 148.91 C 202.86 150.79 204.91 152.89 207.04 154.88 C 209.81 157.26 210.90 160.85 212.54 163.98 C 213.18 166.89 210.45 166.63 208.48 166.46 C 208.38 165.13 208.31 163.79 208.26 162.46 C 207.27 161.36 206.87 159.06 205.01 159.38 C 201.22 160.57 197.25 161.73 194.50 164.79 C 194.42 167.09 194.38 169.39 194.27 171.70 C 190.53 171.43 187.33 169.32 183.94 167.95 C 182.29 167.36 181.65 165.56 180.62 164.30 C 180.62 160.41 181.16 156.35 179.41 152.73 C 175.38 151.42 171.73 149.05 167.50 148.35 C 164.80 151.80 160.05 150.36 156.41 151.82 C 154.58 152.62 152.67 152.29 150.89 151.55 C 149.00 149.93 146.59 149.30 144.17 149.01 C 143.14 148.64 142.11 148.26 141.09 147.86 C 140.60 147.64 139.62 147.20 139.14 146.98 C 137.35 146.10 135.58 145.19 133.89 144.14 C 131.43 142.67 129.95 139.82 127.02 139.12 C 124.23 138.00 122.71 135.30 120.49 133.46 C 117.57 133.57 115.25 136.01 112.55 137.00 C 110.37 135.21 107.61 134.68 104.87 134.50 C 104.44 132.57 104.49 130.41 103.26 128.76 C 100.52 127.42 97.68 126.29 94.89 125.05 C 96.55 123.27 98.58 121.92 100.29 120.19 C 101.36 118.22 100.62 115.90 100.09 113.88 C 100.42 112.92 100.75 111.95 101.10 111.00 Z" />
<path fill="#ffffff" d=" M 86.24 126.31 C 91.88 126.63 97.68 127.48 102.45 130.77 C 102.74 132.65 102.36 134.84 103.85 136.32 C 106.19 137.26 109.32 136.71 111.00 138.90 C 112.86 140.97 113.75 143.67 114.89 146.16 C 116.43 148.13 118.29 150.04 118.03 152.76 C 116.13 152.53 113.81 153.24 112.35 151.66 C 108.72 148.61 104.98 145.68 101.03 143.06 C 100.47 142.22 99.91 141.38 99.35 140.55 C 96.61 139.98 94.19 138.64 91.93 137.06 C 87.16 134.20 81.09 133.20 76.12 136.18 C 74.06 137.03 71.97 137.85 70.09 139.08 C 68.50 140.48 67.71 142.58 66.02 143.89 C 63.91 145.81 61.08 147.03 59.65 149.62 C 58.55 151.19 57.82 153.01 56.53 154.44 C 51.93 156.97 46.16 156.27 42.05 159.87 C 41.25 160.90 40.55 162.29 38.97 161.83 C 38.54 160.66 38.21 159.46 37.86 158.27 C 39.62 156.02 41.04 153.54 42.58 151.15 C 42.43 149.85 42.27 148.56 42.12 147.27 C 46.20 147.32 50.46 147.50 54.08 145.30 C 54.37 144.22 54.65 143.15 54.93 142.07 C 56.99 138.27 59.73 134.89 62.40 131.51 C 66.32 133.62 71.06 131.95 74.28 129.31 C 76.24 127.32 78.96 129.00 81.23 129.39 C 82.98 128.50 84.73 127.59 86.24 126.31 Z" />
<path fill="#317abd" d=" M 113.26 138.49 C 115.44 137.35 117.64 136.17 120.05 135.64 C 122.03 136.65 123.06 138.90 124.98 140.05 C 128.87 142.47 132.55 145.25 136.67 147.29 C 141.72 150.85 148.11 151.49 153.28 154.83 C 158.08 152.26 164.18 153.92 168.43 150.27 C 171.71 151.67 175.06 153.01 178.02 155.02 C 180.36 158.26 177.38 162.78 179.81 166.13 C 183.59 171.43 190.41 173.18 196.56 173.90 C 196.35 171.51 196.03 169.12 195.57 166.76 C 196.83 165.44 198.10 164.12 199.37 162.81 C 200.96 164.18 202.50 165.61 203.96 167.13 C 204.88 167.25 205.81 167.36 206.75 167.48 C 208.41 168.14 210.10 168.73 211.81 169.26 C 213.07 167.44 214.39 165.66 215.79 163.94 C 220.39 168.01 223.93 173.25 229.16 176.60 C 232.66 178.71 236.27 180.73 240.25 181.78 C 241.45 182.85 242.99 183.74 243.61 185.30 C 245.71 191.19 248.32 196.89 251.23 202.43 C 252.21 204.94 252.45 207.67 252.93 210.31 C 248.65 213.34 241.84 212.58 239.74 218.27 C 238.00 218.32 236.27 218.35 234.53 218.36 C 234.63 219.65 234.69 220.94 234.70 222.23 C 232.89 223.96 230.22 223.41 227.95 223.74 C 227.06 227.06 225.52 230.33 225.56 233.83 C 226.50 236.93 229.13 239.14 230.68 241.94 C 229.63 243.99 226.42 243.03 224.44 243.66 C 223.58 249.00 227.30 254.46 232.77 255.13 C 236.34 259.48 240.80 264.71 246.97 264.47 C 248.39 264.49 249.81 264.48 251.23 264.45 C 252.73 265.66 254.50 266.65 255.59 268.28 C 256.65 270.63 256.86 273.24 257.19 275.77 C 255.41 277.57 254.06 279.99 251.47 280.71 C 251.16 282.99 251.10 285.41 249.88 287.45 C 244.08 286.16 237.85 286.45 232.54 283.42 C 229.81 281.76 226.60 282.55 223.73 283.30 C 219.47 280.95 215.68 277.83 211.43 275.47 C 206.79 272.94 203.50 268.65 200.23 264.63 C 199.68 264.54 198.57 264.36 198.01 264.27 C 195.56 258.09 190.44 253.72 185.79 249.20 C 183.60 247.01 180.29 246.04 178.70 243.26 C 176.60 239.67 173.91 236.50 171.33 233.26 C 167.04 231.48 162.60 229.91 157.88 230.22 C 157.71 229.80 157.37 228.98 157.20 228.56 C 157.68 227.42 158.92 226.43 158.71 225.10 C 157.58 222.97 156.05 221.11 154.70 219.13 C 151.57 214.55 146.14 211.83 143.99 206.54 C 142.18 205.30 140.27 204.22 138.30 203.25 C 138.57 197.93 138.45 192.48 136.55 187.43 C 135.41 183.23 131.45 180.90 128.71 177.82 C 129.24 174.47 129.70 171.10 129.63 167.70 C 126.08 163.29 123.85 157.93 119.77 153.92 C 119.51 151.85 119.81 149.47 118.15 147.90 C 115.82 145.16 114.57 141.77 113.26 138.49 Z" />
<path fill="#ffffff" d=" M 204.69 165.44 C 202.87 165.37 203.20 162.41 204.89 162.40 C 206.73 162.39 206.29 165.40 204.69 165.44 Z" />
<path fill="#030303" d=" M 111.74 198.50 C 112.21 198.47 113.15 198.42 113.62 198.40 C 113.61 198.95 113.58 200.05 113.57 200.60 C 113.06 200.62 112.05 200.66 111.54 200.68 C 111.59 200.13 111.69 199.04 111.74 198.50 Z" />
<path fill="#1a1a1a" d=" M 118.20 210.68 C 122.44 207.98 127.94 210.35 132.11 207.19 C 133.63 209.03 132.08 212.07 132.21 214.34 C 131.51 214.81 130.81 215.29 130.12 215.76 C 126.42 214.60 122.40 215.46 118.77 214.13 C 118.48 212.99 118.36 211.83 118.20 210.68 Z" />
<path fill="#ffffff" d=" M 119.84 212.08 C 120.81 211.68 121.79 211.30 122.77 210.91 C 125.46 211.54 128.14 210.81 130.75 210.16 C 130.60 211.06 130.31 212.84 130.17 213.73 C 127.46 213.28 124.71 213.19 121.98 213.43 C 121.45 213.09 120.38 212.42 119.84 212.08 Z" />
<path fill="#ffffff" d=" M 244.88 214.77 C 247.68 213.32 250.77 212.44 253.91 212.19 C 254.89 214.76 256.27 217.16 257.19 219.75 C 258.90 224.89 262.83 228.98 267.19 232.04 C 271.81 237.04 276.83 241.69 281.15 246.97 C 282.19 247.99 282.38 249.46 282.76 250.81 C 280.62 253.47 278.70 256.36 276.14 258.65 C 274.15 259.31 273.01 256.61 271.43 255.75 C 269.88 256.12 268.34 256.44 266.78 256.72 C 264.74 257.52 262.86 258.67 262.25 260.92 C 261.43 261.89 260.68 262.91 260.01 263.99 C 259.76 265.71 259.03 267.15 256.97 266.65 C 254.80 265.55 253.16 263.54 250.92 262.60 C 247.10 262.57 242.62 263.56 239.63 260.48 C 236.44 258.29 234.65 254.13 230.70 253.18 C 229.23 252.24 227.88 251.13 226.56 250.00 C 226.40 248.43 226.25 246.86 226.10 245.30 C 228.66 244.66 231.64 244.91 233.58 242.78 C 231.67 239.74 228.63 237.38 227.38 233.96 C 227.19 231.02 228.30 228.23 228.96 225.42 C 231.20 225.36 233.43 225.40 235.67 225.48 C 236.06 223.87 236.37 222.24 236.64 220.61 C 237.64 220.28 238.65 219.95 239.65 219.62 C 242.10 218.87 243.07 216.34 244.88 214.77 Z" />
<path fill="#1a1a1a" d=" M 118.38 219.34 C 118.87 219.36 119.84 219.39 120.33 219.40 C 120.36 219.94 120.41 221.02 120.44 221.55 C 119.99 221.53 119.08 221.48 118.63 221.45 C 118.57 220.92 118.44 219.87 118.38 219.34 Z" />
<path fill="#0a0a0a" d=" M 145.80 230.58 C 146.82 230.41 147.85 230.25 148.87 230.11 C 148.75 231.30 148.62 232.50 148.46 233.69 C 147.53 233.19 146.60 232.68 145.68 232.18 C 145.71 231.78 145.77 230.98 145.80 230.58 Z" />
<path fill="#070707" d=" M 154.42 236.22 C 155.76 236.39 157.10 236.57 158.45 236.77 C 157.67 237.96 156.87 239.14 156.09 240.33 C 155.65 240.37 154.79 240.45 154.35 240.49 C 154.33 239.06 154.35 237.64 154.42 236.22 Z" />
<path fill="#ffffff" d=" M 276.25 261.21 C 279.94 258.63 281.35 253.95 284.80 251.09 C 285.57 251.33 287.10 251.82 287.87 252.07 C 290.42 253.27 292.94 254.55 295.47 255.81 C 295.20 259.18 295.28 262.55 295.33 265.92 C 293.72 266.95 292.12 267.98 290.53 269.02 C 290.54 271.04 290.67 273.06 290.82 275.08 C 291.32 276.65 289.15 276.67 288.30 277.34 C 284.89 276.41 281.05 275.66 277.76 277.36 C 273.96 276.38 269.91 275.70 266.07 276.83 C 263.55 277.65 260.89 277.92 258.27 277.58 C 258.11 274.68 258.13 271.77 258.23 268.86 C 259.19 268.37 260.15 267.88 261.11 267.38 C 261.91 264.56 263.74 262.25 265.13 259.72 C 265.57 259.46 266.43 258.94 266.87 258.68 C 268.49 258.60 270.12 258.50 271.75 258.46 C 272.78 260.07 273.96 262.57 276.25 261.21 Z" />
<path fill="#ffffff" d=" M 297.66 256.88 C 302.84 257.14 307.92 255.24 313.10 256.18 C 319.53 256.64 327.27 253.47 332.27 259.10 C 332.35 259.56 332.50 260.47 332.57 260.93 C 329.25 263.36 325.71 265.53 322.64 268.29 C 322.69 269.43 322.75 270.58 322.81 271.73 C 323.47 272.90 324.12 274.06 324.78 275.24 C 329.81 278.50 334.73 282.17 340.60 283.80 C 347.08 286.72 353.84 288.99 360.20 292.18 C 362.32 293.02 364.58 293.32 366.83 293.64 C 371.38 297.21 376.02 300.75 379.83 305.16 C 385.72 306.69 391.23 309.41 397.19 310.78 C 400.78 315.76 404.30 321.00 409.22 324.78 C 412.86 328.33 416.39 332.76 416.53 338.08 C 416.07 341.94 413.76 345.34 413.70 349.32 C 411.86 348.19 410.05 347.03 408.17 346.01 C 405.16 345.34 402.97 343.11 400.73 341.17 C 398.45 336.49 395.48 332.13 391.69 328.54 C 389.75 328.45 387.81 328.40 385.88 328.37 C 382.17 325.79 377.91 324.37 373.59 323.22 C 371.80 321.61 370.63 319.44 369.04 317.65 C 367.67 317.63 366.30 317.61 364.94 317.60 C 362.86 318.89 361.22 320.89 358.96 321.84 C 357.18 321.39 355.78 320.10 354.27 319.12 C 354.29 318.33 354.32 316.74 354.34 315.95 C 354.00 315.17 353.66 314.39 353.32 313.62 C 351.93 307.51 344.55 309.59 340.61 306.46 C 337.43 303.95 334.43 301.22 331.02 299.03 C 329.71 296.85 328.29 294.73 327.02 292.52 C 322.03 290.57 316.68 291.39 311.52 291.93 C 308.44 290.89 304.08 290.67 302.72 287.18 C 301.79 284.90 300.28 282.97 298.00 281.93 C 296.68 280.25 295.32 278.60 293.96 276.95 C 293.07 275.29 292.30 273.56 291.54 271.85 C 292.56 268.98 295.90 268.03 297.21 265.46 C 297.14 262.56 296.38 259.64 297.66 256.88 Z" />
<path fill="#ffffff" d=" M 255.88 279.50 C 259.64 279.87 263.46 279.84 267.08 278.64 C 271.74 277.14 276.49 279.87 281.17 278.38 C 285.27 278.60 289.37 279.21 293.47 278.32 C 293.58 279.04 293.81 280.50 293.92 281.22 C 297.55 283.10 301.36 285.70 301.90 290.12 C 303.96 291.07 306.02 292.03 308.14 292.86 C 309.54 293.44 310.94 294.05 312.34 294.68 C 312.37 295.54 312.43 297.24 312.46 298.10 C 311.97 299.03 311.49 299.97 311.02 300.91 C 309.39 301.95 307.46 302.83 306.61 304.69 C 305.98 307.00 306.33 309.44 306.42 311.80 C 307.73 312.79 309.14 313.71 310.17 315.03 C 310.83 316.89 309.95 318.80 309.69 320.65 C 310.65 321.55 311.66 322.42 312.63 323.33 C 314.78 325.17 314.94 328.51 317.55 329.96 C 317.96 331.28 318.31 332.62 318.64 333.98 C 318.28 334.53 317.56 335.62 317.20 336.17 C 316.28 338.03 315.61 340.00 315.06 342.00 C 311.61 341.99 308.53 344.37 305.07 343.74 C 302.81 342.84 301.52 340.62 299.93 338.91 C 297.97 336.68 295.16 335.54 292.58 334.23 C 293.49 327.91 292.18 321.56 289.06 316.02 C 287.17 313.57 284.05 312.76 281.27 311.77 C 279.35 313.24 277.17 314.21 274.70 314.02 C 274.43 312.35 274.81 310.51 274.05 308.95 C 272.61 307.65 270.88 306.74 269.26 305.70 C 267.20 305.53 265.14 305.42 263.09 305.29 C 261.66 304.78 260.17 304.47 258.70 304.16 C 257.09 299.01 253.94 294.58 251.38 289.88 C 251.75 287.21 252.34 284.56 252.33 281.86 C 253.50 281.05 254.74 280.34 255.88 279.50 Z" />
<path fill="#0a0a0a" d=" M 82.18 285.21 C 84.90 283.46 86.73 280.50 89.95 279.55 C 91.83 280.33 94.12 283.06 95.39 280.06 C 96.53 280.58 97.66 281.13 98.79 281.69 L 98.35 283.57 C 97.39 283.55 95.47 283.50 94.51 283.48 C 95.97 284.49 97.54 285.37 99.22 285.97 C 101.82 288.52 103.28 292.50 101.94 296.03 C 103.79 300.89 104.91 306.04 106.67 310.96 C 106.75 312.32 106.81 313.68 106.77 315.04 C 106.64 315.59 106.39 316.68 106.27 317.22 C 104.44 310.25 102.15 303.40 99.65 296.65 C 99.46 294.09 100.03 291.44 98.80 289.05 C 94.71 287.39 92.64 282.35 87.97 282.10 C 85.01 286.48 80.48 289.39 76.05 292.12 C 71.90 294.69 68.59 298.60 64.01 300.47 C 61.25 300.61 58.61 299.66 55.92 299.19 C 54.74 298.01 53.55 296.84 52.35 295.69 C 51.97 298.31 51.55 300.95 50.51 303.41 C 50.04 304.94 48.95 306.50 49.55 308.15 C 51.38 309.54 53.88 309.85 55.52 311.48 C 58.09 315.13 56.50 320.26 59.14 323.88 C 61.31 326.81 61.24 330.64 61.71 334.11 C 59.45 336.45 55.56 338.63 56.92 342.46 C 58.70 343.03 61.05 343.49 61.24 345.77 C 62.35 348.48 59.80 350.37 58.52 352.42 C 55.37 358.89 54.31 366.24 55.74 373.30 C 58.15 378.51 60.46 383.94 65.14 387.56 C 66.69 387.48 68.24 387.41 69.80 387.35 C 71.33 386.09 73.03 385.02 74.40 383.57 C 75.41 380.74 74.82 377.55 75.72 374.67 C 79.34 371.35 84.68 370.72 89.31 371.85 C 89.86 373.62 90.41 375.39 90.93 377.17 C 91.74 377.33 92.54 377.49 93.35 377.66 C 94.25 374.57 94.98 371.33 96.95 368.70 C 100.12 364.04 99.53 358.13 99.81 352.78 C 102.02 345.81 104.40 337.62 100.60 330.81 C 102.15 328.27 103.94 325.87 105.19 323.17 C 105.77 321.96 106.36 320.75 106.96 319.56 L 107.50 320.46 C 108.24 324.33 104.91 327.19 103.09 330.24 C 105.50 336.29 104.26 342.82 103.14 349.02 C 101.15 353.39 101.93 358.30 101.02 362.90 C 100.64 366.58 98.25 369.57 97.25 373.06 C 96.58 375.21 95.85 377.34 95.19 379.50 C 93.35 379.46 91.51 379.41 89.68 379.33 C 88.89 377.42 88.18 375.48 87.43 373.56 C 85.53 373.54 83.63 373.59 81.73 373.67 C 80.34 374.40 78.94 375.13 77.56 375.89 C 76.58 379.26 77.85 383.36 75.33 386.15 C 72.56 387.35 70.21 389.88 67.01 389.82 C 63.35 390.31 61.69 386.27 58.84 384.78 C 58.18 383.43 57.56 382.08 56.95 380.72 C 56.70 380.58 56.20 380.29 55.94 380.14 C 55.83 382.12 53.59 383.74 51.94 382.20 C 50.43 379.77 51.05 376.91 53.40 375.32 C 53.22 371.27 53.57 367.19 52.85 363.18 C 52.34 361.28 53.49 359.59 54.29 357.99 C 55.25 354.89 55.44 351.27 58.14 349.07 C 59.15 348.30 58.57 346.90 58.75 345.83 C 57.93 345.73 56.29 345.51 55.47 345.40 C 54.90 342.92 54.59 340.39 54.54 337.85 C 56.14 336.07 58.00 334.54 59.43 332.63 C 59.14 330.41 58.43 328.28 57.90 326.12 C 57.24 325.08 56.59 324.04 55.97 322.98 C 55.65 321.63 55.33 320.29 54.94 318.96 C 54.54 316.85 54.32 314.68 53.39 312.72 C 51.76 311.55 49.83 310.92 48.02 310.11 C 47.67 309.60 46.99 308.56 46.65 308.04 C 47.25 305.25 48.46 302.66 49.42 299.99 C 49.61 297.18 49.46 294.24 50.87 291.70 C 53.43 291.00 54.08 293.97 55.52 295.39 C 57.08 298.09 60.55 297.82 63.18 298.62 C 67.04 296.44 70.76 294.00 73.92 290.86 C 76.93 289.36 79.40 287.05 82.18 285.21 Z" />
<path fill="#ffffff" d=" M 87.97 282.10 C 92.64 282.35 94.71 287.39 98.80 289.05 C 100.03 291.44 99.46 294.09 99.65 296.65 C 102.15 303.40 104.44 310.25 106.27 317.22 C 105.91 319.20 105.58 321.19 105.19 323.17 C 103.94 325.87 102.15 328.27 100.60 330.81 C 104.40 337.62 102.02 345.81 99.81 352.78 C 99.53 358.13 100.12 364.04 96.95 368.70 C 94.98 371.33 94.25 374.57 93.35 377.66 C 92.54 377.49 91.74 377.33 90.93 377.17 C 90.41 375.39 89.86 373.62 89.31 371.85 C 84.68 370.72 79.34 371.35 75.72 374.67 C 74.82 377.55 75.41 380.74 74.40 383.57 C 73.03 385.02 71.33 386.09 69.80 387.35 C 68.24 387.41 66.69 387.48 65.14 387.56 C 60.46 383.94 58.15 378.51 55.74 373.30 C 54.31 366.24 55.37 358.89 58.52 352.42 C 59.80 350.37 62.35 348.48 61.24 345.77 C 61.05 343.49 58.70 343.03 56.92 342.46 C 55.56 338.63 59.45 336.45 61.71 334.11 C 61.24 330.64 61.31 326.81 59.14 323.88 C 56.50 320.26 58.09 315.13 55.52 311.48 C 53.88 309.85 51.38 309.54 49.55 308.15 C 48.95 306.50 50.04 304.94 50.51 303.41 C 51.55 300.95 51.97 298.31 52.35 295.69 C 53.55 296.84 54.74 298.01 55.92 299.19 C 58.61 299.66 61.25 300.61 64.01 300.47 C 68.59 298.60 71.90 294.69 76.05 292.12 C 80.48 289.39 85.01 286.48 87.97 282.10 Z" />
<path fill="#040404" d=" M 51.18 288.07 C 52.90 286.52 54.72 284.87 57.22 285.36 C 57.20 286.27 57.19 287.18 57.17 288.10 C 55.10 288.74 52.13 291.27 51.18 288.07 Z" />
<path fill="#1a1a1a" d=" M 311.52 291.93 C 316.68 291.39 322.03 290.57 327.02 292.52 C 328.29 294.73 329.71 296.85 331.02 299.03 C 334.43 301.22 337.43 303.95 340.61 306.46 C 344.55 309.59 351.93 307.51 353.32 313.62 L 351.38 312.74 C 348.11 309.30 342.64 310.99 339.21 307.85 C 336.61 305.70 334.37 303.13 331.50 301.32 C 328.55 299.53 327.84 295.67 325.04 293.77 C 323.31 293.21 321.52 292.83 319.71 292.79 C 316.42 292.44 312.90 293.80 309.85 292.11 L 311.52 291.93 Z" />
<path fill="#ffffff" d=" M 313.95 297.15 C 313.59 293.61 317.05 293.16 319.71 292.79 C 321.52 292.83 323.31 293.21 325.04 293.77 C 327.84 295.67 328.55 299.53 331.50 301.32 C 334.37 303.13 336.61 305.70 339.21 307.85 C 342.64 310.99 348.11 309.30 351.38 312.74 C 351.95 315.22 352.39 317.74 352.76 320.26 C 354.43 321.61 356.12 322.93 357.84 324.23 C 356.11 329.22 352.83 333.46 350.99 338.41 C 348.89 338.44 346.79 338.46 344.69 338.48 C 343.47 340.69 342.56 343.09 341.10 345.17 C 339.42 346.75 336.95 346.81 334.86 347.48 C 333.15 345.66 331.41 343.84 329.27 342.53 C 325.97 343.35 322.49 345.47 319.08 343.87 C 316.92 343.87 317.10 341.53 316.58 340.05 C 318.86 337.03 320.53 333.46 319.49 329.61 C 318.49 328.82 317.49 328.04 316.48 327.28 C 315.17 324.40 313.79 321.50 311.47 319.28 C 311.82 316.72 311.71 314.09 310.56 311.74 C 309.54 311.28 308.52 310.81 307.51 310.34 C 307.51 309.44 307.51 307.64 307.50 306.73 C 308.65 305.33 309.98 304.09 311.46 303.05 C 312.41 301.13 313.22 299.16 313.95 297.15 Z" />
<path fill="#040404" d=" M 249.25 311.98 C 249.31 310.54 249.75 309.20 250.77 308.15 C 251.41 308.34 252.69 308.72 253.34 308.92 C 253.72 310.02 254.13 311.13 254.55 312.23 C 253.68 312.66 252.82 313.10 251.96 313.54 C 251.05 313.02 250.15 312.50 249.25 311.98 Z" />
<path fill="#4c4c4c" d=" M 106.67 310.96 C 108.53 314.12 108.88 317.82 108.06 321.35 L 107.50 320.46 L 106.96 319.56 C 106.36 320.75 105.77 321.96 105.19 323.17 C 105.58 321.19 105.91 319.20 106.27 317.22 C 106.39 316.68 106.64 315.59 106.77 315.04 C 106.81 313.68 106.75 312.32 106.67 310.96 Z" />
<path fill="#060606" d=" M 262.87 317.55 C 263.80 317.48 264.73 317.41 265.66 317.35 C 265.70 319.02 265.65 320.69 265.52 322.36 C 264.69 322.32 263.86 322.27 263.03 322.23 C 262.66 321.69 261.91 320.60 261.53 320.05 C 261.87 319.43 262.53 318.18 262.87 317.55 Z" />
<path fill="#ffffff" d=" M 343.04 346.10 C 343.78 343.66 344.64 341.19 346.50 339.36 C 347.31 339.69 348.94 340.35 349.75 340.69 C 349.20 343.78 348.73 346.93 347.68 349.92 C 347.36 352.70 347.24 355.51 347.42 358.32 C 348.47 359.34 349.53 360.37 350.60 361.39 C 353.74 360.90 356.34 362.61 358.84 364.22 C 362.47 365.52 366.03 367.41 368.55 370.42 C 370.19 374.85 368.26 379.91 370.76 384.10 C 371.55 385.92 372.10 387.85 372.54 389.79 C 368.38 389.40 364.13 389.33 360.17 390.86 C 356.35 391.71 353.98 395.03 351.48 397.75 C 348.49 402.46 350.61 407.93 350.48 413.06 C 350.72 414.82 349.04 415.85 347.93 416.88 C 344.14 419.71 340.86 423.19 338.10 427.02 C 335.83 430.10 335.10 433.93 333.57 437.38 C 332.69 437.65 331.81 437.93 330.95 438.22 C 327.17 437.48 323.28 437.98 319.52 437.10 C 319.03 434.72 318.68 432.32 318.64 429.90 C 318.88 429.35 319.37 428.24 319.62 427.68 C 326.75 423.59 328.52 413.32 324.52 406.51 C 328.11 403.24 333.10 402.63 337.20 400.25 C 337.53 395.80 338.92 390.92 336.02 386.98 C 335.64 386.03 335.27 385.09 334.90 384.15 C 333.14 379.12 331.13 374.16 330.06 368.92 C 329.46 367.14 328.93 365.33 328.34 363.55 C 327.74 363.50 326.55 363.40 325.95 363.35 C 325.62 362.83 324.97 361.79 324.64 361.27 C 322.32 357.83 322.60 353.63 321.69 349.75 C 321.95 348.49 322.25 347.24 322.55 345.99 C 325.46 345.23 328.47 343.84 331.37 345.42 C 331.85 346.38 332.34 347.34 332.83 348.30 C 336.47 349.48 339.96 348.00 343.04 346.10 Z" />
<path fill="#030303" d=" M 46.63 372.60 C 47.81 372.09 49.08 372.44 50.29 372.58 C 50.38 373.49 50.48 374.41 50.57 375.33 C 49.40 376.01 48.40 378.50 46.88 377.18 C 45.99 375.78 46.04 374.10 46.63 372.60 Z" />
<path fill="#cfcfcf" d=" M 314.05 374.10 C 317.38 374.28 312.46 377.05 314.05 374.10 Z" />
<path fill="#656565" d=" M 53.12 378.56 C 56.46 378.77 51.52 381.51 53.12 378.56 Z" />
<path fill="#1a1a1a" d=" M 299.15 401.34 C 299.54 399.62 300.78 398.51 302.34 397.82 C 302.29 399.00 302.22 400.20 302.16 401.39 C 301.15 401.38 300.15 401.36 299.15 401.34 Z" />
<path fill="#1a1a1a" d=" M 285.40 408.41 C 286.27 408.54 287.14 408.72 288.01 408.94 C 287.74 410.03 287.43 411.12 287.09 412.20 C 286.50 410.94 285.94 409.67 285.40 408.41 Z" />
<path fill="#4c4c4c" d=" M 290.14 412.04 C 291.61 410.77 293.21 413.39 291.72 414.37 C 290.26 415.61 288.69 413.03 290.14 412.04 Z" />
<path fill="#1a1a1a" d=" M 291.98 416.90 C 293.58 416.38 294.14 416.93 293.65 418.57 C 292.02 419.07 291.46 418.51 291.98 416.90 Z" />
<path fill="#040404" d=" M 305.86 424.40 C 308.89 423.19 311.98 422.01 315.23 421.52 C 316.25 423.28 315.67 425.37 315.17 427.20 C 313.40 431.88 310.95 436.27 308.78 440.77 C 306.63 445.09 302.38 448.81 302.59 453.98 C 302.88 456.95 300.64 459.32 299.65 461.98 C 299.62 462.72 299.56 464.22 299.54 464.96 C 302.61 467.52 305.68 470.70 304.80 475.08 C 305.41 476.39 306.69 477.56 306.41 479.15 C 304.75 482.43 302.61 485.44 300.82 488.65 C 300.93 492.24 299.96 495.68 298.41 498.89 C 295.28 498.94 292.85 496.98 290.15 495.76 C 285.86 497.73 281.51 495.37 277.77 493.25 C 275.63 492.05 274.63 489.69 273.08 487.91 C 269.85 484.71 266.13 482.05 262.22 479.74 C 259.83 479.92 257.41 479.77 255.19 478.82 C 253.76 478.64 252.32 478.49 250.89 478.37 C 247.95 477.07 245.27 475.20 243.24 472.69 C 239.01 471.43 234.62 469.94 231.83 466.28 C 229.45 463.06 225.86 461.26 222.27 459.75 C 218.82 457.43 214.42 457.89 210.73 456.15 C 208.98 455.64 207.18 455.41 205.38 455.27 C 201.60 453.29 197.76 449.88 198.56 445.13 C 200.97 442.69 200.91 439.19 201.54 436.04 C 203.65 432.12 207.96 430.65 211.03 427.71 C 211.84 427.64 213.45 427.51 214.26 427.44 C 215.34 429.42 216.17 431.51 216.91 433.64 C 218.79 433.14 220.67 432.63 222.58 432.24 C 222.93 430.34 223.27 428.45 223.60 426.55 C 226.68 426.04 229.76 425.53 232.90 425.54 C 234.37 427.26 235.44 429.66 237.82 430.30 C 241.28 431.44 243.94 434.02 247.12 435.69 C 253.60 436.30 259.96 434.39 266.29 433.28 C 267.44 432.77 268.61 432.29 269.76 431.78 C 273.60 431.61 277.52 431.27 281.14 429.88 C 284.30 428.62 287.14 426.03 290.76 426.57 C 292.63 427.80 294.95 427.71 297.01 427.11 C 298.61 426.14 299.02 424.16 300.11 422.76 C 302.21 421.88 304.00 423.73 305.86 424.40 Z" />
<path fill="#ffffff" d=" M 307.98 426.47 C 309.51 425.64 311.06 424.87 312.64 424.14 C 312.57 425.15 312.43 427.17 312.37 428.18 C 310.83 431.36 309.33 434.56 307.85 437.76 C 305.19 443.16 300.19 447.64 299.80 453.97 C 299.69 457.85 296.77 461.28 297.65 465.26 C 298.67 467.78 301.25 469.34 302.22 471.82 C 302.11 474.34 302.57 476.78 303.34 479.17 C 301.89 482.45 299.19 485.19 298.59 488.83 C 298.03 491.12 298.48 494.11 296.14 495.51 C 293.53 494.46 290.98 493.23 288.19 492.72 C 285.79 494.46 283.19 492.86 280.72 492.26 C 277.98 490.33 275.92 487.71 273.98 485.02 C 270.60 482.22 267.20 479.30 263.10 477.58 C 259.00 477.82 255.04 476.57 251.10 475.63 C 248.73 475.11 247.36 472.87 245.38 471.67 C 243.33 470.49 241.08 469.74 238.93 468.78 C 237.30 467.89 235.71 466.93 234.11 466.00 C 231.15 460.50 225.00 458.94 220.11 455.77 C 215.30 455.66 210.79 453.90 206.19 452.75 C 203.35 452.03 201.89 449.42 200.47 447.12 C 201.55 444.78 203.22 442.60 203.33 439.94 C 203.28 437.60 204.70 435.73 205.91 433.88 C 207.26 433.33 208.61 432.75 209.95 432.17 C 210.96 431.32 211.95 430.37 213.23 429.93 C 214.17 431.73 214.20 434.13 215.94 435.45 C 219.30 435.69 223.17 435.51 225.48 432.70 C 225.48 431.39 225.49 430.08 225.50 428.78 C 227.45 428.50 229.40 428.16 231.31 427.64 C 232.26 428.65 233.21 429.66 234.15 430.70 C 235.24 431.65 236.39 432.53 237.58 433.37 C 238.19 433.40 239.41 433.45 240.02 433.48 C 243.03 435.56 246.15 438.25 250.08 437.83 C 259.57 436.98 268.81 434.34 278.26 433.13 C 282.77 432.66 286.34 428.21 291.06 429.41 C 294.11 430.16 297.18 429.19 300.06 428.20 C 300.50 427.23 300.97 426.28 301.49 425.35 C 303.62 425.87 305.77 426.43 307.98 426.47 Z" />
<path fill="#070707" d=" M 184.06 435.23 C 185.19 435.25 186.33 435.33 187.46 435.50 C 187.75 436.53 187.83 437.58 187.69 438.66 C 185.26 439.54 184.84 436.85 184.06 435.23 Z" />
<path fill="#0a0a0a" d=" M 195.52 435.04 C 196.92 435.25 198.73 435.15 198.38 437.26 C 197.45 437.51 196.51 437.75 195.57 437.96 C 195.56 437.23 195.53 435.77 195.52 435.04 Z" />
<path fill="#4c4c4c" d=" M 193.35 438.81 C 194.44 437.31 196.72 439.18 195.55 440.58 C 194.51 442.17 192.18 440.15 193.35 438.81 Z" />
</svg>
