<?xml version="1.0" encoding="UTF-8" ?>
<!DOCTYPE svg PUBLIC "-//W3C//DTD SVG 1.1//EN" "http://www.w3.org/Graphics/SVG/1.1/DTD/svg11.dtd">
<svg width="523pt" height="624pt" viewBox="0 0 523 624" version="1.1" xmlns="http://www.w3.org/2000/svg">
<path fill="#ffffff" d=" M 0.00 0.00 L 523.00 0.00 L 523.00 624.00 L 0.00 624.00 L 0.00 0.00 Z" />
<path fill="#000000" d=" M 231.19 33.34 C 234.71 32.66 238.12 31.33 241.74 31.23 C 242.14 31.61 242.93 32.36 243.33 32.73 C 243.30 35.47 243.30 38.20 243.16 40.93 C 246.73 43.02 248.55 46.83 251.07 49.93 C 254.27 52.44 257.76 55.00 261.87 55.70 C 273.45 57.83 284.87 60.88 296.59 62.17 C 298.17 63.13 301.26 63.31 300.87 65.78 C 301.59 71.65 294.76 73.54 291.83 77.41 C 292.03 77.94 292.41 79.00 292.60 79.52 C 294.25 80.97 296.09 82.45 296.89 84.57 C 297.01 86.97 296.62 89.35 296.30 91.71 C 297.92 93.55 299.29 95.59 300.81 97.51 C 300.64 99.31 300.26 101.09 300.23 102.89 C 302.89 106.28 306.71 108.44 309.73 111.46 C 311.87 113.48 309.45 116.27 309.99 118.75 C 309.71 119.39 309.15 120.68 308.87 121.32 C 307.94 121.47 307.01 121.63 306.08 121.78 C 304.99 121.62 303.88 121.68 302.81 121.96 C 300.36 118.89 301.36 114.18 297.69 111.82 C 296.80 111.51 295.92 111.19 295.04 110.87 C 293.20 112.45 291.59 115.26 288.78 114.78 C 286.38 113.83 284.19 112.44 281.89 111.29 C 280.03 112.23 278.95 114.04 277.38 115.31 C 275.82 116.60 273.53 116.21 271.94 117.42 C 270.49 119.49 269.95 122.33 267.65 123.69 C 263.59 125.14 259.55 127.55 255.06 126.84 C 253.19 126.54 254.06 123.91 253.58 122.64 C 249.72 125.42 246.77 129.26 245.41 133.85 C 247.25 137.57 247.95 142.01 251.05 144.99 C 252.91 146.80 253.66 149.32 254.28 151.77 C 253.93 154.07 253.73 156.40 253.12 158.65 C 251.33 159.31 249.05 159.27 247.77 160.88 C 247.31 167.11 250.03 173.01 250.06 179.25 C 250.67 181.65 251.04 184.09 251.39 186.53 C 251.47 187.91 251.21 189.52 252.45 190.50 C 255.62 194.00 259.97 196.47 262.23 200.75 C 263.25 202.78 264.64 204.60 266.35 206.12 C 269.50 206.79 271.35 209.43 273.09 211.90 C 278.09 216.35 281.89 222.51 288.55 224.72 C 292.39 228.06 298.37 228.24 301.14 232.82 C 303.87 237.85 304.90 243.65 307.92 248.55 C 309.61 250.88 309.45 253.91 310.54 256.49 C 313.32 263.03 315.72 269.75 318.84 276.14 C 320.88 278.75 322.99 281.32 325.05 283.92 C 329.62 287.69 334.00 291.65 337.74 296.27 C 342.91 300.43 345.97 306.99 352.22 309.79 C 356.22 311.41 359.83 313.94 364.00 315.15 C 366.91 315.71 369.90 315.26 372.75 314.53 C 377.49 313.49 382.26 315.18 387.03 314.78 C 391.56 314.64 396.25 312.76 400.57 314.95 C 401.85 316.12 403.16 317.27 404.51 318.38 C 405.15 319.33 405.82 320.28 406.51 321.21 C 406.39 322.41 406.28 323.62 406.18 324.83 C 402.43 327.69 397.91 329.54 394.72 333.11 C 394.49 334.54 394.52 336.26 395.98 337.04 C 401.65 341.45 407.90 345.18 414.88 347.09 C 422.08 350.92 430.01 353.17 437.12 357.18 C 439.95 357.43 443.10 356.91 445.39 359.06 C 449.90 362.71 454.50 366.29 458.64 370.35 C 461.60 372.92 465.54 373.76 469.04 375.33 C 472.97 377.09 477.63 377.12 481.14 379.81 C 483.91 382.42 485.68 385.96 488.78 388.27 C 493.06 394.73 500.09 399.15 503.32 406.37 C 503.98 409.31 505.33 412.39 504.38 415.42 C 502.29 419.88 503.05 425.18 500.14 429.33 C 495.97 429.62 493.26 426.06 489.81 424.46 C 485.07 422.91 481.18 419.06 479.44 414.41 C 477.62 411.24 474.72 408.78 473.34 405.35 C 470.79 403.89 467.82 404.45 465.04 404.13 C 462.67 403.23 460.79 401.33 458.21 400.92 C 459.11 400.13 460.01 399.34 460.98 398.63 C 463.13 400.72 466.20 402.53 469.31 401.67 C 471.05 402.13 473.12 402.10 474.43 403.52 C 477.88 407.70 481.13 412.06 483.42 417.01 C 486.23 419.24 488.75 422.30 492.58 422.65 C 494.62 423.90 496.55 425.32 498.46 426.78 C 498.43 421.82 501.66 417.80 501.89 412.92 C 501.69 408.77 499.63 405.02 497.18 401.77 C 493.87 397.43 488.88 394.75 485.96 390.07 C 483.25 387.64 481.72 384.28 479.45 381.56 C 472.46 379.24 465.48 376.81 458.54 374.36 C 453.96 369.31 448.75 364.82 443.11 360.95 C 440.75 360.48 438.29 360.50 436.02 359.62 C 428.73 355.53 420.56 353.33 413.09 349.60 C 406.02 347.98 400.40 343.23 394.30 339.60 C 392.82 337.33 392.18 334.76 391.92 332.10 C 394.71 328.06 399.49 326.18 403.19 323.13 C 404.01 322.30 403.64 321.04 402.80 320.39 C 400.87 318.59 398.48 317.26 395.94 316.58 C 389.61 316.79 383.27 317.78 376.97 316.92 C 372.19 316.77 367.57 318.61 362.76 318.14 C 361.15 320.93 361.66 324.05 362.12 327.06 C 362.37 331.56 355.06 331.48 356.00 336.27 C 357.01 340.75 360.32 344.40 363.44 347.61 C 366.67 349.16 368.10 352.45 369.41 355.58 C 372.94 357.66 376.97 359.08 381.03 359.55 C 386.15 357.97 391.89 357.80 396.84 360.05 C 398.09 361.76 399.11 363.63 400.41 365.31 C 401.20 366.92 402.21 368.46 403.93 369.19 C 408.08 371.45 410.82 375.70 415.20 377.58 C 418.69 379.31 422.90 378.54 426.11 380.98 C 427.77 384.05 429.20 387.38 428.95 390.96 C 430.84 392.28 432.69 394.29 435.12 394.32 C 437.15 392.53 439.17 390.72 441.53 389.35 C 443.45 389.49 445.76 388.85 447.29 390.39 C 448.47 391.82 449.44 393.41 450.36 395.02 C 451.08 395.48 451.80 395.95 452.52 396.42 C 454.52 396.61 456.51 397.07 458.35 397.92 C 459.32 398.54 458.21 399.85 458.25 400.74 C 454.45 399.90 451.00 398.13 447.64 396.23 C 447.39 395.83 446.88 395.04 446.63 394.64 C 446.08 394.26 444.97 393.49 444.42 393.11 C 439.82 393.09 436.48 397.00 434.71 400.87 C 430.67 408.53 425.18 416.05 424.86 425.01 C 424.08 428.25 423.09 431.45 423.30 434.83 C 424.38 435.93 425.12 437.84 426.94 437.82 C 430.90 437.80 433.60 441.08 436.98 442.67 C 441.35 443.75 445.68 446.17 448.14 450.04 C 450.02 454.98 447.28 460.78 450.29 465.47 C 452.65 469.19 453.94 474.04 451.05 477.90 C 448.60 477.85 446.26 477.15 443.88 476.70 C 439.87 477.27 435.85 478.37 432.31 480.39 C 429.65 482.32 427.72 485.05 426.02 487.82 C 426.15 488.53 426.43 489.95 426.56 490.65 C 425.97 495.08 428.84 499.60 426.61 503.81 C 425.88 506.25 423.44 507.45 421.58 508.91 C 417.53 511.73 414.75 515.88 411.49 519.49 C 409.98 522.42 408.80 525.57 408.36 528.86 C 406.51 532.84 401.83 533.56 397.90 532.93 C 393.64 532.30 388.84 532.74 385.16 530.16 C 384.14 526.07 384.22 521.92 384.83 517.79 C 386.85 515.62 388.91 513.42 391.57 512.05 C 392.38 510.10 393.39 508.25 394.10 506.28 C 393.76 503.39 393.50 500.51 393.53 497.61 C 392.02 495.75 390.97 492.93 392.88 490.95 C 396.11 487.44 401.33 487.27 405.54 485.53 C 407.31 482.51 407.95 478.56 406.62 475.27 C 404.29 469.59 402.29 463.79 400.10 458.06 C 398.71 452.38 398.55 444.50 392.19 441.97 C 390.09 438.07 389.76 433.58 388.62 429.37 C 389.46 428.58 390.30 427.79 391.13 427.01 C 391.58 431.94 391.63 437.23 394.82 441.33 C 395.41 443.03 397.29 442.98 398.73 443.44 C 401.90 453.87 404.39 464.64 409.47 474.35 C 409.58 474.91 409.79 476.04 409.90 476.60 C 409.62 479.81 409.28 483.02 408.71 486.21 C 404.14 489.39 397.55 489.23 394.06 493.94 C 394.48 494.50 395.33 495.62 395.75 496.18 C 396.20 500.64 397.55 505.91 394.98 509.89 C 394.43 513.72 391.37 516.32 388.19 518.12 C 387.11 521.66 387.27 525.47 388.07 529.06 C 392.41 530.82 397.10 529.94 401.62 530.60 C 402.46 530.34 404.16 529.82 405.00 529.56 C 405.66 527.57 406.39 525.61 406.99 523.62 C 409.89 514.76 417.90 509.18 424.23 502.91 C 425.66 496.76 421.63 489.95 425.34 484.19 C 428.12 480.36 431.23 476.09 436.18 475.11 C 440.62 473.48 445.32 473.17 449.94 474.17 C 450.31 470.19 447.97 466.78 446.59 463.24 C 446.80 459.34 446.09 455.45 446.48 451.57 C 443.15 448.66 439.70 445.61 435.35 444.39 C 431.95 442.81 428.90 439.67 424.82 440.72 C 423.20 439.09 420.99 437.65 420.69 435.17 C 420.44 432.36 421.00 429.58 421.27 426.80 C 421.52 426.45 422.01 425.76 422.25 425.42 C 422.06 422.19 423.51 419.21 423.63 416.02 C 422.16 415.61 420.65 415.32 419.15 415.14 C 417.44 417.31 417.02 420.14 415.55 422.42 C 412.49 425.19 408.05 426.59 404.04 425.16 C 402.98 423.20 401.66 421.19 399.28 420.81 C 396.49 420.91 393.92 422.07 391.35 423.03 C 391.25 423.94 391.04 425.76 390.94 426.67 C 390.11 426.64 389.29 426.61 388.47 426.53 C 389.33 422.83 384.87 421.44 382.06 420.78 C 378.22 421.39 374.40 423.50 370.47 422.29 C 365.22 420.26 363.38 413.81 357.82 412.28 C 355.99 411.98 354.88 410.70 354.20 409.07 C 354.85 407.09 354.79 405.00 354.84 402.95 C 355.27 398.56 352.61 394.76 350.91 390.92 C 350.02 387.74 346.42 387.25 343.92 385.87 C 340.19 388.81 335.41 388.50 330.93 388.15 C 326.72 386.21 332.91 383.51 332.28 380.78 C 330.09 378.62 326.89 377.80 323.91 377.72 C 320.94 377.54 318.15 376.38 315.32 375.58 C 313.46 369.90 310.38 364.81 307.28 359.76 C 304.62 355.62 299.11 355.01 294.63 355.04 C 290.46 353.55 286.52 350.99 281.98 350.77 C 279.40 351.09 276.81 351.33 274.21 351.29 C 271.68 349.68 269.32 347.83 267.23 345.67 C 264.43 342.77 260.05 342.70 256.93 340.34 C 254.15 337.72 251.51 334.93 249.19 331.89 C 246.50 328.51 242.17 326.43 240.56 322.26 C 238.68 318.45 235.13 315.89 232.35 312.80 C 230.41 310.58 227.61 309.58 225.20 308.02 C 221.55 303.53 218.21 298.79 214.58 294.29 C 211.73 291.82 207.83 291.28 204.65 289.38 C 201.92 289.63 198.94 290.46 196.71 288.35 C 193.31 285.77 198.71 281.75 196.24 278.78 C 192.45 273.66 188.36 268.57 183.09 264.89 C 181.16 263.84 181.60 261.23 180.26 259.72 C 178.91 257.77 176.28 258.61 174.28 258.15 C 174.38 253.81 173.35 249.52 173.68 245.17 C 174.14 240.73 171.18 237.10 170.07 233.00 C 165.34 230.68 161.98 224.98 163.55 219.77 C 163.58 217.96 163.83 216.13 163.54 214.35 C 161.55 210.98 158.82 208.09 157.21 204.49 C 155.18 200.79 151.24 198.53 146.98 199.27 C 139.73 194.02 133.76 186.12 124.37 184.65 C 122.76 182.78 121.33 180.44 118.62 180.22 C 116.62 178.45 113.97 177.94 111.47 177.33 C 106.86 179.39 101.31 179.85 97.69 183.72 C 95.76 185.85 93.74 187.97 91.11 189.24 C 85.95 191.52 85.35 198.08 81.15 201.39 C 76.28 203.74 69.73 202.30 66.05 206.92 C 64.30 209.01 61.76 209.98 59.16 210.53 C 56.33 208.41 54.62 205.02 55.52 201.45 C 57.00 198.88 58.80 196.52 60.49 194.09 C 60.41 192.44 59.73 190.92 59.29 189.36 C 54.33 189.89 49.26 189.53 44.43 188.32 C 39.20 186.19 38.68 179.73 34.80 176.21 C 31.77 173.71 30.39 169.84 29.78 166.09 C 30.94 163.30 32.24 160.57 33.07 157.65 C 33.62 155.36 36.76 154.31 36.18 151.65 C 35.17 150.12 33.80 148.86 32.69 147.40 C 31.00 144.63 27.28 143.58 26.61 140.12 C 27.41 138.09 27.55 135.82 26.64 133.80 C 28.04 131.43 30.24 129.79 32.92 129.17 C 38.97 127.41 43.46 122.14 44.47 115.95 C 43.32 113.18 40.32 111.89 38.44 109.68 C 37.13 103.37 33.49 97.36 34.38 90.68 C 36.01 89.95 37.59 89.10 39.27 88.46 C 42.53 87.61 45.81 88.88 49.09 88.82 C 54.36 88.02 59.67 86.94 65.02 87.27 C 68.64 87.90 72.32 87.90 75.97 87.54 C 79.25 84.98 81.91 81.72 84.28 78.33 C 85.91 75.10 86.66 71.50 88.14 68.22 C 89.99 65.23 93.72 64.42 96.27 62.21 C 98.13 60.40 100.70 61.49 102.85 62.04 C 103.06 67.29 103.33 72.55 104.27 77.73 C 105.66 79.54 109.26 78.42 109.79 81.16 C 110.49 83.56 112.27 85.30 114.10 86.88 C 116.08 88.39 116.59 90.95 117.59 93.10 C 122.09 90.69 117.93 85.40 120.89 82.03 C 123.24 80.18 124.07 77.16 125.51 74.65 C 127.47 70.61 131.31 66.94 130.59 62.07 C 131.64 58.84 135.39 59.31 138.01 58.34 C 138.45 58.89 139.33 59.98 139.77 60.52 C 140.71 63.27 141.40 66.11 141.10 69.04 C 143.32 70.58 145.99 70.79 148.61 70.63 C 149.27 69.87 149.94 69.11 150.61 68.36 C 155.44 67.14 157.39 72.04 159.99 74.96 C 160.28 74.23 160.86 72.79 161.15 72.07 C 159.92 69.11 159.63 65.91 159.89 62.73 C 159.51 62.28 158.75 61.38 158.37 60.93 C 159.46 59.27 160.77 57.75 162.21 56.38 C 163.87 55.82 165.49 55.17 167.11 54.50 C 168.53 55.05 169.93 55.66 171.30 56.35 C 171.74 56.02 172.63 55.34 173.07 55.00 C 173.61 51.70 174.20 48.40 174.29 45.06 C 174.89 44.36 175.50 43.66 176.10 42.96 C 179.09 42.99 182.09 42.93 185.05 42.49 C 187.71 42.02 189.41 44.91 191.92 45.17 C 194.73 45.15 197.63 44.59 200.02 43.03 C 203.50 40.72 207.30 38.93 210.92 36.85 C 215.46 35.20 220.31 36.06 224.99 36.36 C 227.52 36.61 229.16 34.42 231.19 33.34 Z" />
<path fill="#ffffff" d=" M 225.24 39.75 C 228.89 38.54 232.01 36.13 235.80 35.25 C 237.15 35.11 238.51 34.96 239.87 34.80 C 240.14 37.44 239.26 40.54 241.12 42.76 C 242.12 44.39 243.80 45.35 245.20 46.59 C 247.17 49.22 248.55 52.35 251.34 54.27 C 249.22 58.16 243.70 60.37 239.77 57.80 C 237.80 56.50 235.91 58.27 234.05 58.88 C 234.01 60.61 233.47 62.21 232.49 63.63 C 229.98 63.67 228.66 65.66 227.68 67.69 C 228.31 73.45 230.28 79.04 229.88 84.88 C 226.53 87.58 221.04 88.57 220.54 93.70 C 218.45 94.82 216.10 95.14 214.09 93.67 C 212.02 94.65 209.96 95.89 209.18 98.18 C 207.10 98.91 205.06 99.76 203.13 100.84 C 202.43 102.67 201.93 104.59 200.98 106.32 C 199.63 106.46 198.29 106.56 196.94 106.61 C 196.74 105.88 196.33 104.44 196.12 103.71 C 195.31 103.13 194.50 102.55 193.69 101.97 C 193.28 102.20 192.45 102.67 192.03 102.91 C 189.65 99.65 185.49 99.60 181.89 98.86 C 180.93 99.27 179.97 99.67 179.01 100.08 C 178.53 99.12 178.06 98.16 177.58 97.20 C 177.89 94.67 178.05 91.87 180.16 90.09 C 180.79 86.16 181.31 82.09 180.28 78.18 C 178.87 73.98 182.23 69.73 180.14 65.56 C 178.56 63.42 177.09 61.20 175.44 59.11 C 175.42 55.37 176.95 51.68 176.17 47.91 C 178.35 45.36 182.12 45.80 185.16 45.71 C 186.54 45.36 187.37 46.64 188.38 47.29 C 193.04 48.69 198.23 47.84 201.97 44.66 C 205.24 43.21 208.57 41.80 211.51 39.72 C 216.05 38.89 220.70 38.90 225.24 39.75 Z" />
<path fill="#ffffff" d=" M 243.34 61.56 C 247.33 60.17 251.01 58.10 254.51 55.76 C 257.07 57.00 259.75 57.96 262.29 59.25 C 262.59 64.94 258.59 70.30 252.77 70.86 C 251.24 74.87 249.86 78.94 248.60 83.04 C 249.49 84.83 250.57 86.52 251.40 88.34 C 251.94 91.20 249.86 94.51 251.96 96.99 C 254.37 100.37 256.70 103.86 259.74 106.71 C 263.03 105.94 266.34 105.15 269.75 105.31 C 271.32 107.62 272.48 110.20 274.63 112.09 C 274.73 112.48 274.95 113.25 275.06 113.64 C 274.21 113.64 272.50 113.64 271.65 113.64 C 269.68 115.46 268.62 117.93 267.11 120.08 C 264.21 121.76 260.99 122.99 257.75 123.89 C 257.29 122.16 258.51 119.57 256.62 118.45 C 255.60 117.49 254.10 118.52 253.08 118.97 C 248.66 121.55 245.79 125.91 243.53 130.37 C 242.59 132.19 242.73 134.27 242.72 136.26 C 245.21 139.97 245.76 144.96 249.64 147.64 C 251.66 150.12 251.05 153.53 250.16 156.36 C 246.67 156.96 247.19 152.71 244.78 151.33 C 240.38 150.61 235.96 150.00 231.57 149.24 C 226.99 148.89 222.65 151.05 218.07 150.74 C 214.86 150.56 210.67 151.49 208.55 148.39 C 206.52 145.51 202.68 145.09 200.46 142.45 C 198.29 140.27 195.40 138.81 193.91 136.02 C 192.34 133.42 190.11 131.40 187.61 129.73 C 187.32 127.97 187.02 126.22 186.74 124.47 C 184.73 121.91 183.22 117.99 185.16 114.99 C 186.85 111.59 189.41 108.70 190.94 105.21 C 191.72 105.07 193.29 104.79 194.07 104.65 C 194.63 106.02 195.19 107.39 195.79 108.75 C 197.75 108.70 199.71 108.80 201.66 108.58 C 203.95 107.69 203.95 104.75 204.32 102.72 C 205.95 101.44 207.85 100.62 209.81 99.98 C 210.84 98.28 212.30 96.95 213.99 95.92 C 216.83 97.12 219.73 96.46 222.10 94.62 C 222.50 93.30 222.98 92.01 223.48 90.73 C 224.76 90.04 225.97 89.22 227.14 88.34 C 227.61 88.31 228.56 88.24 229.04 88.21 C 229.88 87.67 230.73 87.13 231.59 86.60 C 233.30 81.04 230.61 75.45 229.88 69.94 C 228.70 67.18 231.76 65.58 234.02 65.34 C 235.04 63.61 235.75 61.72 235.77 59.68 C 238.53 58.97 240.99 60.29 243.34 61.56 Z" />
<path fill="#ffffff" d=" M 164.24 57.93 C 165.46 58.44 166.59 58.24 167.56 57.36 C 169.09 58.98 171.36 59.28 173.36 60.02 C 173.81 62.56 175.22 64.76 177.84 65.46 C 179.50 68.36 178.91 71.75 177.52 74.63 C 178.99 80.92 179.94 88.25 175.90 93.83 C 175.62 96.63 175.97 99.41 177.48 101.83 C 181.48 102.85 185.75 100.29 189.46 102.66 C 188.49 108.39 182.74 112.19 182.10 117.95 C 183.38 122.96 185.13 127.88 187.02 132.70 C 189.23 133.90 191.41 135.48 192.35 137.93 C 193.44 140.64 196.59 141.44 198.47 143.48 C 200.58 145.82 203.45 147.19 205.84 149.20 C 200.96 150.13 195.98 150.49 191.02 150.73 C 189.21 151.02 187.95 149.59 186.61 148.66 C 185.70 148.46 184.79 148.26 183.89 148.07 C 177.68 150.27 172.17 145.71 166.35 144.45 C 163.44 143.88 161.48 141.66 159.54 139.62 C 157.12 139.65 154.71 139.67 152.29 139.83 C 146.75 140.51 141.16 139.91 135.60 140.27 C 133.09 140.58 132.05 143.12 130.91 145.02 C 130.06 146.73 128.87 148.28 128.30 150.11 C 128.32 151.98 129.62 153.51 130.34 155.16 C 128.94 156.61 127.37 157.88 125.49 158.65 C 124.66 156.28 122.72 154.74 121.12 152.93 C 118.89 147.01 114.66 140.45 107.58 140.35 C 104.78 135.75 103.97 130.18 102.28 125.10 C 104.52 123.07 107.93 126.29 109.82 123.74 C 110.96 122.39 111.43 120.59 111.90 118.92 C 111.64 117.27 110.05 116.29 109.12 115.01 C 108.71 107.98 105.93 101.36 105.50 94.39 C 107.03 91.96 108.35 89.42 109.77 86.94 C 112.88 89.35 114.09 93.15 116.60 96.03 C 117.79 95.86 118.98 95.70 120.17 95.55 C 122.91 92.95 123.14 89.19 122.85 85.65 C 125.86 80.93 127.65 75.52 131.09 71.07 C 132.18 69.31 132.79 67.31 133.71 65.46 C 133.49 64.20 131.59 62.54 133.15 61.51 C 134.35 61.70 135.52 62.07 136.72 62.29 C 138.72 64.51 138.41 67.48 138.24 70.24 C 140.70 74.22 145.90 73.60 149.93 73.88 C 150.93 72.90 151.71 71.54 153.18 71.20 C 155.75 73.75 157.33 77.56 161.14 78.58 C 165.86 74.67 162.26 68.46 163.19 63.38 C 162.83 62.92 162.12 62.00 161.77 61.54 C 162.57 60.32 163.39 59.12 164.24 57.93 Z" />
<path fill="#ffffff" d=" M 262.76 65.13 C 263.68 63.17 263.69 60.57 265.78 59.39 C 270.99 60.52 276.23 61.53 281.37 62.99 C 287.18 63.66 292.93 64.77 298.67 65.90 C 297.59 71.87 288.19 72.44 289.12 79.14 C 289.20 82.19 292.51 83.41 294.34 85.38 C 294.19 87.31 294.01 89.26 293.46 91.13 C 294.11 93.79 295.76 95.98 297.45 98.08 C 297.44 100.22 297.44 102.36 297.43 104.50 C 300.29 108.04 304.00 110.69 307.42 113.64 C 307.40 115.19 307.39 116.74 307.39 118.29 C 306.29 118.48 305.19 118.65 304.08 118.82 C 303.60 116.88 303.73 114.79 302.91 112.95 C 301.42 111.13 299.50 109.72 297.70 108.23 C 296.13 108.14 294.58 108.02 293.03 107.87 C 291.95 109.31 290.82 113.09 288.49 111.53 C 286.25 109.75 283.62 108.69 280.88 107.97 C 279.51 108.67 278.16 109.41 276.83 110.16 C 274.04 108.60 272.44 105.79 270.77 103.20 C 266.61 102.46 262.65 105.06 258.59 103.78 C 257.24 100.96 255.25 98.54 253.23 96.20 C 252.24 93.08 253.61 89.81 253.28 86.61 C 252.23 85.21 250.73 83.86 250.97 81.93 C 251.71 78.86 253.02 75.95 254.02 72.96 C 255.80 72.06 257.57 71.16 259.35 70.27 C 260.53 68.59 262.08 67.11 262.76 65.13 Z" />
<path fill="#ffffff" d=" M 92.84 67.85 C 95.26 66.63 97.32 64.51 100.14 64.28 C 100.26 66.31 99.95 68.44 100.68 70.39 C 101.81 73.42 100.99 76.69 101.29 79.82 C 103.92 81.05 108.70 81.96 107.22 85.98 C 105.54 90.16 103.74 94.26 102.98 98.74 C 108.09 104.50 104.23 113.68 109.82 119.14 C 109.35 120.44 108.77 121.97 107.36 122.52 C 105.76 121.99 104.10 121.78 102.43 122.06 C 101.99 122.54 101.11 123.51 100.67 124.00 C 100.56 126.51 101.20 128.92 102.14 131.22 C 103.77 135.14 103.59 140.00 107.33 142.72 C 112.73 142.81 116.30 147.83 118.56 152.17 C 119.46 154.65 121.29 156.52 123.01 158.44 C 122.51 159.99 123.55 162.41 121.97 163.42 C 120.34 162.87 118.76 161.85 116.96 162.22 C 113.83 162.16 112.03 165.21 109.33 166.25 C 106.13 166.37 102.32 164.09 99.67 166.79 C 97.17 169.67 91.87 171.66 88.86 168.54 C 83.71 168.81 82.77 174.54 79.64 177.57 C 77.33 179.70 76.90 182.89 75.59 185.59 C 74.23 186.34 72.79 187.53 71.13 187.11 C 68.05 186.50 64.95 187.08 61.90 187.57 C 58.76 184.37 54.83 188.55 51.20 187.35 C 48.62 186.77 45.44 186.53 43.88 184.07 C 41.07 179.70 38.29 175.23 34.71 171.44 C 33.76 170.08 33.19 168.52 32.52 167.02 C 33.51 165.35 34.46 163.65 35.39 161.95 C 34.82 157.65 40.84 156.31 39.93 152.05 C 39.75 151.06 39.53 150.07 39.25 149.10 C 35.48 146.79 33.36 142.78 30.00 140.01 C 30.62 137.72 30.54 135.34 30.70 133.00 C 33.84 131.90 37.59 131.60 39.87 128.89 C 41.43 127.05 43.54 125.76 45.07 123.93 C 45.79 121.08 46.57 117.99 48.70 115.85 C 53.02 115.86 57.42 117.25 61.65 115.74 C 66.67 114.29 73.04 117.18 77.05 112.86 C 79.98 108.17 76.18 103.13 76.39 98.25 C 78.06 95.46 78.43 92.23 78.97 89.09 C 82.25 86.84 83.38 82.93 86.10 80.18 C 89.10 76.48 88.78 70.79 92.84 67.85 Z" />
<path fill="#317abd" d=" M 3.17 90.25 C 4.75 89.77 5.46 92.37 3.83 92.75 C 2.25 93.23 1.54 90.63 3.17 90.25 Z" />
<path fill="#ffffff" d=" M 49.21 92.00 C 55.04 90.43 61.15 89.00 67.20 90.32 C 70.30 91.01 73.53 89.60 76.56 90.65 C 76.47 94.62 74.08 98.18 74.73 102.26 C 75.20 103.34 75.68 104.43 76.17 105.50 C 75.98 107.69 76.75 110.66 74.87 112.26 C 71.41 113.62 67.49 114.20 63.85 113.24 C 58.70 115.19 53.33 113.84 48.04 113.65 C 45.43 111.91 43.17 109.74 40.78 107.74 C 39.34 103.89 39.25 99.67 37.53 95.93 C 36.78 94.78 37.51 93.48 37.78 92.32 C 41.49 90.38 45.35 91.98 49.21 92.00 Z" />
<path fill="#000000" d=" M 247.80 134.51 C 247.60 131.27 249.72 126.48 253.57 126.77 C 253.09 128.67 251.90 130.23 250.04 130.93 C 250.17 132.62 249.77 134.22 247.80 134.51 Z" />
<path fill="#ffffff" d=" M 132.88 144.76 C 134.57 143.02 136.82 141.44 139.40 142.14 C 143.46 141.85 147.55 141.76 151.60 142.26 C 154.01 142.12 156.61 140.76 158.87 142.21 C 160.80 143.53 162.64 145.07 164.90 145.82 C 169.60 147.53 173.91 150.51 178.99 151.05 C 180.93 151.26 182.87 150.42 184.80 150.83 C 187.19 152.03 189.46 153.64 192.25 153.66 C 192.67 153.32 193.51 152.65 193.94 152.31 C 197.74 152.80 201.51 152.17 205.22 151.35 C 208.12 152.47 211.18 153.30 214.32 153.26 C 216.94 153.37 219.58 153.57 222.20 153.31 C 224.71 152.36 227.28 151.38 230.03 151.79 C 234.89 152.45 240.21 151.74 244.49 154.65 C 244.56 158.80 243.96 163.02 245.03 167.09 C 246.77 171.32 246.13 176.07 247.34 180.46 C 248.11 183.94 247.95 187.57 248.84 191.00 C 251.73 194.42 255.45 197.05 258.40 200.42 C 260.45 203.14 261.22 206.61 263.37 209.29 C 262.67 210.55 261.93 211.78 261.14 212.99 C 260.00 212.34 258.86 211.68 257.74 211.03 C 257.74 208.62 257.97 205.74 255.67 204.22 C 253.56 202.54 251.55 205.33 249.42 205.62 C 246.68 205.96 244.32 207.49 242.65 209.64 C 240.52 211.99 242.59 215.49 241.11 218.08 C 237.25 218.39 234.12 215.46 230.56 214.43 C 228.01 213.86 226.40 211.43 225.66 209.11 C 225.42 204.69 226.28 200.04 224.06 195.98 C 219.54 194.71 215.62 191.80 210.95 191.04 C 209.46 190.82 208.76 192.41 207.75 193.16 C 204.20 193.98 200.48 193.71 197.03 195.01 C 194.46 196.28 191.59 195.29 189.44 193.69 C 186.52 191.59 182.66 192.15 179.57 190.45 C 175.07 188.19 169.89 186.47 166.76 182.32 C 164.89 180.24 161.76 180.09 159.68 178.27 C 158.14 176.59 156.85 174.63 154.96 173.30 C 151.59 173.94 148.79 176.38 145.76 177.93 C 143.57 175.12 140.01 175.12 136.80 174.72 C 136.45 172.37 135.99 170.04 135.17 167.80 C 131.72 166.74 128.56 165.00 125.24 163.60 C 126.63 161.78 128.26 160.16 130.43 159.32 C 132.00 157.46 132.52 155.16 132.34 152.77 C 131.96 152.33 131.21 151.46 130.83 151.03 C 131.73 149.02 132.89 147.03 132.88 144.76 Z" />
<path fill="#ffffff" d=" M 109.01 168.42 C 111.71 167.89 113.76 166.00 116.00 164.56 C 117.45 164.31 118.73 165.23 120.08 165.56 C 122.59 166.57 125.48 165.80 127.94 166.99 C 129.72 167.95 131.52 168.85 133.30 169.81 C 135.60 171.57 133.19 175.56 135.97 176.99 C 138.35 177.59 140.80 177.85 143.17 178.52 C 145.80 181.60 147.25 185.37 148.98 188.97 C 150.54 191.32 153.94 193.25 152.36 196.55 C 150.62 196.29 148.86 196.21 147.12 195.96 C 144.22 194.00 141.95 191.25 138.92 189.47 C 137.28 188.62 136.01 187.28 134.81 185.92 C 134.32 185.76 133.33 185.44 132.84 185.28 C 131.97 184.06 131.14 182.82 130.12 181.73 C 127.34 181.05 124.73 179.93 122.54 178.06 C 119.79 177.35 117.65 175.15 114.75 174.94 C 109.58 173.07 104.76 176.15 100.10 177.95 C 97.97 178.96 95.42 179.79 94.32 182.08 C 92.46 185.60 88.81 187.56 85.73 189.86 C 83.39 192.48 82.13 195.87 79.84 198.53 C 77.30 199.28 74.79 200.22 72.14 200.55 C 67.56 201.11 63.30 203.73 60.73 207.55 C 59.65 206.09 58.75 204.51 57.94 202.89 C 60.25 199.13 65.31 195.27 63.12 190.41 C 63.32 190.15 63.71 189.61 63.91 189.35 C 68.24 189.35 72.78 189.93 76.73 187.74 C 77.59 186.03 78.40 184.29 78.90 182.44 C 81.21 178.34 84.31 174.78 87.13 171.03 C 90.33 173.27 94.18 171.79 97.62 171.06 C 99.49 169.85 101.01 168.00 103.15 167.27 C 105.13 167.54 107.01 168.34 109.01 168.42 Z" />
<path fill="#ffffff" d=" M 148.23 178.59 C 150.52 177.89 152.78 177.09 154.92 175.99 C 157.65 181.12 163.51 182.79 167.64 186.43 C 170.48 188.95 174.28 189.78 177.58 191.46 C 182.53 194.88 188.99 195.04 193.70 198.92 C 197.50 196.86 201.74 196.37 205.97 196.02 C 208.06 196.16 209.43 194.47 211.10 193.52 C 212.31 193.80 213.51 194.12 214.70 194.48 C 216.97 196.40 219.81 197.36 222.46 198.63 C 224.17 200.65 223.21 203.45 223.25 205.83 C 222.54 210.44 225.75 214.78 229.86 216.54 C 234.74 219.97 241.01 221.64 246.89 220.27 C 245.99 226.11 239.08 227.58 236.32 232.14 C 237.57 235.74 239.74 239.49 238.31 243.39 C 237.14 243.81 235.97 244.24 234.81 244.67 C 233.84 246.47 232.74 248.20 231.95 250.09 C 230.42 253.92 232.31 257.90 232.29 261.83 C 231.43 262.74 230.58 263.66 229.72 264.57 C 229.03 264.55 227.65 264.50 226.96 264.48 C 223.29 267.02 223.00 271.49 221.77 275.39 C 220.41 276.33 218.82 277.04 217.68 278.27 C 215.83 281.95 216.17 286.53 213.16 289.65 C 208.64 287.64 203.86 286.07 198.84 286.55 C 199.14 283.92 201.26 281.12 199.28 278.69 C 196.36 274.09 192.79 269.87 188.43 266.57 C 187.27 264.63 185.48 263.23 183.85 261.72 C 183.64 257.79 179.63 256.41 176.58 255.15 C 176.11 250.87 176.81 246.54 176.19 242.27 C 175.18 238.96 174.33 235.50 172.36 232.60 C 170.17 230.78 168.01 228.90 166.29 226.62 C 166.08 224.97 165.70 223.35 165.21 221.77 C 166.30 218.90 166.40 215.86 165.88 212.86 C 164.00 211.64 163.38 209.40 162.02 207.72 C 161.07 205.41 159.93 203.15 158.03 201.47 C 156.26 198.92 154.09 196.36 154.87 193.01 C 153.79 191.45 152.51 190.04 151.02 188.87 C 149.70 185.85 148.98 182.54 147.05 179.83 C 147.34 179.52 147.93 178.90 148.23 178.59 Z" />
<path fill="#ffffff" d=" M 252.54 208.59 C 253.32 208.16 254.11 207.74 254.89 207.32 C 254.87 208.36 254.86 209.40 254.84 210.45 C 254.31 210.42 253.27 210.35 252.74 210.31 C 252.69 209.88 252.59 209.02 252.54 208.59 Z" />
<path fill="#ffffff" d=" M 244.86 218.09 C 242.66 214.68 243.94 210.59 247.21 208.46 C 249.44 209.22 250.75 211.14 251.90 213.07 C 253.30 213.12 254.70 213.16 256.11 213.21 C 258.38 214.98 261.86 216.62 264.09 213.87 C 264.50 212.27 265.36 210.85 266.18 209.43 C 270.92 213.10 274.37 218.21 279.18 221.84 C 282.24 224.84 286.43 226.08 289.95 228.43 C 293.00 230.19 297.90 230.08 298.98 234.19 C 299.97 238.80 302.90 242.55 304.40 246.96 C 306.71 252.12 308.72 257.46 310.11 262.96 C 305.86 266.27 299.40 265.43 296.20 270.17 C 295.01 271.64 293.18 273.03 291.20 272.80 C 288.61 271.53 285.69 270.38 284.01 267.91 C 283.51 266.20 283.75 264.03 282.03 262.96 C 280.28 261.92 278.26 261.46 276.43 260.60 C 273.15 257.92 271.95 253.65 272.55 249.51 C 268.06 244.89 268.51 237.99 265.00 232.84 C 262.91 232.20 260.74 233.05 258.65 232.54 C 253.76 231.71 249.35 228.99 245.70 225.73 C 248.34 224.31 250.02 222.06 249.44 218.94 C 247.99 218.22 246.48 217.65 244.86 218.09 Z" />
<path fill="#ffffff" d=" M 243.61 229.20 C 247.30 228.43 250.18 231.03 253.42 232.25 C 256.44 233.50 259.59 234.37 262.72 235.29 C 265.47 236.15 266.64 239.22 266.57 241.89 C 266.54 245.46 269.63 247.96 270.19 251.38 C 271.28 254.80 270.87 258.82 273.40 261.66 C 274.88 263.82 277.76 263.56 280.04 264.02 C 280.71 264.65 281.37 265.29 282.04 265.93 C 282.00 266.57 281.92 267.85 281.88 268.49 C 280.58 270.33 279.81 272.52 278.44 274.30 C 275.73 276.03 272.23 276.46 270.14 279.11 C 265.93 282.58 261.15 285.32 257.09 289.01 C 253.56 285.46 248.41 283.66 246.05 279.00 C 243.73 274.85 239.02 273.85 234.73 273.13 C 234.04 270.79 232.89 268.53 232.79 266.05 C 233.47 263.62 234.04 261.16 234.40 258.66 C 234.01 256.49 233.77 254.30 233.26 252.15 C 233.94 250.08 234.49 247.66 236.42 246.37 C 238.44 244.99 240.82 243.87 241.72 241.41 C 239.91 238.72 240.20 235.21 238.10 232.66 C 240.07 231.74 242.07 230.79 243.61 229.20 Z" />
<path fill="#000000" d=" M 145.22 249.39 C 145.79 249.49 146.91 249.69 147.48 249.79 C 147.02 250.76 147.09 252.87 145.48 252.34 C 143.87 252.42 145.17 250.23 145.22 249.39 Z" />
<path fill="#000000" d=" M 155.30 262.29 C 160.04 262.71 164.65 261.93 169.21 260.68 C 169.28 263.87 169.60 268.49 166.18 270.04 C 162.77 268.31 158.86 269.01 155.18 268.84 C 154.34 268.29 153.50 267.75 152.67 267.20 C 152.67 266.51 152.67 265.11 152.68 264.42 C 153.55 263.71 154.43 263.00 155.30 262.29 Z" />
<path fill="#ffffff" d=" M 157.31 263.98 C 160.66 264.74 164.06 264.22 167.25 263.06 C 166.93 264.70 166.61 266.35 166.32 268.01 C 163.41 266.93 160.23 266.33 157.24 267.49 C 156.52 267.12 155.07 266.37 154.34 266.00 C 155.31 265.30 156.30 264.63 157.31 263.98 Z" />
<path fill="#ffffff" d=" M 298.24 270.14 C 301.96 267.44 306.76 266.89 310.97 265.17 C 312.61 268.95 314.86 272.46 315.92 276.49 C 318.48 281.55 322.34 286.05 327.22 289.01 C 331.63 294.68 337.74 298.97 341.55 305.05 C 342.25 305.38 342.95 305.72 343.66 306.06 C 344.09 307.85 345.76 309.79 344.54 311.61 C 342.44 315.12 339.48 318.00 336.77 321.01 C 334.59 319.72 333.16 316.15 330.17 317.24 C 326.82 317.98 321.74 318.61 321.49 322.92 C 319.15 324.08 318.44 326.56 318.18 328.98 C 313.96 331.26 311.47 326.13 308.01 324.80 C 304.86 324.37 301.57 326.12 298.56 324.58 C 294.79 323.06 291.85 319.94 289.13 317.00 C 287.28 313.81 282.92 314.05 280.69 311.26 C 278.72 309.55 278.95 306.77 278.43 304.45 C 280.65 303.97 282.90 303.68 285.18 303.70 C 285.79 302.64 287.80 301.59 286.83 300.25 C 284.47 297.60 282.01 294.98 280.41 291.77 C 279.87 288.11 281.34 284.54 282.41 281.10 C 284.93 280.95 287.56 281.59 290.02 280.97 C 290.83 279.40 290.77 277.59 290.89 275.88 C 293.74 274.52 296.41 272.78 298.24 270.14 Z" />
<path fill="#ffffff" d=" M 226.44 267.50 C 227.75 267.13 229.06 266.77 230.37 266.43 C 231.51 268.89 231.75 271.63 232.80 274.13 C 235.71 275.73 239.26 275.32 242.08 277.03 C 243.94 278.82 245.03 281.28 246.89 283.09 C 249.71 286.52 253.93 288.29 257.00 291.45 C 261.24 289.37 263.79 285.06 268.06 283.03 C 270.43 281.73 272.13 279.43 274.80 278.62 C 278.35 277.19 281.26 274.58 282.92 271.12 C 284.77 271.89 286.81 272.44 288.36 273.79 C 288.74 275.07 288.60 276.45 288.71 277.79 C 286.61 279.07 284.15 278.91 281.79 278.88 C 281.47 279.19 280.83 279.80 280.51 280.11 C 279.54 283.80 277.86 287.44 278.13 291.34 C 279.26 295.12 282.23 297.99 284.42 301.19 C 281.71 301.69 278.84 301.81 276.35 303.09 C 275.85 309.15 280.11 315.63 286.44 316.24 C 289.27 320.55 293.47 323.90 298.02 326.26 C 300.78 327.97 303.98 325.66 306.86 326.61 C 309.18 327.79 311.17 329.53 313.12 331.23 C 313.97 334.45 314.08 337.80 314.14 341.11 C 312.20 342.54 310.22 343.92 308.12 345.11 C 307.03 348.06 307.90 351.38 306.30 354.17 C 303.88 353.29 301.45 352.48 298.95 351.87 C 296.03 353.29 293.45 351.12 290.77 350.20 C 288.56 349.31 286.13 349.10 284.02 347.97 C 281.04 347.36 278.17 348.85 275.20 348.44 C 271.10 346.53 268.76 342.00 264.26 340.82 C 258.90 339.05 255.04 334.74 251.67 330.43 C 249.48 327.28 245.69 325.63 243.79 322.25 C 240.78 316.81 235.96 312.73 231.63 308.38 C 230.03 306.59 227.29 306.34 225.93 304.33 C 222.78 299.73 218.85 295.73 216.09 290.87 C 217.64 287.91 218.62 284.66 218.47 281.30 C 220.60 279.01 223.83 277.35 224.46 274.01 C 224.95 271.79 225.57 269.60 226.44 267.50 Z" />
<path fill="#040404" d=" M 155.10 276.97 C 153.25 277.13 151.42 274.45 153.80 273.64 C 154.74 274.51 155.17 275.62 155.10 276.97 Z" />
<path fill="#040404" d=" M 184.68 287.66 C 185.70 287.33 186.97 285.83 188.00 286.89 C 189.57 287.88 188.01 289.59 187.71 290.83 C 186.68 290.28 185.66 289.72 184.65 289.16 C 184.66 288.79 184.67 288.04 184.68 287.66 Z" />
<path fill="#070707" d=" M 195.69 293.53 C 196.94 293.99 198.20 294.41 199.45 294.89 C 198.57 296.26 197.62 297.59 196.56 298.81 C 195.13 299.11 194.69 297.51 193.94 296.67 C 194.52 295.62 195.11 294.57 195.69 293.53 Z" />
<path fill="#ffffff" d=" M 338.57 322.60 C 342.15 319.15 343.77 314.17 347.82 311.20 C 352.13 312.73 356.20 314.84 360.25 316.94 C 359.52 320.28 359.59 323.65 359.89 327.03 C 360.14 330.31 355.35 330.36 354.39 333.01 C 354.09 335.71 354.71 338.38 354.94 341.07 C 349.54 343.00 343.74 339.09 338.55 342.25 C 332.26 339.14 325.53 341.60 319.16 342.93 C 318.17 342.53 317.20 342.13 316.23 341.73 C 316.23 338.72 316.25 335.72 316.12 332.71 C 317.66 331.54 319.97 330.92 320.40 328.79 C 320.92 325.81 324.09 324.25 324.28 321.17 C 326.79 320.35 329.41 320.02 332.02 319.65 C 333.06 321.11 334.14 322.56 335.33 323.92 C 336.41 323.48 337.49 323.04 338.57 322.60 Z" />
<path fill="#ffffff" d=" M 322.80 344.57 C 326.76 343.65 330.86 341.99 334.94 343.43 C 337.91 344.60 341.03 343.76 343.98 342.95 C 347.87 343.45 352.15 345.23 355.79 342.86 C 357.58 343.47 359.50 345.11 358.23 347.15 C 363.08 348.16 366.70 352.33 367.82 357.06 C 371.58 359.25 375.80 360.43 379.75 362.21 C 380.14 364.98 379.67 367.72 378.07 370.06 C 376.34 370.87 374.45 371.72 373.58 373.54 C 371.87 376.04 372.83 379.20 372.57 382.03 C 374.32 383.63 376.74 384.77 377.59 387.15 C 377.54 389.20 377.05 391.20 376.81 393.24 C 379.19 394.98 382.03 396.64 382.66 399.78 C 383.02 401.72 384.72 402.78 386.23 403.82 C 388.72 408.96 383.52 413.10 382.98 418.05 C 379.85 417.79 377.08 419.28 374.21 420.24 C 370.84 420.95 368.17 418.01 366.39 415.56 C 364.12 412.10 360.13 410.57 356.64 408.70 C 356.65 407.64 356.68 405.53 356.70 404.47 C 356.43 402.55 357.63 400.63 356.80 398.75 C 355.79 395.31 354.71 391.88 353.29 388.59 C 351.25 384.84 346.77 383.25 342.80 382.58 C 340.89 384.54 338.36 385.81 335.57 384.96 C 335.47 382.63 336.26 379.45 333.72 378.10 C 329.06 373.76 322.24 375.82 316.80 373.31 C 315.30 367.30 311.19 362.52 308.70 356.96 C 308.21 353.60 310.16 350.21 309.28 346.79 C 313.00 343.04 318.31 345.68 322.80 344.57 Z" />
<path fill="#000000" d=" M 113.53 348.37 C 115.28 346.13 117.94 345.01 120.76 345.09 C 121.80 345.98 122.86 346.83 123.94 347.67 C 124.59 346.77 125.24 345.87 125.89 344.98 C 127.10 345.73 128.32 346.47 129.56 347.19 C 129.44 347.82 129.22 349.09 129.11 349.72 C 127.76 349.31 126.41 348.94 125.05 348.59 C 125.85 350.67 127.82 351.69 129.91 351.98 C 133.32 354.81 134.97 360.01 133.22 364.14 C 133.66 364.73 134.08 365.35 134.47 365.99 C 135.71 372.67 138.11 379.08 140.38 385.47 C 140.54 386.67 140.72 387.87 140.92 389.08 C 140.47 391.39 140.17 393.72 139.73 396.04 C 138.42 399.02 136.47 401.65 134.53 404.25 C 135.14 406.51 135.95 408.71 136.74 410.92 C 135.75 417.12 136.07 423.63 133.57 429.56 C 133.26 434.41 132.71 439.26 132.03 444.09 C 131.23 447.96 128.35 451.04 127.71 454.96 C 127.04 457.26 125.96 459.42 125.46 461.79 C 123.17 461.79 120.88 461.66 118.62 461.23 C 118.06 459.26 117.47 457.30 117.01 455.31 C 112.81 453.96 108.18 455.08 104.74 457.75 C 103.91 461.02 104.31 464.44 103.85 467.74 C 100.05 470.85 95.55 474.78 90.23 473.80 C 87.63 473.03 86.51 470.19 84.28 468.82 C 81.77 467.24 81.25 464.10 79.79 461.73 C 79.14 464.01 78.14 466.28 75.35 465.74 C 74.38 463.88 73.51 461.95 73.48 459.83 C 74.55 458.93 75.62 458.03 76.69 457.15 C 75.79 452.38 77.49 447.23 75.60 442.71 C 76.67 437.70 79.08 433.09 79.93 427.99 C 80.99 427.23 82.05 426.48 83.11 425.73 C 83.11 425.03 83.10 423.64 83.09 422.94 C 81.68 422.45 80.24 422.04 78.86 421.46 C 78.17 418.02 77.30 414.09 79.43 410.97 C 80.78 410.09 81.98 408.99 83.03 407.78 C 83.00 408.57 82.93 410.16 82.90 410.95 C 80.59 413.22 79.27 416.14 80.79 419.26 C 81.42 419.33 82.70 419.45 83.34 419.51 C 84.27 420.96 85.20 422.41 86.13 423.87 C 85.12 426.65 83.13 428.81 80.32 429.83 C 78.51 436.35 77.77 443.18 78.08 449.93 C 77.91 452.11 78.17 454.36 79.49 456.19 C 80.70 458.36 81.87 460.56 82.88 462.84 C 83.26 464.12 83.88 465.37 84.93 466.26 C 86.64 468.09 88.41 469.86 90.20 471.62 C 92.93 471.34 95.66 471.11 98.40 470.88 C 98.90 469.96 99.40 469.05 99.90 468.15 C 101.30 467.80 101.98 466.95 101.94 465.60 C 101.87 462.52 102.07 459.41 103.07 456.48 C 105.04 455.67 106.81 454.46 108.43 453.09 C 111.51 452.98 114.59 452.98 117.67 453.03 C 118.45 454.95 118.99 457.01 120.14 458.76 C 121.23 460.11 123.15 459.84 124.68 460.19 C 125.26 458.11 125.81 456.03 126.31 453.93 C 128.75 450.45 130.65 446.49 130.12 442.12 C 131.14 441.18 131.40 440.07 130.91 438.79 C 131.14 434.44 131.53 430.05 132.95 425.90 C 134.48 421.96 134.09 417.66 133.92 413.54 C 135.43 411.81 134.81 409.06 132.88 407.95 C 132.79 404.96 133.15 401.84 135.42 399.64 C 135.48 399.57 135.59 399.44 135.64 399.37 C 136.36 398.57 137.09 397.79 137.83 397.02 C 139.61 390.24 138.23 383.19 134.86 377.14 C 135.57 375.87 135.31 374.77 134.07 373.85 C 133.56 371.24 132.74 368.71 131.74 366.26 C 130.55 363.43 131.65 360.23 130.70 357.36 C 129.71 354.39 126.60 353.13 124.20 351.52 C 123.58 350.41 122.97 349.29 122.37 348.19 C 119.45 347.40 116.44 347.71 113.53 348.37 Z" />
<path fill="#317abd" d=" M 113.53 348.37 C 116.44 347.71 119.45 347.40 122.37 348.19 C 122.97 349.29 123.58 350.41 124.20 351.52 C 126.60 353.13 129.71 354.39 130.70 357.36 C 131.65 360.23 130.55 363.43 131.74 366.26 C 132.74 368.71 133.56 371.24 134.07 373.85 C 133.58 375.12 133.85 376.22 134.86 377.14 C 138.23 383.19 139.61 390.24 137.83 397.02 C 137.09 397.79 136.36 398.57 135.64 399.37 C 135.59 399.44 135.48 399.57 135.42 399.64 C 133.15 401.84 132.79 404.96 132.88 407.95 C 132.73 409.86 133.45 411.70 133.92 413.54 C 134.09 417.66 134.48 421.96 132.95 425.90 C 131.53 430.05 131.14 434.44 130.91 438.79 C 129.71 439.65 129.45 440.76 130.12 442.12 C 130.65 446.49 128.75 450.45 126.31 453.93 C 125.81 456.03 125.26 458.11 124.68 460.19 C 123.15 459.84 121.23 460.11 120.14 458.76 C 118.99 457.01 118.45 454.95 117.67 453.03 C 114.59 452.98 111.51 452.98 108.43 453.09 C 106.81 454.46 105.04 455.67 103.07 456.48 C 102.07 459.41 101.87 462.52 101.94 465.60 C 100.57 465.80 99.89 466.65 99.90 468.15 C 99.40 469.05 98.90 469.96 98.40 470.88 C 95.66 471.11 92.93 471.34 90.20 471.62 C 88.41 469.86 86.64 468.09 84.93 466.26 C 85.76 464.78 84.68 462.62 82.88 462.84 C 81.87 460.56 80.70 458.36 79.49 456.19 C 80.18 454.03 80.17 451.31 78.08 449.93 C 77.77 443.18 78.51 436.35 80.32 429.83 C 83.13 428.81 85.12 426.65 86.13 423.87 C 85.20 422.41 84.27 420.96 83.34 419.51 C 82.70 419.45 81.42 419.33 80.79 419.26 C 79.27 416.14 80.59 413.22 82.90 410.95 C 82.93 410.16 83.00 408.57 83.03 407.78 L 83.74 406.93 C 84.02 406.61 84.56 405.97 84.84 405.65 C 84.66 405.23 84.32 404.38 84.15 403.96 C 85.01 401.60 85.12 399.15 83.46 397.11 C 81.80 393.66 81.78 389.73 80.46 386.17 C 80.17 385.33 79.61 383.64 79.32 382.79 L 79.31 382.76 L 79.27 382.74 C 77.69 381.77 76.04 380.94 74.47 379.96 C 73.60 379.04 72.74 378.12 71.89 377.20 C 72.24 375.73 72.59 374.26 72.96 372.80 C 73.81 369.81 74.14 366.72 74.48 363.65 C 77.66 364.43 79.88 367.08 82.95 368.08 C 85.22 368.89 87.67 368.99 90.06 368.94 C 92.79 368.42 95.06 366.79 96.51 364.44 C 96.71 364.22 97.12 363.76 97.33 363.53 C 97.39 363.47 97.51 363.34 97.56 363.28 C 98.96 361.74 100.70 360.62 102.42 359.49 C 102.44 359.47 102.49 359.43 102.52 359.42 C 106.02 357.06 109.31 354.39 113.00 352.30 C 112.96 351.69 112.88 350.46 112.84 349.84 L 112.75 348.51 C 112.95 348.47 113.34 348.40 113.53 348.37 Z" />
<path fill="#000000" d=" M 100.38 358.13 C 104.90 355.91 108.26 351.98 112.84 349.84 C 112.88 350.46 112.96 351.69 113.00 352.30 C 109.31 354.39 106.02 357.06 102.52 359.42 C 102.49 359.43 102.44 359.47 102.42 359.49 C 100.70 360.62 98.96 361.74 97.56 363.28 L 97.44 363.40 L 97.33 363.53 C 97.12 363.76 96.71 364.22 96.51 364.44 C 94.22 365.73 91.89 367.02 90.06 368.94 C 87.67 368.99 85.22 368.89 82.95 368.08 C 79.88 367.08 77.66 364.43 74.48 363.65 C 74.14 366.72 73.81 369.81 72.96 372.80 C 72.40 374.14 71.78 375.47 71.16 376.80 C 72.13 377.98 73.07 379.24 74.47 379.96 C 76.04 380.94 77.69 381.77 79.27 382.74 C 79.29 382.75 79.31 382.78 79.32 382.79 C 79.61 383.64 80.17 385.33 80.46 386.17 C 81.00 389.00 81.43 391.85 81.58 394.73 C 82.21 395.51 82.84 396.31 83.46 397.11 C 85.12 399.15 85.01 401.60 84.15 403.96 C 84.32 404.38 84.66 405.23 84.84 405.65 C 84.56 405.97 84.02 406.61 83.74 406.93 C 82.86 403.73 82.59 400.24 80.66 397.44 C 78.25 392.90 78.18 387.62 76.38 382.87 C 73.71 382.06 70.99 381.11 69.00 379.06 C 69.05 376.31 69.57 373.61 70.98 371.22 C 73.02 367.84 71.47 363.71 73.02 360.16 C 73.26 358.89 75.45 358.25 76.20 359.47 C 77.82 361.45 79.05 363.81 81.11 365.40 C 83.54 366.22 86.09 366.70 88.66 366.80 C 92.78 364.21 96.96 361.64 100.38 358.13 Z" />
<path fill="#040404" d=" M 73.89 355.03 C 75.42 353.57 76.99 352.16 78.74 350.97 C 79.29 351.24 80.38 351.77 80.93 352.04 C 80.88 352.69 80.78 354.00 80.73 354.66 C 79.05 355.43 77.39 356.24 75.75 357.10 C 75.13 356.41 74.51 355.72 73.89 355.03 Z" />
<path fill="#72777b" d=" M 102.42 359.49 C 102.44 359.47 102.49 359.43 102.52 359.42 C 102.49 359.43 102.44 359.47 102.42 359.49 Z" />
<path fill="#ffffff" d=" M 382.93 361.79 C 386.76 359.79 391.61 359.71 395.50 361.59 C 398.45 364.02 398.86 368.75 402.59 370.37 C 407.06 372.45 409.35 377.35 413.87 379.39 C 417.16 381.37 421.66 379.57 424.54 382.44 C 426.73 385.44 426.36 389.42 427.46 392.84 C 429.24 394.56 432.56 395.24 432.97 397.99 C 430.67 403.39 427.22 408.24 425.05 413.72 C 422.67 413.70 420.28 413.70 417.90 413.66 C 416.31 415.94 415.37 418.56 414.12 421.03 C 412.24 423.51 408.84 423.52 406.08 424.18 C 404.07 422.06 402.22 419.66 399.40 418.58 C 396.62 419.45 393.83 420.27 391.00 420.98 C 389.23 420.45 387.43 420.00 385.69 419.41 C 383.13 414.28 389.94 410.59 388.56 405.45 C 388.29 403.07 386.31 401.68 384.51 400.43 C 383.16 396.96 381.39 393.65 378.59 391.13 C 378.84 389.64 379.11 388.15 379.31 386.66 C 378.79 385.24 378.30 383.83 377.76 382.43 C 376.56 381.93 375.36 381.43 374.16 380.94 C 374.04 378.68 374.34 376.45 375.50 374.48 C 379.52 373.15 380.24 368.92 381.79 365.53 C 382.10 364.31 381.52 362.40 382.93 361.79 Z" />
<path fill="#878c90" d=" M 97.44 363.40 L 97.56 363.28 C 97.51 363.34 97.39 363.47 97.33 363.53 L 97.44 363.40 Z" />
<path fill="#648eb4" d=" M 90.06 368.94 C 91.89 367.02 94.22 365.73 96.51 364.44 C 95.06 366.79 92.79 368.42 90.06 368.94 Z" />
<path fill="#ffffff" d=" M 71.16 376.80 C 71.78 375.47 72.40 374.14 72.96 372.80 C 72.59 374.26 72.24 375.73 71.89 377.20 C 72.74 378.12 73.60 379.04 74.47 379.96 C 73.07 379.24 72.13 377.98 71.16 376.80 Z" />
<path fill="#5c7083" d=" M 134.07 373.85 C 135.31 374.77 135.57 375.87 134.86 377.14 C 133.85 376.22 133.58 375.12 134.07 373.85 Z" />
<path fill="#040404" d=" M 305.28 381.03 C 306.51 379.96 307.79 377.25 309.74 378.81 C 311.73 379.18 311.29 381.69 312.07 383.10 C 310.98 383.61 309.90 384.12 308.83 384.63 C 307.47 383.60 306.30 382.37 305.28 381.03 Z" />
<path fill="#a1acb7" d=" M 79.27 382.74 L 79.31 382.76 L 79.32 382.79 C 79.31 382.78 79.29 382.75 79.27 382.74 Z" />
<path fill="#ffffff" d=" M 80.46 386.17 C 81.78 389.73 81.80 393.66 83.46 397.11 C 82.84 396.31 82.21 395.51 81.58 394.73 C 81.43 391.85 81.00 389.00 80.46 386.17 Z" />
<path fill="#070707" d=" M 321.40 389.74 C 322.30 389.33 323.20 388.91 324.11 388.50 C 326.21 390.56 326.03 393.39 323.83 395.30 C 322.77 394.26 320.29 393.86 320.63 392.01 C 320.84 391.23 321.10 390.48 321.40 389.74 Z" />
<path fill="#777777" d=" M 135.42 399.64 C 135.48 399.57 135.59 399.44 135.64 399.37 C 135.59 399.44 135.48 399.57 135.42 399.64 Z" />
<path fill="#ffffff" d=" M 132.88 407.95 C 134.81 409.06 135.43 411.81 133.92 413.54 C 133.45 411.70 132.73 409.86 132.88 407.95 Z" />
<path fill="#737a80" d=" M 130.12 442.12 C 129.45 440.76 129.71 439.65 130.91 438.79 C 131.40 440.07 131.14 441.18 130.12 442.12 Z" />
<path fill="#5e7386" d=" M 78.08 449.93 C 80.17 451.31 80.18 454.03 79.49 456.19 C 78.17 454.36 77.91 452.11 78.08 449.93 Z" />
<path fill="#030303" d=" M 67.51 456.38 C 68.23 455.11 68.86 453.73 70.12 452.91 C 71.25 453.25 72.18 454.02 73.17 454.63 C 73.18 455.13 73.20 456.12 73.21 456.62 C 71.96 457.51 71.23 459.91 69.46 459.52 C 68.73 458.52 68.14 457.44 67.51 456.38 Z" />
<path fill="#b2b2b2" d=" M 381.92 455.55 C 385.25 455.53 380.53 458.60 381.92 455.55 Z" />
<path fill="#ffffff" d=" M 75.76 460.67 C 77.35 460.29 77.94 460.91 77.53 462.52 C 75.92 462.86 75.33 462.24 75.76 460.67 Z" />
<path fill="#607f9c" d=" M 82.88 462.84 C 84.68 462.62 85.76 464.78 84.93 466.26 C 83.88 465.37 83.26 464.12 82.88 462.84 Z" />
<path fill="#617e98" d=" M 99.90 468.15 C 99.89 466.65 100.57 465.80 101.94 465.60 C 101.98 466.95 101.30 467.80 99.90 468.15 Z" />
<path fill="#030303" d=" M 364.48 485.94 C 365.64 484.90 366.85 483.86 368.49 483.71 C 367.95 485.33 367.42 487.00 366.24 488.29 C 365.65 487.51 365.06 486.72 364.48 485.94 Z" />
<path fill="#000000" d=" M 348.57 496.56 C 349.52 495.67 350.48 495.67 351.43 496.56 C 352.28 497.84 350.46 498.61 349.90 499.59 C 349.42 498.59 348.93 497.60 348.57 496.56 Z" />
<path fill="#000000" d=" M 353.55 502.47 C 353.70 501.08 354.21 499.79 355.81 499.63 C 355.69 500.41 355.44 501.98 355.32 502.77 C 354.87 502.69 353.99 502.54 353.55 502.47 Z" />
<path fill="#000000" d=" M 356.10 505.62 C 357.38 504.56 359.62 506.64 358.05 507.75 C 356.72 508.81 354.54 506.79 356.10 505.62 Z" />
<path fill="#000000" d=" M 371.95 514.34 C 375.50 513.36 378.91 511.91 382.51 511.11 C 382.98 511.52 383.91 512.35 384.38 512.76 C 383.15 519.67 379.48 525.71 376.51 531.96 C 374.08 537.47 369.36 541.80 368.11 547.85 C 368.30 548.44 368.69 549.63 368.88 550.22 C 367.17 554.00 364.84 557.66 364.69 561.95 C 366.97 564.02 369.20 566.18 370.93 568.76 C 370.50 571.72 371.13 574.55 372.65 577.10 C 372.85 582.67 366.13 586.17 366.42 591.88 C 366.37 595.21 364.72 598.15 364.01 601.34 C 359.23 602.99 356.23 597.34 351.52 598.15 C 350.72 598.70 349.92 599.25 349.12 599.80 C 347.34 598.57 345.37 597.66 343.28 597.12 C 339.15 595.88 336.18 592.57 334.06 588.96 C 330.23 585.58 326.31 582.16 321.78 579.73 C 319.85 579.07 317.71 580.09 315.80 579.21 C 312.82 578.13 309.60 578.00 306.59 577.08 C 303.55 575.81 301.05 573.54 299.03 570.99 C 293.21 569.60 287.54 566.91 284.04 561.86 C 281.02 557.64 275.35 557.50 271.73 554.19 C 265.65 553.84 260.16 550.98 254.15 550.31 C 249.30 548.25 243.92 541.93 248.00 536.86 C 250.43 534.22 248.35 530.18 250.72 527.50 C 252.19 524.25 255.20 522.34 258.43 521.13 C 259.45 518.33 262.81 517.11 265.31 518.84 C 266.82 520.70 267.16 523.21 268.04 525.39 C 270.45 524.63 272.89 523.99 275.32 523.26 C 275.55 521.06 274.37 517.22 277.44 516.60 C 280.55 516.50 283.71 515.55 286.79 516.06 C 288.41 517.50 289.54 519.38 290.88 521.07 C 296.32 521.58 299.73 526.49 304.69 528.12 C 307.34 528.00 309.93 527.36 312.57 527.11 C 309.62 527.67 307.00 529.29 304.10 529.90 C 297.95 526.50 291.18 523.85 286.04 518.92 C 284.94 517.31 283.14 518.49 281.65 518.66 C 280.41 518.70 279.24 518.99 278.16 519.53 C 278.11 519.90 278.02 520.63 277.97 521.00 C 277.87 521.83 277.67 523.49 277.57 524.32 C 277.55 524.35 277.51 524.41 277.48 524.43 C 275.43 525.54 273.26 526.43 271.07 527.21 C 270.24 527.28 268.60 527.41 267.77 527.47 C 265.19 525.79 265.28 522.49 263.72 520.16 C 260.63 519.96 259.25 523.37 257.02 524.92 C 256.45 525.16 255.30 525.64 254.73 525.88 C 253.87 526.59 253.01 527.31 252.15 528.04 C 252.08 531.04 251.78 534.04 251.01 536.96 C 250.17 537.76 249.43 538.65 248.80 539.63 C 248.83 540.04 248.90 540.87 248.93 541.28 C 249.33 544.31 251.55 546.73 254.43 547.66 C 261.66 550.25 269.74 550.49 276.42 554.58 C 278.77 555.94 281.35 556.94 283.55 558.55 C 285.56 560.51 287.01 563.10 289.53 564.52 C 293.53 566.83 297.81 568.69 302.24 570.03 C 302.70 570.80 303.21 571.55 303.74 572.30 C 304.58 572.94 305.46 573.52 306.39 574.04 C 307.71 574.91 309.33 574.98 310.83 575.32 C 311.42 575.48 312.61 575.80 313.20 575.96 C 316.03 576.77 318.96 577.13 321.90 577.20 C 325.02 578.98 328.37 580.48 331.08 582.90 C 335.17 586.83 338.52 591.56 343.19 594.86 C 345.14 596.38 347.73 595.78 350.01 595.99 C 354.06 596.01 357.85 597.72 361.86 598.01 C 363.87 595.57 363.97 592.26 363.92 589.26 C 364.75 587.74 365.45 586.16 366.01 584.53 C 369.66 582.31 370.16 577.61 368.20 574.07 C 369.30 569.15 365.53 565.61 362.81 562.09 C 362.95 559.47 363.33 556.86 364.39 554.44 C 366.05 550.60 365.62 546.20 367.50 542.45 C 368.52 540.38 369.83 538.46 370.93 536.44 C 372.69 533.52 374.42 530.58 375.89 527.51 C 377.64 523.82 381.58 520.84 380.80 516.35 C 380.75 515.91 380.65 515.03 380.60 514.59 C 379.99 514.65 378.76 514.78 378.15 514.84 C 374.49 515.50 370.71 516.21 367.09 514.97 C 366.24 516.28 365.40 517.61 364.58 518.94 C 358.35 519.07 351.97 519.22 345.93 520.77 C 339.49 524.30 332.11 525.26 324.87 525.06 C 331.41 521.87 339.30 523.60 345.60 519.76 C 348.48 518.33 351.58 516.05 354.95 517.42 C 357.42 518.46 360.02 517.96 362.57 517.46 C 362.95 517.02 363.71 516.14 364.09 515.70 C 363.92 513.88 365.32 512.42 367.03 512.09 C 368.75 512.65 370.28 513.64 371.95 514.34 Z" />
<path fill="#ffffff" d=" M 378.15 514.84 C 378.76 514.78 379.99 514.65 380.60 514.59 C 380.65 515.03 380.75 515.91 380.80 516.35 C 380.14 515.97 378.81 515.22 378.15 514.84 Z" />
<path fill="#317abd" d=" M 367.09 514.97 C 370.71 516.21 374.49 515.50 378.15 514.84 C 378.81 515.22 380.14 515.97 380.80 516.35 C 381.58 520.84 377.64 523.82 375.89 527.51 C 373.77 530.20 372.04 533.18 370.93 536.44 C 369.83 538.46 368.52 540.38 367.50 542.45 C 365.62 546.20 366.05 550.60 364.39 554.44 C 363.33 556.86 362.95 559.47 362.81 562.09 C 365.53 565.61 369.30 569.15 368.20 574.07 C 370.16 577.61 369.66 582.31 366.01 584.53 C 363.82 585.01 362.91 587.31 363.92 589.26 C 363.97 592.26 363.87 595.57 361.86 598.01 C 357.85 597.72 354.06 596.01 350.01 595.99 C 347.73 595.78 345.14 596.38 343.19 594.86 C 338.52 591.56 335.17 586.83 331.08 582.90 C 328.37 580.48 325.02 578.98 321.90 577.20 C 318.96 577.13 316.03 576.77 313.20 575.96 C 312.61 575.80 311.42 575.48 310.83 575.32 C 309.33 574.98 307.71 574.91 306.39 574.04 C 306.18 572.86 305.80 571.75 305.27 570.71 C 304.27 570.41 303.26 570.18 302.24 570.03 C 297.81 568.69 293.53 566.83 289.53 564.52 C 287.01 563.10 285.56 560.51 283.55 558.55 C 281.35 556.94 278.77 555.94 276.42 554.58 C 269.74 550.49 261.66 550.25 254.43 547.66 C 251.55 546.73 249.33 544.31 248.93 541.28 C 250.87 540.81 250.99 538.58 251.01 536.96 C 251.78 534.04 252.08 531.04 252.15 528.04 C 253.01 527.31 253.87 526.59 254.73 525.88 C 255.30 525.64 256.45 525.16 257.02 524.92 C 259.25 523.37 260.63 519.96 263.72 520.16 C 265.28 522.49 265.19 525.79 267.77 527.47 C 268.58 528.76 270.35 528.37 271.07 527.21 C 273.26 526.43 275.43 525.54 277.48 524.43 L 277.56 524.40 L 277.57 524.32 C 277.67 523.49 277.87 521.83 277.97 521.00 C 279.67 521.41 280.84 519.90 281.65 518.66 C 283.14 518.49 284.94 517.31 286.04 518.92 C 291.18 523.85 297.95 526.50 304.10 529.90 C 307.00 529.29 309.62 527.67 312.57 527.11 C 314.37 526.81 316.21 526.87 318.04 526.95 C 320.24 527.30 322.32 526.45 324.19 525.36 L 324.87 525.06 C 332.11 525.26 339.49 524.30 345.93 520.77 C 351.97 519.22 358.35 519.07 364.58 518.94 C 365.40 517.61 366.24 516.28 367.09 514.97 Z" />
<path fill="#618bb2" d=" M 278.16 519.53 C 279.24 518.99 280.41 518.70 281.65 518.66 C 280.84 519.90 279.67 521.41 277.97 521.00 C 278.02 520.63 278.11 519.90 278.16 519.53 Z" />
<path fill="#7d7d7d" d=" M 277.48 524.43 C 277.51 524.41 277.55 524.35 277.57 524.32 L 277.56 524.40 L 277.48 524.43 Z" />
<path fill="#6b88a2" d=" M 254.73 525.88 C 255.30 525.64 256.45 525.16 257.02 524.92 C 256.45 525.16 255.30 525.64 254.73 525.88 Z" />
<path fill="#435463" d=" M 318.04 526.95 C 318.80 525.26 322.39 524.46 324.19 525.36 C 322.32 526.45 320.24 527.30 318.04 526.95 Z" />
<path fill="#000000" d=" M 229.48 527.86 C 231.52 526.13 233.26 527.29 234.62 529.17 C 233.92 530.14 233.23 531.13 232.50 532.10 C 231.42 530.74 230.41 529.32 229.48 527.86 Z" />
<path fill="#030303" d=" M 242.59 528.35 C 242.95 527.90 243.68 526.99 244.04 526.54 C 247.04 527.02 246.46 530.41 243.74 530.57 C 243.35 529.82 242.97 529.08 242.59 528.35 Z" />
<path fill="#71818f" d=" M 267.77 527.47 C 268.60 527.41 270.24 527.28 271.07 527.21 C 270.35 528.37 268.58 528.76 267.77 527.47 Z" />
<path fill="#ffffff" d=" M 370.93 536.44 C 372.04 533.18 373.77 530.20 375.89 527.51 C 374.42 530.58 372.69 533.52 370.93 536.44 Z" />
<path fill="#000000" d=" M 240.17 532.11 C 240.66 530.17 243.83 531.23 243.44 533.03 C 242.71 534.35 239.72 533.90 240.17 532.11 Z" />
<path fill="#6d89a2" d=" M 248.80 539.63 C 249.43 538.65 250.17 537.76 251.01 536.96 C 250.99 538.58 250.87 540.81 248.93 541.28 C 248.90 540.87 248.83 540.04 248.80 539.63 Z" />
<path fill="#ffffff" d=" M 302.24 570.03 C 303.26 570.18 304.27 570.41 305.27 570.71 C 305.80 571.75 306.18 572.86 306.39 574.04 C 305.46 573.52 304.58 572.94 303.74 572.30 C 303.21 571.55 302.70 570.80 302.24 570.03 Z" />
<path fill="#797f84" d=" M 310.83 575.32 C 311.42 575.48 312.61 575.80 313.20 575.96 C 312.61 575.80 311.42 575.48 310.83 575.32 Z" />
<path fill="#ffffff" d=" M 363.92 589.26 C 362.91 587.31 363.82 585.01 366.01 584.53 C 365.45 586.16 364.75 587.74 363.92 589.26 Z" />
</svg>
