<?xml version="1.0" encoding="UTF-8" ?>
<!DOCTYPE svg PUBLIC "-//W3C//DTD SVG 1.1//EN" "http://www.w3.org/Graphics/SVG/1.1/DTD/svg11.dtd">
<svg width="582pt" height="616pt" viewBox="0 0 582 616" version="1.1" xmlns="http://www.w3.org/2000/svg">
<path fill="#ffffff" d=" M 0.00 0.00 L 582.00 0.00 L 582.00 616.00 L 0.00 616.00 L 0.00 0.00 Z" />
<path fill="#161717" d=" M 264.83 15.93 C 266.86 15.36 269.38 14.57 271.12 16.22 C 271.55 19.08 271.29 21.99 271.17 24.87 C 274.74 26.98 276.58 30.79 279.12 33.89 C 282.38 36.47 285.96 39.07 290.17 39.70 C 301.66 41.80 313.00 44.94 324.65 46.04 C 326.29 46.79 327.85 47.70 329.32 48.75 C 329.97 55.05 323.36 57.42 319.93 61.35 C 320.10 61.88 320.42 62.92 320.58 63.45 C 322.30 64.91 324.12 66.44 324.98 68.60 C 325.11 70.97 324.67 73.32 324.33 75.65 C 326.02 77.66 327.73 79.72 328.89 82.09 C 328.80 83.70 328.10 85.26 328.31 86.87 C 331.24 91.05 336.70 92.90 338.97 97.57 C 338.17 99.23 338.08 101.05 338.09 102.86 C 337.78 103.48 337.15 104.73 336.84 105.35 C 335.91 105.52 334.99 105.70 334.08 105.88 C 332.71 105.66 330.92 106.30 329.96 104.99 C 328.60 102.78 329.33 99.67 327.39 97.73 C 326.30 96.33 324.69 95.54 323.12 94.81 C 321.27 96.43 319.67 99.24 316.84 98.87 C 314.43 97.89 312.21 96.51 309.89 95.35 C 307.77 96.39 306.71 98.67 304.69 99.83 C 303.19 100.43 301.53 100.57 300.10 101.31 C 298.68 103.55 297.75 106.13 295.74 107.95 C 292.41 108.59 289.52 110.60 286.13 110.96 C 284.72 110.92 282.67 111.68 281.95 109.97 C 281.86 109.16 281.68 107.55 281.59 106.74 C 277.70 109.42 274.84 113.32 273.47 117.84 C 274.81 120.79 275.74 123.92 277.28 126.78 C 278.68 128.78 280.79 130.37 281.53 132.79 C 282.77 135.99 282.03 139.54 281.08 142.73 C 279.37 143.44 276.88 143.19 275.85 145.02 C 275.11 149.14 277.06 152.98 277.41 157.01 C 277.91 162.55 279.20 167.98 279.75 173.51 C 281.90 176.53 285.21 178.44 287.68 181.18 C 290.22 183.52 290.94 187.24 293.71 189.37 C 295.60 190.75 298.08 191.38 299.35 193.51 C 301.54 196.95 305.08 199.18 307.50 202.45 C 310.83 206.57 316.00 208.06 320.23 210.94 C 323.25 212.53 326.98 213.22 328.90 216.35 C 331.77 221.25 332.76 227.04 335.63 231.95 C 337.93 235.19 337.66 239.42 339.58 242.86 C 342.97 250.14 344.67 258.52 350.38 264.45 C 352.55 267.98 356.00 270.32 359.04 273.02 C 362.10 275.62 364.28 279.06 367.30 281.71 C 371.57 285.36 374.22 290.82 379.44 293.35 C 383.10 294.90 386.50 296.98 390.17 298.48 C 393.64 299.97 397.49 299.24 401.03 298.41 C 405.70 297.43 410.35 299.18 415.04 298.76 C 419.61 298.53 424.37 296.69 428.71 298.97 C 430.86 300.86 433.00 302.77 434.62 305.15 C 434.46 306.38 434.31 307.62 434.18 308.85 C 430.53 311.73 426.02 313.51 422.89 317.02 C 422.18 318.71 422.96 320.57 424.52 321.45 C 429.68 325.09 434.95 328.82 441.17 330.41 C 447.80 333.26 454.34 336.38 461.10 338.96 C 463.88 341.11 467.18 341.45 470.58 341.47 C 474.78 343.28 477.82 346.89 481.43 349.60 C 484.50 351.67 486.55 355.06 490.08 356.48 C 494.39 358.21 498.66 360.11 503.19 361.19 C 505.77 361.84 508.52 362.72 510.27 364.87 C 512.37 367.37 514.17 370.16 516.77 372.20 C 521.10 378.67 528.15 383.11 531.37 390.38 C 532.13 393.59 533.67 397.17 532.07 400.38 C 530.35 404.07 531.15 408.51 528.89 411.99 C 528.37 413.66 526.47 413.33 525.15 413.03 C 522.48 411.90 520.42 409.72 517.80 408.51 C 513.03 406.97 509.15 403.05 507.37 398.40 C 505.56 395.25 502.70 392.79 501.29 389.39 C 498.74 387.94 495.78 388.47 493.00 388.15 C 490.67 387.30 488.82 385.44 486.32 384.97 C 487.00 384.17 487.68 383.36 488.36 382.56 C 491.08 384.17 493.97 386.63 497.37 385.66 C 502.36 385.46 504.43 390.28 507.16 393.53 C 509.43 396.12 510.04 399.85 512.78 402.07 C 516.46 406.34 522.54 406.63 526.45 410.67 C 526.43 405.78 529.50 401.77 529.88 396.99 C 529.60 392.89 527.66 389.11 525.20 385.89 C 521.87 381.52 516.87 378.80 513.92 374.10 C 511.28 371.66 509.65 368.44 507.50 365.64 C 503.66 363.95 499.42 363.34 495.59 361.56 C 492.47 360.12 488.86 359.77 485.96 357.94 C 481.69 352.93 476.51 348.81 471.15 345.05 C 467.50 344.38 463.41 344.34 460.54 341.62 C 453.76 339.14 447.09 336.37 440.50 333.45 C 434.14 331.98 429.05 327.76 423.58 324.47 C 420.77 322.68 420.20 319.14 419.87 316.09 C 422.62 312.00 427.48 310.21 431.13 307.08 C 431.81 306.39 431.83 305.69 431.20 304.99 C 429.23 302.52 426.14 301.29 423.19 300.43 C 418.88 301.60 414.34 300.75 409.96 301.42 C 403.52 300.01 397.24 302.48 390.82 302.15 C 388.94 305.26 390.12 308.73 390.11 312.10 C 389.32 315.14 385.39 315.45 384.19 318.20 C 383.48 320.63 384.76 323.05 386.11 325.00 C 388.08 327.79 389.98 330.86 393.00 332.64 C 395.50 334.09 396.19 337.13 397.45 339.54 C 400.96 341.62 404.98 343.01 409.01 343.49 C 414.16 341.91 419.93 341.76 424.90 344.04 C 426.94 346.69 428.34 349.87 430.64 352.29 C 436.92 355.76 441.30 363.07 449.21 363.00 C 455.11 363.24 457.11 370.03 457.04 374.95 C 458.85 376.27 460.67 378.13 463.01 378.28 C 465.11 376.51 467.16 374.68 469.54 373.28 C 471.50 373.42 473.91 372.78 475.39 374.46 C 477.02 376.50 478.13 379.00 480.44 380.42 C 482.88 380.64 485.20 381.42 487.59 381.95 C 486.99 382.82 486.40 383.70 485.87 384.62 C 482.21 383.87 478.88 382.17 475.74 380.22 C 474.74 379.08 473.63 378.05 472.51 377.06 C 468.58 377.21 465.23 380.05 463.54 383.47 C 459.91 390.14 455.67 396.68 453.54 404.02 C 453.42 409.03 451.15 413.68 451.33 418.71 C 452.64 421.26 454.99 422.45 457.84 422.04 C 460.09 423.77 462.56 425.18 465.00 426.64 C 469.35 427.71 473.67 430.08 476.13 433.94 C 477.58 437.10 476.62 440.70 476.88 444.05 C 476.56 448.83 481.26 452.32 480.82 457.12 C 480.89 458.92 479.67 460.40 479.00 461.99 C 476.61 461.86 474.31 461.23 471.98 460.78 C 466.92 461.56 461.29 462.73 457.77 466.77 C 456.27 468.27 455.20 470.12 454.02 471.87 C 454.18 472.58 454.49 473.98 454.64 474.69 C 453.99 478.86 456.71 483.09 454.92 487.12 C 454.35 489.82 451.88 491.29 449.82 492.80 C 445.66 495.59 442.87 499.85 439.54 503.50 C 438.07 506.46 436.79 509.58 436.40 512.89 C 434.73 516.49 430.68 517.54 427.01 517.06 C 422.69 516.60 418.17 516.62 414.10 514.98 C 411.31 511.18 412.45 506.10 412.80 501.75 C 414.81 499.53 416.93 497.37 419.59 495.95 C 420.36 494.02 421.38 492.19 422.00 490.21 C 421.75 487.35 421.45 484.49 421.49 481.62 C 420.14 479.91 419.00 477.41 420.48 475.42 C 423.52 471.07 429.66 471.75 433.71 469.01 C 436.71 464.46 434.76 458.83 432.54 454.37 C 431.10 448.83 427.88 443.86 427.24 438.10 C 426.34 433.49 425.09 427.76 420.12 425.96 C 418.04 422.03 417.63 417.54 416.62 413.28 C 417.48 412.55 418.32 411.80 419.17 411.06 C 419.47 416.61 420.09 422.36 423.87 426.76 C 425.19 426.90 427.02 427.00 427.22 428.72 C 430.11 438.77 432.69 449.04 437.54 458.37 C 437.65 458.94 437.87 460.07 437.97 460.63 C 437.60 463.79 437.50 467.01 436.65 470.09 C 432.42 473.64 425.75 473.16 422.20 477.76 C 425.18 481.52 424.34 486.55 424.31 491.01 C 423.04 495.64 420.66 500.11 416.14 502.26 C 415.25 505.75 415.33 509.44 416.07 512.96 C 420.33 514.78 424.98 513.80 429.42 514.58 C 430.55 514.23 431.69 513.90 432.84 513.57 C 434.83 508.27 436.19 502.50 440.42 498.42 C 443.71 493.93 448.49 490.90 452.18 486.85 C 452.98 482.44 451.84 477.88 451.51 473.45 C 451.93 469.85 454.07 467.01 456.18 464.24 C 461.43 458.15 470.37 456.69 477.94 458.07 C 478.49 453.09 473.97 449.26 474.51 444.29 C 474.70 441.38 473.92 438.49 474.43 435.60 C 471.13 432.73 467.72 429.66 463.40 428.48 C 459.99 426.91 456.93 423.74 452.85 424.79 C 451.19 423.10 448.81 421.63 448.65 419.02 C 448.44 416.29 448.92 413.59 449.17 410.88 C 449.43 410.48 449.93 409.69 450.19 409.29 C 450.02 406.07 451.58 403.11 451.47 399.90 C 450.07 399.62 448.66 399.38 447.26 399.17 C 445.46 401.30 445.08 404.17 443.58 406.44 C 440.51 409.23 436.04 410.70 432.03 409.18 C 430.89 407.28 429.58 405.07 427.11 404.92 C 424.52 405.12 421.72 405.73 419.61 407.26 C 419.15 409.10 418.22 410.72 417.03 412.17 C 417.54 407.81 413.82 405.35 410.05 404.86 C 406.23 405.40 402.44 407.54 398.53 406.35 C 392.76 404.11 390.70 396.39 383.97 395.91 C 380.73 392.52 383.87 387.61 382.64 383.56 C 381.41 379.98 379.72 376.57 377.95 373.23 C 376.38 371.57 373.99 370.93 371.94 370.03 C 368.07 372.77 363.42 372.42 358.91 372.30 C 358.45 371.87 357.54 371.00 357.08 370.57 C 357.82 368.41 361.33 366.64 359.69 364.25 C 355.59 361.04 350.02 362.33 345.44 360.31 C 341.99 359.83 342.12 355.68 340.72 353.23 C 338.45 349.22 336.31 345.07 333.42 341.46 C 330.09 339.85 326.54 338.82 322.82 339.06 C 318.58 337.80 314.66 335.01 310.08 334.86 C 307.41 335.15 304.72 335.36 302.03 335.28 C 299.62 333.65 297.30 331.89 295.26 329.80 C 292.24 326.74 287.60 326.56 284.25 324.00 C 279.97 319.51 276.28 314.49 271.52 310.48 C 268.75 308.36 268.33 304.53 265.67 302.29 C 262.41 299.23 259.69 295.38 255.56 293.45 C 252.03 292.08 250.60 288.31 248.23 285.66 C 245.19 282.27 243.27 277.46 238.57 276.02 C 235.49 275.00 232.50 272.68 229.13 273.79 C 225.64 274.45 222.22 270.99 223.91 267.48 C 225.72 265.78 224.83 263.16 223.35 261.59 C 219.76 257.16 216.22 252.52 211.49 249.25 C 208.85 247.79 209.45 244.09 206.90 242.48 C 205.34 242.44 203.79 242.36 202.25 242.22 C 202.07 237.83 201.42 233.46 201.65 229.06 C 202.00 224.69 199.16 221.06 198.01 217.03 C 193.33 214.66 189.75 208.88 191.53 203.68 C 191.48 201.94 191.84 200.17 191.52 198.45 C 189.58 195.06 186.82 192.20 185.22 188.61 C 183.19 184.88 179.22 182.56 174.93 183.29 C 171.02 180.86 168.05 177.28 164.48 174.43 C 160.76 171.89 156.83 169.51 152.37 168.57 C 149.35 164.52 144.38 162.76 139.69 161.36 C 135.83 162.86 131.76 163.79 128.07 165.71 C 130.02 164.31 131.79 162.64 132.64 160.33 C 136.52 158.69 140.97 158.43 145.01 159.60 C 148.16 160.62 149.84 163.63 152.15 165.77 C 154.17 166.08 156.23 166.04 158.27 166.15 C 159.25 168.01 160.55 169.69 162.57 170.48 C 164.43 171.89 166.34 173.23 168.34 174.45 C 168.40 174.50 168.53 174.60 168.59 174.65 C 171.38 177.46 174.24 182.29 178.88 181.21 C 181.97 180.79 181.21 176.92 181.40 174.69 C 181.91 175.50 182.40 176.32 182.88 177.14 C 182.88 179.34 183.04 181.64 184.64 183.31 C 187.30 186.50 189.34 190.08 191.49 193.60 C 191.64 194.09 191.95 195.05 192.10 195.53 C 192.59 195.84 193.56 196.45 194.05 196.75 C 194.31 199.78 194.24 202.85 193.33 205.77 C 193.71 207.39 194.05 209.02 194.34 210.67 C 197.08 213.99 201.00 216.32 202.58 220.50 C 204.89 226.40 204.60 232.75 204.42 238.96 C 207.74 240.20 211.30 241.90 212.13 245.71 C 213.64 247.26 215.18 248.80 216.51 250.51 C 220.78 253.89 224.43 258.03 227.31 262.64 C 229.17 265.06 227.32 267.89 226.88 270.47 C 231.88 270.13 236.69 271.58 241.21 273.60 C 244.99 269.26 243.25 261.51 249.67 259.38 C 250.88 255.44 251.38 251.01 254.93 248.37 C 255.65 248.43 257.10 248.55 257.82 248.62 C 261.33 245.82 259.65 241.41 259.27 237.66 C 259.19 234.27 261.29 231.42 262.80 228.55 C 263.88 228.21 264.97 227.88 266.06 227.56 C 267.82 223.60 265.54 219.60 264.09 215.94 C 267.60 211.94 273.21 209.80 275.12 204.47 C 267.50 206.02 259.84 202.82 254.08 197.99 C 252.15 196.13 251.33 193.54 250.91 190.97 C 251.14 188.30 252.32 184.97 250.34 182.73 C 246.63 180.93 243.05 178.84 239.22 177.30 C 238.09 178.17 236.97 179.05 235.86 179.93 C 231.01 180.21 226.10 180.74 221.69 182.93 C 217.10 179.35 211.07 178.88 206.18 175.90 C 202.93 174.05 199.14 173.23 196.17 170.88 C 191.81 167.15 185.93 165.21 182.83 160.10 C 180.23 161.24 177.57 162.25 175.01 163.48 C 176.76 166.45 177.87 169.73 179.11 172.93 C 178.78 172.70 178.12 172.24 177.79 172.01 C 176.23 169.48 174.90 166.82 173.11 164.44 C 173.07 163.75 172.99 162.37 172.95 161.68 C 170.22 161.34 167.13 161.45 165.18 159.12 C 168.38 158.78 171.58 159.41 173.87 161.82 C 176.83 160.27 179.56 157.98 182.86 157.23 C 185.77 159.25 187.37 162.91 190.96 164.00 C 194.55 165.05 196.26 168.71 199.51 170.33 C 203.76 172.64 208.07 175.16 212.92 175.96 C 216.30 176.33 218.76 179.12 222.11 179.57 C 225.44 178.98 228.68 177.79 232.11 177.72 C 234.75 177.93 236.61 175.90 238.86 174.95 C 243.56 175.79 247.59 178.59 252.13 179.97 C 254.07 183.74 253.63 187.98 253.69 192.06 C 253.50 194.46 255.52 196.12 256.83 197.87 C 261.06 198.78 264.57 201.94 268.98 202.14 C 270.53 199.34 268.44 195.42 271.09 193.06 C 272.88 190.73 275.72 189.84 278.47 189.26 C 280.02 188.54 282.04 186.75 283.68 188.16 C 286.01 189.67 285.71 192.62 285.87 195.02 C 286.96 195.66 288.05 196.30 289.15 196.95 C 289.86 195.74 290.55 194.53 291.24 193.32 C 288.82 189.80 287.83 185.34 284.52 182.48 C 282.04 180.17 279.59 177.82 276.99 175.66 C 275.14 166.42 274.66 156.93 272.42 147.77 C 271.74 144.10 274.41 137.83 269.01 137.06 C 262.78 136.01 256.11 134.95 250.03 137.28 C 244.44 137.84 238.77 137.24 233.39 135.66 C 229.59 135.83 225.84 136.91 222.00 136.38 C 221.55 136.73 220.65 137.43 220.20 137.79 C 217.52 137.41 215.17 136.08 212.75 134.98 C 209.57 134.70 206.26 135.60 203.21 134.27 C 196.86 131.82 190.67 128.95 184.86 125.40 C 178.17 127.11 171.21 125.31 164.43 126.33 C 160.47 127.31 160.60 132.07 158.94 135.05 C 159.31 135.49 160.07 136.38 160.45 136.82 C 160.18 138.86 160.51 141.38 158.66 142.79 C 156.76 144.32 154.80 145.79 153.26 147.71 C 156.53 149.06 159.88 150.29 163.00 151.96 C 164.39 154.05 164.40 156.71 165.12 159.06 C 163.65 157.66 163.14 155.64 162.21 153.90 C 158.71 151.81 155.32 149.50 151.73 147.57 C 152.51 144.90 153.34 141.85 156.56 141.43 C 156.85 140.97 157.43 140.06 157.72 139.61 L 157.77 139.53 L 157.77 139.46 C 157.65 137.17 157.27 134.92 156.99 132.66 C 157.90 131.08 158.73 129.46 159.53 127.83 L 159.63 127.63 L 159.79 127.45 C 160.52 126.66 161.25 125.87 161.99 125.08 C 170.47 123.76 179.10 124.01 187.65 124.06 C 189.45 125.90 191.35 127.82 193.99 128.37 L 194.31 128.49 C 194.40 128.52 194.60 128.60 194.70 128.63 C 198.28 129.47 201.27 132.02 205.03 132.14 C 206.99 133.22 209.30 133.19 211.25 132.10 C 211.64 132.03 212.43 131.88 212.83 131.81 C 213.04 133.34 214.79 133.73 216.03 134.11 C 220.82 135.58 226.22 135.46 230.98 133.87 C 231.44 133.93 232.36 134.03 232.82 134.09 L 233.33 133.40 C 234.05 132.56 234.76 131.71 235.46 130.85 C 236.16 131.86 236.90 132.83 237.62 133.82 C 243.32 135.40 249.33 134.80 255.02 133.51 C 258.79 132.59 262.57 133.79 266.31 134.23 C 269.39 134.67 272.71 134.94 275.09 137.19 C 275.16 137.88 275.30 139.28 275.37 139.98 C 276.08 140.03 277.50 140.12 278.21 140.17 C 279.11 137.38 279.15 134.42 277.91 131.73 C 274.38 129.72 273.46 125.58 271.72 122.22 C 270.58 120.09 270.27 117.50 271.16 115.22 C 273.67 109.29 277.95 103.69 284.24 101.51 C 285.72 103.33 285.85 105.64 285.96 107.88 C 288.88 106.88 291.81 105.83 294.56 104.38 C 296.55 102.63 297.16 99.71 299.32 98.06 C 300.61 97.72 301.93 97.45 303.26 97.23 C 301.15 94.78 299.36 92.09 297.73 89.31 C 294.33 89.30 291.00 89.98 287.72 90.77 C 284.46 87.45 281.57 83.75 279.19 79.75 C 278.58 77.29 279.70 74.73 279.24 72.23 C 278.49 70.43 277.46 68.77 276.56 67.05 C 277.77 62.94 279.18 58.89 280.72 54.89 C 286.49 54.17 290.55 48.98 290.23 43.24 C 287.70 42.07 285.11 41.02 282.59 39.85 C 279.04 42.08 275.39 44.18 271.43 45.58 C 269.11 44.40 266.69 43.33 264.01 43.59 C 263.64 45.57 263.04 47.50 262.12 49.30 C 260.47 50.04 257.49 50.29 257.79 52.76 C 258.43 58.69 261.23 64.53 259.76 70.53 C 258.88 71.09 258.01 71.64 257.14 72.20 C 256.65 72.25 255.69 72.36 255.20 72.41 C 253.97 73.24 252.74 74.05 251.48 74.83 C 251.00 76.13 250.53 77.44 250.09 78.76 C 247.60 80.54 244.70 80.98 241.79 79.99 C 240.34 81.19 238.99 82.50 237.74 83.91 C 235.89 84.72 234.07 85.62 232.38 86.73 C 231.90 88.75 232.01 91.74 229.68 92.62 C 227.84 92.93 225.95 92.90 224.12 92.66 C 222.89 91.84 222.73 90.09 222.01 88.86 C 220.82 89.00 219.63 89.14 218.44 89.28 C 218.35 89.83 218.17 90.94 218.08 91.49 C 215.62 95.44 210.82 99.71 212.84 104.76 C 213.23 106.14 214.01 107.35 214.75 108.56 C 215.07 110.30 215.40 112.03 215.73 113.77 C 220.70 116.48 222.46 122.40 227.31 125.26 C 226.57 125.19 225.08 125.04 224.34 124.97 C 220.50 120.91 215.29 117.53 214.22 111.66 C 210.86 106.76 211.71 100.54 212.74 95.02 C 214.08 94.49 214.90 93.28 215.34 91.94 C 217.13 90.08 218.14 86.44 215.93 84.65 C 212.21 84.46 208.47 85.27 204.73 85.05 C 205.05 83.83 205.38 82.62 205.73 81.42 C 206.07 82.08 206.74 83.39 207.08 84.05 C 208.00 83.62 208.91 83.20 209.83 82.78 C 213.49 83.46 217.55 83.76 220.12 86.82 C 220.56 86.55 221.44 86.01 221.89 85.74 C 223.41 87.04 224.52 88.69 225.28 90.53 C 226.48 90.48 227.69 90.38 228.89 90.24 C 229.90 88.44 230.31 86.33 231.54 84.66 C 233.17 83.47 235.14 82.90 236.98 82.13 C 238.09 80.10 239.87 78.64 241.93 77.64 C 243.98 78.93 246.25 78.72 248.39 77.80 C 249.17 72.83 254.22 71.21 257.99 68.97 C 258.26 63.07 255.98 57.47 255.89 51.61 C 256.47 48.39 260.31 47.79 262.08 45.40 C 262.02 44.79 261.89 43.59 261.83 42.98 C 263.20 42.36 264.57 41.72 265.95 41.09 C 267.94 41.74 269.83 42.92 271.98 42.97 C 274.88 42.51 277.70 40.94 279.28 38.41 C 277.15 36.60 275.61 34.27 274.06 31.97 C 272.36 29.38 269.04 28.00 268.10 24.89 C 267.82 22.87 267.90 20.83 267.83 18.80 C 262.75 18.85 258.49 21.60 253.99 23.48 C 249.21 23.50 244.36 22.61 239.61 23.77 C 236.17 26.07 232.27 27.50 228.73 29.61 C 226.36 30.92 223.79 32.24 221.00 32.06 C 217.43 32.35 214.59 29.31 211.02 29.75 C 208.63 29.82 206.08 30.12 204.23 31.78 C 204.63 35.55 204.02 39.31 203.30 43.00 C 205.56 45.69 207.94 48.52 208.88 51.98 C 209.27 55.17 207.44 58.26 208.22 61.45 C 209.14 65.65 209.26 70.03 208.06 74.19 C 208.23 70.40 207.96 66.62 207.27 62.90 C 206.58 58.80 207.48 54.58 206.68 50.51 C 205.05 48.80 202.97 47.42 202.04 45.16 C 201.82 43.89 201.09 43.14 199.85 42.91 C 198.50 42.52 197.18 42.07 195.85 41.62 L 195.54 41.24 L 195.14 41.34 L 195.35 41.69 C 194.67 41.79 193.32 42.00 192.64 42.10 L 192.23 42.16 L 191.98 42.42 C 191.54 42.91 190.65 43.91 190.21 44.40 C 190.98 50.15 191.78 56.10 190.21 61.80 C 186.26 61.82 184.16 58.51 182.05 55.72 C 181.32 54.38 180.63 54.40 179.99 55.77 C 179.20 56.40 178.42 57.03 177.63 57.67 C 174.52 56.95 171.39 56.28 168.22 55.82 C 167.75 55.33 166.81 54.34 166.34 53.84 C 166.23 51.45 168.07 48.08 165.61 46.44 C 164.29 45.32 162.62 46.51 161.21 46.78 C 161.42 52.34 157.05 56.27 155.09 61.11 C 153.84 64.17 150.62 66.41 150.96 70.01 C 151.18 73.58 150.09 76.97 147.94 79.82 C 146.33 79.27 144.71 78.74 143.11 78.19 C 143.15 75.81 142.83 73.02 139.78 73.10 C 139.57 71.71 138.05 70.69 136.73 71.35 C 137.01 69.90 136.96 68.38 135.68 67.42 C 131.15 63.39 128.05 56.86 129.70 50.79 C 130.24 49.28 128.47 47.87 127.08 48.00 C 123.68 47.34 121.39 50.25 119.33 52.42 C 116.40 55.39 117.09 60.20 114.28 63.26 C 111.93 65.95 109.42 68.50 107.24 71.34 C 107.11 72.00 106.85 73.32 106.72 73.99 C 97.16 74.40 87.52 73.04 78.04 74.75 C 73.69 75.47 68.69 74.01 64.99 77.04 C 65.42 80.98 65.90 85.14 68.08 88.55 C 67.35 90.26 68.61 91.94 69.97 92.87 C 72.12 94.76 74.16 96.78 76.03 98.95 C 75.66 100.25 75.30 101.56 75.02 102.89 C 73.38 103.61 72.82 105.56 73.17 107.21 C 70.86 108.86 68.74 110.77 66.78 112.83 C 66.16 112.99 64.91 113.30 64.29 113.46 C 63.74 114.26 63.19 115.06 62.64 115.86 C 62.10 115.94 61.00 116.11 60.45 116.19 C 57.83 116.19 58.24 119.28 58.46 121.06 C 58.31 121.80 58.01 123.30 57.86 124.04 C 58.23 124.39 58.98 125.08 59.35 125.42 C 59.40 125.48 59.51 125.59 59.57 125.65 C 61.67 128.52 64.04 131.21 66.92 133.33 C 67.24 133.79 67.88 134.69 68.20 135.15 C 67.48 137.69 66.25 140.06 64.55 142.09 L 64.32 142.35 L 64.12 142.63 C 61.20 146.41 59.17 152.67 63.36 156.36 C 63.42 156.44 63.54 156.59 63.60 156.67 C 67.94 160.73 69.22 167.52 74.69 170.33 C 75.28 170.53 76.45 170.92 77.03 171.12 C 80.89 172.40 85.00 172.00 88.99 171.77 C 89.56 172.13 90.69 172.83 91.26 173.18 C 91.14 176.16 90.27 179.04 88.74 181.60 C 85.29 183.22 85.17 187.80 87.60 190.37 L 88.05 191.10 C 88.51 191.05 89.43 190.95 89.88 190.90 C 92.62 189.80 93.78 186.54 96.62 185.57 C 99.98 184.38 103.58 184.21 107.09 183.84 C 110.63 180.96 113.55 177.38 115.06 173.02 C 115.74 172.98 117.09 172.89 117.77 172.84 C 119.77 168.97 123.28 166.09 127.75 165.78 C 125.05 168.40 122.71 171.52 119.26 173.22 C 113.97 175.46 113.42 182.18 109.11 185.46 C 105.20 187.11 100.80 187.04 96.87 188.61 C 93.83 190.67 91.61 194.32 87.53 194.41 C 84.09 193.02 82.69 188.92 83.47 185.47 C 84.93 182.90 86.74 180.55 88.40 178.11 C 88.51 176.38 87.56 174.85 87.01 173.28 C 82.34 174.19 77.61 173.37 72.98 172.59 C 69.12 171.38 67.41 167.48 65.67 164.19 C 64.44 161.60 62.15 159.82 60.37 157.65 C 59.01 155.37 58.23 152.78 57.70 150.20 C 59.99 146.10 60.17 140.82 63.99 137.72 C 64.01 137.13 64.05 135.93 64.07 135.34 C 62.88 134.04 61.66 132.77 60.59 131.37 C 58.90 128.64 55.20 127.56 54.59 124.11 C 55.35 122.03 55.33 119.85 54.63 117.77 C 55.87 116.05 57.21 114.18 59.40 113.67 C 63.95 112.46 68.02 109.61 70.56 105.64 C 71.00 103.68 72.10 101.91 72.34 99.92 C 71.47 97.03 67.93 96.15 66.56 93.57 C 64.72 88.00 62.58 82.47 61.99 76.59 C 62.14 76.09 62.44 75.07 62.59 74.56 C 65.42 73.09 68.41 71.54 71.72 72.16 C 78.81 73.96 85.86 70.34 93.04 71.20 C 96.74 71.87 100.53 71.96 104.25 71.42 C 104.53 71.10 105.11 70.47 105.40 70.16 C 108.12 67.96 110.23 65.15 112.23 62.32 C 113.84 59.04 114.65 55.44 116.14 52.12 C 118.07 49.16 121.79 48.33 124.36 46.07 C 126.25 44.31 128.79 45.47 130.92 46.05 C 130.98 51.28 131.47 56.47 132.27 61.64 C 133.46 63.45 136.54 62.37 137.49 64.42 C 138.40 66.69 139.60 68.85 141.60 70.34 C 143.88 72.00 144.63 74.81 145.88 77.20 C 149.77 74.30 145.94 69.43 148.88 66.03 C 151.36 63.93 152.22 60.65 153.82 57.94 C 155.80 54.20 159.25 50.64 158.54 46.07 C 159.60 42.84 163.33 43.24 165.97 42.31 C 166.47 42.86 167.46 43.97 167.95 44.52 C 168.01 44.99 168.12 45.94 168.17 46.41 C 169.62 48.28 169.00 50.73 169.08 52.91 C 171.21 54.53 173.87 54.75 176.46 54.56 C 177.92 52.38 180.75 51.47 183.06 52.94 C 185.03 54.64 186.26 57.03 188.04 58.93 C 190.08 55.01 186.79 50.93 187.87 46.75 C 187.49 46.30 186.73 45.42 186.35 44.97 C 188.60 40.31 194.86 36.77 199.49 40.30 C 199.86 39.98 200.59 39.32 200.96 39.00 C 201.63 35.74 202.04 32.43 202.19 29.11 C 202.83 28.38 203.46 27.65 204.11 26.93 C 207.10 27.00 210.10 26.92 213.07 26.44 C 215.16 25.99 216.79 27.80 218.41 28.82 C 221.48 29.15 224.78 28.99 227.47 27.29 C 231.33 24.80 235.43 22.73 239.46 20.54 C 242.62 19.89 245.89 19.49 249.10 20.01 C 251.70 20.30 254.79 20.85 256.90 18.85 C 259.01 16.70 262.14 16.81 264.83 15.93 Z" />
<path fill="#ffffff" d=" M 253.99 23.48 C 258.49 21.60 262.75 18.85 267.83 18.80 C 267.90 20.83 267.82 22.87 268.10 24.89 C 269.04 28.00 272.36 29.38 274.06 31.97 C 275.61 34.27 277.15 36.60 279.28 38.41 C 277.70 40.94 274.88 42.51 271.98 42.97 C 269.83 42.92 267.94 41.74 265.95 41.09 C 264.57 41.72 263.20 42.36 261.83 42.98 C 261.89 43.59 262.02 44.79 262.08 45.40 C 260.31 47.79 256.47 48.39 255.89 51.61 C 255.98 57.47 258.26 63.07 257.99 68.97 C 254.22 71.21 249.17 72.83 248.39 77.80 C 246.25 78.72 243.98 78.93 241.93 77.64 C 239.87 78.64 238.09 80.10 236.98 82.13 C 235.14 82.90 233.17 83.47 231.54 84.66 C 230.31 86.33 229.90 88.44 228.89 90.24 C 227.69 90.38 226.48 90.48 225.28 90.53 C 224.52 88.69 223.41 87.04 221.89 85.74 C 221.44 86.01 220.56 86.55 220.12 86.82 C 217.55 83.76 213.49 83.46 209.83 82.78 C 208.91 83.20 208.00 83.62 207.08 84.05 C 206.74 83.39 206.07 82.08 205.73 81.42 C 206.45 78.99 207.26 76.59 208.06 74.19 C 209.26 70.03 209.14 65.65 208.22 61.45 C 207.44 58.26 209.27 55.17 208.88 51.98 C 207.94 48.52 205.56 45.69 203.30 43.00 C 204.02 39.31 204.63 35.55 204.23 31.78 C 206.08 30.12 208.63 29.82 211.02 29.75 C 214.59 29.31 217.43 32.35 221.00 32.06 C 223.79 32.24 226.36 30.92 228.73 29.61 C 232.27 27.50 236.17 26.07 239.61 23.77 C 244.36 22.61 249.21 23.50 253.99 23.48 Z" />
<path fill="#ffffff" d=" M 271.43 45.58 C 275.39 44.18 279.04 42.08 282.59 39.85 C 285.11 41.02 287.70 42.07 290.23 43.24 C 290.55 48.98 286.49 54.17 280.72 54.89 C 279.18 58.89 277.77 62.94 276.56 67.05 C 277.46 68.77 278.49 70.43 279.24 72.23 C 279.70 74.73 278.58 77.29 279.19 79.75 C 281.57 83.75 284.46 87.45 287.72 90.77 C 291.00 89.98 294.33 89.30 297.73 89.31 C 299.36 92.09 301.15 94.78 303.26 97.23 C 301.93 97.45 300.61 97.72 299.32 98.06 C 297.16 99.71 296.55 102.63 294.56 104.38 C 291.81 105.83 288.88 106.88 285.96 107.88 C 285.85 105.64 285.72 103.33 284.24 101.51 C 277.95 103.69 273.67 109.29 271.16 115.22 C 270.27 117.50 270.58 120.09 271.72 122.22 C 273.46 125.58 274.38 129.72 277.91 131.73 C 279.15 134.42 279.11 137.38 278.21 140.17 C 277.50 140.12 276.08 140.03 275.37 139.98 C 275.30 139.28 275.16 137.88 275.09 137.19 C 272.71 134.94 269.39 134.67 266.31 134.23 C 262.57 133.79 258.79 132.59 255.02 133.51 C 249.33 134.80 243.32 135.40 237.62 133.82 C 236.90 132.83 236.16 131.86 235.46 130.85 C 235.22 130.27 234.74 129.11 234.50 128.53 C 231.82 128.13 229.33 127.09 227.31 125.26 C 222.46 122.40 220.70 116.48 215.73 113.77 C 215.40 112.03 215.07 110.30 214.75 108.56 C 214.01 107.35 213.23 106.14 212.84 104.76 C 210.82 99.71 215.62 95.44 218.08 91.49 C 218.17 90.94 218.35 89.83 218.44 89.28 C 219.63 89.14 220.82 89.00 222.01 88.86 C 222.73 90.09 222.89 91.84 224.12 92.66 C 225.95 92.90 227.84 92.93 229.68 92.62 C 232.01 91.74 231.90 88.75 232.38 86.73 C 234.07 85.62 235.89 84.72 237.74 83.91 C 238.99 82.50 240.34 81.19 241.79 79.99 C 244.70 80.98 247.60 80.54 250.09 78.76 C 250.53 77.44 251.00 76.13 251.48 74.83 C 252.74 74.05 253.97 73.24 255.20 72.41 C 255.69 72.36 256.65 72.25 257.14 72.20 C 258.01 71.64 258.88 71.09 259.76 70.53 C 261.23 64.53 258.43 58.69 257.79 52.76 C 257.49 50.29 260.47 50.04 262.12 49.30 C 263.04 47.50 263.64 45.57 264.01 43.59 C 266.69 43.33 269.11 44.40 271.43 45.58 Z" />
<path fill="#9b9b9c" d=" M 195.14 41.34 L 195.54 41.24 L 195.85 41.62 L 195.35 41.69 L 195.14 41.34 Z" />
<path fill="#9b9b9c" d=" M 192.23 42.16 L 192.64 42.10 C 192.47 42.18 192.15 42.34 191.98 42.42 L 192.23 42.16 Z" />
<path fill="#317abc" d=" M 192.64 42.10 C 193.32 42.00 194.67 41.79 195.35 41.69 L 195.85 41.62 C 197.18 42.07 198.50 42.52 199.85 42.91 C 199.76 44.46 200.49 45.21 202.04 45.16 C 202.97 47.42 205.05 48.80 206.68 50.51 C 207.48 54.58 206.58 58.80 207.27 62.90 C 207.96 66.62 208.23 70.40 208.06 74.19 C 207.26 76.59 206.45 78.99 205.73 81.42 C 205.38 82.62 205.05 83.83 204.73 85.05 C 208.47 85.27 212.21 84.46 215.93 84.65 C 218.14 86.44 217.13 90.08 215.34 91.94 C 213.57 91.79 212.47 93.38 212.74 95.02 C 211.71 100.54 210.86 106.76 214.22 111.66 C 215.29 117.53 220.50 120.91 224.34 124.97 C 225.08 125.04 226.57 125.19 227.31 125.26 C 229.33 127.09 231.82 128.13 234.50 128.53 C 234.74 129.11 235.22 130.27 235.46 130.85 C 234.76 131.71 234.05 132.56 233.33 133.40 C 232.74 133.52 231.57 133.75 230.98 133.87 C 226.22 135.46 220.82 135.58 216.03 134.11 C 215.73 132.66 214.45 131.12 212.83 131.81 C 212.43 131.88 211.64 132.03 211.25 132.10 C 209.25 131.26 207.00 131.22 205.03 132.14 C 201.27 132.02 198.28 129.47 194.70 128.63 C 194.60 128.60 194.40 128.52 194.31 128.49 L 193.99 128.37 C 192.15 127.10 190.49 125.60 188.76 124.19 L 187.65 124.06 C 179.10 124.01 170.47 123.76 161.99 125.08 C 161.25 125.87 160.52 126.66 159.79 127.45 L 159.64 127.61 L 159.53 127.83 C 158.73 129.46 157.90 131.08 156.99 132.66 C 157.27 134.92 157.65 137.17 157.77 139.46 C 157.76 139.49 157.73 139.57 157.72 139.61 C 157.43 140.06 156.85 140.97 156.56 141.43 C 153.34 141.85 152.51 144.90 151.73 147.57 C 155.32 149.50 158.71 151.81 162.21 153.90 C 163.14 155.64 163.65 157.66 165.12 159.06 L 165.18 159.12 C 167.13 161.45 170.22 161.34 172.95 161.68 C 172.99 162.37 173.07 163.75 173.11 164.44 C 174.90 166.82 176.23 169.48 177.79 172.01 C 178.12 172.24 178.78 172.70 179.11 172.93 C 179.92 173.45 180.68 174.04 181.40 174.69 C 181.21 176.92 181.97 180.79 178.88 181.21 C 174.24 182.29 171.38 177.46 168.59 174.65 L 168.48 174.54 L 168.34 174.45 C 166.34 173.23 164.43 171.89 162.57 170.48 C 160.55 169.69 159.25 168.01 158.27 166.15 C 156.23 166.04 154.17 166.08 152.15 165.77 C 149.84 163.63 148.16 160.62 145.01 159.60 C 140.97 158.43 136.52 158.69 132.64 160.33 C 131.79 162.64 130.02 164.31 128.07 165.71 L 127.75 165.78 C 123.28 166.09 119.77 168.97 117.77 172.84 C 117.09 172.89 115.74 172.98 115.06 173.02 C 113.55 177.38 110.63 180.96 107.09 183.84 C 103.58 184.21 99.98 184.38 96.62 185.57 C 93.78 186.54 92.62 189.80 89.88 190.90 C 89.31 190.77 88.17 190.50 87.60 190.37 C 85.17 187.80 85.29 183.22 88.74 181.60 C 90.27 179.04 91.14 176.16 91.26 173.18 C 90.69 172.83 89.56 172.13 88.99 171.77 C 85.00 172.00 80.89 172.40 77.03 171.12 C 76.66 170.84 75.92 170.29 75.54 170.02 L 74.69 170.33 C 69.22 167.52 67.94 160.73 63.60 156.67 C 63.54 156.59 63.42 156.44 63.36 156.36 C 59.17 152.67 61.20 146.41 64.12 142.63 L 64.35 142.38 L 64.55 142.09 C 66.25 140.06 67.48 137.69 68.20 135.15 L 68.46 134.37 C 68.08 134.11 67.30 133.59 66.92 133.33 C 64.04 131.21 61.67 128.52 59.57 125.65 L 59.47 125.53 L 59.35 125.42 C 58.98 125.08 58.23 124.39 57.86 124.04 C 58.01 123.30 58.31 121.80 58.46 121.06 C 59.47 119.61 60.55 118.04 60.45 116.19 C 61.00 116.11 62.10 115.94 62.64 115.86 C 63.19 115.06 63.74 114.26 64.29 113.46 C 64.91 113.30 66.16 112.99 66.78 112.83 C 68.74 110.77 70.86 108.86 73.17 107.21 C 74.83 106.43 75.26 104.55 75.02 102.89 C 75.30 101.56 75.66 100.25 76.03 98.95 C 74.16 96.78 72.12 94.76 69.97 92.87 C 69.76 91.44 69.85 89.78 68.74 88.68 L 68.08 88.55 C 65.90 85.14 65.42 80.98 64.99 77.04 C 68.69 74.01 73.69 75.47 78.04 74.75 C 87.52 73.04 97.16 74.40 106.72 73.99 C 106.85 73.32 107.11 72.00 107.24 71.34 C 109.42 68.50 111.93 65.95 114.28 63.26 C 117.09 60.20 116.40 55.39 119.33 52.42 C 121.39 50.25 123.68 47.34 127.08 48.00 C 128.47 47.87 130.24 49.28 129.70 50.79 C 128.05 56.86 131.15 63.39 135.68 67.42 C 136.96 68.38 137.01 69.90 136.73 71.35 L 136.66 72.05 C 137.54 72.81 138.58 73.16 139.78 73.10 C 142.83 73.02 143.15 75.81 143.11 78.19 C 144.71 78.74 146.33 79.27 147.94 79.82 C 150.09 76.97 151.18 73.58 150.96 70.01 C 150.62 66.41 153.84 64.17 155.09 61.11 C 157.05 56.27 161.42 52.34 161.21 46.78 C 162.62 46.51 164.29 45.32 165.61 46.44 C 168.07 48.08 166.23 51.45 166.34 53.84 C 166.81 54.34 167.75 55.33 168.22 55.82 C 171.39 56.28 174.52 56.95 177.63 57.67 C 178.42 57.03 179.20 56.40 179.99 55.77 C 180.51 55.75 181.53 55.73 182.05 55.72 C 184.16 58.51 186.26 61.82 190.21 61.80 C 191.78 56.10 190.98 50.15 190.21 44.40 C 190.65 43.91 191.54 42.91 191.98 42.42 C 192.15 42.34 192.47 42.18 192.64 42.10 Z" />
<path fill="#686969" d=" M 199.85 42.91 C 201.09 43.14 201.82 43.89 202.04 45.16 C 200.49 45.21 199.76 44.46 199.85 42.91 Z" />
<path fill="#ffffff" d=" M 291.16 48.21 C 291.89 46.52 291.94 44.30 293.88 43.47 C 298.90 44.52 303.92 45.54 308.87 46.92 C 314.78 47.74 320.69 48.71 326.54 49.93 C 325.53 55.19 318.83 55.98 317.11 60.74 C 316.30 63.73 317.99 66.37 320.51 67.82 C 323.15 69.31 321.97 72.78 321.42 75.14 C 322.08 77.83 323.76 80.04 325.41 82.20 C 325.39 84.30 325.38 86.41 325.39 88.52 C 328.23 92.10 331.99 94.72 335.41 97.70 C 335.03 99.19 336.01 101.35 334.65 102.41 C 334.04 102.52 332.80 102.75 332.19 102.86 C 331.71 100.93 331.73 98.87 330.99 97.01 C 329.50 95.11 327.51 93.69 325.67 92.14 C 324.13 92.05 322.58 91.94 321.05 91.83 C 320.08 93.40 319.04 94.92 317.84 96.33 C 315.11 94.31 312.17 92.67 308.84 91.90 C 307.50 92.61 306.17 93.36 304.86 94.11 C 302.06 92.54 300.46 89.71 298.76 87.12 C 294.61 86.41 290.68 88.96 286.61 87.74 C 285.20 85.09 283.66 82.39 281.24 80.54 C 280.80 77.24 281.33 73.93 281.32 70.62 C 280.27 69.16 278.65 67.76 279.03 65.75 C 279.84 62.77 281.08 59.92 282.07 57.00 C 283.85 56.09 285.63 55.18 287.42 54.29 C 288.83 52.37 290.51 50.57 291.16 48.21 Z" />
<path fill="#686969" d=" M 179.99 55.77 C 180.63 54.40 181.32 54.38 182.05 55.72 C 181.53 55.73 180.51 55.75 179.99 55.77 Z" />
<path fill="#ffffff" d=" M 136.73 71.35 C 138.05 70.69 139.57 71.71 139.78 73.10 C 138.58 73.16 137.54 72.81 136.66 72.05 L 136.73 71.35 Z" />
<path fill="#ffffff" d=" M 68.08 88.55 L 68.74 88.68 C 69.85 89.78 69.76 91.44 69.97 92.87 C 68.61 91.94 67.35 90.26 68.08 88.55 Z" />
<path fill="#ffffff" d=" M 212.74 95.02 C 212.47 93.38 213.57 91.79 215.34 91.94 C 214.90 93.28 214.08 94.49 212.74 95.02 Z" />
<path fill="#9b9b9c" d=" M 73.17 107.21 C 72.82 105.56 73.38 103.61 75.02 102.89 C 75.26 104.55 74.83 106.43 73.17 107.21 Z" />
<path fill="#161717" d=" M 278.91 111.06 C 279.55 110.98 280.84 110.81 281.48 110.73 C 281.40 112.76 279.87 114.05 278.23 114.95 C 278.06 116.61 277.85 118.34 275.79 118.47 C 275.14 115.53 277.41 113.29 278.91 111.06 Z" />
<path fill="#ffffff" d=" M 58.46 121.06 C 58.24 119.28 57.83 116.19 60.45 116.19 C 60.55 118.04 59.47 119.61 58.46 121.06 Z" />
<path fill="#9b9b9c" d=" M 187.65 124.06 L 188.76 124.19 C 190.49 125.60 192.15 127.10 193.99 128.37 C 191.35 127.82 189.45 125.90 187.65 124.06 Z" />
<path fill="#686969" d=" M 59.35 125.42 L 59.47 125.53 L 59.57 125.65 C 59.51 125.59 59.40 125.48 59.35 125.42 Z" />
<path fill="#ffffff" d=" M 164.43 126.33 C 171.21 125.31 178.17 127.11 184.86 125.40 C 190.67 128.95 196.86 131.82 203.21 134.27 C 206.26 135.60 209.57 134.70 212.75 134.98 C 215.17 136.08 217.52 137.41 220.20 137.79 C 220.65 137.43 221.55 136.73 222.00 136.38 C 225.84 136.91 229.59 135.83 233.39 135.66 C 238.77 137.24 244.44 137.84 250.03 137.28 C 256.11 134.95 262.78 136.01 269.01 137.06 C 274.41 137.83 271.74 144.10 272.42 147.77 C 274.66 156.93 275.14 166.42 276.99 175.66 C 279.59 177.82 282.04 180.17 284.52 182.48 C 287.83 185.34 288.82 189.80 291.24 193.32 C 290.55 194.53 289.86 195.74 289.15 196.95 C 288.05 196.30 286.96 195.66 285.87 195.02 C 285.71 192.62 286.01 189.67 283.68 188.16 C 282.04 186.75 280.02 188.54 278.47 189.26 C 275.72 189.84 272.88 190.73 271.09 193.06 C 268.44 195.42 270.53 199.34 268.98 202.14 C 264.57 201.94 261.06 198.78 256.83 197.87 C 255.52 196.12 253.50 194.46 253.69 192.06 C 253.63 187.98 254.07 183.74 252.13 179.97 C 247.59 178.59 243.56 175.79 238.86 174.95 C 236.61 175.90 234.75 177.93 232.11 177.72 C 228.68 177.79 225.44 178.98 222.11 179.57 C 218.76 179.12 216.30 176.33 212.92 175.96 C 208.07 175.16 203.76 172.64 199.51 170.33 C 196.26 168.71 194.55 165.05 190.96 164.00 C 187.37 162.91 185.77 159.25 182.86 157.23 C 179.56 157.98 176.83 160.27 173.87 161.82 C 171.58 159.41 168.38 158.78 165.18 159.12 L 165.12 159.06 C 164.40 156.71 164.39 154.05 163.00 151.96 C 159.88 150.29 156.53 149.06 153.26 147.71 C 154.80 145.79 156.76 144.32 158.66 142.79 C 160.51 141.38 160.18 138.86 160.45 136.82 C 160.07 136.38 159.31 135.49 158.94 135.05 C 160.60 132.07 160.47 127.31 164.43 126.33 Z" />
<path fill="#9b9b9c" d=" M 159.64 127.61 L 159.79 127.45 L 159.63 127.63 L 159.53 127.83 L 159.64 127.61 Z" />
<path fill="#9b9b9c" d=" M 194.31 128.49 C 194.40 128.52 194.60 128.60 194.70 128.63 C 194.60 128.60 194.40 128.52 194.31 128.49 Z" />
<path fill="#ffffff" d=" M 205.03 132.14 C 207.00 131.22 209.25 131.26 211.25 132.10 C 209.30 133.19 206.99 133.22 205.03 132.14 Z" />
<path fill="#686969" d=" M 212.83 131.81 C 214.45 131.12 215.73 132.66 216.03 134.11 C 214.79 133.73 213.04 133.34 212.83 131.81 Z" />
<path fill="#686969" d=" M 66.92 133.33 C 67.30 133.59 68.08 134.11 68.46 134.37 L 68.20 135.15 C 67.88 134.69 67.24 133.79 66.92 133.33 Z" />
<path fill="#9b9b9c" d=" M 230.98 133.87 C 231.57 133.75 232.74 133.52 233.33 133.40 L 232.82 134.09 C 232.36 134.03 231.44 133.93 230.98 133.87 Z" />
<path fill="#d0d0d0" d=" M 157.72 139.61 C 157.73 139.57 157.76 139.49 157.77 139.46 L 157.77 139.53 L 157.72 139.61 Z" />
<path fill="#9b9b9c" d=" M 64.32 142.35 L 64.55 142.09 L 64.35 142.38 L 64.12 142.63 L 64.32 142.35 Z" />
<path fill="#686969" d=" M 63.36 156.36 C 63.42 156.44 63.54 156.59 63.60 156.67 C 63.54 156.59 63.42 156.44 63.36 156.36 Z" />
<path fill="#ffffff" d=" M 175.01 163.48 C 177.57 162.25 180.23 161.24 182.83 160.10 C 185.93 165.21 191.81 167.15 196.17 170.88 C 199.14 173.23 202.93 174.05 206.18 175.90 C 211.07 178.88 217.10 179.35 221.69 182.93 C 226.10 180.74 231.01 180.21 235.86 179.93 C 236.97 179.05 238.09 178.17 239.22 177.30 C 243.05 178.84 246.63 180.93 250.34 182.73 C 252.32 184.97 251.14 188.30 250.91 190.97 C 251.33 193.54 252.15 196.13 254.08 197.99 C 259.84 202.82 267.50 206.02 275.12 204.47 C 273.21 209.80 267.60 211.94 264.09 215.94 C 265.54 219.60 267.82 223.60 266.06 227.56 C 264.97 227.88 263.88 228.21 262.80 228.55 C 261.29 231.42 259.19 234.27 259.27 237.66 C 259.65 241.41 261.33 245.82 257.82 248.62 C 257.10 248.55 255.65 248.43 254.93 248.37 C 251.38 251.01 250.88 255.44 249.67 259.38 C 243.25 261.51 244.99 269.26 241.21 273.60 C 236.69 271.58 231.88 270.13 226.88 270.47 C 227.32 267.89 229.17 265.06 227.31 262.64 C 224.43 258.03 220.78 253.89 216.51 250.51 C 215.18 248.80 213.64 247.26 212.13 245.71 C 211.30 241.90 207.74 240.20 204.42 238.96 C 204.60 232.75 204.89 226.40 202.58 220.50 C 201.00 216.32 197.08 213.99 194.34 210.67 C 194.05 209.02 193.71 207.39 193.33 205.77 C 194.24 202.85 194.31 199.78 194.05 196.75 C 193.56 196.45 192.59 195.84 192.10 195.53 C 191.95 195.05 191.64 194.09 191.49 193.60 C 189.34 190.08 187.30 186.50 184.64 183.31 C 183.04 181.64 182.88 179.34 182.88 177.14 C 182.40 176.32 181.91 175.50 181.40 174.69 C 180.68 174.04 179.92 173.45 179.11 172.93 C 177.87 169.73 176.76 166.45 175.01 163.48 Z" />
<path fill="#9b9b9c" d=" M 74.69 170.33 L 75.54 170.02 C 75.92 170.29 76.66 170.84 77.03 171.12 C 76.45 170.92 75.28 170.53 74.69 170.33 Z" />
<path fill="#686969" d=" M 168.34 174.45 L 168.48 174.54 L 168.59 174.65 C 168.53 174.60 168.40 174.50 168.34 174.45 Z" />
<path fill="#317abc" d=" M 146.19 185.25 C 147.77 184.80 148.45 187.40 146.81 187.76 C 145.23 188.21 144.55 185.60 146.19 185.25 Z" />
<path fill="#ffffff" d=" M 87.60 190.37 C 88.17 190.50 89.31 190.77 89.88 190.90 C 89.43 190.95 88.51 191.05 88.05 191.10 L 87.60 190.37 Z" />
<path fill="#ffffff" d=" M 280.50 192.72 C 281.32 192.27 282.14 191.83 282.96 191.39 C 282.87 192.44 282.77 193.49 282.68 194.54 C 282.23 194.44 281.34 194.23 280.89 194.13 C 280.79 193.77 280.60 193.07 280.50 192.72 Z" />
<path fill="#ffffff" d=" M 272.85 201.97 C 270.78 198.60 272.02 194.51 275.31 192.51 C 277.43 193.35 278.59 195.31 279.98 196.99 C 281.34 197.14 282.71 197.23 284.08 197.27 C 286.04 198.51 288.33 200.22 290.74 199.11 C 292.41 197.63 293.02 195.35 294.22 193.52 C 300.18 198.36 304.65 205.11 311.45 208.97 C 315.30 210.44 318.41 213.67 322.65 214.05 C 326.20 215.34 327.43 218.78 328.21 222.15 C 332.22 230.05 335.87 238.29 338.00 246.93 C 333.79 250.25 327.38 249.40 324.18 254.10 C 322.88 255.65 320.69 257.50 318.57 256.51 C 316.24 255.17 313.40 254.21 312.03 251.72 C 311.56 250.06 311.71 247.99 310.07 246.93 C 308.28 245.86 306.23 245.39 304.36 244.52 C 301.18 241.78 300.04 237.60 300.60 233.50 C 296.14 228.88 296.57 222.01 293.06 216.88 C 291.42 216.35 289.73 216.54 288.06 216.73 C 282.66 216.12 277.78 213.28 273.75 209.76 C 275.21 208.40 277.80 207.44 277.46 204.99 C 278.01 202.35 274.89 201.35 272.85 201.97 Z" />
<path fill="#ffffff" d=" M 271.60 213.23 C 273.14 213.29 274.85 212.87 276.22 213.80 C 280.80 216.40 285.85 217.97 290.89 219.41 C 293.60 220.33 294.56 223.43 294.54 226.04 C 294.61 229.78 297.91 232.37 298.30 236.04 C 299.20 239.04 298.92 242.48 300.90 245.07 C 302.76 248.62 307.72 246.84 310.06 249.83 C 310.01 250.50 309.90 251.84 309.85 252.50 C 308.53 254.31 307.76 256.47 306.41 258.24 C 303.71 260.02 300.15 260.39 298.08 263.10 C 293.90 266.56 289.10 269.25 285.10 272.97 C 281.99 269.67 277.34 268.13 274.91 264.19 C 273.00 261.00 269.92 257.95 265.98 257.88 C 262.15 258.26 261.57 253.86 260.96 251.06 C 260.93 248.24 262.27 245.56 262.43 242.72 C 262.07 240.53 261.86 238.31 261.30 236.15 C 262.00 234.09 262.52 231.68 264.46 230.40 C 266.48 229.02 268.85 227.88 269.76 225.42 C 267.96 222.72 268.23 219.23 266.16 216.66 C 268.12 215.77 270.12 214.86 271.60 213.23 Z" />
<path fill="#161717" d=" M 173.21 233.38 C 173.72 233.46 174.73 233.61 175.23 233.68 C 175.19 234.55 175.15 235.43 175.12 236.30 C 174.24 236.27 173.30 236.41 172.53 235.91 C 172.73 235.05 172.96 234.21 173.21 233.38 Z" />
<path fill="#161717" d=" M 183.27 246.24 C 186.76 246.05 190.50 246.90 193.74 245.20 C 194.60 245.09 196.33 244.88 197.19 244.77 C 197.58 246.71 197.47 248.65 196.66 250.48 C 197.41 252.35 195.38 253.25 194.15 254.16 C 190.81 252.26 186.84 253.19 183.19 252.91 C 182.34 252.35 181.49 251.80 180.64 251.24 C 180.64 250.53 180.65 249.10 180.66 248.39 C 181.53 247.67 182.40 246.96 183.27 246.24 Z" />
<path fill="#ffffff" d=" M 187.11 248.25 C 189.87 248.65 192.59 248.00 195.18 247.10 C 194.88 248.72 194.57 250.34 194.28 251.96 C 191.43 250.86 188.23 250.29 185.29 251.44 C 184.65 251.12 183.38 250.47 182.74 250.14 C 183.20 248.43 185.55 248.00 187.11 248.25 Z" />
<path fill="#ffffff" d=" M 326.38 254.09 C 330.09 251.49 334.80 250.93 338.94 249.22 C 340.67 253.10 342.89 256.76 344.03 260.88 C 346.50 265.23 349.62 269.48 353.96 272.15 C 356.29 273.69 357.71 276.23 359.77 278.09 C 362.91 281.72 366.79 284.70 369.48 288.71 C 370.14 289.33 370.87 289.87 371.69 290.33 C 372.12 292.01 373.71 293.87 372.52 295.58 C 370.41 299.07 367.46 301.94 364.74 304.95 C 362.60 303.62 361.15 300.03 358.16 301.17 C 354.84 301.97 349.75 302.51 349.49 306.81 C 347.21 308.08 346.39 310.45 346.13 312.91 C 341.11 315.73 338.82 307.73 333.97 308.76 C 330.98 309.10 327.85 309.58 325.13 307.94 C 321.48 305.60 318.31 302.52 315.58 299.16 C 313.10 297.72 309.96 297.16 308.24 294.64 C 306.65 293.00 307.08 290.47 306.54 288.43 C 308.71 288.06 310.89 287.79 313.09 287.76 C 313.97 286.73 315.56 285.81 314.95 284.23 C 312.41 281.51 309.74 278.73 308.31 275.25 C 308.16 271.75 309.42 268.41 310.42 265.12 C 312.95 265.00 315.54 265.54 318.03 265.03 C 318.84 263.43 318.85 261.61 319.01 259.87 C 321.88 258.51 324.52 256.71 326.38 254.09 Z" />
<path fill="#ffffff" d=" M 253.21 254.40 C 253.97 252.34 255.64 250.01 258.21 250.81 C 260.19 252.79 259.02 256.11 261.04 258.00 C 263.23 259.72 266.13 259.73 268.76 260.15 C 271.09 261.56 272.24 264.09 273.95 266.10 C 276.96 269.93 281.31 272.31 285.07 275.26 C 287.90 274.31 289.82 271.86 291.96 269.91 C 293.95 267.88 296.82 267.05 298.86 265.06 C 300.85 263.12 303.69 262.56 305.92 260.97 C 308.31 259.80 309.45 257.30 311.01 255.30 C 312.64 255.77 314.28 256.35 315.70 257.32 C 317.10 258.35 316.42 260.28 316.68 261.75 C 314.41 263.13 311.73 262.70 309.23 263.11 C 307.23 266.77 306.10 271.14 306.06 275.32 C 307.17 279.09 310.18 281.91 312.23 285.18 C 309.72 285.97 306.30 285.20 304.48 287.36 C 303.63 293.33 308.32 299.70 314.45 300.30 C 317.23 304.65 321.49 307.95 326.03 310.32 C 328.56 311.84 331.43 310.20 334.14 310.40 C 336.81 311.42 338.94 313.44 341.07 315.29 C 341.97 318.49 341.99 321.85 342.02 325.16 C 340.10 326.53 338.15 327.88 336.15 329.13 C 335.96 329.72 335.57 330.90 335.38 331.49 C 335.42 333.76 335.42 336.08 334.25 338.11 C 331.86 337.24 329.44 336.43 326.97 335.81 C 326.19 335.94 324.62 336.19 323.84 336.31 C 319.71 334.34 315.36 332.91 310.91 331.86 C 308.34 331.40 305.83 332.88 303.26 332.38 C 299.10 330.51 296.78 325.89 292.23 324.75 C 286.89 322.96 283.04 318.67 279.68 314.36 C 277.49 311.18 273.64 309.57 271.78 306.13 C 269.04 301.12 264.64 297.36 260.72 293.31 C 259.19 291.60 257.21 290.44 255.06 289.66 C 251.51 284.65 247.27 280.16 244.13 274.86 C 245.73 271.95 246.63 268.71 246.48 265.37 C 249.89 262.53 253.35 259.22 253.21 254.40 Z" />
<path fill="#161717" d=" M 180.70 259.01 C 180.27 257.47 183.03 257.51 182.91 258.99 C 182.89 259.54 182.87 260.65 182.86 261.20 C 181.99 260.67 180.57 260.31 180.70 259.01 Z" />
<path fill="#161717" d=" M 212.60 271.70 C 214.07 270.39 215.81 270.16 217.11 271.83 C 216.59 272.83 216.08 273.83 215.56 274.83 C 214.60 274.30 213.64 273.76 212.69 273.23 C 212.67 272.84 212.62 272.08 212.60 271.70 Z" />
<path fill="#161717" d=" M 223.58 277.56 C 224.87 277.99 226.27 278.20 227.44 278.94 C 226.44 280.45 225.48 282.10 223.95 283.14 C 223.24 282.37 222.55 281.59 221.88 280.79 C 222.45 279.71 223.01 278.63 223.58 277.56 Z" />
<path fill="#ffffff" d=" M 366.55 306.67 C 370.19 303.25 371.77 298.20 375.86 295.25 C 380.11 296.81 384.16 298.87 388.17 300.96 C 387.64 303.97 387.36 307.01 387.86 310.05 C 388.85 313.91 383.77 314.25 382.31 316.89 C 382.00 319.55 382.62 322.19 382.98 324.81 C 379.46 326.62 375.67 324.96 372.00 324.78 C 369.36 324.84 366.78 326.78 364.16 325.46 C 358.48 323.30 352.76 325.94 347.16 326.91 C 346.18 326.49 345.20 326.08 344.23 325.66 C 344.26 322.68 344.27 319.70 344.15 316.73 C 345.96 315.54 348.28 314.62 348.69 312.22 C 349.27 309.51 352.27 308.12 352.29 305.21 C 354.80 304.54 357.43 303.67 360.05 303.98 C 361.21 305.25 362.20 306.66 363.34 307.96 C 364.41 307.53 365.48 307.10 366.55 306.67 Z" />
<path fill="#ffffff" d=" M 351.47 328.49 C 355.34 327.34 359.49 326.23 363.48 327.61 C 366.30 328.73 369.16 327.53 371.99 327.11 C 375.51 327.29 379.13 328.96 382.59 327.50 C 384.80 326.14 387.67 328.97 386.18 331.18 C 391.06 332.19 394.64 336.41 395.83 341.13 C 399.59 343.32 403.83 344.47 407.77 346.30 C 408.19 349.53 407.53 353.55 404.19 354.99 C 399.93 357.00 400.44 362.12 400.52 366.04 C 402.23 367.64 404.66 368.72 405.49 371.07 C 405.57 373.11 404.84 375.10 404.91 377.16 C 406.74 379.08 409.61 380.21 410.31 383.02 C 410.88 386.59 415.96 387.85 414.89 391.94 C 413.72 395.33 411.62 398.36 410.95 401.94 C 407.81 401.75 405.04 403.25 402.15 404.19 C 398.79 404.82 396.18 401.92 394.39 399.49 C 392.12 396.05 388.17 394.49 384.66 392.69 C 384.71 388.70 385.87 384.54 384.24 380.71 C 382.75 375.30 380.84 368.96 374.63 367.45 C 370.61 364.66 367.83 370.66 363.64 368.95 C 363.68 366.40 364.14 363.06 361.33 361.74 C 356.56 357.59 349.69 359.94 344.41 356.94 C 343.62 350.61 338.42 346.06 336.53 340.12 C 336.84 337.04 337.95 333.98 337.31 330.87 C 341.19 326.88 346.81 330.06 351.47 328.49 Z" />
<path fill="#161717" d=" M 138.87 334.92 C 141.55 333.55 142.57 330.00 145.76 329.40 C 148.19 328.09 150.12 330.29 151.97 331.49 C 152.62 330.61 153.26 329.74 153.91 328.87 C 155.16 329.71 156.46 330.50 157.65 331.44 C 157.46 332.20 157.23 332.97 157.00 333.73 C 156.01 333.48 154.04 332.97 153.06 332.72 C 154.05 334.61 155.87 335.70 157.95 335.97 C 161.33 338.81 163.05 343.98 161.26 348.11 C 161.80 348.98 162.65 349.74 162.75 350.82 C 163.88 358.47 167.72 365.42 169.05 373.02 C 168.50 375.32 168.21 377.68 167.81 380.02 C 166.48 383.00 164.52 385.64 162.60 388.26 C 163.20 390.53 164.00 392.74 164.80 394.95 C 163.71 401.13 164.16 407.65 161.62 413.57 C 161.17 417.31 161.25 421.13 160.42 424.85 C 160.64 429.11 158.14 432.66 156.49 436.38 C 155.78 439.56 154.38 442.50 153.52 445.64 C 151.94 445.87 150.33 445.79 148.73 445.83 C 148.19 445.64 147.10 445.25 146.55 445.05 C 145.96 443.14 145.39 441.24 144.90 439.31 C 140.28 438.05 132.88 438.97 132.08 444.75 C 132.10 447.09 132.10 449.45 132.13 451.80 C 128.05 454.51 124.02 458.73 118.68 457.96 C 115.95 457.55 114.82 454.69 112.72 453.26 C 109.99 451.64 109.27 448.41 107.72 445.87 C 107.16 448.12 106.12 450.35 103.38 449.79 C 102.46 447.93 101.15 446.07 101.62 443.88 C 102.51 442.81 103.60 441.95 104.63 441.04 C 103.77 436.30 105.38 431.23 103.58 426.71 C 104.01 422.58 106.60 419.12 107.07 414.98 C 107.24 412.51 109.00 410.91 110.96 409.69 C 110.98 408.99 111.01 407.60 111.02 406.90 C 109.64 406.47 108.26 406.07 106.87 405.70 C 106.19 402.18 105.18 398.25 107.30 395.01 C 108.97 393.88 110.43 392.50 111.81 391.05 C 110.62 387.62 110.68 383.61 108.07 380.84 C 106.59 376.67 106.00 372.29 104.76 368.07 C 104.41 366.49 102.55 366.43 101.33 365.96 C 99.66 365.17 98.13 364.14 96.76 362.92 C 97.02 360.23 97.59 357.57 98.93 355.20 C 101.07 351.55 99.20 347.00 101.38 343.33 C 102.02 343.18 103.31 342.88 103.96 342.74 C 105.36 345.24 107.16 347.48 109.16 349.53 C 111.59 349.99 114.01 350.56 116.49 350.82 C 120.67 348.22 124.92 345.64 128.36 342.06 C 132.24 340.23 135.15 337.00 138.87 334.92 Z" />
<path fill="#ffffff" d=" M 143.63 333.41 C 144.35 331.66 146.49 332.08 147.98 331.60 C 150.77 334.30 153.20 337.54 156.75 339.30 C 159.16 341.18 159.77 344.89 157.99 347.46 C 158.54 349.47 159.84 351.14 160.62 353.05 C 161.80 357.97 163.30 362.83 165.23 367.50 C 165.82 370.68 167.09 373.94 165.93 377.17 C 165.27 381.76 161.62 384.89 159.81 388.97 C 160.61 391.02 161.87 392.91 162.40 395.06 C 162.09 397.76 161.74 400.46 161.85 403.19 L 161.38 404.27 C 161.33 407.84 160.00 411.21 158.86 414.55 C 158.58 421.53 159.29 429.71 154.07 435.18 C 151.84 437.57 153.54 442.80 149.89 443.72 C 147.58 442.42 147.62 439.43 146.73 437.21 C 145.11 436.71 143.47 436.23 141.84 435.78 C 137.89 436.74 133.48 437.22 130.56 440.34 C 129.46 443.36 130.01 446.62 129.74 449.76 C 128.84 451.79 126.52 452.53 124.96 453.97 C 123.19 455.55 120.58 454.94 118.41 455.34 C 115.38 452.39 111.88 449.62 110.65 445.37 C 109.68 441.71 106.03 439.04 106.69 434.97 C 106.98 431.68 106.08 428.38 106.45 425.13 C 108.14 422.12 108.98 418.79 109.72 415.44 C 109.97 412.81 113.12 412.13 113.90 409.82 C 114.06 407.80 113.43 405.84 113.15 403.87 C 111.85 403.40 110.50 403.12 109.14 402.92 C 108.91 402.16 108.44 400.64 108.21 399.88 C 108.46 399.22 108.96 397.88 109.21 397.22 C 111.08 395.71 113.32 394.30 114.19 391.96 C 113.71 387.20 113.69 381.79 109.51 378.60 C 109.49 374.32 109.29 369.67 107.00 365.93 C 106.06 363.93 103.58 364.19 101.77 363.84 C 100.86 362.78 100.05 361.64 99.28 360.49 C 101.72 356.66 103.18 352.22 102.99 347.65 C 104.68 348.70 105.92 350.25 107.35 351.60 C 110.77 352.46 114.25 353.31 117.80 353.34 C 119.89 351.23 122.57 349.93 125.02 348.32 C 127.88 344.55 132.51 342.96 136.17 340.20 C 138.61 337.85 141.98 336.50 143.63 333.41 Z" />
<path fill="#161717" d=" M 101.81 339.06 C 103.37 337.57 104.98 336.13 106.75 334.91 C 107.36 335.22 108.58 335.84 109.19 336.16 C 109.44 339.38 105.96 339.77 103.87 341.15 C 103.18 340.45 102.49 339.76 101.81 339.06 Z" />
<path fill="#ffffff" d=" M 410.14 346.15 C 414.22 344.08 419.21 343.55 423.39 345.58 C 426.44 348.00 426.81 352.86 430.65 354.46 C 435.10 356.54 437.36 361.47 441.91 363.45 C 445.18 365.39 449.60 363.67 452.50 366.44 C 454.56 369.13 454.14 372.75 455.20 375.83 C 456.00 378.79 460.61 378.85 460.95 382.06 C 458.50 387.38 455.23 392.29 452.96 397.70 C 450.61 397.67 448.25 397.67 445.90 397.62 C 444.26 399.89 443.33 402.53 442.08 405.00 C 440.20 407.49 436.78 407.52 434.01 408.09 C 432.00 406.12 430.38 403.37 427.45 402.73 C 424.57 403.14 421.84 404.28 419.02 404.96 C 417.29 404.42 415.54 403.98 413.84 403.39 C 411.81 400.10 414.73 396.85 416.06 393.91 C 417.38 391.84 416.42 389.37 416.05 387.19 C 414.89 386.23 413.72 385.28 412.52 384.37 C 411.19 380.90 409.37 377.64 406.67 375.05 C 407.71 372.13 407.08 369.09 405.79 366.38 C 404.56 365.86 403.35 365.34 402.14 364.82 C 402.07 362.61 402.41 360.45 403.54 358.53 C 407.55 357.17 408.22 352.94 409.89 349.61 C 409.98 348.45 410.06 347.30 410.14 346.15 Z" />
<path fill="#161717" d=" M 333.26 365.02 C 334.59 363.03 336.62 361.50 338.98 363.07 C 339.31 364.42 339.67 365.77 340.06 367.11 C 338.98 367.63 337.91 368.15 336.85 368.67 C 335.46 367.65 334.27 366.41 333.26 365.02 Z" />
<path fill="#161717" d=" M 348.86 374.92 C 349.30 373.29 352.41 371.60 353.17 373.89 C 354.57 375.83 353.16 377.82 351.84 379.32 C 350.38 378.25 347.39 377.26 348.86 374.92 Z" />
<path fill="#161717" d=" M 95.72 440.80 C 95.72 439.00 97.13 437.82 98.16 436.54 C 99.37 437.53 101.42 438.16 101.31 440.10 C 100.51 441.69 99.08 442.84 97.95 444.19 C 97.14 443.09 96.40 441.96 95.72 440.80 Z" />
<path fill="#9b9b9c" d=" M 409.94 439.53 C 413.27 439.68 408.40 442.50 409.94 439.53 Z" />
<path fill="#ffffff" d=" M 103.82 444.74 C 105.40 444.33 105.99 444.93 105.57 446.54 C 103.96 446.91 103.38 446.31 103.82 444.74 Z" />
<path fill="#161717" d=" M 395.38 467.80 C 397.35 468.31 395.35 470.79 394.90 471.94 C 393.69 471.82 392.92 471.16 392.60 469.95 C 393.46 469.24 394.14 467.82 395.38 467.80 Z" />
<path fill="#161717" d=" M 376.62 479.72 C 378.22 479.67 379.47 480.45 380.24 481.80 C 379.28 482.27 378.29 482.66 377.27 482.97 C 377.11 482.16 376.78 480.53 376.62 479.72 Z" />
<path fill="#161717" d=" M 381.58 486.57 C 381.70 485.05 381.96 483.52 383.91 483.72 C 383.77 484.49 383.48 486.01 383.33 486.77 C 382.89 486.72 382.02 486.62 381.58 486.57 Z" />
<path fill="#161717" d=" M 383.98 490.04 C 384.62 489.67 385.34 489.57 386.14 489.74 C 386.21 490.21 386.34 491.15 386.41 491.62 C 385.19 491.73 383.35 491.91 383.98 490.04 Z" />
<path fill="#161717" d=" M 399.96 498.26 C 403.51 497.30 406.92 495.89 410.51 495.04 C 410.99 495.48 411.95 496.35 412.43 496.79 C 411.20 503.65 407.55 509.67 404.59 515.88 C 402.17 521.46 397.37 525.83 396.14 531.96 C 396.35 532.52 396.76 533.65 396.96 534.21 C 395.18 537.96 392.94 541.65 392.76 545.92 C 395.01 548.04 397.27 550.19 399.01 552.78 C 398.29 556.12 399.83 559.01 400.86 562.02 C 399.90 566.26 396.22 569.38 394.71 573.42 C 394.45 577.62 393.64 581.79 391.60 585.52 C 387.01 586.80 384.15 581.41 379.60 582.17 C 378.97 582.59 377.71 583.42 377.08 583.83 C 374.15 581.49 370.12 581.44 367.23 579.06 C 364.63 577.57 363.45 574.72 361.62 572.50 C 357.52 569.39 353.85 565.52 349.01 563.55 C 345.21 564.29 341.79 562.33 338.10 561.94 C 333.54 561.57 329.75 558.54 327.04 555.07 C 321.51 553.63 315.98 551.30 312.53 546.52 C 309.33 541.94 303.47 541.20 299.17 538.20 C 293.39 537.74 288.16 535.05 282.42 534.46 C 278.62 532.72 274.86 529.49 274.53 525.08 C 273.87 521.92 277.69 520.16 277.26 517.02 C 277.02 511.46 281.36 506.71 286.44 505.04 C 287.60 501.88 291.09 501.35 293.78 502.89 C 294.57 505.01 295.30 507.17 296.09 509.30 C 298.44 508.57 300.82 507.96 303.19 507.29 C 303.50 505.06 302.34 501.13 305.46 500.54 C 308.57 500.21 311.69 499.93 314.81 499.77 C 316.79 501.83 317.88 505.21 321.09 505.59 C 325.52 506.68 328.42 510.98 332.83 511.99 C 341.44 511.53 349.98 510.00 358.14 507.23 C 363.23 506.51 368.69 506.51 373.28 503.90 C 375.12 502.94 376.95 501.92 378.88 501.16 C 381.32 500.21 383.61 501.93 386.02 502.04 C 387.61 501.94 389.19 501.64 390.77 501.42 C 391.81 499.29 392.63 496.89 394.92 495.77 C 396.58 496.63 398.20 497.59 399.96 498.26 Z" />
<path fill="#ffffff" d=" M 395.28 499.32 C 399.50 502.13 404.39 500.26 408.48 498.30 C 408.17 503.97 404.86 508.61 402.78 513.69 C 399.40 520.76 392.34 526.71 393.22 535.20 C 391.61 538.83 389.63 542.85 390.82 546.90 C 392.11 549.58 394.93 551.22 396.05 554.00 C 395.97 555.40 395.79 556.79 395.52 558.17 C 396.19 559.40 396.98 560.60 397.37 561.98 C 396.36 565.43 393.67 568.07 392.43 571.43 C 390.80 574.83 392.12 579.23 389.03 581.94 C 385.88 580.41 382.68 578.90 379.16 578.52 C 376.58 581.03 373.81 578.32 370.99 577.95 C 367.75 575.84 365.20 572.98 363.28 569.66 C 358.87 566.65 355.21 562.27 349.88 560.87 C 345.09 560.92 340.48 559.46 335.86 558.40 C 333.02 557.85 331.75 554.86 329.27 553.68 C 324.88 551.43 319.91 550.15 316.13 546.85 C 313.63 544.27 311.70 540.79 308.04 539.66 C 304.12 538.46 301.27 534.80 296.91 534.88 C 293.12 534.91 289.83 532.80 286.12 532.41 C 282.39 531.83 278.81 529.45 277.44 525.85 C 276.62 522.52 280.59 520.40 280.14 517.08 C 279.97 514.23 281.53 511.60 283.47 509.66 C 286.44 508.31 289.35 506.89 291.72 504.58 C 292.52 506.63 292.99 508.79 293.87 510.82 C 296.74 512.39 300.04 510.95 303.09 510.92 C 304.11 509.93 305.13 508.94 306.16 507.95 C 306.12 506.53 306.09 505.12 306.06 503.72 C 308.36 503.28 310.67 502.90 312.96 502.34 C 315.06 504.17 316.56 506.84 319.01 508.20 C 325.15 508.90 329.04 514.96 335.48 514.70 C 347.06 512.21 358.80 510.34 370.45 508.17 C 374.90 506.57 379.28 502.34 384.25 504.66 C 388.38 504.89 394.21 504.19 395.28 499.32 Z" />
<path fill="#161717" d=" M 271.58 510.59 C 273.56 510.78 274.54 512.16 274.15 514.19 C 272.81 514.25 271.13 514.65 270.68 512.90 C 270.91 512.32 271.36 511.16 271.58 510.59 Z" />
<path fill="#161717" d=" M 258.17 511.33 C 260.00 509.90 262.14 511.69 262.32 513.65 C 261.82 514.50 261.28 515.34 260.70 516.16 C 259.63 514.77 257.28 513.35 258.17 511.33 Z" />
<path fill="#161717" d=" M 267.99 516.75 C 268.60 516.16 269.23 515.59 269.88 515.05 C 270.17 515.50 270.74 516.40 271.02 516.85 C 270.27 517.95 268.95 516.72 267.99 516.75 Z" />
</svg>
