<?xml version="1.0" encoding="UTF-8" ?>
<!DOCTYPE svg PUBLIC "-//W3C//DTD SVG 1.1//EN" "http://www.w3.org/Graphics/SVG/1.1/DTD/svg11.dtd">
<svg width="181pt" height="169pt" viewBox="0 0 181 169" version="1.1" xmlns="http://www.w3.org/2000/svg">
<path fill="#ffffff" d=" M 0.00 0.00 L 181.00 0.00 L 181.00 169.00 L 0.00 169.00 L 0.00 0.00 Z" />
<path fill="#1d4999" d=" M 82.50 7.83 C 97.45 5.67 113.05 7.77 126.76 14.20 C 143.39 21.86 157.13 35.59 164.80 52.23 C 173.53 70.88 174.33 93.02 167.09 112.29 C 161.39 127.63 150.67 141.03 137.03 150.06 C 112.54 166.66 78.49 167.29 53.40 151.60 C 39.67 143.23 28.61 130.53 22.30 115.73 C 13.62 95.73 13.94 72.04 23.17 52.29 C 33.86 28.78 56.91 11.43 82.50 7.83 Z" />
<path fill="#ffffff" d=" M 80.09 19.26 C 92.55 16.49 105.80 17.61 117.74 22.09 C 116.75 22.15 114.76 22.27 113.77 22.34 C 114.47 24.05 115.23 25.74 115.90 27.47 C 114.88 26.77 113.87 26.08 112.85 25.39 C 112.23 25.69 111.00 26.27 110.38 26.56 C 111.32 29.16 112.12 31.82 113.39 34.28 C 114.62 34.39 115.86 34.50 117.09 34.61 C 115.29 38.19 116.48 40.99 120.67 43.00 C 117.43 41.50 115.44 37.11 111.47 37.18 C 112.77 38.86 114.28 40.35 115.84 41.77 C 114.51 42.43 113.20 43.12 111.90 43.85 C 109.69 41.29 108.51 38.10 107.44 34.94 C 106.47 37.16 106.96 39.49 107.50 41.73 C 108.07 42.10 109.21 42.83 109.78 43.20 C 109.13 45.53 108.24 47.78 107.16 49.95 C 106.15 48.88 105.16 47.79 104.17 46.69 C 101.40 46.57 98.56 45.95 95.83 46.60 C 92.69 48.54 91.25 52.23 88.24 54.37 C 85.83 55.77 86.83 58.71 86.85 60.96 C 87.80 60.65 88.75 60.35 89.70 60.05 C 90.47 61.43 91.24 62.79 92.02 64.16 C 92.49 63.89 93.44 63.36 93.91 63.09 C 93.89 61.72 93.88 60.35 93.87 58.98 C 95.76 56.36 96.33 53.00 98.51 50.58 C 98.37 52.81 97.97 55.01 97.55 57.21 C 98.78 57.02 101.25 56.65 102.49 56.46 C 100.09 58.64 97.90 61.10 96.35 63.95 C 95.20 64.71 94.05 65.47 92.90 66.23 C 91.78 65.99 90.66 65.75 89.54 65.51 C 89.48 64.33 89.43 63.14 89.38 61.96 C 87.02 66.10 82.94 68.63 78.81 70.76 C 77.30 70.57 75.78 70.37 74.26 70.25 C 75.25 71.28 76.30 72.25 77.36 73.21 C 77.34 73.97 77.31 75.49 77.29 76.24 C 74.86 76.19 72.43 76.16 70.00 76.13 C 69.05 78.34 68.12 80.55 67.16 82.74 C 68.39 84.13 69.62 85.51 70.84 86.90 C 72.75 86.30 74.67 85.72 76.57 85.09 C 77.56 82.43 79.96 80.87 81.87 78.94 C 83.24 78.61 84.63 78.31 86.01 78.02 C 88.97 80.82 92.20 83.37 94.43 86.84 C 94.45 85.20 94.47 83.56 94.46 81.92 C 93.34 81.02 92.30 80.04 91.23 79.10 C 91.43 78.29 91.83 76.68 92.03 75.87 C 93.45 77.38 94.91 78.87 96.45 80.26 C 96.81 81.32 97.19 82.38 97.57 83.43 C 98.84 84.74 100.04 86.10 101.21 87.49 C 101.41 86.06 101.58 84.63 101.77 83.20 C 103.03 82.15 104.26 81.07 105.51 80.01 C 105.91 78.64 106.18 77.22 106.77 75.91 C 108.69 74.98 110.73 74.29 112.36 72.85 C 114.10 74.55 116.24 75.73 118.12 77.26 C 113.05 77.91 108.70 80.62 104.33 83.04 C 104.59 83.63 105.11 84.82 105.37 85.42 C 107.48 85.97 109.58 86.55 111.67 87.20 C 112.36 86.73 113.06 86.27 113.76 85.81 C 113.88 88.00 114.02 90.19 114.16 92.38 C 111.86 92.80 109.58 93.57 107.22 93.54 C 104.29 93.05 101.34 91.58 98.36 92.71 C 98.32 93.31 98.24 94.52 98.20 95.12 C 94.67 93.96 91.21 92.48 87.49 92.05 C 86.88 90.32 86.42 88.54 86.07 86.74 C 83.49 86.69 80.87 86.38 78.32 86.96 C 74.34 87.93 70.12 87.00 66.31 88.74 C 66.11 89.37 65.72 90.63 65.53 91.26 C 61.90 93.72 58.38 96.34 54.89 99.00 C 54.93 102.82 53.87 106.44 52.71 110.02 C 54.06 114.12 56.56 117.79 58.99 121.31 C 62.46 124.34 67.36 124.00 71.66 124.36 C 70.89 122.20 70.11 120.02 69.77 117.74 C 71.10 119.61 72.00 121.72 72.90 123.81 C 74.73 124.03 76.57 124.23 78.41 124.43 C 80.20 125.89 82.13 127.16 84.17 128.23 C 84.54 130.54 84.15 133.21 85.80 135.11 C 87.94 137.91 89.81 140.91 91.51 144.00 C 90.52 145.17 89.53 146.34 88.55 147.52 C 89.57 149.10 90.57 150.69 91.59 152.27 C 75.50 151.51 59.66 145.12 47.96 133.96 C 34.54 121.49 26.70 103.33 26.75 85.01 C 26.84 71.22 30.97 57.25 39.32 46.18 C 39.32 47.02 39.31 48.69 39.31 49.52 C 39.65 49.60 40.35 49.76 40.69 49.84 C 41.46 47.43 42.11 44.98 42.93 42.59 C 44.16 44.58 45.47 46.52 46.76 48.47 C 45.88 48.61 44.12 48.90 43.24 49.05 C 43.61 50.58 44.46 51.86 45.65 52.87 C 47.83 49.36 51.21 46.58 52.40 42.52 C 53.02 40.18 54.80 38.50 56.43 36.82 C 56.02 36.60 55.20 36.14 54.80 35.91 C 55.70 34.72 56.60 33.53 57.46 32.31 C 55.02 32.81 52.61 33.43 50.18 33.96 C 53.64 31.11 57.35 28.56 61.19 26.24 C 61.94 26.55 63.44 27.18 64.19 27.49 C 63.55 28.73 62.90 29.98 62.26 31.23 C 60.98 31.22 59.69 31.21 58.41 31.20 C 58.23 32.11 57.88 33.92 57.70 34.83 C 62.90 34.39 67.94 30.83 69.52 25.75 C 67.79 25.53 66.06 25.32 64.33 25.08 C 66.25 23.88 68.37 23.11 70.66 23.30 C 70.54 24.18 70.32 25.93 70.20 26.80 C 71.53 25.97 72.87 25.14 74.20 24.30 C 74.74 25.91 75.29 27.52 75.83 29.13 C 74.29 30.88 72.70 32.58 71.06 34.24 C 70.13 34.08 68.25 33.75 67.32 33.59 C 67.92 34.85 68.52 36.11 69.13 37.37 C 68.31 37.21 66.68 36.90 65.86 36.74 C 63.81 38.83 61.78 40.94 59.81 43.11 C 60.54 43.44 62.01 44.10 62.75 44.43 C 67.65 43.89 72.43 42.47 77.34 41.88 C 77.24 41.35 77.02 40.29 76.92 39.76 C 80.77 40.18 81.64 36.53 82.52 33.64 C 84.22 32.84 85.91 32.05 87.62 31.26 C 87.81 30.37 88.20 28.60 88.40 27.71 C 87.08 27.56 85.76 27.42 84.44 27.28 C 84.62 26.55 84.79 25.82 84.97 25.10 C 82.15 24.26 79.29 23.54 76.38 23.10 C 77.50 21.75 78.16 19.62 80.09 19.26 Z" />
<path fill="#1d4999" d=" M 99.77 31.11 C 100.96 30.22 101.62 30.49 101.74 31.93 C 100.55 32.81 99.90 32.54 99.77 31.11 Z" />
<path fill="#1d4999" d=" M 92.14 35.10 C 92.89 34.56 93.65 34.01 94.40 33.46 C 94.84 34.43 95.29 35.40 95.74 36.37 C 95.08 36.65 93.77 37.21 93.11 37.49 C 92.87 36.90 92.38 35.70 92.14 35.10 Z" />
<path fill="#1d4999" d=" M 71.12 47.59 C 72.48 47.64 73.85 47.69 75.21 47.74 C 75.41 48.46 75.80 49.89 75.99 50.61 C 74.05 50.11 71.85 49.77 71.12 47.59 Z" />
<path fill="#1d4999" d=" M 76.57 60.40 C 77.62 59.56 78.66 58.72 79.71 57.88 C 79.45 61.02 79.87 64.12 81.34 66.94 C 80.24 67.48 79.14 68.01 78.05 68.55 C 77.44 68.07 76.83 67.60 76.22 67.13 C 78.79 65.43 77.05 62.67 76.57 60.40 Z" />
<path fill="#1d4999" d=" M 74.85 62.39 C 75.10 62.57 75.60 62.93 75.85 63.11 C 75.76 63.65 75.57 64.75 75.48 65.30 C 74.53 65.81 73.58 66.33 72.63 66.84 C 72.50 66.22 72.24 64.96 72.12 64.33 C 73.03 63.69 73.94 63.04 74.85 62.39 Z" />
<path fill="#ffffff" d=" M 159.01 90.18 C 159.32 85.60 158.76 80.88 160.43 76.48 C 162.66 89.31 160.04 102.74 154.46 114.40 C 146.99 129.94 133.27 142.20 117.13 148.18 C 119.75 146.13 122.46 144.19 125.16 142.23 C 124.19 139.84 123.21 137.44 122.22 135.04 C 125.18 131.05 128.42 127.26 131.19 123.13 C 133.28 119.24 134.42 114.92 135.90 110.78 C 133.40 111.94 130.85 112.98 128.21 113.76 C 125.11 111.58 120.95 110.22 119.58 106.33 C 116.94 102.26 114.00 98.36 112.51 93.66 C 117.94 97.39 120.63 104.12 126.70 106.95 C 127.10 108.61 127.53 110.26 127.92 111.93 C 134.30 108.18 138.85 101.85 140.87 94.78 C 139.76 93.54 138.67 92.29 137.62 91.02 C 136.33 92.86 134.98 94.65 133.60 96.42 C 131.35 94.11 129.27 91.60 128.20 88.51 C 130.12 89.10 132.04 89.72 133.92 90.42 C 136.68 89.41 139.96 90.31 142.43 88.52 C 143.72 87.70 144.96 86.80 146.23 85.94 C 148.15 86.80 150.14 87.79 152.30 87.03 C 153.86 89.41 155.38 91.81 156.97 94.18 C 157.65 92.87 159.03 91.78 159.01 90.18 Z" />
</svg>
