<?xml version="1.0" encoding="UTF-8" ?>
<!DOCTYPE svg PUBLIC "-//W3C//DTD SVG 1.1//EN" "http://www.w3.org/Graphics/SVG/1.1/DTD/svg11.dtd">
<svg width="128pt" height="128pt" viewBox="0 0 128 128" version="1.1" xmlns="http://www.w3.org/2000/svg">
<path fill="#ffffff" d=" M 0.00 0.00 L 59.87 0.00 C 44.24 1.49 29.23 14.77 29.31 31.12 C 28.66 41.47 34.28 51.46 42.66 57.28 C 57.22 68.13 80.07 65.72 91.58 51.49 C 98.29 44.03 100.16 33.12 97.61 23.58 C 93.77 10.46 80.84 1.04 67.41 0.00 L 128.00 0.00 L 128.00 128.00 L 106.22 128.00 C 113.90 127.35 122.05 123.72 125.54 116.46 C 128.89 109.80 127.39 102.18 127.20 95.06 C 125.82 86.15 123.99 76.86 118.44 69.49 C 114.83 64.23 109.06 60.76 102.94 59.23 C 99.18 58.49 94.99 58.30 91.83 60.81 C 83.64 66.37 73.99 70.31 63.97 70.14 C 57.72 70.30 51.54 68.60 45.80 66.24 C 41.00 64.31 37.04 60.77 32.24 58.90 C 23.75 57.97 15.05 62.16 9.97 68.93 C 4.06 76.40 2.29 86.00 0.57 95.11 C 0.30 102.22 -1.06 109.91 2.47 116.48 C 5.87 123.60 13.80 127.17 21.30 128.00 L 0.00 128.00 L 0.00 0.00 Z" />
<path fill="#1f4e78" d=" M 59.87 0.00 L 67.41 0.00 C 80.84 1.04 93.77 10.46 97.61 23.58 C 100.16 33.12 98.29 44.03 91.58 51.49 C 80.07 65.72 57.22 68.13 42.66 57.28 C 34.28 51.46 28.66 41.47 29.31 31.12 C 29.23 14.77 44.24 1.49 59.87 0.00 Z" />
<path fill="#1f4e78" d=" M 9.97 68.93 C 15.05 62.16 23.75 57.97 32.24 58.90 C 37.04 60.77 41.00 64.31 45.80 66.24 C 51.54 68.60 57.72 70.30 63.97 70.14 C 73.99 70.31 83.64 66.37 91.83 60.81 C 94.99 58.30 99.18 58.49 102.94 59.23 C 109.06 60.76 114.83 64.23 118.44 69.49 C 123.99 76.86 125.82 86.15 127.20 95.06 C 127.39 102.18 128.89 109.80 125.54 116.46 C 122.05 123.72 113.90 127.35 106.22 128.00 L 21.30 128.00 C 13.80 127.17 5.87 123.60 2.47 116.48 C -1.06 109.91 0.30 102.22 0.57 95.11 C 2.29 86.00 4.06 76.40 9.97 68.93 Z" />
</svg>
