<?xml version="1.0" encoding="UTF-8" ?>
<!DOCTYPE svg PUBLIC "-//W3C//DTD SVG 1.1//EN" "http://www.w3.org/Graphics/SVG/1.1/DTD/svg11.dtd">
<svg width="147pt" height="103pt" viewBox="0 0 147 103" version="1.1" xmlns="http://www.w3.org/2000/svg">
<path fill="#ffffff" d=" M 0.00 0.00 L 147.00 0.00 L 147.00 103.00 L 0.00 103.00 L 0.00 0.00 Z" />
<path fill="#88b6e0" d=" M 63.34 23.97 C 61.51 17.52 67.58 10.93 73.99 11.10 C 80.09 10.92 86.00 16.81 84.88 23.04 C 84.11 28.26 79.06 31.64 74.10 32.25 C 74.22 39.79 73.89 47.32 74.01 54.86 C 78.66 55.32 83.00 57.19 86.70 60.01 C 91.11 54.19 95.96 48.71 100.47 42.97 C 99.25 40.83 97.87 38.58 98.09 36.01 C 97.86 28.68 106.41 22.71 113.17 25.91 C 118.99 28.29 122.12 36.08 118.43 41.50 C 115.24 47.32 107.01 48.74 101.96 44.47 C 97.23 50.06 92.69 55.80 87.96 61.38 C 90.65 64.89 92.46 68.98 93.12 73.37 C 99.74 73.26 106.36 73.13 112.98 73.10 C 114.47 68.71 117.99 64.50 122.90 64.15 C 129.45 63.23 135.75 69.57 134.96 76.10 C 134.36 82.21 127.98 87.20 121.87 85.82 C 116.86 84.70 113.26 80.04 112.85 75.00 C 106.30 75.12 99.75 75.24 93.20 75.35 C 92.68 81.37 90.09 87.42 85.12 91.09 C 79.27 95.59 70.79 96.29 64.35 92.62 C 58.02 89.32 54.33 82.34 53.94 75.36 C 46.70 75.27 39.47 75.16 32.23 75.00 C 31.78 80.75 26.95 86.13 20.98 86.01 C 13.90 86.11 8.01 78.19 10.67 71.46 C 12.72 65.81 19.64 62.27 25.26 64.95 C 28.75 66.39 30.77 69.72 32.09 73.08 C 39.40 73.22 46.70 73.18 54.00 73.48 C 54.54 69.41 56.06 65.56 58.48 62.25 C 53.24 56.49 48.27 50.49 43.07 44.69 C 41.19 45.72 39.28 47.02 37.03 46.97 C 31.13 47.40 25.92 41.71 26.10 35.96 C 25.99 29.89 31.86 24.08 38.05 25.15 C 43.44 26.12 47.57 31.65 46.97 37.10 C 46.82 39.33 45.55 41.23 44.54 43.14 C 49.52 49.07 54.66 54.86 59.70 60.73 C 63.17 57.60 67.49 55.64 72.10 54.93 C 72.13 47.32 72.16 39.71 72.09 32.11 C 68.25 30.68 64.44 28.16 63.34 23.97 Z" />
<path fill="#ffffff" d=" M 72.19 12.22 C 79.14 10.59 86.48 18.28 83.26 25.05 C 80.39 32.15 69.49 33.07 65.59 26.42 C 61.57 21.07 65.94 13.10 72.19 12.22 Z" />
<path fill="#ffffff" d=" M 34.21 26.36 C 40.07 24.61 46.18 30.09 46.00 35.98 C 46.19 40.18 43.05 43.86 39.41 45.54 C 33.40 47.77 26.72 42.12 27.11 35.94 C 26.95 31.63 30.14 27.59 34.21 26.36 Z" />
<path fill="#ffffff" d=" M 107.20 26.23 C 112.66 25.10 118.36 29.42 118.95 34.91 C 119.66 40.18 115.35 45.39 110.12 45.95 C 104.54 46.71 98.92 41.64 99.10 36.02 C 98.96 31.37 102.68 27.07 107.20 26.23 Z" />
<path fill="#ffffff" d=" M 19.28 65.22 C 26.64 63.60 33.65 72.20 30.12 79.01 C 27.51 85.57 17.85 87.10 13.48 81.46 C 8.35 76.08 12.02 66.26 19.28 65.22 Z" />
<path fill="#ffffff" d=" M 122.24 65.23 C 129.61 63.57 136.65 72.17 133.13 79.00 C 130.53 85.52 120.95 87.11 116.56 81.55 C 111.33 76.20 114.95 66.30 122.24 65.23 Z" />
</svg>
