<?xml version="1.0" encoding="UTF-8" ?>
<!DOCTYPE svg PUBLIC "-//W3C//DTD SVG 1.1//EN" "http://www.w3.org/Graphics/SVG/1.1/DTD/svg11.dtd">
<svg width="544pt" height="625pt" viewBox="0 0 544 625" version="1.1" xmlns="http://www.w3.org/2000/svg">
<path fill="#ffffff" d=" M 0.00 0.00 L 544.00 0.00 L 544.00 625.00 L 0.00 625.00 L 0.00 0.00 Z" />
<path fill="#151617" d=" M 245.00 25.85 C 248.30 25.55 252.08 22.85 255.12 25.22 C 255.55 28.08 255.29 30.99 255.17 33.87 C 258.74 35.99 260.58 39.79 263.12 42.89 C 266.30 45.41 269.78 47.95 273.88 48.65 C 285.46 50.74 296.88 53.91 308.62 55.06 C 310.80 56.01 314.05 57.12 313.15 60.20 C 312.19 65.11 306.77 66.79 303.93 70.35 C 304.10 70.88 304.43 71.94 304.60 72.47 C 306.31 73.94 308.19 75.47 308.98 77.68 C 309.09 80.04 308.67 82.37 308.34 84.69 C 310.04 86.65 311.72 88.71 312.88 91.06 C 312.73 92.65 312.26 94.20 312.25 95.81 C 315.20 100.01 320.69 101.89 322.95 106.60 C 321.93 109.11 322.25 111.92 321.00 114.36 C 320.02 114.52 319.05 114.69 318.08 114.86 C 316.99 114.66 315.90 114.72 314.86 115.04 C 312.44 112.80 313.57 108.99 311.35 106.67 C 310.26 105.31 308.67 104.53 307.12 103.81 C 305.27 105.42 303.67 108.26 300.83 107.86 C 298.42 106.88 296.20 105.51 293.89 104.34 C 291.79 105.40 290.70 107.63 288.72 108.82 C 287.19 109.42 285.51 109.55 284.06 110.35 C 282.68 112.59 281.72 115.12 279.74 116.95 C 275.48 117.89 271.59 120.70 267.04 119.99 C 265.26 119.37 265.98 117.12 265.59 115.73 C 261.70 118.42 258.84 122.32 257.46 126.85 C 258.82 129.79 259.74 132.93 261.28 135.78 C 262.67 137.77 264.76 139.35 265.51 141.74 C 266.79 144.95 266.03 148.52 265.09 151.72 C 263.35 152.40 260.91 152.24 259.85 154.01 C 259.09 158.14 261.07 162.00 261.41 166.04 C 261.87 171.41 263.19 176.65 263.65 182.02 C 265.22 185.29 268.82 186.99 271.17 189.67 C 273.60 191.74 274.58 194.89 276.56 197.30 C 278.27 199.44 281.37 199.77 282.97 202.02 C 284.10 203.50 285.13 205.09 286.56 206.31 C 290.32 209.50 292.96 214.01 297.51 216.23 C 301.07 217.56 303.91 220.23 307.53 221.44 C 310.34 222.32 312.72 224.41 313.89 227.13 C 316.25 232.42 317.64 238.16 320.83 243.07 C 322.79 251.36 326.60 259.05 329.82 266.91 C 330.85 269.96 333.48 271.99 335.24 274.60 C 337.11 277.45 340.04 279.31 342.53 281.57 C 345.67 284.09 347.85 287.53 350.81 290.24 C 355.51 294.18 358.37 300.28 364.27 302.76 C 368.52 304.46 372.32 307.30 376.85 308.27 C 382.49 308.37 388.12 305.95 393.72 307.57 C 400.05 308.99 406.64 305.09 412.71 307.96 C 414.85 309.85 416.99 311.77 418.62 314.15 C 418.46 315.38 418.31 316.61 418.18 317.85 C 414.53 320.75 409.97 322.51 406.86 326.06 C 405.86 328.44 407.84 330.15 409.62 331.30 C 413.97 334.02 418.07 337.33 423.11 338.71 C 427.47 339.88 431.26 342.42 435.49 343.93 C 439.37 345.97 443.74 346.90 447.46 349.28 C 449.94 351.16 453.38 349.41 455.95 351.10 C 459.64 353.28 462.58 356.48 465.99 359.05 C 468.66 360.91 470.49 363.85 473.53 365.22 C 478.86 367.49 484.25 369.76 489.98 370.85 C 488.08 371.03 486.21 371.36 484.34 371.70 C 480.96 370.23 477.41 369.21 473.88 368.18 C 470.29 367.24 467.99 364.16 465.22 361.94 C 462.84 359.77 460.27 357.83 457.75 355.84 C 457.45 355.59 456.86 355.11 456.56 354.87 C 454.91 353.82 452.92 353.71 451.07 353.32 C 443.07 349.60 434.87 346.21 427.37 341.51 C 424.67 339.57 421.23 340.08 418.11 339.97 C 415.14 337.57 411.90 335.53 408.52 333.76 C 407.40 332.04 406.19 330.40 404.90 328.82 C 405.12 326.87 404.66 324.56 406.13 322.99 C 408.78 320.10 412.51 318.70 415.82 316.77 C 416.00 315.01 416.59 312.43 414.60 311.50 C 412.93 310.37 410.87 310.20 408.95 309.84 C 408.20 308.63 406.19 308.37 405.83 310.04 C 400.88 310.07 395.92 309.76 390.99 310.21 C 383.90 311.22 376.07 312.28 369.57 308.50 C 369.54 308.49 369.49 308.47 369.47 308.46 C 368.39 307.97 367.33 307.48 366.27 307.00 C 365.19 306.02 363.88 305.35 362.44 305.16 C 360.14 304.18 358.13 302.68 356.29 301.01 C 356.38 299.38 355.15 298.19 353.57 298.11 C 353.38 297.77 353.00 297.09 352.81 296.75 L 352.65 296.40 L 352.43 296.11 C 348.05 288.58 341.25 282.85 334.62 277.37 C 328.96 272.28 329.80 262.96 323.42 258.45 L 322.85 257.94 C 322.20 258.32 320.90 259.08 320.25 259.47 L 319.75 259.46 C 318.83 259.06 317.92 258.66 317.02 258.24 C 318.71 257.51 320.40 256.77 322.07 255.99 C 319.91 247.79 316.66 239.89 312.78 232.36 C 311.68 230.08 311.33 227.47 309.97 225.33 C 308.00 223.22 304.95 223.00 302.51 221.72 C 299.86 220.34 297.27 218.86 294.63 217.48 C 288.33 213.48 283.84 207.36 278.35 202.43 C 277.16 204.36 276.26 206.49 274.73 208.19 C 272.23 209.08 270.02 207.45 267.99 206.25 C 266.66 206.19 265.32 206.13 264.00 206.07 C 262.72 204.25 261.23 202.59 259.37 201.35 C 258.24 202.54 256.96 203.63 256.10 205.04 C 255.46 206.93 256.15 208.89 256.65 210.73 C 258.32 211.01 259.98 211.34 261.62 211.77 C 261.93 214.96 260.23 217.33 257.70 219.05 C 262.04 222.14 266.65 225.08 272.05 225.80 C 273.69 225.57 275.36 225.54 277.01 225.67 C 280.37 230.97 280.30 237.75 284.56 242.57 C 284.55 245.59 284.32 248.88 286.50 251.30 C 288.00 254.56 292.18 254.27 294.62 256.44 C 296.07 258.43 295.60 261.57 298.01 262.92 C 300.51 264.42 303.85 267.31 306.58 264.62 C 309.42 261.72 312.93 257.64 317.50 259.47 C 314.48 260.77 311.43 262.00 308.53 263.56 C 308.28 264.18 307.80 265.42 307.56 266.04 C 307.43 266.16 307.17 266.39 307.04 266.51 C 305.77 267.12 304.23 267.20 303.17 268.19 C 302.92 269.41 302.72 270.63 302.58 271.87 C 302.03 272.61 301.48 273.35 300.94 274.09 C 299.55 274.05 298.17 273.99 296.80 273.92 C 296.12 274.02 294.77 274.21 294.09 274.31 L 294.08 275.02 L 294.07 275.89 C 293.79 276.44 293.22 277.53 292.94 278.07 C 292.89 278.50 292.78 279.34 292.73 279.77 C 291.03 284.50 294.43 288.72 297.75 291.69 C 298.05 292.67 298.31 293.67 298.56 294.67 L 298.52 295.10 C 296.52 295.75 294.49 296.30 292.46 296.84 C 290.44 296.65 289.80 298.74 290.66 300.26 C 291.23 302.14 291.23 304.68 293.39 305.53 C 296.90 307.07 300.13 309.12 302.75 311.96 C 303.18 313.20 304.05 313.86 305.38 313.96 C 305.68 314.23 306.30 314.77 306.60 315.04 C 307.09 316.35 308.03 317.01 309.42 317.02 L 309.92 317.07 C 310.47 317.35 311.57 317.89 312.12 318.17 C 315.37 318.19 318.96 317.36 321.88 319.24 C 324.10 320.79 325.84 322.90 327.95 324.60 C 328.02 328.61 328.02 332.63 328.14 336.64 C 326.51 337.08 324.88 337.53 323.30 338.11 C 322.26 338.50 321.52 339.22 321.09 340.27 C 321.18 340.93 321.35 342.26 321.44 342.93 C 319.53 346.00 319.13 350.41 321.69 353.23 C 324.56 356.90 325.48 361.65 328.30 365.36 L 328.42 365.55 L 328.51 365.73 C 329.24 366.93 330.02 368.15 330.78 369.35 C 333.65 368.02 336.81 367.94 339.92 367.89 L 340.19 368.71 C 340.66 368.77 341.60 368.89 342.07 368.95 C 343.89 370.14 345.87 371.22 347.26 372.95 C 347.48 374.60 347.61 376.26 347.73 377.93 C 348.78 377.98 349.83 378.07 350.89 378.08 C 351.54 378.03 352.84 377.92 353.49 377.87 C 354.70 377.20 355.97 375.25 357.51 376.34 C 360.74 378.31 364.64 380.14 366.00 383.96 C 367.51 386.71 367.29 389.87 367.08 392.90 C 364.98 389.00 363.73 384.61 361.01 381.07 C 358.80 380.65 356.57 378.16 354.42 379.75 C 351.05 382.12 346.76 381.23 342.91 381.19 C 339.40 379.68 343.20 376.79 344.29 374.94 C 344.03 372.16 340.62 371.70 338.47 371.01 C 334.70 370.84 330.92 370.11 327.46 368.56 C 325.77 366.03 325.38 362.87 323.72 360.31 C 321.58 357.04 319.97 353.41 317.39 350.44 C 313.84 348.62 309.98 347.94 306.03 347.96 C 302.40 346.29 298.76 344.45 294.77 343.85 C 291.87 343.97 289.00 344.41 286.10 344.30 C 283.63 342.69 281.30 340.88 279.25 338.78 C 276.22 335.75 271.61 335.54 268.26 333.01 C 263.97 328.51 260.27 323.47 255.49 319.45 C 252.90 317.55 252.52 314.08 250.24 311.91 C 246.39 307.94 242.75 303.53 237.53 301.31 C 233.59 296.94 230.33 291.91 226.58 287.35 C 223.51 284.93 219.62 283.92 216.06 282.44 C 213.73 282.65 211.24 283.49 209.26 281.78 C 207.04 280.96 207.54 278.29 207.92 276.48 C 209.43 275.04 209.12 272.67 207.81 271.23 C 204.04 266.39 200.18 261.44 195.07 257.93 C 193.16 256.86 193.54 254.28 192.21 252.76 C 190.84 250.84 188.21 251.64 186.22 251.14 C 186.20 246.78 185.38 242.45 185.65 238.08 C 186.02 233.69 183.16 230.06 182.00 226.02 C 177.31 223.67 173.79 217.88 175.52 212.69 C 175.54 210.94 175.80 209.16 175.51 207.44 C 173.57 204.06 170.83 201.20 169.23 197.62 C 167.20 193.88 163.24 191.56 158.94 192.30 C 153.99 189.28 150.64 184.24 145.51 181.50 C 143.17 180.14 140.84 178.66 138.14 178.13 C 135.90 177.99 134.94 175.77 133.45 174.44 C 130.24 172.95 127.22 171.01 123.69 170.35 C 119.00 172.35 113.41 172.86 109.74 176.74 C 107.80 178.92 105.73 181.05 103.07 182.33 C 97.95 184.65 97.36 191.19 93.13 194.45 C 89.15 196.16 84.63 196.00 80.66 197.71 C 77.73 200.08 75.21 203.28 71.11 203.57 C 68.29 201.44 66.57 198.01 67.48 194.45 C 68.94 191.88 70.74 189.53 72.41 187.10 C 72.49 185.37 71.56 183.83 71.00 182.24 C 69.39 182.42 67.78 182.62 66.17 182.86 C 62.44 181.93 58.16 182.75 54.84 180.50 C 51.84 178.50 50.87 174.87 48.97 172.00 C 47.42 169.25 44.32 167.65 43.30 164.55 C 42.70 162.30 40.89 159.77 42.38 157.50 C 44.40 153.89 44.49 149.19 48.14 146.65 C 48.07 146.08 47.92 144.92 47.85 144.34 C 45.61 141.52 43.44 138.57 40.50 136.42 C 39.40 135.64 39.13 134.25 38.58 133.11 C 39.34 131.03 39.34 128.86 38.63 126.77 C 39.86 125.07 41.19 123.19 43.37 122.68 C 47.91 121.47 52.01 118.65 54.55 114.67 C 55.09 112.75 55.87 110.92 56.44 109.02 C 55.49 106.28 52.47 105.21 50.77 103.04 C 49.13 98.58 47.72 94.04 46.47 89.45 C 46.36 88.16 46.21 86.87 46.03 85.58 C 46.17 85.08 46.44 84.07 46.58 83.56 C 49.43 82.09 52.43 80.54 55.75 81.18 C 62.84 82.94 69.88 79.35 77.05 80.20 C 80.74 80.87 84.54 80.97 88.25 80.40 C 88.55 80.09 89.14 79.47 89.43 79.16 C 91.58 77.38 93.37 75.22 95.03 73.00 C 97.98 69.42 98.20 64.46 100.52 60.56 C 102.77 57.96 106.24 56.95 108.84 54.77 C 110.68 53.33 112.96 54.62 114.93 55.05 C 114.98 60.26 115.46 65.45 116.26 70.60 C 117.60 72.57 121.25 71.34 121.81 74.10 C 122.53 76.48 124.26 78.25 126.10 79.82 C 128.10 81.35 128.64 83.92 129.66 86.09 C 133.90 83.53 129.91 78.34 132.88 74.98 C 135.37 72.93 136.21 69.66 137.80 66.97 C 139.80 63.23 143.24 59.64 142.55 55.06 C 143.61 51.85 147.34 52.24 149.98 51.30 C 150.47 51.86 151.46 52.97 151.95 53.53 C 152.01 54.00 152.12 54.95 152.18 55.43 C 153.61 57.29 153.00 59.74 153.08 61.91 C 155.21 63.54 157.87 63.76 160.46 63.55 C 161.93 61.38 164.72 60.48 167.05 61.93 C 169.02 63.64 170.21 66.10 172.16 67.86 C 173.91 63.91 170.88 59.91 171.87 55.76 C 171.49 55.31 170.73 54.42 170.35 53.97 C 171.99 50.38 175.47 48.58 179.05 47.45 C 180.51 47.99 181.95 48.58 183.36 49.25 C 183.77 48.95 184.58 48.34 184.98 48.04 C 186.35 44.08 184.78 39.05 188.01 35.90 C 191.37 36.10 194.72 35.78 198.05 35.36 C 200.46 35.94 202.25 38.37 204.90 38.08 C 207.38 37.93 209.88 37.40 211.98 36.00 C 215.47 33.67 219.27 31.90 222.90 29.81 C 227.41 28.15 232.27 29.01 236.93 29.29 C 240.22 29.69 241.86 25.96 245.00 25.85 Z" />
<path fill="#ffffff" d=" M 242.51 30.39 C 245.32 28.64 248.64 28.17 251.87 27.85 C 251.82 31.29 251.44 35.26 254.62 37.54 C 258.51 39.84 259.51 44.73 263.23 47.21 C 261.26 51.18 255.69 53.28 251.79 50.77 C 249.75 49.42 247.78 51.30 245.84 51.91 C 245.88 52.49 245.97 53.67 246.01 54.25 C 245.02 55.67 244.03 57.29 242.03 57.07 C 241.06 58.54 239.32 59.99 239.95 61.97 C 240.20 67.34 242.45 72.43 241.86 77.85 C 238.45 80.51 233.04 81.58 232.49 86.69 C 230.39 87.80 228.06 88.04 226.02 86.63 C 223.93 87.62 221.92 88.91 221.08 91.18 C 219.00 91.90 216.97 92.72 215.07 93.84 C 214.36 95.66 213.94 97.62 212.89 99.29 C 212.04 99.36 210.34 99.49 209.48 99.56 C 208.44 97.81 207.52 95.95 205.75 94.81 C 205.33 95.07 204.48 95.60 204.05 95.87 C 201.65 92.59 197.48 92.56 193.86 91.78 C 192.93 92.20 192.00 92.62 191.08 93.04 C 190.60 92.14 190.13 91.23 189.66 90.33 C 190.03 87.78 190.05 84.93 192.19 83.12 C 193.20 78.50 193.14 73.75 191.96 69.16 C 192.02 65.59 193.89 61.97 192.13 58.46 C 190.56 56.32 189.08 54.13 187.46 52.04 C 187.59 48.35 188.95 44.68 188.19 40.96 C 190.33 38.39 194.08 38.90 197.08 38.78 C 198.46 38.47 199.36 39.67 200.40 40.31 C 204.11 41.44 208.18 41.34 211.56 39.29 C 215.35 36.75 219.81 35.43 223.55 32.78 C 227.64 31.96 231.84 31.95 235.96 32.56 C 238.37 32.99 240.49 31.46 242.51 30.39 Z" />
<path fill="#ffffff" d=" M 255.35 54.60 C 259.23 53.35 262.68 51.20 266.14 49.12 C 268.98 49.49 271.55 51.12 274.16 52.24 C 273.98 54.00 273.76 55.76 273.53 57.52 C 271.71 60.91 268.63 63.30 264.76 63.82 C 263.20 67.84 261.79 71.92 260.56 76.05 C 261.76 78.56 263.70 80.90 263.50 83.85 C 261.06 89.49 267.01 93.24 269.44 97.59 C 270.24 98.29 271.05 99.01 271.85 99.72 C 275.10 99.00 278.36 98.21 281.72 98.33 C 283.19 101.28 285.67 103.57 287.06 106.47 C 282.58 105.63 281.02 110.07 279.07 113.06 C 276.18 114.66 273.04 115.96 269.83 116.79 C 269.79 114.60 270.03 112.16 268.10 110.66 C 261.81 112.65 257.75 118.39 255.17 124.15 C 253.26 128.67 256.75 132.62 258.23 136.65 C 258.94 139.14 262.01 139.95 262.55 142.50 C 263.47 144.67 262.72 147.00 262.15 149.15 C 261.45 149.10 260.05 149.00 259.34 148.94 C 259.28 148.33 259.16 147.11 259.10 146.50 C 258.29 145.76 257.48 145.02 256.68 144.29 C 251.76 143.57 246.85 142.47 241.90 142.14 C 235.24 143.06 228.31 145.02 221.70 142.74 C 220.04 140.11 217.41 138.49 214.64 137.27 C 212.28 135.30 210.03 133.19 207.64 131.26 C 205.60 128.72 204.06 125.68 201.22 123.90 C 198.12 122.24 200.10 117.83 197.47 115.71 C 197.07 113.84 195.96 111.99 196.32 110.04 C 197.61 106.51 199.88 103.48 202.11 100.50 C 202.18 99.96 202.31 98.87 202.37 98.33 C 203.61 98.16 204.86 98.00 206.10 97.85 C 206.65 99.19 207.21 100.51 207.81 101.83 C 209.76 101.77 211.71 101.86 213.66 101.64 C 215.95 100.73 216.04 97.86 216.33 95.79 C 217.95 94.49 219.86 93.66 221.82 93.01 C 222.89 91.41 224.28 90.08 225.86 88.99 C 228.78 90.10 231.70 89.51 234.16 87.70 C 234.27 84.59 236.83 82.88 239.15 81.33 C 239.64 81.31 240.62 81.27 241.11 81.24 C 241.95 80.69 242.79 80.13 243.65 79.59 C 245.54 73.38 241.97 67.23 241.83 61.06 C 242.14 59.13 244.46 58.91 245.97 58.42 C 247.05 56.72 247.80 54.83 247.81 52.78 C 250.55 51.98 253.00 53.40 255.35 54.60 Z" />
<path fill="#ffffff" d=" M 173.93 54.50 C 174.78 51.83 177.09 51.03 179.55 50.46 C 181.13 52.02 183.37 52.35 185.37 53.09 C 185.77 55.67 187.25 57.83 189.86 58.53 C 191.45 61.46 190.84 64.77 189.48 67.66 C 190.82 73.46 191.81 80.04 188.67 85.46 C 186.94 88.58 187.81 92.43 189.83 95.20 C 193.20 95.49 196.70 93.98 199.96 95.00 C 201.90 95.57 200.95 97.87 200.33 99.12 C 198.03 102.66 195.46 106.08 193.97 110.07 C 194.98 115.46 197.02 120.67 199.01 125.77 C 201.22 126.93 203.35 128.50 204.28 130.91 C 205.51 133.85 208.98 134.68 210.96 137.00 C 212.88 139.14 215.62 140.23 217.66 142.23 C 212.80 143.01 207.87 143.45 202.96 143.71 C 201.19 143.94 199.97 142.51 198.64 141.64 C 197.73 141.41 196.82 141.19 195.92 140.98 C 191.60 142.53 187.07 140.80 183.16 138.93 C 180.19 137.51 176.39 137.59 174.04 135.03 C 173.12 134.24 172.37 133.20 171.27 132.67 C 165.52 132.40 159.80 133.36 154.05 133.09 C 151.25 133.19 148.19 132.50 145.65 133.99 C 143.51 136.21 142.33 139.16 140.77 141.79 C 139.32 143.91 141.51 146.02 142.07 148.04 C 141.36 148.98 140.54 149.83 139.75 150.70 C 139.16 150.87 137.97 151.22 137.38 151.39 C 136.50 148.43 133.25 147.12 132.41 144.18 C 130.24 138.81 125.94 133.40 119.63 133.32 C 116.83 128.76 116.05 123.22 114.32 118.20 C 116.00 116.75 118.08 117.74 120.01 117.94 C 122.58 117.23 123.27 114.26 123.95 112.02 C 123.79 110.30 122.10 109.33 121.16 108.02 C 120.80 101.00 117.99 94.39 117.55 87.42 C 119.05 85.00 120.37 82.48 121.76 80.00 C 124.67 82.46 126.27 85.91 128.25 89.07 C 129.50 88.91 130.75 88.77 131.99 88.54 C 134.31 86.80 135.17 83.80 134.92 81.00 C 134.62 77.56 137.31 74.96 138.55 71.96 C 140.49 67.18 144.18 63.40 145.76 58.44 C 145.53 57.20 143.58 55.54 145.17 54.53 C 146.37 54.72 147.54 55.11 148.75 55.34 C 150.57 57.59 150.37 60.47 150.17 63.19 C 152.15 66.73 156.50 66.61 160.02 66.97 C 162.26 67.39 163.49 65.08 165.10 64.02 C 167.51 66.81 169.33 70.52 173.14 71.61 C 175.27 69.75 176.41 66.92 175.52 64.14 C 174.64 60.98 176.21 57.20 173.93 54.50 Z" />
<path fill="#ffffff" d=" M 275.16 57.20 C 275.89 55.52 275.95 53.32 277.85 52.47 C 282.96 53.54 288.07 54.58 293.10 55.98 C 298.95 56.73 304.77 57.74 310.55 58.93 C 309.52 64.18 302.86 64.98 301.11 69.74 C 300.30 72.72 301.99 75.35 304.49 76.80 C 307.15 78.30 305.98 81.77 305.42 84.14 C 306.08 86.83 307.75 89.03 309.40 91.18 C 309.39 93.29 309.39 95.40 309.39 97.52 C 312.23 101.10 315.99 103.72 319.41 106.70 C 319.38 107.58 319.32 109.32 319.29 110.20 C 319.50 111.91 317.20 111.50 316.18 111.85 C 315.70 109.92 315.74 107.85 314.98 105.99 C 313.48 104.10 311.50 102.68 309.66 101.14 C 308.12 101.05 306.59 100.94 305.05 100.83 C 304.08 102.39 303.03 103.91 301.85 105.33 C 299.12 103.34 296.20 101.68 292.89 100.90 C 291.52 101.61 290.16 102.36 288.83 103.11 C 286.05 101.52 284.46 98.70 282.75 96.11 C 278.61 95.43 274.68 97.95 270.62 96.74 C 269.20 94.10 267.67 91.41 265.25 89.55 C 264.76 86.26 265.34 82.95 265.32 79.65 C 264.30 78.18 262.67 76.79 263.02 74.78 C 263.82 71.78 265.07 68.92 266.08 65.99 C 267.85 65.08 269.62 64.18 271.41 63.29 C 272.82 61.37 274.51 59.57 275.16 57.20 Z" />
<path fill="#ffffff" d=" M 104.93 60.86 C 107.27 59.63 109.33 57.68 112.04 57.34 C 111.45 61.60 114.10 65.52 112.93 69.74 C 113.03 70.51 113.23 72.06 113.33 72.84 C 115.09 73.66 116.93 74.35 118.60 75.37 C 120.34 77.65 118.65 80.59 117.66 82.83 C 116.04 85.59 115.86 88.82 114.87 91.80 C 115.53 92.68 116.21 93.56 116.89 94.43 C 117.72 98.60 118.43 102.79 118.84 107.03 C 118.87 109.17 120.87 110.41 121.77 112.17 C 121.27 113.41 120.77 114.98 119.35 115.43 C 117.74 114.93 116.07 114.78 114.39 115.00 C 113.95 115.49 113.08 116.46 112.64 116.95 C 112.38 121.54 114.97 125.56 115.80 129.97 C 116.16 133.15 118.64 136.18 122.00 136.24 C 127.37 138.22 129.71 143.92 132.37 148.48 C 134.77 150.21 135.41 152.98 134.71 155.78 C 133.29 157.20 131.68 154.78 130.02 155.10 C 126.70 154.73 124.42 157.41 121.88 159.02 C 119.28 159.34 116.71 158.39 114.11 158.38 C 112.24 158.84 110.87 160.24 109.75 161.72 C 106.95 162.67 103.23 164.21 100.90 161.52 C 95.68 161.70 94.74 167.54 91.58 170.57 C 89.35 172.73 88.65 175.83 87.67 178.65 C 83.48 181.34 78.41 178.83 73.87 180.55 C 72.99 180.00 72.12 179.45 71.24 178.91 C 66.66 181.02 61.11 180.93 56.87 178.16 C 53.52 173.86 51.02 168.88 47.20 164.94 C 45.97 163.56 45.19 161.83 44.75 160.05 C 45.92 157.69 47.30 155.40 47.91 152.81 C 48.43 150.60 50.71 149.54 51.77 147.65 C 52.52 145.84 51.76 143.89 51.29 142.11 C 47.58 139.74 45.40 135.79 42.04 133.03 C 42.62 130.73 42.60 128.35 42.81 126.00 C 45.92 124.93 49.62 124.62 51.88 121.95 C 53.43 120.04 55.73 118.82 57.10 116.82 C 57.75 114.03 58.91 111.42 60.28 108.93 C 64.77 108.92 69.35 110.26 73.76 108.77 C 78.73 107.33 85.04 110.20 89.02 105.94 C 91.93 101.55 88.60 96.59 88.43 92.02 C 89.68 88.80 90.52 85.46 91.10 82.05 C 94.34 79.77 95.49 75.88 98.20 73.14 C 101.13 69.42 100.86 63.75 104.93 60.86 Z" />
<path fill="#ffffff" d=" M 65.71 83.70 C 70.20 83.13 74.73 82.39 79.23 83.36 C 82.30 84.09 85.53 82.58 88.49 83.72 C 88.01 88.60 85.02 93.79 88.04 98.52 C 88.08 100.42 88.06 102.32 88.01 104.22 C 83.05 108.47 76.25 105.04 70.69 107.40 C 67.17 107.18 63.66 106.67 60.12 106.63 C 57.51 104.92 55.28 102.72 52.86 100.76 C 51.91 97.85 51.20 94.88 50.71 91.86 C 50.28 89.89 48.29 87.79 49.70 85.81 C 54.52 82.05 60.68 87.27 65.71 83.70 Z" />
<path fill="#151617" d=" M 262.93 120.05 C 263.59 119.98 264.91 119.85 265.56 119.78 C 265.23 121.70 263.94 123.12 262.23 123.93 C 262.08 125.60 261.86 127.33 259.78 127.47 C 259.17 124.53 261.39 122.26 262.93 120.05 Z" />
<path fill="#ffffff" d=" M 148.45 135.29 C 155.15 134.46 161.98 135.87 168.63 134.57 C 170.16 134.68 171.45 135.57 172.61 136.49 C 175.13 138.54 178.37 139.27 181.22 140.73 C 185.21 142.58 189.50 144.80 194.05 143.93 C 196.79 143.10 199.01 145.12 201.24 146.32 C 202.01 146.39 203.55 146.52 204.33 146.58 C 204.75 146.28 205.59 145.66 206.01 145.35 C 209.79 145.82 213.53 145.22 217.21 144.39 C 220.11 145.52 223.16 146.35 226.30 146.27 C 230.58 146.80 234.81 146.49 238.82 144.90 C 244.71 145.24 251.26 144.41 256.47 147.75 C 256.51 150.98 256.12 154.23 256.47 157.45 C 258.86 166.33 259.12 175.64 260.96 184.64 C 263.68 186.70 265.96 189.27 268.54 191.50 C 271.95 194.27 272.65 198.87 275.27 202.24 C 274.62 203.52 273.92 204.78 273.11 205.97 C 272.04 205.38 271.00 204.74 270.00 204.05 C 269.52 201.93 270.14 199.28 268.27 197.70 C 266.71 195.59 264.01 197.07 262.53 198.45 C 261.35 198.63 260.18 198.80 259.01 198.95 C 257.00 200.38 254.71 201.78 253.71 204.15 C 253.35 206.43 254.12 208.91 253.10 211.05 C 248.63 211.29 245.27 207.55 240.96 206.99 C 239.55 205.25 237.49 203.51 237.67 201.05 C 237.63 196.95 238.15 192.69 236.08 188.95 C 231.56 187.68 227.64 184.79 223.00 183.96 C 220.80 184.19 219.65 186.85 217.26 186.65 C 213.60 186.65 210.02 187.47 206.60 188.74 C 203.67 188.43 201.51 186.40 198.88 185.39 C 192.38 184.50 186.53 181.22 181.07 177.77 C 179.30 175.80 177.60 173.69 174.91 172.99 C 171.28 172.03 169.88 168.25 166.96 166.29 C 163.59 166.83 160.78 169.37 157.74 170.89 C 155.65 168.09 152.14 167.98 148.97 167.83 C 148.23 165.43 148.61 162.32 146.52 160.60 C 143.40 159.37 140.38 157.94 137.32 156.57 C 138.71 154.80 140.31 153.18 142.46 152.36 C 144.70 149.98 144.80 146.52 143.16 143.78 C 143.74 141.78 144.93 139.96 144.95 137.82 C 145.99 136.82 147.02 135.71 148.45 135.29 Z" />
<path fill="#ffffff" d=" M 121.05 161.44 C 124.00 160.86 126.19 158.65 128.79 157.31 C 131.06 158.37 133.43 159.33 135.98 159.23 C 139.32 159.08 141.96 161.31 144.84 162.61 C 147.77 164.00 145.01 168.61 147.99 170.03 C 150.66 170.99 154.24 170.22 156.04 172.86 C 159.24 176.34 159.58 181.62 163.25 184.76 C 164.78 185.90 164.99 187.84 164.26 189.51 C 162.18 188.92 159.61 189.61 157.92 188.03 C 153.80 184.40 149.42 181.05 144.85 178.06 C 143.57 176.75 142.87 174.54 140.86 174.25 C 138.48 173.86 136.52 172.48 134.64 171.07 C 131.85 170.33 129.67 168.12 126.73 167.84 C 123.79 167.12 120.60 167.07 117.87 168.53 C 113.69 170.63 108.00 171.28 105.76 175.91 C 103.83 178.92 100.55 180.68 97.75 182.77 C 95.35 185.39 94.13 188.85 91.78 191.52 C 85.74 193.73 78.18 193.32 73.96 199.00 C 72.10 201.90 70.91 197.25 69.99 195.92 C 72.10 193.29 73.99 190.48 75.61 187.53 C 76.69 186.02 73.97 183.31 76.10 182.52 C 80.37 182.21 84.86 183.02 88.77 180.78 C 90.96 174.46 94.98 169.18 99.17 164.07 C 102.39 166.31 106.28 164.86 109.72 164.04 C 111.50 162.75 113.23 161.39 115.03 160.14 C 117.01 160.65 118.97 161.45 121.05 161.44 Z" />
<path fill="#ffffff" d=" M 160.26 171.63 C 162.53 170.93 164.78 170.16 166.88 169.05 C 168.75 172.14 171.63 174.45 174.81 176.09 C 177.87 177.64 180.12 180.39 183.26 181.80 C 185.27 182.81 187.47 183.37 189.45 184.45 C 194.42 187.93 200.94 188.05 205.68 191.97 C 210.08 189.62 215.06 189.26 219.93 188.91 C 220.97 188.07 222.01 187.23 223.07 186.41 C 224.26 186.81 225.46 187.20 226.66 187.58 C 229.09 190.17 233.74 189.95 235.28 193.24 C 235.64 197.69 233.89 202.90 237.61 206.46 C 243.21 211.51 251.17 215.22 258.84 213.31 C 257.88 219.09 251.08 220.56 248.29 225.08 C 249.31 228.79 252.23 232.84 249.84 236.61 C 248.82 236.93 247.80 237.25 246.79 237.58 C 245.27 240.45 243.17 243.32 243.25 246.71 C 243.68 250.43 245.46 254.98 241.71 257.59 C 241.03 257.54 239.66 257.45 238.98 257.41 C 235.23 259.93 234.98 264.50 233.67 268.42 C 232.30 269.34 230.73 270.04 229.63 271.28 C 227.73 274.93 228.19 279.55 225.09 282.57 C 220.62 280.58 215.88 279.04 210.92 279.54 C 211.19 276.90 213.27 274.10 211.33 271.68 C 208.39 267.09 204.86 262.80 200.45 259.54 C 199.31 257.62 197.57 256.21 195.95 254.73 C 195.60 250.73 191.55 249.29 188.41 247.95 C 188.80 240.33 188.87 232.17 184.40 225.60 C 182.27 223.73 180.10 221.88 178.33 219.64 C 178.13 217.99 177.77 216.36 177.24 214.78 C 178.24 211.99 178.62 208.97 177.82 206.08 C 176.48 204.38 175.31 202.56 174.11 200.76 C 173.10 198.47 172.07 196.11 170.09 194.48 C 168.36 191.94 166.20 189.42 166.95 186.09 C 165.89 184.48 164.61 183.03 163.09 181.85 C 161.73 178.85 161.06 175.52 159.08 172.83 C 159.38 172.53 159.97 171.93 160.26 171.63 Z" />
<path fill="#ffffff" d=" M 264.54 201.69 C 265.34 201.25 266.15 200.81 266.96 200.37 C 267.07 202.00 266.98 203.73 264.92 203.48 C 264.82 203.04 264.63 202.14 264.54 201.69 Z" />
<path fill="#ffffff" d=" M 256.10 205.04 C 256.96 203.63 258.24 202.54 259.37 201.35 C 261.23 202.59 262.72 204.25 264.00 206.07 C 265.32 206.13 266.66 206.19 267.99 206.25 C 270.02 207.45 272.23 209.08 274.73 208.19 C 276.26 206.49 277.16 204.36 278.35 202.43 C 283.84 207.36 288.33 213.48 294.63 217.48 C 297.27 218.86 299.86 220.34 302.51 221.72 C 304.95 223.00 308.00 223.22 309.97 225.33 C 311.33 227.47 311.68 230.08 312.78 232.36 C 316.66 239.89 319.91 247.79 322.07 255.99 C 320.40 256.77 318.71 257.51 317.02 258.24 C 317.92 258.66 318.83 259.06 319.75 259.46 C 319.00 259.49 318.25 259.50 317.50 259.47 C 312.93 257.64 309.42 261.72 306.58 264.62 C 303.85 267.31 300.51 264.42 298.01 262.92 C 295.60 261.57 296.07 258.43 294.62 256.44 C 292.18 254.27 288.00 254.56 286.50 251.30 C 284.32 248.88 284.55 245.59 284.56 242.57 C 280.30 237.75 280.37 230.97 277.01 225.67 C 275.36 225.54 273.69 225.57 272.05 225.80 C 266.65 225.08 262.04 222.14 257.70 219.05 C 260.23 217.33 261.93 214.96 261.62 211.77 C 259.98 211.34 258.32 211.01 256.65 210.73 C 256.15 208.89 255.46 206.93 256.10 205.04 Z" />
<path fill="#ffffff" d=" M 255.58 222.25 C 259.08 221.44 261.84 223.86 264.88 225.08 C 268.12 226.48 271.55 227.38 274.92 228.42 C 277.56 229.33 278.54 232.35 278.54 234.91 C 278.48 238.37 281.41 240.80 282.06 244.06 C 283.22 247.58 282.77 251.73 285.35 254.68 C 287.46 257.51 291.88 255.99 294.06 258.84 C 294.01 259.50 293.90 260.84 293.85 261.51 C 292.66 263.25 291.77 265.16 290.68 266.96 C 288.79 268.60 286.13 268.95 284.04 270.30 C 279.53 274.78 273.73 277.61 269.09 281.96 C 265.97 278.67 261.31 277.12 258.89 273.16 C 256.98 270.00 253.93 266.96 250.01 266.89 C 246.16 267.27 245.56 262.85 244.94 260.04 C 244.97 257.23 246.23 254.55 246.44 251.73 C 246.07 249.53 245.86 247.31 245.30 245.15 C 246.00 243.09 246.52 240.68 248.46 239.40 C 250.48 238.02 252.85 236.88 253.75 234.43 C 251.97 231.73 252.25 228.24 250.15 225.70 C 252.10 224.78 254.09 223.85 255.58 222.25 Z" />
<path fill="#317abd" d=" M 179.19 231.24 C 180.76 230.79 181.46 233.38 179.83 233.75 C 178.23 234.22 177.55 231.60 179.19 231.24 Z" />
<path fill="#151617" d=" M 157.35 242.36 C 157.82 242.45 158.77 242.63 159.25 242.72 C 159.20 243.57 159.15 244.42 159.10 245.28 C 158.18 245.25 157.26 245.21 156.35 245.15 C 156.68 244.21 157.01 243.28 157.35 242.36 Z" />
<path fill="#151617" d=" M 167.32 255.23 C 170.80 255.07 174.52 255.89 177.74 254.21 C 178.60 254.10 180.33 253.88 181.20 253.76 C 181.60 255.73 181.42 257.67 180.64 259.52 C 181.39 261.37 179.37 262.26 178.16 263.16 C 174.82 261.25 170.84 262.18 167.19 261.91 C 166.33 261.34 165.47 260.77 164.62 260.20 C 164.63 259.49 164.66 258.07 164.67 257.36 C 165.56 256.65 166.44 255.94 167.32 255.23 Z" />
<path fill="#ffffff" d=" M 167.96 257.78 C 171.51 256.53 175.64 258.04 179.19 256.10 C 178.88 257.72 178.57 259.34 178.28 260.97 C 175.43 259.84 172.25 259.33 169.30 260.42 C 167.96 260.23 165.40 258.61 167.96 257.78 Z" />
<path fill="#7e7e7e" d=" M 320.25 259.47 C 320.90 259.08 322.20 258.32 322.85 257.94 L 323.42 258.45 C 322.65 259.50 321.60 259.84 320.25 259.47 Z" />
<path fill="#317abd" d=" M 319.75 259.46 L 320.25 259.47 C 321.60 259.84 322.65 259.50 323.42 258.45 C 329.80 262.96 328.96 272.28 334.62 277.37 C 341.25 282.85 348.05 288.58 352.43 296.11 L 352.59 296.46 L 352.81 296.75 C 353.00 297.09 353.38 297.77 353.57 298.11 C 353.75 299.60 354.82 300.72 356.29 301.01 C 358.13 302.68 360.14 304.18 362.44 305.16 C 362.52 307.06 364.77 307.55 366.27 307.00 C 367.33 307.48 368.39 307.97 369.47 308.46 C 369.49 308.47 369.54 308.49 369.57 308.50 C 376.07 312.28 383.90 311.22 390.99 310.21 C 395.92 309.76 400.88 310.07 405.83 310.04 C 406.61 309.99 408.17 309.89 408.95 309.84 C 410.87 310.20 412.93 310.37 414.60 311.50 C 416.59 312.43 416.00 315.01 415.82 316.77 C 412.51 318.70 408.78 320.10 406.13 322.99 C 404.66 324.56 405.12 326.87 404.90 328.82 C 406.19 330.40 407.40 332.04 408.52 333.76 C 411.90 335.53 415.14 337.57 418.11 339.97 C 421.23 340.08 424.67 339.57 427.37 341.51 C 434.87 346.21 443.07 349.60 451.07 353.32 C 451.42 353.53 452.11 353.94 452.46 354.14 C 453.82 354.36 455.19 354.58 456.56 354.87 C 456.86 355.11 457.45 355.59 457.75 355.84 C 459.63 358.53 462.47 360.25 465.22 361.94 C 467.99 364.16 470.29 367.24 473.88 368.18 C 477.41 369.21 480.96 370.23 484.34 371.70 C 486.21 371.36 488.08 371.03 489.98 370.85 C 492.46 371.47 494.18 373.50 495.83 375.31 L 496.06 376.18 C 496.16 376.53 496.37 377.24 496.47 377.59 C 498.54 381.59 500.51 385.70 503.34 389.25 L 503.47 389.78 C 504.05 391.02 504.96 391.93 506.22 392.50 L 506.81 392.54 C 510.42 395.63 514.48 399.84 514.05 404.97 C 514.03 409.47 513.82 414.13 512.25 418.39 C 509.22 420.93 506.05 417.32 503.62 415.72 C 503.53 415.67 503.35 415.56 503.26 415.51 C 502.21 415.00 501.16 414.51 500.11 414.05 C 500.56 412.05 498.54 410.47 496.71 411.32 C 493.11 408.10 490.25 404.18 488.49 399.67 C 488.41 399.53 488.27 399.27 488.19 399.14 L 487.74 398.39 L 487.58 398.10 L 487.43 397.91 C 487.09 397.45 486.40 396.54 486.06 396.08 C 485.61 395.75 484.69 395.08 484.24 394.74 C 482.00 394.94 479.76 394.94 477.54 394.68 C 477.49 394.68 477.38 394.68 477.32 394.68 C 475.16 394.03 472.92 393.96 470.70 393.86 C 469.63 393.83 468.58 393.55 467.70 392.97 C 467.19 392.60 466.19 391.85 465.68 391.48 C 461.96 390.89 461.86 386.68 459.76 384.30 C 458.14 382.04 454.74 382.04 452.53 383.36 C 449.46 385.19 446.36 387.53 445.10 391.03 C 443.41 395.21 440.96 399.02 438.95 403.05 C 436.34 408.12 436.40 414.01 434.29 419.27 C 432.68 423.18 432.60 427.57 434.45 431.43 L 434.48 431.50 L 434.54 431.53 C 438.71 433.77 443.77 434.05 447.53 437.19 C 447.88 438.93 449.67 439.86 451.32 439.14 C 454.15 440.42 456.69 442.24 459.00 444.31 C 459.05 448.34 458.58 452.47 459.53 456.44 C 460.31 460.14 464.35 463.19 462.20 467.18 C 461.32 467.04 459.55 466.77 458.67 466.64 L 458.57 466.62 C 458.53 466.63 458.44 466.65 458.40 466.65 C 451.74 467.52 445.48 470.01 439.99 473.84 C 438.68 474.01 437.94 474.72 437.77 475.96 C 436.85 480.27 435.97 484.62 435.89 489.05 C 435.50 490.52 435.66 491.91 436.39 493.21 C 435.57 494.91 435.09 496.74 434.72 498.59 C 432.51 502.73 428.35 505.06 424.64 507.65 C 421.00 512.10 419.21 517.59 416.97 522.79 C 416.14 523.04 414.49 523.54 413.67 523.79 C 409.84 523.41 405.99 523.40 402.20 522.77 C 401.81 521.04 400.90 519.36 399.23 518.63 C 399.12 516.07 398.50 513.17 400.20 510.98 C 402.50 507.76 406.42 505.31 406.84 501.06 C 407.18 497.98 407.79 494.94 407.99 491.86 C 407.85 489.17 404.58 486.24 406.96 483.85 C 410.60 482.49 414.91 482.50 417.97 479.84 C 420.55 477.08 421.23 473.20 421.85 469.61 C 420.52 467.98 419.72 466.05 420.15 463.93 C 420.64 462.11 419.79 460.27 418.08 459.50 C 415.21 453.74 413.10 447.60 411.81 441.30 C 411.39 438.99 410.19 436.81 408.14 435.60 C 408.62 433.67 406.88 432.06 405.14 431.70 C 404.13 429.63 403.73 427.33 403.99 425.05 C 404.50 423.65 404.16 422.65 402.97 422.03 C 403.42 418.47 402.23 414.99 399.57 412.58 C 399.00 412.34 397.84 411.87 397.27 411.63 C 395.17 411.77 393.08 411.94 390.99 412.13 C 387.96 414.85 383.26 414.59 380.56 411.53 C 377.04 407.74 372.33 405.44 368.71 401.79 C 368.52 398.82 367.94 395.88 367.10 393.03 L 367.08 392.90 C 367.29 389.87 367.51 386.71 366.00 383.96 C 364.64 380.14 360.74 378.31 357.51 376.34 C 355.97 375.25 354.70 377.20 353.49 377.87 C 352.84 377.92 351.54 378.03 350.89 378.08 C 348.02 378.09 348.14 374.92 347.26 372.95 C 345.87 371.22 343.89 370.14 342.07 368.95 C 341.53 368.68 340.46 368.15 339.92 367.89 C 336.81 367.94 333.65 368.02 330.78 369.35 C 330.02 368.15 329.24 366.93 328.51 365.73 L 328.40 365.54 L 328.30 365.36 C 325.48 361.65 324.56 356.90 321.69 353.23 C 319.13 350.41 319.53 346.00 321.44 342.93 C 322.61 341.60 323.58 339.95 323.30 338.11 C 324.88 337.53 326.51 337.08 328.14 336.64 C 328.02 332.63 328.02 328.61 327.95 324.60 C 325.84 322.90 324.10 320.79 321.88 319.24 C 318.96 317.36 315.37 318.19 312.12 318.17 C 311.57 317.89 310.47 317.35 309.92 317.07 L 309.42 317.02 C 309.02 315.59 308.08 314.93 306.60 315.04 C 306.30 314.77 305.68 314.23 305.38 313.96 C 305.14 312.44 304.26 311.77 302.75 311.96 C 300.13 309.12 296.90 307.07 293.39 305.53 C 291.23 304.68 291.23 302.14 290.66 300.26 C 292.02 299.53 292.62 298.39 292.46 296.84 C 294.49 296.30 296.52 295.75 298.52 295.10 L 298.56 294.67 C 299.07 290.65 294.86 288.11 293.08 284.87 C 292.97 283.17 292.84 281.46 292.73 279.77 C 292.78 279.34 292.89 278.50 292.94 278.07 C 293.22 277.53 293.79 276.44 294.07 275.89 L 294.08 275.02 C 295.40 275.62 296.31 275.25 296.80 273.92 C 298.17 273.99 299.55 274.05 300.94 274.09 C 301.48 273.35 302.03 272.61 302.58 271.87 C 302.72 270.63 302.92 269.41 303.17 268.19 C 304.23 267.20 305.77 267.12 307.04 266.51 L 307.41 266.38 L 307.56 266.04 C 307.80 265.42 308.28 264.18 308.53 263.56 C 311.43 262.00 314.48 260.77 317.50 259.47 C 318.25 259.50 319.00 259.49 319.75 259.46 Z" />
<path fill="#ffffff" d=" M 238.62 260.48 C 239.77 260.00 240.97 259.76 242.22 259.77 C 243.69 261.50 243.50 263.85 244.18 265.89 C 245.94 268.78 249.79 268.63 252.74 269.14 C 255.26 270.66 256.42 273.47 258.36 275.57 C 261.30 279.17 265.48 281.37 269.03 284.27 C 271.86 283.33 273.79 280.90 275.92 278.94 C 277.77 277.02 280.41 276.21 282.38 274.46 C 285.19 271.66 289.54 271.11 292.23 268.15 C 293.23 266.92 294.04 265.56 295.00 264.30 C 296.64 264.76 298.28 265.35 299.70 266.32 C 301.12 267.35 300.41 269.31 300.67 270.78 C 298.38 272.13 295.70 271.66 293.21 272.15 C 291.25 275.76 290.11 280.06 290.05 284.20 C 291.11 288.02 294.16 290.88 296.23 294.18 C 293.57 294.69 290.71 294.71 288.31 296.10 C 287.79 302.21 292.13 308.70 298.50 309.33 C 301.22 313.63 305.43 316.85 309.86 319.24 C 312.42 320.83 315.35 319.24 318.11 319.40 C 320.79 320.40 322.93 322.42 325.06 324.27 C 325.98 327.47 325.98 330.83 326.04 334.13 C 324.08 335.56 322.09 336.93 320.00 338.15 C 319.13 341.09 319.67 344.28 318.34 347.10 C 315.91 346.26 313.46 345.43 310.96 344.82 C 310.19 344.94 308.63 345.19 307.85 345.31 C 302.17 343.07 296.08 339.69 289.83 341.36 C 286.17 342.22 283.70 338.72 281.20 336.68 C 278.62 333.85 274.48 333.71 271.57 331.35 C 266.64 328.32 264.17 322.74 259.59 319.34 C 255.82 316.67 254.51 311.96 251.16 308.89 C 247.32 305.31 244.23 300.46 239.07 298.67 C 235.52 293.65 231.26 289.17 228.12 283.86 C 229.75 280.95 230.61 277.69 230.49 274.35 C 233.90 271.54 237.26 268.26 237.25 263.50 C 237.72 262.50 238.17 261.49 238.62 260.48 Z" />
<path fill="#c1c1c1" d=" M 307.04 266.51 C 307.17 266.39 307.43 266.16 307.56 266.04 L 307.41 266.38 L 307.04 266.51 Z" />
<path fill="#151617" d=" M 166.94 270.15 C 165.48 269.85 164.07 268.50 164.93 266.96 C 167.06 266.11 167.05 268.86 166.94 270.15 Z" />
<path fill="#537da3" d=" M 294.09 274.31 C 294.77 274.21 296.12 274.02 296.80 273.92 C 296.31 275.25 295.40 275.62 294.08 275.02 L 294.09 274.31 Z" />
<path fill="#7e7e7e" d=" M 292.94 278.07 C 293.22 277.53 293.79 276.44 294.07 275.89 C 293.79 276.44 293.22 277.53 292.94 278.07 Z" />
<path fill="#151617" d=" M 196.64 280.66 C 198.11 279.40 199.91 279.14 201.10 280.91 C 200.59 281.87 200.09 282.84 199.59 283.81 C 198.60 283.28 197.62 282.74 196.64 282.21 C 196.64 281.82 196.64 281.04 196.64 280.66 Z" />
<path fill="#ffffff" d=" M 297.75 291.69 C 294.43 288.72 291.03 284.50 292.73 279.77 C 292.84 281.46 292.97 283.17 293.08 284.87 C 294.86 288.11 299.07 290.65 298.56 294.67 C 298.31 293.67 298.05 292.67 297.75 291.69 Z" />
<path fill="#151617" d=" M 207.62 286.62 C 208.88 286.95 210.14 287.25 211.42 287.56 C 210.50 289.22 209.65 291.16 207.91 292.12 C 207.12 291.35 206.52 290.43 205.89 289.54 C 206.47 288.57 207.04 287.59 207.62 286.62 Z" />
<path fill="#c1c1c1" d=" M 352.43 296.11 L 352.65 296.40 L 352.81 296.75 L 352.59 296.46 L 352.43 296.11 Z" />
<path fill="#ffffff" d=" M 290.66 300.26 C 289.80 298.74 290.44 296.65 292.46 296.84 C 292.62 298.39 292.02 299.53 290.66 300.26 Z" />
<path fill="#ffffff" d=" M 353.57 298.11 C 355.15 298.19 356.38 299.38 356.29 301.01 C 354.82 300.72 353.75 299.60 353.57 298.11 Z" />
<path fill="#ffffff" d=" M 362.44 305.16 C 363.88 305.35 365.19 306.02 366.27 307.00 C 364.77 307.55 362.52 307.06 362.44 305.16 Z" />
<path fill="#7e7e7e" d=" M 369.47 308.46 C 369.49 308.47 369.54 308.49 369.57 308.50 C 369.54 308.49 369.49 308.47 369.47 308.46 Z" />
<path fill="#7e7e7e" d=" M 405.83 310.04 C 406.19 308.37 408.20 308.63 408.95 309.84 C 408.17 309.89 406.61 309.99 405.83 310.04 Z" />
<path fill="#537da3" d=" M 302.75 311.96 C 304.26 311.77 305.14 312.44 305.38 313.96 C 304.05 313.86 303.18 313.20 302.75 311.96 Z" />
<path fill="#c1c1c1" d=" M 306.60 315.04 C 308.08 314.93 309.02 315.59 309.42 317.02 C 308.03 317.01 307.09 316.35 306.60 315.04 Z" />
<path fill="#7e7e7e" d=" M 309.92 317.07 C 310.47 317.35 311.57 317.89 312.12 318.17 C 311.57 317.89 310.47 317.35 309.92 317.07 Z" />
<path fill="#151617" d=" M 123.00 343.85 C 125.56 342.47 126.58 339.05 129.66 338.44 C 132.12 337.07 134.12 339.26 135.98 340.50 C 136.61 339.62 137.25 338.75 137.88 337.88 C 139.69 339.10 142.67 340.07 141.15 342.74 C 139.78 342.38 138.42 342.04 137.04 341.74 C 138.07 343.61 139.88 344.70 141.96 344.98 C 145.37 347.87 147.16 353.18 145.13 357.31 C 145.47 357.59 146.16 358.14 146.50 358.42 C 147.48 366.59 151.60 373.96 153.05 382.02 C 152.50 384.34 152.20 386.70 151.80 389.04 C 150.47 392.01 148.52 394.65 146.60 397.25 C 147.19 399.53 148.00 401.74 148.80 403.96 C 147.72 410.15 148.15 416.69 145.61 422.62 C 145.18 426.35 145.24 430.15 144.42 433.85 C 144.93 439.43 140.05 443.43 139.71 448.77 C 138.59 450.58 138.10 452.64 137.52 454.66 C 135.93 454.86 134.32 454.79 132.73 454.82 C 132.19 454.64 131.11 454.27 130.57 454.08 C 129.97 452.16 129.40 450.25 128.91 448.31 C 124.30 447.07 116.90 447.95 116.08 453.72 C 116.10 456.08 116.10 458.44 116.13 460.81 C 112.07 463.47 108.11 467.67 102.82 466.96 C 100.05 466.69 98.89 463.76 96.80 462.33 C 94.01 460.68 93.28 457.40 91.66 454.83 C 91.17 456.15 90.68 457.48 90.18 458.80 C 86.73 459.48 85.23 455.77 85.62 452.93 C 86.46 451.81 87.60 450.97 88.63 450.04 C 87.79 445.29 89.37 440.24 87.58 435.70 C 87.83 433.70 88.36 431.75 89.32 429.99 C 91.21 426.15 90.41 420.71 94.97 418.67 C 94.98 417.98 95.00 416.59 95.01 415.90 C 93.63 415.46 92.24 415.06 90.85 414.69 C 90.21 411.15 89.16 407.21 91.33 403.99 C 92.98 402.87 94.43 401.50 95.81 400.08 C 94.79 396.86 94.57 393.30 92.62 390.45 C 90.36 386.31 90.20 381.49 88.77 377.08 C 88.41 375.50 86.57 375.43 85.34 374.96 C 83.67 374.17 82.12 373.15 80.75 371.90 C 81.02 369.20 81.61 366.53 82.96 364.14 C 85.26 360.46 82.80 355.25 85.92 351.97 C 86.41 351.97 87.41 351.96 87.91 351.96 C 89.58 354.20 91.16 356.53 93.14 358.53 C 95.58 358.99 98.00 359.56 100.47 359.83 C 104.67 357.23 108.91 354.63 112.37 351.06 C 116.29 349.22 119.22 345.93 123.00 343.85 Z" />
<path fill="#ffffff" d=" M 321.09 340.27 C 321.52 339.22 322.26 338.50 323.30 338.11 C 323.58 339.95 322.61 341.60 321.44 342.93 C 321.35 342.26 321.18 340.93 321.09 340.27 Z" />
<path fill="#ffffff" d=" M 128.41 341.20 C 129.61 341.03 130.82 340.85 132.03 340.67 C 134.82 343.34 137.23 346.55 140.76 348.31 C 143.15 350.17 143.72 353.79 142.09 356.38 C 142.31 357.19 142.53 358.01 142.74 358.84 C 145.28 361.49 145.05 365.36 146.42 368.58 C 148.08 374.65 151.96 380.88 149.63 387.31 C 148.75 391.40 145.41 394.22 143.81 397.97 C 144.61 399.99 145.82 401.87 146.39 403.98 C 146.08 407.11 145.83 410.25 145.53 413.39 C 145.15 416.88 144.05 420.24 142.87 423.53 C 142.56 430.51 143.31 438.70 138.08 444.17 C 136.81 445.67 137.04 447.82 136.21 449.55 C 136.02 451.06 135.85 452.70 133.91 452.71 C 131.55 451.47 131.63 448.41 130.73 446.22 C 129.11 445.71 127.48 445.23 125.85 444.78 C 121.79 445.58 117.76 446.49 114.44 449.13 C 113.78 452.31 113.88 455.56 113.72 458.79 C 112.97 460.62 110.95 461.30 109.54 462.53 C 107.69 464.49 104.82 463.98 102.39 464.36 C 99.43 461.38 95.90 458.68 94.68 454.45 C 93.73 450.77 90.04 448.08 90.69 443.98 C 91.27 440.04 89.09 435.70 91.40 432.12 C 92.94 429.29 93.03 425.98 94.20 423.02 C 95.16 421.39 97.30 420.72 97.89 418.84 C 98.07 416.83 97.43 414.87 97.16 412.90 C 95.86 412.41 94.51 412.11 93.14 411.93 C 92.91 411.17 92.44 409.64 92.21 408.88 C 92.46 408.21 92.96 406.88 93.21 406.21 C 95.11 404.70 97.36 403.25 98.23 400.88 C 98.18 398.55 97.45 396.30 97.28 393.99 C 97.36 391.26 95.12 389.47 93.51 387.60 C 93.48 383.33 93.29 378.68 91.01 374.95 C 90.04 372.92 87.55 373.19 85.70 372.81 C 84.85 371.74 84.05 370.62 83.28 369.50 C 85.71 365.66 87.18 361.22 87.00 356.64 C 88.67 357.71 89.94 359.24 91.36 360.60 C 94.78 361.47 98.26 362.30 101.81 362.34 C 103.89 360.23 106.56 358.93 109.00 357.32 C 111.74 353.83 115.93 352.08 119.54 349.70 C 122.58 346.93 126.61 345.12 128.41 341.20 Z" />
<path fill="#151617" d=" M 85.85 348.05 C 87.39 346.55 89.00 345.12 90.77 343.90 C 91.33 344.20 92.46 344.78 93.02 345.08 C 92.95 345.73 92.81 347.05 92.74 347.70 C 91.04 348.48 89.35 349.30 87.69 350.16 C 87.08 349.45 86.46 348.75 85.85 348.05 Z" />
<path fill="#ffffff" d=" M 451.07 353.32 C 452.92 353.71 454.91 353.82 456.56 354.87 C 455.19 354.58 453.82 354.36 452.46 354.14 C 452.11 353.94 451.42 353.53 451.07 353.32 Z" />
<path fill="#ffffff" d=" M 457.75 355.84 C 460.27 357.83 462.84 359.77 465.22 361.94 C 462.47 360.25 459.63 358.53 457.75 355.84 Z" />
<path fill="#c1c1c1" d=" M 328.30 365.36 L 328.40 365.54 L 328.51 365.73 L 328.42 365.55 L 328.30 365.36 Z" />
<path fill="#7e7e7e" d=" M 339.92 367.89 C 340.46 368.15 341.53 368.68 342.07 368.95 C 341.60 368.89 340.66 368.77 340.19 368.71 L 339.92 367.89 Z" />
<path fill="#151617" d=" M 317.26 374.03 C 318.53 372.03 320.66 370.50 322.98 372.08 C 323.31 373.42 323.67 374.77 324.06 376.10 C 322.99 376.62 321.91 377.15 320.84 377.67 C 319.46 376.65 318.28 375.40 317.26 374.03 Z" />
<path fill="#ffffff" d=" M 347.26 372.95 C 348.14 374.92 348.02 378.09 350.89 378.08 C 349.83 378.07 348.78 377.98 347.73 377.93 C 347.61 376.26 347.48 374.60 347.26 372.95 Z" />
<path fill="#151617" d=" M 496.06 376.18 C 497.74 378.47 499.80 380.41 501.93 382.28 C 503.24 385.63 506.55 387.54 508.77 390.23 C 513.40 394.91 517.41 401.02 516.62 407.89 C 514.32 412.50 515.21 418.06 512.15 422.36 C 507.98 422.67 505.28 419.15 501.84 417.53 C 497.21 416.02 493.34 412.30 491.55 407.78 C 489.82 404.42 486.75 401.94 485.31 398.41 C 482.76 396.91 479.78 397.48 476.99 397.15 C 474.78 396.28 472.89 394.78 470.70 393.86 C 472.92 393.96 475.16 394.03 477.32 394.68 L 477.49 394.67 L 477.54 394.68 C 479.76 394.94 482.00 394.94 484.24 394.74 C 484.69 395.08 485.61 395.75 486.06 396.08 C 486.40 396.54 487.09 397.45 487.43 397.91 C 487.51 398.03 487.67 398.27 487.74 398.39 L 488.19 399.14 L 488.37 399.45 L 488.49 399.67 C 490.25 404.18 493.11 408.10 496.71 411.32 C 497.65 412.43 498.66 413.58 500.11 414.05 C 501.16 414.51 502.21 415.00 503.26 415.51 C 503.35 415.56 503.53 415.67 503.62 415.72 C 506.05 417.32 509.22 420.93 512.25 418.39 C 513.82 414.13 514.03 409.47 514.05 404.97 C 514.48 399.84 510.42 395.63 506.81 392.54 C 506.68 390.68 505.02 389.56 503.34 389.25 C 500.51 385.70 498.54 381.59 496.47 377.59 C 496.37 377.24 496.16 376.53 496.06 376.18 Z" />
<path fill="#151617" d=" M 332.62 384.59 C 332.76 382.49 336.58 380.27 337.30 383.19 C 338.69 385.11 336.90 386.85 335.79 388.34 C 334.57 387.27 332.00 386.66 332.62 384.59 Z" />
<path fill="#151617" d=" M 452.53 383.36 C 454.74 382.04 458.14 382.04 459.76 384.30 C 461.86 386.68 461.96 390.89 465.68 391.48 C 466.19 391.85 467.19 392.60 467.70 392.97 C 463.35 391.87 459.57 389.29 456.50 386.09 C 453.27 386.12 450.53 388.15 448.63 390.61 C 444.75 397.27 440.90 403.99 438.00 411.15 C 436.97 414.33 437.32 417.77 436.21 420.94 C 435.45 423.12 435.41 425.43 435.32 427.72 C 436.41 428.84 437.16 430.82 439.00 430.80 C 442.96 430.69 445.63 434.07 449.01 435.65 C 453.28 436.66 457.41 439.01 459.98 442.64 C 462.03 446.80 460.01 451.66 461.28 455.99 C 462.23 458.66 463.85 461.04 464.72 463.75 C 465.30 466.31 464.30 468.72 463.10 470.93 C 460.67 470.90 458.33 470.27 455.98 469.78 C 449.68 470.51 442.91 472.76 439.53 478.55 C 437.11 481.34 439.03 485.11 438.83 488.40 C 441.37 491.51 441.18 495.44 441.03 499.21 C 439.85 500.31 438.66 501.40 437.38 502.40 C 435.97 504.69 433.78 506.26 431.29 507.22 C 429.98 508.29 428.69 509.37 427.30 510.34 C 426.32 511.79 425.29 513.22 424.47 514.78 C 423.90 514.90 422.74 515.12 422.16 515.23 C 420.71 518.92 420.80 524.47 416.11 525.66 C 410.85 526.70 405.38 525.56 400.15 524.70 C 397.69 524.59 396.66 522.16 396.55 520.01 C 395.80 516.94 396.67 513.86 396.78 510.78 C 398.80 508.55 400.93 506.36 403.61 504.94 C 404.37 503.00 405.40 501.17 406.00 499.18 C 405.74 496.33 405.46 493.48 405.49 490.62 C 403.98 488.80 402.95 485.93 404.80 483.98 C 407.94 480.45 413.09 480.27 417.25 478.58 C 417.63 478.01 418.40 476.88 418.78 476.32 C 418.80 473.85 419.78 471.31 418.79 468.92 C 416.42 462.97 414.26 456.95 412.01 450.95 C 410.65 445.26 410.45 437.44 404.08 434.94 C 401.62 429.44 400.64 423.38 400.58 417.39 C 398.92 415.35 396.55 414.36 394.04 413.85 C 390.21 414.49 386.38 416.54 382.46 415.33 C 376.75 413.04 374.68 405.43 368.00 404.89 C 367.31 403.91 366.65 402.92 366.01 401.92 C 366.23 401.39 366.68 400.34 366.90 399.81 C 366.51 397.56 366.76 395.27 367.10 393.03 C 367.94 395.88 368.52 398.82 368.71 401.79 C 372.33 405.44 377.04 407.74 380.56 411.53 C 383.26 414.59 387.96 414.85 390.99 412.13 C 393.08 411.94 395.17 411.77 397.27 411.63 C 397.84 411.87 399.00 412.34 399.57 412.58 C 402.23 414.99 403.42 418.47 402.97 422.03 C 402.46 423.43 402.80 424.43 403.99 425.05 C 403.73 427.33 404.13 429.63 405.14 431.70 C 405.67 433.29 406.57 434.82 408.14 435.60 C 410.19 436.81 411.39 438.99 411.81 441.30 C 413.10 447.60 415.21 453.74 418.08 459.50 C 418.20 461.14 418.53 463.06 420.15 463.93 C 419.72 466.05 420.52 467.98 421.85 469.61 C 421.23 473.20 420.55 477.08 417.97 479.84 C 414.91 482.50 410.60 482.49 406.96 483.85 C 404.58 486.24 407.85 489.17 407.99 491.86 C 407.79 494.94 407.18 497.98 406.84 501.06 C 406.42 505.31 402.50 507.76 400.20 510.98 C 398.50 513.17 399.12 516.07 399.23 518.63 C 399.28 519.84 399.57 521.01 400.10 522.12 C 400.63 522.28 401.68 522.60 402.20 522.77 C 405.99 523.40 409.84 523.41 413.67 523.79 C 414.49 523.54 416.14 523.04 416.97 522.79 C 419.21 517.59 421.00 512.10 424.64 507.65 C 428.35 505.06 432.51 502.73 434.72 498.59 C 435.09 496.74 435.57 494.91 436.39 493.21 C 437.59 491.94 437.36 489.98 435.89 489.05 C 435.97 484.62 436.85 480.27 437.77 475.96 C 439.28 476.07 440.02 475.36 439.99 473.84 C 445.48 470.01 451.74 467.52 458.40 466.65 L 458.67 466.64 C 459.55 466.77 461.32 467.04 462.20 467.18 C 464.35 463.19 460.31 460.14 459.53 456.44 C 458.58 452.47 459.05 448.34 459.00 444.31 C 456.69 442.24 454.15 440.42 451.32 439.14 C 450.31 438.06 448.96 437.42 447.53 437.19 C 443.77 434.05 438.71 433.77 434.54 431.53 C 434.52 431.51 434.47 431.45 434.45 431.43 C 432.60 427.57 432.68 423.18 434.29 419.27 C 436.40 414.01 436.34 408.12 438.95 403.05 C 440.96 399.02 443.41 395.21 445.10 391.03 C 446.36 387.53 449.46 385.19 452.53 383.36 Z" />
<path fill="#ffffff" d=" M 503.34 389.25 C 505.02 389.56 506.68 390.68 506.81 392.54 L 506.22 392.50 C 504.96 391.93 504.05 391.02 503.47 389.78 L 503.34 389.25 Z" />
<path fill="#7e7e7e" d=" M 477.32 394.68 C 477.38 394.68 477.49 394.68 477.54 394.68 L 477.49 394.67 L 477.32 394.68 Z" />
<path fill="#ffffff" d=" M 484.24 394.74 C 484.69 395.08 485.61 395.75 486.06 396.08 C 485.61 395.75 484.69 395.08 484.24 394.74 Z" />
<path fill="#7e7e7e" d=" M 487.43 397.91 L 487.58 398.10 L 487.74 398.39 C 487.67 398.27 487.51 398.03 487.43 397.91 Z" />
<path fill="#7e7e7e" d=" M 488.19 399.14 C 488.27 399.27 488.41 399.53 488.49 399.67 L 488.37 399.45 L 488.19 399.14 Z" />
<path fill="#537da3" d=" M 496.71 411.32 C 498.54 410.47 500.56 412.05 500.11 414.05 C 498.66 413.58 497.65 412.43 496.71 411.32 Z" />
<path fill="#ffffff" d=" M 397.27 411.63 C 397.84 411.87 399.00 412.34 399.57 412.58 C 399.00 412.34 397.84 411.87 397.27 411.63 Z" />
<path fill="#7e7e7e" d=" M 503.26 415.51 C 503.35 415.56 503.53 415.67 503.62 415.72 C 503.53 415.67 503.35 415.56 503.26 415.51 Z" />
<path fill="#7e7e7e" d=" M 402.97 422.03 C 404.16 422.65 404.50 423.65 403.99 425.05 C 402.80 424.43 402.46 423.43 402.97 422.03 Z" />
<path fill="#7e7e7e" d=" M 434.45 431.43 C 434.47 431.45 434.52 431.51 434.54 431.53 L 434.48 431.50 L 434.45 431.43 Z" />
<path fill="#ffffff" d=" M 405.14 431.70 C 406.88 432.06 408.62 433.67 408.14 435.60 C 406.57 434.82 405.67 433.29 405.14 431.70 Z" />
<path fill="#ffffff" d=" M 447.53 437.19 C 448.96 437.42 450.31 438.06 451.32 439.14 C 449.67 439.86 447.88 438.93 447.53 437.19 Z" />
<path fill="#151617" d=" M 79.50 449.67 C 80.07 448.03 81.05 446.64 82.46 445.62 C 83.40 446.33 84.35 447.04 85.31 447.75 C 85.50 450.05 83.63 451.52 82.07 452.85 C 80.85 452.15 80.33 450.73 79.50 449.67 Z" />
<path fill="#c1c1c1" d=" M 394.19 448.14 C 395.50 448.79 395.52 449.47 394.24 450.19 C 392.92 449.53 392.90 448.85 394.19 448.14 Z" />
<path fill="#ffffff" d=" M 87.81 453.77 C 89.39 453.31 89.98 453.90 89.58 455.52 C 87.98 455.93 87.39 455.35 87.81 453.77 Z" />
<path fill="#ffffff" d=" M 418.08 459.50 C 419.79 460.27 420.64 462.11 420.15 463.93 C 418.53 463.06 418.20 461.14 418.08 459.50 Z" />
<path fill="#c1c1c1" d=" M 458.40 466.65 C 458.44 466.65 458.53 466.63 458.57 466.62 L 458.67 466.64 L 458.40 466.65 Z" />
<path fill="#537da3" d=" M 437.77 475.96 C 437.94 474.72 438.68 474.01 439.99 473.84 C 440.02 475.36 439.28 476.07 437.77 475.96 Z" />
<path fill="#151617" d=" M 376.58 478.97 C 377.55 477.72 378.85 476.80 380.44 476.57 C 379.99 478.03 379.68 479.60 378.91 480.95 C 377.71 480.82 376.93 480.16 376.58 478.97 Z" />
<path fill="#151617" d=" M 360.91 488.64 C 362.03 488.99 363.12 489.42 364.19 489.91 C 363.50 490.73 362.81 491.57 362.12 492.41 C 361.78 492.06 361.10 491.38 360.76 491.04 C 360.80 490.23 360.86 489.43 360.91 488.64 Z" />
<path fill="#7e7e7e" d=" M 435.89 489.05 C 437.36 489.98 437.59 491.94 436.39 493.21 C 435.66 491.91 435.50 490.52 435.89 489.05 Z" />
<path fill="#151617" d=" M 365.58 495.57 C 365.68 494.04 365.97 492.55 367.90 492.71 C 367.76 493.47 367.48 495.00 367.34 495.76 C 366.90 495.72 366.02 495.62 365.58 495.57 Z" />
<path fill="#151617" d=" M 367.96 499.07 C 368.60 498.68 369.33 498.57 370.15 498.74 C 370.21 499.21 370.34 500.15 370.41 500.63 C 369.19 500.71 367.41 500.93 367.96 499.07 Z" />
<path fill="#151617" d=" M 383.93 507.26 C 387.53 506.30 391.00 504.88 394.62 503.99 C 395.02 504.49 395.81 505.51 396.21 506.02 C 395.24 513.32 390.92 519.51 388.00 526.11 C 386.25 530.05 382.96 533.08 381.48 537.16 C 380.60 539.08 379.47 541.22 380.95 543.21 C 379.18 546.98 376.93 550.64 376.75 554.94 C 379.02 557.04 381.27 559.19 383.01 561.77 C 382.29 565.11 383.81 568.01 384.85 571.01 C 383.88 575.19 380.38 578.33 378.73 582.27 C 378.49 586.51 377.63 590.72 375.63 594.51 C 371.04 595.83 368.19 590.40 363.65 591.20 C 362.85 591.78 362.01 592.28 361.12 592.69 C 357.77 590.55 353.55 590.21 350.52 587.54 C 348.32 586.03 347.30 583.46 345.61 581.50 C 342.00 578.69 338.68 575.46 334.63 573.26 C 332.61 571.72 329.99 573.28 327.80 572.26 C 324.03 570.77 319.59 571.30 316.20 568.87 C 314.19 567.61 312.65 565.80 310.94 564.20 C 307.50 562.55 303.41 562.19 300.54 559.45 C 297.54 557.44 295.93 553.98 292.81 552.12 C 290.01 549.97 286.12 549.87 283.65 547.20 C 277.83 546.96 272.61 544.16 266.87 543.53 C 262.21 541.92 257.68 537.33 258.61 532.04 C 259.57 530.05 261.50 528.39 261.26 526.01 C 261.02 520.45 265.37 515.72 270.44 514.04 C 271.36 512.32 272.97 510.48 275.17 510.99 C 278.82 511.36 278.86 515.66 280.07 518.30 C 282.39 517.49 284.94 517.25 287.12 516.09 C 287.57 513.92 286.38 510.07 289.48 509.55 C 292.57 509.31 295.68 508.66 298.80 508.95 C 300.97 510.73 301.78 514.18 304.95 514.53 C 309.43 515.62 312.34 519.91 316.78 520.99 C 325.40 520.55 333.94 519.02 342.11 516.24 C 347.33 515.51 352.93 515.50 357.61 512.74 C 360.46 511.40 363.46 508.92 366.79 510.30 C 369.37 511.44 372.13 510.87 374.80 510.41 C 375.82 508.27 376.64 505.89 378.92 504.77 C 380.57 505.62 382.18 506.59 383.93 507.26 Z" />
<path fill="#ffffff" d=" M 379.27 508.32 C 383.49 511.10 388.38 509.28 392.48 507.30 C 392.19 512.94 388.89 517.54 386.83 522.59 C 383.46 529.70 376.35 535.65 377.22 544.19 C 375.63 547.82 373.62 551.83 374.82 555.87 C 376.10 558.55 378.87 560.19 380.04 562.93 C 379.99 564.35 379.81 565.75 379.51 567.15 C 380.19 568.38 380.96 569.58 381.37 570.96 C 380.39 574.39 377.70 577.02 376.46 580.37 C 374.79 583.78 376.13 588.21 373.03 590.95 C 369.87 589.39 366.64 587.91 363.10 587.48 C 362.18 587.95 361.27 588.43 360.35 588.91 C 357.62 587.39 354.28 587.07 352.07 584.70 C 349.24 582.84 348.56 579.06 345.61 577.38 C 341.85 574.67 338.53 571.00 333.87 569.87 C 329.09 569.91 324.49 568.47 319.88 567.41 C 317.05 566.87 315.77 563.91 313.32 562.71 C 308.15 560.04 301.87 558.68 298.26 553.73 C 296.50 551.39 294.30 549.25 291.42 548.41 C 288.46 547.51 286.34 544.92 283.30 544.27 C 280.23 543.58 276.86 543.94 274.12 542.15 C 269.56 541.55 264.31 540.46 261.97 536.00 C 260.39 533.81 262.05 531.40 263.22 529.51 C 264.83 527.31 263.54 524.33 265.00 522.07 C 266.79 517.27 272.67 517.24 275.74 513.58 C 276.52 515.62 276.98 517.78 277.87 519.79 C 280.72 521.41 284.05 519.93 287.10 519.92 C 288.11 518.93 289.11 517.94 290.10 516.96 C 290.30 515.54 289.69 513.85 290.49 512.63 C 292.63 512.11 294.83 511.87 296.98 511.36 C 299.08 513.18 300.58 515.86 303.03 517.21 C 309.13 517.89 312.99 523.90 319.37 523.70 C 331.02 521.23 342.82 519.34 354.53 517.14 C 358.93 515.54 363.26 511.38 368.18 513.63 C 372.32 513.92 378.20 513.20 379.27 508.32 Z" />
<path fill="#ffffff" d=" M 399.23 518.63 C 400.90 519.36 401.81 521.04 402.20 522.77 C 401.68 522.60 400.63 522.28 400.10 522.12 C 399.57 521.01 399.28 519.84 399.23 518.63 Z" />
<path fill="#151617" d=" M 242.27 520.31 C 244.05 518.92 245.80 520.66 246.40 522.34 C 245.95 523.38 245.18 524.26 244.51 525.18 C 243.70 523.72 241.10 522.16 242.27 520.31 Z" />
<path fill="#151617" d=" M 254.47 521.52 C 255.29 520.19 256.36 519.26 257.92 520.30 C 258.84 522.17 257.45 523.33 255.74 523.58 C 255.42 523.07 254.78 522.04 254.47 521.52 Z" />
<path fill="#151617" d=" M 252.16 525.10 C 252.61 523.15 255.77 524.14 255.37 525.95 C 254.72 527.41 251.69 526.90 252.16 525.10 Z" />
</svg>
