<?xml version="1.0" encoding="UTF-8" ?>
<!DOCTYPE svg PUBLIC "-//W3C//DTD SVG 1.1//EN" "http://www.w3.org/Graphics/SVG/1.1/DTD/svg11.dtd">
<svg width="169pt" height="168pt" viewBox="0 0 169 168" version="1.1" xmlns="http://www.w3.org/2000/svg">
<path fill="#ffffff" d=" M 0.00 0.00 L 169.00 0.00 L 169.00 168.00 L 0.00 168.00 L 0.00 0.00 Z" />
<path fill="#6794bd" d=" M 73.45 6.83 C 89.15 4.54 105.55 6.99 119.74 14.14 C 135.72 22.07 148.82 35.66 156.12 51.94 C 163.76 68.71 165.06 88.22 159.88 105.89 C 156.11 118.86 148.87 130.81 139.11 140.15 C 126.02 152.89 108.28 160.75 90.04 161.83 C 74.63 162.87 58.95 159.18 45.64 151.35 C 31.35 143.00 19.82 130.00 13.31 114.78 C 4.81 95.21 4.91 72.11 13.57 52.62 C 23.99 28.47 47.38 10.51 73.45 6.83 Z" />
<path fill="#ffffff" d=" M 71.08 18.31 C 83.35 15.21 96.11 17.20 108.15 20.35 C 107.02 20.74 105.90 21.14 104.78 21.54 C 105.50 23.17 106.23 24.81 106.94 26.45 C 105.93 25.78 104.93 25.10 103.94 24.41 C 103.29 24.69 102.00 25.25 101.35 25.53 C 102.16 27.73 102.70 30.05 103.83 32.11 C 104.99 33.23 106.73 33.45 108.16 34.10 C 107.73 35.13 107.32 36.17 106.92 37.21 C 108.21 38.47 109.50 39.74 110.74 41.06 C 108.09 39.14 105.56 37.05 102.74 35.36 C 103.92 37.43 105.31 39.38 106.84 41.20 C 106.26 41.23 105.10 41.29 104.52 41.31 C 104.17 41.82 103.45 42.83 103.10 43.33 C 101.05 40.39 99.53 37.13 98.06 33.87 C 97.24 37.26 98.43 40.45 100.62 43.03 C 99.89 45.04 99.02 47.00 98.20 48.97 C 97.17 47.87 96.15 46.76 95.14 45.64 C 92.36 45.55 89.49 44.96 86.76 45.66 C 83.66 47.97 81.55 51.32 78.75 53.95 C 77.07 55.45 77.92 57.95 77.67 59.92 C 78.69 59.65 79.71 59.37 80.73 59.09 C 81.48 60.44 82.24 61.79 83.00 63.14 C 83.47 62.89 84.42 62.39 84.89 62.14 C 84.90 60.76 84.89 59.39 84.88 58.01 C 86.48 55.23 87.78 52.28 89.37 49.49 C 89.19 51.76 88.92 54.02 88.63 56.28 C 89.80 56.06 92.13 55.62 93.29 55.40 C 91.12 57.79 89.01 60.25 87.22 62.94 C 86.12 63.70 85.02 64.47 83.93 65.25 C 82.79 65.00 81.66 64.75 80.53 64.51 C 80.50 63.65 80.46 61.94 80.44 61.08 C 77.86 65.01 73.95 67.67 69.83 69.76 C 68.31 69.58 66.79 69.41 65.27 69.26 C 66.28 70.27 67.31 71.27 68.35 72.26 C 68.34 73.01 68.30 74.49 68.29 75.23 C 65.86 75.20 63.43 75.15 61.00 75.13 C 60.05 77.33 59.11 79.54 58.16 81.75 C 59.38 83.12 60.61 84.51 61.83 85.89 C 63.84 85.28 65.85 84.68 67.86 84.07 C 68.18 83.18 68.51 82.29 68.84 81.41 C 70.25 80.30 71.64 79.17 72.98 77.97 C 74.32 77.64 75.66 77.32 77.00 77.00 C 80.00 79.75 83.00 82.51 85.51 85.73 C 85.50 84.13 85.47 82.53 85.44 80.93 C 84.36 79.98 83.28 79.03 82.21 78.07 C 82.44 77.25 82.89 75.59 83.12 74.76 C 86.66 78.32 89.11 82.71 92.09 86.70 C 92.33 85.23 92.56 83.75 92.78 82.28 C 93.98 81.20 95.18 80.12 96.36 79.02 C 96.86 77.70 97.24 76.33 97.90 75.08 C 99.63 73.91 101.52 73.02 103.35 72.02 C 105.23 73.43 107.15 74.81 109.07 76.17 C 104.11 77.13 99.65 79.52 95.33 82.02 C 95.58 82.62 96.08 83.80 96.33 84.39 C 98.42 84.97 100.52 85.54 102.60 86.16 C 103.34 85.74 104.09 85.33 104.84 84.91 C 104.88 87.11 104.92 89.30 104.97 91.50 C 100.34 92.97 95.59 92.40 91.09 90.81 C 90.18 91.84 89.27 92.86 88.37 93.90 C 85.12 92.69 81.83 91.59 78.43 90.91 C 77.91 89.17 77.45 87.41 77.01 85.65 C 70.42 85.66 63.80 86.32 57.34 87.57 C 57.13 88.25 56.71 89.60 56.49 90.27 C 52.91 92.73 49.42 95.30 45.98 97.95 C 45.79 101.75 44.69 105.38 43.88 109.07 C 44.72 112.74 47.07 115.87 49.04 119.03 C 52.00 123.47 58.05 122.92 62.70 123.40 C 61.91 121.24 61.10 119.09 60.42 116.90 C 61.90 118.69 63.05 120.72 64.05 122.81 C 65.81 123.03 67.57 123.24 69.34 123.44 C 71.20 124.79 73.10 126.07 75.05 127.30 C 74.86 133.57 79.94 137.75 82.54 142.96 C 81.54 144.14 80.54 145.33 79.55 146.52 C 80.56 148.11 81.57 149.69 82.59 151.28 C 67.42 150.50 52.48 144.88 41.02 134.82 C 28.24 123.83 19.84 107.87 18.16 91.08 C 16.34 75.02 20.77 58.46 30.04 45.26 C 30.29 46.41 30.78 48.71 31.03 49.86 C 32.08 47.15 33.06 44.42 34.00 41.67 C 35.20 43.60 36.45 45.52 37.70 47.43 C 36.81 47.63 35.02 48.03 34.13 48.23 C 34.87 49.48 35.63 50.72 36.40 51.96 C 38.82 48.88 41.54 45.94 43.07 42.28 C 44.05 39.85 45.58 37.73 47.25 35.74 C 46.89 35.52 46.18 35.10 45.82 34.89 C 46.72 33.70 47.61 32.51 48.50 31.31 C 46.04 31.83 43.60 32.41 41.15 32.94 C 44.66 30.15 48.35 27.59 52.17 25.23 C 52.92 25.54 54.41 26.15 55.16 26.46 C 54.53 27.71 53.90 28.97 53.27 30.22 C 51.97 30.22 50.67 30.21 49.37 30.21 C 49.22 31.17 48.91 33.07 48.75 34.03 C 53.97 33.15 58.65 29.87 60.65 24.88 C 59.29 24.62 56.57 24.11 55.21 23.85 C 57.30 23.16 59.41 22.52 61.54 21.97 C 61.47 22.93 61.34 24.84 61.27 25.80 C 62.57 24.97 63.88 24.14 65.19 23.30 C 65.74 24.91 66.29 26.53 66.83 28.14 C 65.31 29.81 63.78 31.46 62.23 33.11 C 61.25 32.99 59.30 32.77 58.33 32.66 C 58.91 33.85 59.50 35.04 60.09 36.23 C 58.89 36.16 57.69 36.09 56.49 36.04 C 54.52 38.11 52.56 40.20 50.66 42.33 C 56.43 44.63 62.33 41.22 68.19 40.97 C 68.17 40.49 68.11 39.51 68.08 39.03 C 71.59 38.65 72.70 35.52 73.63 32.61 C 75.28 31.83 76.93 31.05 78.59 30.28 C 78.86 29.10 79.13 27.92 79.41 26.74 C 78.10 26.58 76.79 26.42 75.48 26.27 C 75.60 25.71 75.83 24.59 75.94 24.03 C 73.06 23.28 70.17 22.59 67.26 22.00 C 68.45 20.72 69.31 18.85 71.08 18.31 Z" />
<path fill="#6794bd" d=" M 91.16 30.17 C 94.01 28.39 91.59 33.49 91.16 30.17 Z" />
<path fill="#6794bd" d=" M 83.14 34.06 C 83.88 33.56 84.63 33.05 85.37 32.54 C 85.83 33.48 86.29 34.41 86.76 35.35 C 86.09 35.64 84.77 36.21 84.10 36.50 C 83.86 35.89 83.38 34.67 83.14 34.06 Z" />
<path fill="#6794bd" d=" M 61.74 46.83 C 63.24 46.75 64.74 46.69 66.24 46.65 C 66.40 47.46 66.73 49.08 66.89 49.89 C 65.07 49.05 63.39 47.96 61.74 46.83 Z" />
<path fill="#6794bd" d=" M 67.73 59.30 C 68.67 58.51 69.62 57.72 70.56 56.92 C 70.61 60.16 71.16 63.35 72.31 66.39 C 70.71 66.64 69.10 66.85 67.49 66.99 C 68.91 64.54 68.42 61.86 67.73 59.30 Z" />
<path fill="#6794bd" d=" M 63.11 63.30 C 64.18 62.57 65.25 61.85 66.34 61.14 C 66.47 62.17 66.60 63.20 66.71 64.23 C 65.94 64.63 64.40 65.42 63.63 65.82 C 63.50 65.19 63.24 63.93 63.11 63.30 Z" />
<path fill="#ffffff" d=" M 151.37 75.40 C 153.67 88.00 151.13 101.18 145.79 112.70 C 138.40 128.59 124.48 141.06 108.13 147.22 C 110.76 145.16 113.46 143.19 116.16 141.22 C 115.19 138.83 114.20 136.43 113.22 134.04 C 117.08 128.59 122.20 123.81 124.31 117.31 C 125.23 114.84 126.05 112.33 126.90 109.84 C 124.37 110.90 121.83 111.90 119.24 112.80 C 116.87 111.24 114.20 109.99 112.23 107.89 C 109.01 102.98 105.48 98.20 103.48 92.62 C 108.77 96.56 111.83 102.86 117.68 106.10 C 118.12 107.73 118.54 109.36 118.97 110.99 C 125.26 107.10 129.82 100.87 131.90 93.80 C 130.79 92.56 129.69 91.31 128.61 90.05 C 127.28 91.88 125.92 93.69 124.53 95.49 C 122.39 93.07 120.46 90.47 119.05 87.55 C 121.03 88.14 123.00 88.74 124.95 89.40 C 129.34 89.06 133.62 88.04 137.10 85.20 C 139.21 85.65 141.34 86.02 143.46 86.42 C 145.04 88.72 146.56 91.05 148.14 93.35 C 151.68 87.98 149.12 81.22 151.37 75.40 Z" />
</svg>
