<?xml version="1.0" encoding="UTF-8" ?>
<!DOCTYPE svg PUBLIC "-//W3C//DTD SVG 1.1//EN" "http://www.w3.org/Graphics/SVG/1.1/DTD/svg11.dtd">
<svg width="128pt" height="128pt" viewBox="0 0 128 128" version="1.1" xmlns="http://www.w3.org/2000/svg">
<path fill="#f4f4f4" d=" M 0.00 0.00 L 58.54 0.00 C 44.36 1.32 30.71 7.60 20.29 17.28 C 6.75 30.22 -1.18 49.20 0.24 67.99 C 0.53 73.67 1.99 79.20 3.60 84.63 C 8.91 100.17 20.21 113.63 34.98 120.96 C 42.62 125.16 51.22 127.15 59.83 128.00 L 0.00 128.00 L 0.00 0.00 Z" />
<path fill="#1f4e78" d=" M 58.54 0.00 L 69.08 0.00 C 83.85 1.39 98.08 7.94 108.73 18.27 C 118.04 27.69 124.75 39.90 126.80 53.05 C 128.39 63.57 127.70 74.48 124.39 84.62 C 119.17 99.96 108.08 113.23 93.63 120.65 C 85.51 125.09 76.39 127.34 67.20 128.00 L 59.83 128.00 C 51.22 127.15 42.62 125.16 34.98 120.96 C 20.21 113.63 8.91 100.17 3.60 84.63 C 1.99 79.20 0.53 73.67 0.24 67.99 C -1.18 49.20 6.75 30.22 20.29 17.28 C 30.71 7.60 44.36 1.32 58.54 0.00 Z" />
<path fill="#f4f4f4" d=" M 69.08 0.00 L 128.00 0.00 L 128.00 128.00 L 67.20 128.00 C 76.39 127.34 85.51 125.09 93.63 120.65 C 108.08 113.23 119.17 99.96 124.39 84.62 C 127.70 74.48 128.39 63.57 126.80 53.05 C 124.75 39.90 118.04 27.69 108.73 18.27 C 98.08 7.94 83.85 1.39 69.08 0.00 Z" />
<path fill="#f4f4f4" d=" M 55.70 11.80 C 59.61 11.72 60.66 16.60 64.62 16.41 C 65.15 17.87 65.76 19.30 66.40 20.72 C 64.83 21.88 63.01 22.61 61.09 22.90 C 59.61 24.76 58.53 26.88 58.09 29.23 C 58.84 30.05 59.58 30.87 60.31 31.71 C 63.80 32.01 66.99 33.50 70.31 34.48 C 71.20 36.05 71.97 37.70 73.01 39.19 C 73.98 40.14 75.48 39.07 76.62 39.15 C 76.11 38.02 75.60 36.90 75.09 35.78 C 76.31 34.57 77.51 33.35 78.67 32.08 C 77.82 31.30 76.98 30.53 76.13 29.75 C 76.39 29.24 76.93 28.24 77.19 27.73 C 76.99 26.90 76.59 25.24 76.39 24.41 C 79.33 24.52 82.15 25.34 84.81 26.56 C 85.20 27.83 85.56 29.10 85.92 30.37 C 88.10 30.33 90.10 29.58 91.73 28.13 C 92.86 30.18 94.01 32.22 94.97 34.36 C 96.16 34.60 97.34 34.84 98.53 35.09 C 99.38 36.08 100.26 37.07 101.14 38.05 C 99.57 38.89 98.03 39.80 96.41 40.52 C 93.46 40.86 90.22 40.23 87.56 41.84 C 86.26 42.86 85.17 44.12 84.00 45.28 C 85.86 43.69 88.06 42.72 90.47 42.39 C 90.54 43.88 90.58 45.36 90.63 46.84 C 88.56 47.82 86.53 48.88 84.48 49.90 C 84.43 50.33 84.32 51.19 84.26 51.62 C 82.20 53.15 80.12 54.70 77.76 55.74 C 77.66 57.60 77.75 59.48 77.42 61.31 C 76.10 63.51 71.84 63.92 71.97 66.73 C 73.89 68.93 74.06 71.82 73.84 74.61 C 72.12 73.07 71.43 70.84 70.63 68.76 C 68.93 68.26 67.24 67.74 65.55 67.19 C 64.84 67.26 63.40 67.41 62.68 67.49 C 62.68 67.89 62.67 68.70 62.66 69.10 C 61.76 68.58 60.86 68.07 59.96 67.55 C 57.91 68.35 56.10 69.59 54.39 70.96 C 54.73 74.30 53.49 77.84 54.97 81.00 C 55.56 82.68 57.05 84.15 58.93 84.07 C 62.64 84.79 62.31 78.58 66.37 79.39 C 65.55 82.06 64.71 84.73 64.02 87.44 C 65.72 87.20 67.41 86.95 69.10 86.69 C 69.65 88.19 70.90 89.67 70.31 91.35 C 69.41 93.19 70.70 94.81 71.47 96.41 C 72.27 96.40 73.88 96.37 74.69 96.36 C 74.27 97.07 73.86 97.79 73.44 98.50 C 70.49 96.29 67.45 94.00 65.78 90.60 C 63.13 90.19 60.83 88.91 58.90 87.09 C 57.80 85.77 56.08 86.75 54.68 86.82 C 51.68 85.51 48.74 83.99 46.18 81.92 C 46.32 77.29 42.33 74.52 39.93 71.10 C 38.22 69.11 37.13 66.58 34.93 65.05 C 35.87 68.67 37.92 71.81 39.61 75.10 C 38.52 73.95 37.44 72.80 36.35 71.66 C 35.00 68.26 33.70 64.58 30.80 62.18 C 28.44 60.22 26.51 57.73 25.36 54.87 C 24.61 51.22 25.48 47.46 25.12 43.77 C 25.67 44.20 26.76 45.06 27.31 45.49 C 27.26 44.88 27.17 43.67 27.13 43.07 C 24.43 40.62 21.45 38.46 19.22 35.53 C 24.30 28.27 30.57 21.56 38.59 17.55 C 40.23 16.77 41.74 18.13 43.22 18.67 C 44.27 17.14 46.14 16.79 47.76 16.13 C 46.39 15.36 44.97 14.68 43.59 13.93 C 45.03 14.01 46.47 14.08 47.91 14.15 C 47.97 14.97 48.10 16.60 48.17 17.42 C 51.14 18.06 55.59 16.03 56.85 19.80 C 56.88 17.96 58.01 16.79 59.44 15.83 C 57.86 14.81 55.85 13.99 55.70 11.80 Z" />
<path fill="#f4f4f4" d=" M 69.36 15.22 C 72.25 13.35 71.55 17.78 72.14 19.40 C 70.19 19.18 68.51 18.25 67.18 16.83 L 67.82 16.82 L 69.36 15.22 Z" />
<path fill="#f4f4f4" d=" M 77.51 96.79 C 79.06 94.75 81.18 93.28 83.57 92.36 C 83.52 93.83 83.45 95.29 83.37 96.75 C 83.64 95.74 84.20 93.71 84.48 92.69 C 86.44 93.65 88.37 94.66 90.30 95.68 C 93.80 94.01 96.83 97.18 98.67 99.83 C 99.82 100.13 100.96 100.44 102.11 100.76 C 94.25 108.76 83.99 114.76 72.75 116.19 C 73.28 114.73 73.83 113.28 74.38 111.83 C 74.03 111.35 73.31 110.40 72.95 109.92 C 74.26 107.94 76.20 106.27 76.91 103.95 C 76.95 101.40 76.35 98.89 75.92 96.40 C 76.45 96.49 76.98 96.64 77.51 96.79 Z" />
</svg>
