<?xml version="1.0" encoding="UTF-8" ?>
<!DOCTYPE svg PUBLIC "-//W3C//DTD SVG 1.1//EN" "http://www.w3.org/Graphics/SVG/1.1/DTD/svg11.dtd">
<svg width="100pt" height="96pt" viewBox="0 0 100 96" version="1.1" xmlns="http://www.w3.org/2000/svg">
<path fill="#ffffff" d=" M 0.00 0.00 L 100.00 0.00 L 100.00 96.00 L 0.00 96.00 L 0.00 0.00 Z" />
<path fill="#a9c3d9" d=" M 44.25 10.26 C 55.76 6.57 70.32 14.43 71.25 27.01 C 72.53 36.76 64.68 45.64 55.41 47.49 C 46.91 49.44 37.23 46.00 32.46 38.56 C 29.34 33.92 28.97 27.85 30.62 22.61 C 32.88 16.65 38.18 12.06 44.25 10.26 Z" />
<path fill="#a9c3d9" d=" M 26.26 45.36 C 31.60 43.20 35.78 47.92 40.40 49.66 C 48.93 53.36 58.95 51.63 66.51 46.49 C 70.86 43.25 76.72 45.35 80.55 48.42 C 85.93 53.07 87.67 60.43 88.52 67.19 C 88.88 71.73 89.44 76.79 86.79 80.80 C 84.01 84.93 78.78 86.57 73.99 86.53 C 58.31 86.52 42.62 86.50 26.94 86.54 C 21.49 86.65 15.35 84.30 13.17 78.93 C 10.98 73.06 12.24 66.55 13.60 60.62 C 15.20 54.03 19.24 47.12 26.26 45.36 Z" />
</svg>
