<?xml version="1.0" standalone="no"?>
<!DOCTYPE svg PUBLIC "-//W3C//DTD SVG 20010904//EN"
 "http://www.w3.org/TR/2001/REC-SVG-20010904/DTD/svg10.dtd">
<svg version="1.0" xmlns="http://www.w3.org/2000/svg"
 width="128" height="128" viewBox="0 0 256.000000 256.000000"
 preserveAspectRatio="xMidYMid meet">
<metadata>
Created by potrace 1.12, written by Peter Selinger 2001-2015
</metadata>
<g transform="translate(0.000000,256.000000) scale(0.100000,-0.100000)"
fill="#1f4e78" stroke="none">
<path d="M1013 2373 c-35 -7 -80 -55 -92 -99 -13 -47 -14 -462 -1 -518 5 -22
22 -53 39 -70 30 -29 36 -31 129 -36 l97 -5 3 -137 3 -138 -385 0 c-248 0
-395 -4 -413 -11 -15 -5 -41 -22 -56 -37 -55 -52 -61 -74 -65 -249 l-4 -163
-87 0 c-69 0 -93 -4 -119 -20 -58 -35 -62 -60 -62 -348 0 -253 1 -260 23 -293
43 -65 62 -69 342 -69 280 0 299 4 342 69 22 33 23 40 23 300 0 246 -2 268
-20 298 -29 49 -66 63 -165 63 l-85 0 0 140 0 140 365 0 366 0 -3 -137 -3
-138 -98 -5 c-98 -5 -99 -5 -132 -41 -43 -48 -47 -83 -43 -364 5 -335 -13
-320 368 -320 381 0 363 -15 368 320 4 281 0 316 -43 364 -33 36 -34 36 -132
41 l-98 5 -3 138 -3 137 366 0 365 0 0 -140 0 -140 -85 0 c-99 0 -136 -14
-165 -63 -18 -30 -20 -52 -20 -298 0 -260 1 -267 23 -300 43 -65 62 -69 342
-69 280 0 299 4 342 69 22 33 23 40 23 293 0 288 -4 313 -62 348 -26 16 -50
20 -119 20 l-87 0 -4 163 c-4 175 -10 197 -65 249 -15 15 -41 32 -56 37 -18 7
-165 11 -413 11 l-385 0 3 138 3 137 98 5 c98 5 99 5 132 41 43 48 47 83 43
364 -5 333 10 319 -353 321 -143 1 -270 0 -282 -3z m504 -125 c23 -21 23 -25
23 -232 -1 -227 -3 -236 -54 -256 -15 -5 -107 -10 -206 -10 -99 0 -191 5 -206
10 -51 20 -53 29 -54 254 0 280 -24 256 259 256 207 0 216 -1 238 -22z m-948
-1449 c17 -6 36 -19 41 -29 6 -11 10 -111 10 -229 0 -196 -1 -212 -19 -230
-29 -29 -66 -33 -269 -29 l-184 3 -24 28 c-24 28 -24 31 -24 230 0 217 4 237
54 257 32 13 377 12 415 -1z m917 1 c52 -20 53 -29 53 -255 0 -226 -1 -235
-53 -255 -36 -13 -376 -13 -412 0 -52 20 -53 29 -53 255 0 224 2 235 50 254
33 13 381 14 415 1z m950 -23 c24 -28 24 -31 24 -232 0 -201 0 -204 -24 -232
l-24 -28 -184 -3 c-203 -4 -240 0 -269 29 -18 18 -19 34 -19 228 0 115 3 217
6 226 15 38 60 45 267 42 l199 -2 24 -28z"/>
</g>
</svg>
