<?xml version="1.0" encoding="UTF-8" ?>
<!DOCTYPE svg PUBLIC "-//W3C//DTD SVG 1.1//EN" "http://www.w3.org/Graphics/SVG/1.1/DTD/svg11.dtd">
<svg width="165pt" height="107pt" viewBox="0 0 165 107" version="1.1" xmlns="http://www.w3.org/2000/svg">
<path fill="#ffffff" d=" M 0.00 0.00 L 165.00 0.00 L 165.00 107.00 L 0.00 107.00 L 0.00 0.00 Z" />
<path fill="#88b6e0" d=" M 74.70 25.31 C 71.93 18.44 77.71 10.31 84.94 10.02 C 92.57 9.44 99.32 17.99 96.37 25.23 C 94.87 29.78 90.49 32.27 86.10 33.38 C 86.22 41.56 86.01 49.73 86.00 57.90 C 91.00 58.33 95.69 60.24 99.71 63.20 C 104.64 57.12 109.67 51.13 114.55 45.02 C 112.93 42.00 111.24 38.59 112.30 35.08 C 113.97 27.25 124.48 23.29 130.86 28.23 C 137.67 32.03 137.65 43.05 130.85 46.85 C 126.48 50.16 120.44 49.38 116.19 46.29 C 111.20 52.41 106.17 58.49 101.20 64.61 C 104.25 68.29 106.15 72.70 107.10 77.37 C 114.03 77.26 120.96 77.17 127.89 77.08 C 129.36 72.35 132.88 67.91 138.05 67.18 C 145.79 65.61 153.50 73.27 151.86 81.03 C 150.80 88.49 141.89 93.35 135.09 89.95 C 130.63 88.13 128.48 83.48 127.72 79.00 C 120.87 79.16 114.03 79.22 107.18 79.37 C 106.83 87.41 102.40 95.40 94.91 98.81 C 85.65 103.56 73.24 100.19 67.67 91.40 C 65.23 87.85 64.28 83.56 63.96 79.33 C 56.08 79.31 48.19 79.14 40.31 79.00 C 39.62 84.54 35.99 90.31 30.00 90.94 C 22.75 92.15 16.34 84.97 17.07 77.97 C 17.59 71.10 24.75 65.16 31.61 67.47 C 36.26 68.58 38.57 73.05 40.25 77.09 C 48.18 77.22 56.12 77.14 64.04 77.53 C 64.71 72.80 66.80 68.47 69.74 64.74 C 64.06 58.38 58.54 51.86 52.90 45.45 C 49.09 48.12 43.79 49.14 39.75 46.36 C 33.89 43.15 32.10 34.59 36.56 29.49 C 40.76 23.65 50.25 23.60 54.46 29.46 C 58.12 33.58 57.54 39.75 54.39 43.98 C 59.90 50.53 65.63 56.89 71.12 63.45 C 74.88 60.52 79.31 58.60 84.04 57.94 C 83.97 49.74 84.24 41.54 84.11 33.34 C 80.16 31.87 76.09 29.57 74.70 25.31 Z" />
<path fill="#ffffff" d=" M 83.22 59.20 C 94.65 57.57 105.97 67.42 105.96 78.95 C 106.54 89.47 97.61 99.38 87.09 99.89 C 75.87 101.13 65.01 91.31 65.14 80.02 C 64.55 69.76 73.06 60.19 83.22 59.20 Z" />
</svg>
